<?xml version="1.0" encoding="utf-8"?>
<!-- Generator: Adobe Illustrator 28.2.0, SVG Export Plug-In . SVG Version: 6.00 Build 0)  -->
<!DOCTYPE svg PUBLIC "-//W3C//DTD SVG 1.1//EN" "http://www.w3.org/Graphics/SVG/1.1/DTD/svg11.dtd" [
	<!ENTITY ns_extend "http://ns.adobe.com/Extensibility/1.0/">
	<!ENTITY ns_ai "http://ns.adobe.com/AdobeIllustrator/10.0/">
	<!ENTITY ns_graphs "http://ns.adobe.com/Graphs/1.0/">
	<!ENTITY ns_vars "http://ns.adobe.com/Variables/1.0/">
	<!ENTITY ns_imrep "http://ns.adobe.com/ImageReplacement/1.0/">
	<!ENTITY ns_sfw "http://ns.adobe.com/SaveForWeb/1.0/">
	<!ENTITY ns_custom "http://ns.adobe.com/GenericCustomNamespace/1.0/">
	<!ENTITY ns_adobe_xpath "http://ns.adobe.com/XPath/1.0/">
]>
<svg version="1.1" id="Layer_1" xmlns:x="&ns_extend;" xmlns:i="&ns_ai;" xmlns:graph="&ns_graphs;"
	 xmlns="http://www.w3.org/2000/svg" xmlns:xlink="http://www.w3.org/1999/xlink" x="0px" y="0px" viewBox="0 0 547.86 556.65"
	 style="enable-background:new 0 0 547.86 556.65;" xml:space="preserve">
<style type="text/css">
	.st0{fill:#112F53;}
	.st1{fill:#B5D56A;}
	.st2{fill:#09233F;}
	.st3{fill:#FFFFFF;}
</style>
<metadata><?xpacket begin="﻿" id="W5M0MpCehiHzreSzNTczkc9d"?>
<x:xmpmeta xmlns:x="adobe:ns:meta/" x:xmptk="Adobe XMP Core 9.1-c002 79.e06fd49, 2023/10/04-19:08:29        ">
   <rdf:RDF xmlns:rdf="http://www.w3.org/1999/02/22-rdf-syntax-ns#">
      <rdf:Description rdf:about=""
            xmlns:xmp="http://ns.adobe.com/xap/1.0/"
            xmlns:xmpGImg="http://ns.adobe.com/xap/1.0/g/img/"
            xmlns:xmpTPg="http://ns.adobe.com/xap/1.0/t/pg/"
            xmlns:stDim="http://ns.adobe.com/xap/1.0/sType/Dimensions#"
            xmlns:xmpG="http://ns.adobe.com/xap/1.0/g/"
            xmlns:dc="http://purl.org/dc/elements/1.1/">
         <xmp:CreatorTool>Adobe Illustrator 28.2 (Windows)</xmp:CreatorTool>
         <xmp:CreateDate>2025-11-11T18:42:17+05:00</xmp:CreateDate>
         <xmp:Thumbnails>
            <rdf:Alt>
               <rdf:li rdf:parseType="Resource">
                  <xmpGImg:width>252</xmpGImg:width>
                  <xmpGImg:height>256</xmpGImg:height>
                  <xmpGImg:format>JPEG</xmpGImg:format>
                  <xmpGImg:image>/9j/4AAQSkZJRgABAgEASABIAAD/7QAsUGhvdG9zaG9wIDMuMAA4QklNA+0AAAAAABAASAAAAAEA&#xA;AQBIAAAAAQAB/+4ADkFkb2JlAGTAAAAAAf/bAIQABgQEBAUEBgUFBgkGBQYJCwgGBggLDAoKCwoK&#xA;DBAMDAwMDAwQDA4PEA8ODBMTFBQTExwbGxscHx8fHx8fHx8fHwEHBwcNDA0YEBAYGhURFRofHx8f&#xA;Hx8fHx8fHx8fHx8fHx8fHx8fHx8fHx8fHx8fHx8fHx8fHx8fHx8fHx8fHx8f/8AAEQgBAAD8AwER&#xA;AAIRAQMRAf/EAaIAAAAHAQEBAQEAAAAAAAAAAAQFAwIGAQAHCAkKCwEAAgIDAQEBAQEAAAAAAAAA&#xA;AQACAwQFBgcICQoLEAACAQMDAgQCBgcDBAIGAnMBAgMRBAAFIRIxQVEGE2EicYEUMpGhBxWxQiPB&#xA;UtHhMxZi8CRygvElQzRTkqKyY3PCNUQnk6OzNhdUZHTD0uIIJoMJChgZhJRFRqS0VtNVKBry4/PE&#xA;1OT0ZXWFlaW1xdXl9WZ2hpamtsbW5vY3R1dnd4eXp7fH1+f3OEhYaHiImKi4yNjo+Ck5SVlpeYmZ&#xA;qbnJ2en5KjpKWmp6ipqqusra6voRAAICAQIDBQUEBQYECAMDbQEAAhEDBCESMUEFURNhIgZxgZEy&#xA;obHwFMHR4SNCFVJicvEzJDRDghaSUyWiY7LCB3PSNeJEgxdUkwgJChgZJjZFGidkdFU38qOzwygp&#xA;0+PzhJSktMTU5PRldYWVpbXF1eX1RlZmdoaWprbG1ub2R1dnd4eXp7fH1+f3OEhYaHiImKi4yNjo&#xA;+DlJWWl5iZmpucnZ6fkqOkpaanqKmqq6ytrq+v/aAAwDAQACEQMRAD8A9U4q7FXYq7FXYq7FXYq7&#xA;FXYq7FWN+Y/zJ8ieW+a6zrdrbTR152wf1ZxT/imPnJ/wuTjjlLkGEpxHMvNda/5yv8kWrlNL0691&#xA;Jh/uxglvGfkWLv8AemXx0kurUdQOjENS/wCcutfkr+jPL9rbfy/WZpLjt34C375aNGOpYHUnuYrq&#xA;f/OTH5rXlRBeW2ng12tbaM9fAz+scsGmgGBzyYjqf5nfmHqbMbzzHqDq32o1uJI4/D+7jKp+GWDF&#xA;EdGs5JHqx+5vr26blc3Ek7VrWV2c18fiJyYDG1HFV8U00Lc4pGjalOSEqafMYqmll5x83WNPqWua&#xA;ha8RQejdTR0AFP2WHbImET0SJHvZLpn56/mvp5HpeYZ5lHVblYritfeVHb8cgcED0ZjNIdWbaL/z&#xA;ll5ytiF1fSrLUYx1MRktZD82rMn/AAmVS0kehbBqT1ekeXP+covy71IpHqiXOiztQEzJ60NT4SQ8&#xA;m+koMolpZDlu2x1ETzepaN5g0PW7X63o9/b6hb7VktpFlAJ7NxJ4n2OY8okc24SB5I/Al2KuxV2K&#xA;uxV2KuxV2KuxV2KuxV2KuxV2KuxV2KpX5g80+XfLtmbzXNRg0+334tM4UsR2RPtOfZQclGBlyRKQ&#xA;HN4r5v8A+csNHtjJb+VdMe/kFQt9eVhh27rEv7xwf8oocyoaQ9S48tQOjxbzV+cf5jeZi6ahrE0V&#xA;q+xs7Q/V4aeBWOhcf65OZMMMY8g48ssj1YWSSanrlrB2KuxVfDbzzvwgjaV/5UUsfuGCUgOZpU3t&#xA;/JPnC4AMWi3rKejG3kVT9LADMaWvwR5zj8wnhKYRflZ5/lXkujygdPjeJD9zODlB7W0w/jH2p4Cr&#xA;/wDKoPzF/wCrT/08W3/VXIfy1pf5/wBkv1J8OSjJ+Vf5gRoXbR5CB2V4mP3K5OTHa+mP8Y+1HAUv&#xA;ufI/nG2qZtFvQB1ZYJGUU/ylBGXQ1+CXKcfmEcJSea3ngfhPG0T/AMrqVP3HMqMgeRtCzCrsVRWm&#xA;atqmlXa3mmXk1jdp9ie3kaJx/skIOAgHmoJD2TyR/wA5S+atMZLbzPbrrVmCAblAsN0q/wCxAjkp&#xA;7gH/ACsxp6UHls5ENQRzfQ/kr8x/J/nO1M2hX6zSoKz2Un7u5i/14jvTf7QqvvmHPHKPNyYTEuTJ&#xA;srZuxV2KuxV2KuxV2KuxV2KuxV2KuxVJvNHnDy15W083+vX8VlBv6Yc1kkI34xxirufZRkowMjQY&#xA;ykBzfPPnv/nKnV7syWnk61/R1v0/SN0qyXDDxSI8o0/2XL6MzcelA+pxp6g9Hh2raxqur3sl9ql5&#xA;NfXkpq887tI59qsTsOwzKAA5OMSTzQmFVS3tri5mWC3ieaZzRIo1Lsx8AoqTglIRFk0FZ55a/Iv8&#xA;xNd4ulh9Sgb/AHbdHh/wqhmB/wBYDNfPtTFyhcz/AERt8+TZHFIvUvL/APzibbLxk1zVXkOxMUAE&#xA;Yr4H+8JHyYZjy1molyEYe/1H9Abo6bveh6L+QX5baXQjTEuHH7U49Xfx/e+oR9ByiUMkvqySPu9P&#xA;3NowxDMbLyp5dsohFbWEUca9EA2+7plf5PFzIv37/ezEAjo7Gxj/ALu3iT/VRR+oZdHDAcoj5JpX&#xA;CqooAAPAZYAl2KrXiif7aK3zAOAxB5hUPLpWmS152kRJ78FB+8CuUy02OXOI+SKCW3/kry5fRNFP&#xA;agxt9pftKf8AYvyX8MpPZ+K7jcT5FiYAsG1//nHjyRqQZorOKGQj4WiBtyD4/uiEP0pkox1OP6Ml&#xA;+Ut/tazgBeWeaf8AnGPUrMPLpN43AdI7pea/8joht9KZdHtfLj/vse3fH9X7WmWAh5P5g8leZ/L7&#xA;f7lLCSKGtBcr8cJr0/eLVa+x3zaabXYc30Ss93X5NJiQkmZaERp+oX+nXkV7YXElpeQNyhuIWKSI&#xA;w7qykEYkXzUGn0V+Vf8Azk2srQ6R54Ko5okOuIOKk9B9ZQbL/rrt4gdcwsul6xcrHn6F9DQzQzwp&#xA;NBIssMih45EIZWVhUFSNiDmE5S/FXYq7FXYq7FXYq7FXYqtllihieWV1jijUvJI5CqqqKkknYADF&#xA;Xgn5nf8AOTtjYGXS/JSpe3YqkmsSCtvGeh9FP92n/KPw/wCsMzMWlveTjZNRWwfN+t69rOu6hJqO&#xA;sXkt9ey/bnmYsadgOyqOyjYZmxiAKDikk80DhQm/lzyl5i8x3YttGsZbt6hWdRSNSf5nPwj5dcoz&#xA;6rHiHqPw6n3BMYk8nuXkr/nFaR/TufNN5QbE2dvUD5Mxox+jic109bln9A4B3nc/Ll8/k5ENP3vb&#xA;fLX5c+TvLcAi0vTYoj+1IVBZv9Y/tfM75jHTiRuZMz5/q5ORHGAyUAAAAUA6AZeAzdirsVdirsVd&#xA;irsVdirsVdirsVdiqVap5Z0jUUdZYQjOCGZAKEHryX7LV98w82hxz3rhl3hiYgvDfzD/AOcdNPlW&#xA;S80gLYT7kPECbZj/AJcQ3i+a7exwY9dqNNtk/eY+/qPx5/Nxp4Hz95h8s615fvjZ6rbNBJ1jfrHI&#xA;v8yONmH+Zzf6bVY80eKBtxzEhLMyEPU/yd/PHVvJVxHpmpl77yxI3xW9ayWxY7yQV7dzH0Pah60Z&#xA;sAluObdiymO3R9faXqmn6rp9vqOnXCXVjdIJLe4jNVZT3H8R2zWkEGi5oNorAl2KuxV2KuxV2KpX&#xA;5m8z6J5Z0efV9auVtbGCnJzuzMfsoijdmbsBkoxMjQRKQAsvkL81vzw8weeJ5LK3L6d5cVv3Vgp+&#xA;OUA7PcMPtHvx+yPc75scWAQ97g5Mpl7nmuXtSM0jRtV1i9Sx0y1ku7qT7MUYrtWlWPRRv1O2V5s0&#xA;MceKZoKBb6C/Lv8A5xeSkV/5vl5HZhp8RIX5O2zH8PpGarJrMuTaHoj3n6vl0+Lkw0/e990Xy/o2&#xA;i2iWul2kdrBGOKrGoWg+jKYYYxN9T1O5+blCIHJMMtS7FXYq7FXYq7FXYq7FXYq7FXYq7FXYq7FX&#xA;Yq4gEUO4PUYqwrzv+W+j6/p00DWyTRPu1sdqN/PE3VGHtmsy6SWOXiYDwy7u/wDHc1Txgvkz8w/y&#xA;11LyndGVOVxpEjlYbgijI3++5h2bwPQ/hm57O7TjqBR9OQcx+pw5wphmbRg9R/JH84rryRqo0/Up&#xA;Hl8sXj/6RFu31d2IHrxihP8ArqOo9wMoz4eIWObbiy8J8n2Nb3EFzbxXFvIs1vMiyQyoQyOjiqsr&#xA;DYgg1BzWEOeqYq7FXYq7FUr80eZtH8s6Hda1q8wgsrVaserMx2VEHdmOwGSjEyNBEpACy+J/zL/M&#xA;zXfPmuNfXzGGxhJXT9OViY4Yz93J2/abv7CgzaYsQgHX5MhkWIZYwZ/+WP5O+YfO90sqqbTR1P72&#xA;9cfaANCIwevhy6fPpmDqdaIHggOKf2D3/q5tmPGZPrTyR+XPljyfYLbaVaqsmxluWFZHan2ix3/z&#xA;8M1wxky4pnin93uHRzYYxFlGWs3Yq7FXYq7FXYq7FXYq7FXYq7FXYq7FXYq7FXYq7FXYq7FWNecf&#xA;KFlrdhOrW6TGVCtxAw+GVPA/5Q7HNdq9KSfEx7ZB9rCcLfHX5k/l9c+U9T5RBpNIuWP1WZvtIw3M&#xA;Un+UO3iPpzcdmdojURo7ZI8x+lwZwph2bNg+if8AnGb81mSVfI2sTVjeraHO5+y27PbE+B+0n0ju&#xA;ozD1OL+IOTgyfwl9JZguW7FXYq0zKilmIVVFWY7AAdzir4y/PX81JfOvmRrSxlP+HNLdksUB+GaQ&#xA;bPcMO/LongvuTmzwYuEebgZsnEfJ5ll7U9a/JT8lbvzfdx6vqyND5fhaoB2NwQeg/wAjx8c1ur1Z&#xA;vw8f1dT/ADf2/c3YsXF7n1xp2m2Om2cVnYwrBbQqFjjQBQABQbD2zEx4xEUHNApE5NLsVdirsVdi&#xA;rsVdirsVdirsVdirsVdirsVdirsVdirsVdirsVdirA/zM8kafrek3Kzxcra5FLkL9pH/AGJk8GDf&#xA;59c1OrxywzGfHzHP8fe1ZIW+MvMmgX2gazc6Vej97btRXAorod0dfZh/TOp0uojmxiceRcEiigba&#xA;5uLW5iubaRobiB1khlQ0ZHQ8lZSOhBFcvIQ+5fym8/Q+d/JlpqxIXUIv9G1OIbcbiMDkQOyuCHX5&#xA;07Zqs2PhlTsMc+IWzLKmx2KvI/8AnJPz43l3yV+iLSQpqevlrdSpoUtVA9dv9kGEf+yPhmTpsfFK&#xA;+5ozzoV3vkDNi4TOPyi/Lm487+Z47RgV0y1Ilv5RWnGuyVHdqfd70zC1upMAIx+uXLy7z8PvZ44c&#xA;RfbWmabZ6ZYQ2NlGIra3QJGigAAAU6DNfjgIig7ACkTk0uxV2KuxV2KuxV2KuxV2KuxV2KuxV2Ku&#xA;xV2KuxV2KuxV2KuxV2KuxVqSNJEaNwGRwVZT0IOxGCUQRRV85f8AOQf5fGSxfUrZK3elqZAwG8lo&#xA;xqwPvGfi/wCC8c1/ZuU6bUHDL6J8vf0/U4maD5yzq3Ger/8AOOPntvLnnqPTLmXhpevcbWVT9lbi&#xA;v+jv/wAEeH+y9sx9Tj4o33N2CdGu99iZrXOdir4x/wCcivMz61+Z1/Cr8rXSFSwgFdqxjlKaePqu&#xA;w+gZs9NGoe9wM8rk8yy9qfav5E+R4/K/ka19WPjqN+PrN4SPiDOB8P8AsQKfRmhE/EmcnfsP6o/X&#xA;zc/DCg9GyxtSvzP5m0fyzolzrWrz+hY2q1dqVZmOyoi/tMx2AyUYmRoIlIAWXxl+Zn5u+ZfPGqSv&#xA;LPJZ6MpK2mlRuRGqdAZaUEjnuT8htmzxYRAebgZMhkWRfkB+aGu6L5w0/QLm6kudD1eZLQ20rlhF&#xA;NIeMUkXI/D8ZCsBsR7gZDUYgY31DLDkINPr/ADWuc7FXYq7FXYq7FXYq7FXYq7FXYq7FXYq7FXYq&#xA;7FXYq7FXYq7FUi836Wl7pbuUDtACWUioaMijqQe1N813aWHihxD6o7sJiw+IPPflpvLvme800A/V&#xA;g3q2jHvDJum/fj9k+4zf9n6rx8In16+918hRSFHeN1kjYo6EMjqaEEbggjMxD7z/ACz82r5s8j6T&#xA;rZINxPCEvAO1xEfTl27VdSw9iM1OWHDIh2OOXELZPlbN+eWu6i+p65qOpOSz31zNcsx6kyyFyd/9&#xA;bNzEUKdYTZR3kfSv0t5w0fTyvNJ7qISJ/MitycfSqnMfW5DDDIjnX29FiLL78giSGGOFBRI1CKPZ&#xA;RQZrIxEQAOjs25pooYnmmcRxRqXkkY0VVUVJJPQAZJXxb+dn5q3HnnzCYrR2Ty7pzMmnQ7j1D0a4&#xA;cfzP+z4L71zaYMXAPNwMuTiPk84y5qe0/wDOOn5VanrPmGz83X0Zg0PS5fVtWYUNxcR/Y9P/ACI3&#xA;3ZvEcR3pjanKAOHq34MZJvo+ss1zmuxV2KuxV2KuxV2KuxV2KuxV2KuxV2KuxV2KuxV2KuxV2Kux&#xA;VzKGUqwqpFCD4HARavl7/nI/yl6MUOqRJ8dhKbeZu5gm+KJm/wBVtv8AZZh9jT8LNPCeR3H4933O&#xA;Fmi8Fzp2h9G/84k+aGrrXleV/houo2i+HSGf/mX+OYWrjyLlaaXMPo7MJyn503drcWl1NaXCGO4t&#xA;3aKaM9VdCVZT8iM3QNurLOvyHsprr81ND9ONpEgkklmKivFPTZeR9uTjMHtE/uq75R/3QP3W2Yh6&#xA;g+3Mw3YPCf8AnKD8xn0vR4fJ+ny8bzVU9XUnU7paA0Ee3T1WXf8AyQR+1mXpcdniLjaidCny1me4&#xA;j0P8lvytm89+ZONyGTQNPKyanMpoWrXhAh/mkpuey1PWmU58vAPNsxY+I+T7Ss7O1srWG0tIUt7W&#xA;3RY4II1CoiKKKqqNgAM1hNuwAVsCuxV2KuxV2KuxV2KuxV2KuxV2KuxVimveabqG7e1siEER4vKQ&#xA;GJYdaV22zR63tGUZmMNq6tcprdB80Xcl2lrfMJFlIVJKAEMelaUrXBou0ZmYjPe1jNlub1sdirsV&#xA;dirsVdirsVeefnB5cXV9DubfjU3tu8K+0qfHEf8Agqfdmq1kvCzwyjv3/HuacsbD4nIIJBFCNiDn&#xA;XuCzj8kvMJ0L8z9Cui3GG4nFlcV6FLoejv7KzK30ZVnjcC2YpVIPuPNU7B5t57/IHyJ5v1KTVZxP&#xA;p2pzEG4uLJlUSkbcpI3V1rTutCe9cvx6iURTVPDGW6deQ/yr8n+SInGjW7tcyCkt7cMJJ2HuwVAP&#xA;oAyiZM5cR3/R7kwxiPJlF/fWthY3N9duIrW0iee4lPRY41LOx+SjCBbMmnwN5281XnmrzVqOvXdQ&#xA;97KWjjO/pxL8MUY/1EAGbeEOEU66crNpVY2V1f3tvY2kZmurqRIbeJerSSMFVR8yckTTEC33d+W/&#xA;key8l+UbLQ7fi0yL6t9cKKetcuB6j/L9lf8AJAGanJPilbsYQ4RTJ8rZuxVxIAqdgOpxVh+q+b7k&#xA;zNHp5EcSmglIDM3uAdgM0Gp7UldY9h3tRn3KNj5w1KKUfWqXER+1sFYfIqAMrw9q5In1eoKJlmFn&#xA;eW95brPbtzjb7wfAjxzf4ssckeKPJsBtWyxLsVdirsVdirsVdirzzzDbGDWblT0d/UU+PP4v1nOT&#xA;12PhzS89/m0SG6Xo7I6upoykEH3G+YoNG0PT7adZ7aKdfsyorj/ZCudnjnxREu8OQFTJq7FXYq7F&#xA;XYq7FUo81W3raNKaVaErIPoND+BOYHaWPiwny3YzGz4b/MDSxpfnPV7NRRBcNLGo6BJgJVH0K9M3&#xA;nZ2XxNPCXl92zr5iikMMskMqTRMUljYOjjqGU1BH05msX33/AIqg/wAC/wCK6D0f0Z+lOPbj9X9e&#xA;majg9VebsuL02n2QZOxV5H/zk35qOj/l4dNhfjda5MtsAD8XoJ+8mI9tlQ/62ZOlhcr7mjPKo+98&#xA;gZsXCe1f84t+TRqvnC48w3MfK00OMehUbG6nBVOvXggc+x45i6qdRrvb9PGzfc+sc17muxV2KpT5&#xA;ovDbaRLxNHmIiU/63X/hQcwe0cvBiPedmMzswDOWaXYqmWiaxLpt0G3a3faaP28R7jMvR6o4ZX/C&#xA;eaYyp6DFJHLGskbBkcBlYdCD0zq4yEhY5N67CrsVdirsVdirsVYl53taS210B9pTGx/1TUfrOaLt&#xA;jHvGXwa8gYvmla2eeUrr1tIRCatAzRn5faH66Z03ZmTixV/N2bYHZOc2LNC3Gq6bb19a5jQjqvIF&#xA;vuG+UT1OOHOQQSEIvmjRGkCC4pU05FWC/eRlA7Rwk1xfejjCaqysoZSCpFQRuCDmaDbJ2FXYqpXk&#xA;Pr2k0PX1UZP+CFMryw4omPeEF8ZfnzYCDzdb3Sigu7RC58XjdkP/AAvHD7PZLwGP82TgZRu82zet&#xA;b6Y/xQf+hTvW5/6R6H6L413/AN7PR4/8iN8weH985XF+6fQeYblOxV8nf85V6+b3z3aaQrVi0i0X&#xA;ktek1yfUf74xHmx0kajfe4Wol6qeK5ktD7S/5x68sfoH8sdPMicLvU2kv7kHrWQ8Yx/yKRPpzV58&#xA;glLbk5+GNRek5S2uxV2KsU88T/FawDsGkYfOgH8c0fbE/pj8WvIxXNI1pjdaNcQaZb6gDyjmHxin&#xA;2CT8P0EZl5NJKOOOTofsSY7Wl2YiGV+TtW66dK3i1uT97L/HN52Vqf8AJn4NkD0ZVm7bHYq7FXYq&#xA;7FXYqk3m2KKTR35sFeNleME0qQaED6GOa/tOIOE30Yz5MDzmGlHadrF9p6yLbOFEtOVQGoR3Fcyc&#xA;GqniB4eqRIhTudU1G6r69w7g/skkL/wI2yGTU5J/VIlSShcpQ7FWe+U3lfRY/UrRWZYyf5Qf650/&#xA;ZkicItuhyTjNgydirsVfKf8AzkrY+nPpsoFPRuLuA/IlCv8AxA5idhHhy5Yef6S4WYPEM6Voelfp&#xA;1v8AoXn9GVPP/EnCnb0fqnq+P+/Mo4f3l+TbforzfaOaxz3Yq+DvzV1c6t+ZHmO+5cla+miiYd44&#xA;G9GM/wDARjNtiFRDrshuRSDSLA6hq1lYA0N3PFBXw9Rwtfxxyz4YGXcGAFl+hVjapaWVvaoapbxp&#xA;Ep9kUKP1Zp4igA7MBWySXYq7FWD+cZOWrhf99xKv3kt/HOb7VleX3BpnzSLNYxelwWcT6XFaSrWM&#xA;wrGy+3EDOwhiBxCB5cNN9bPPtSsJbG9ktpP2D8DfzKehzldRhOKZiWkilCGWSGVJY2KyIQysOxGV&#xA;xkYmxzCHouj6pFqNks60Eg+GZP5W/oe2dZpdQMsOLr1b4m0bmSl2KuxVJdX80WthK1ukZnnX7QBo&#xA;qk9id9812q7RjiPCBcmEp0x27816vcVCOIEPaMUP/BGp+7NTl7Tyy5Hh9zAzKUyyyyuXldpHPVmJ&#xA;J+85gykZGybYrMirsVVoLS6uG4wRPKfBFLfqycMUp/SCVpNLfylrE1C6LCD3kb+C8jmdj7MzS5iv&#xA;eyECmdt5IQEG5uSw7pGtP+GNf1ZmY+xx/FL5MhjZLBBFBCkMKhI0FFUdhm4hARAA5BsX5JXYq7FX&#xA;zd/zk7Aq6Yj0+JdSSnyeCVj+rMLsrbWZB/R/SHEzvnXOncZNP0h/zq36O5L/AL3fWOH7f9zwr8sj&#xA;W9pvZ+g+ad2andXEdtbTXEhpHCjSOdh8KCp6/LEK/Ou4nkuLiWeQ1kldnc+LManN06tmX5LWEd9+&#xA;aHl6GRPUiFyJHU9KRqWFfpAzF1p/dnzI+8M8Q9Qfc2a92LsVdirsVYB5oflrlz4DgB9CDOW7RN55&#xA;fD7mmfNK4k5yIn8xA+80zCiLNMXqYFNh0ztnISbzNo/1+09WJa3UAqgHVl7r/TNd2hpPFjY+oMJR&#xA;tgecy1I/RtWl027Eq1aJtpo/Ff6jtmVpNScM76dUxNPQY7u2ktluVkX0GHISE0FPeudTHLEx4r9L&#xA;daXXPmnRoG4+sZW7+kOQ+/YfjmLk7Swx637kGYRWnavYagpNs9WXdo2FGH0f0y7BqoZfpKRIFgWs&#xA;RSx6pdLKCHMrtv3DGoP0jOY1USMsr7y0y5oPMdCNtNF1S7oYLdip6O3wr97UGZOLSZZ/TFIiSt1L&#xA;TbnT5xBccebKHHE1FDUdwPDI6jTyxS4ZKRSEyhD0vSpkm022lQBVaNfhAoAQKEbe+dhppiWOJHc3&#xA;jkisvS7FXYq7FXYq7FXz1/zk4oXRpgP+W23P3wscwdAP8Pl/V/4lxM75pzqHGdir9G80rtEk89XJ&#xA;tfJPmG5BIMGmXktRuRwt3bavyyeMeoe9jPkX5/5t3WvVP+cZ7VLj81LVmp+4triVaiu4UKKeH2sw&#xA;tcfTEd8v0EtuAep9j5hOe7FXYq7FXnOvPz1i7PhIR/wO38M5LWm80ve0S5qOmpz1G1T+aaMfewyv&#xA;Ti8kR5hRzemZ2Le0zqilnIVR1YmgGAkDcqwPzKumG9M1jMrmSpmRN1DeIbpvnMdoDFx3A3fNplST&#xA;5gMW+TFQtTxG4XtXDZ5K1gVNfLBmGt2/p135B/DjxNa5ndnE+NGmUObNr3StPvqG6hEhXYNurU8K&#xA;qQc6LNpseT6hbaQCttdG0u1NYLZFYdGI5MPkWqcGPSYofTEKIhGZkJYx53taw210B9ljG3+yFR+o&#xA;5pe2Me0ZfBryBiOaJrZt5MuvU014Cd4HNB/kvuPxrnR9k5LxmP8ANLbA7J/m0ZuxV2KuxV2KuxV8&#xA;5/8AOTs1NIKrT95qMSmvWiwSHb6VzB7NF62Z/o/8S4md84Z1DjLvSk9P1eB9OvHnQ8eVK0r44q/R&#xA;nNK7RjH5ozCH8tvNLkVrpV4lP9eBkr/w2WYvqHvYZPpL4LzbOueu/wDOLgr+aHysLj9aZga/lH+t&#xA;/vZN2n+p9fZiOc7FXYq7FXmN9J6t7cSfzyO33sTnGZpXMnvJccrtNuY7W+guJFLJEwYqvU0yWnyC&#xA;ExI9Eg7pzeedL6Sq2sSwL2Zvjb8dvwzYZe1pn6RX2sjNJLq+vLpuVxM8p7BiSB8h0Ga7JmnP6iSw&#xA;JUMqV2KuxVFaZaQXd7HbzTegj7B6V37DqOuX6fFGcxEnhtIFs70vQ7HTQTCC0rCjSvu1PAeAzptN&#xA;o4Yfp597aI0mGZTJ2KuxVLvMFt9Y0e5SlWVfUX5p8X8MxNdj48Mh8fkxkNnnecm0sg8mXXp6k8BP&#xA;wzoaD/KTcfhXNp2TkrIY/wA4M4HdmudG2uxV2KuxV2KuxV8u/wDOTN9yWzt67TXs8oHiIhxB/wCS&#xA;mYfYo4tRll+Of7HCzl4NnTNDI/0Sf+Vdfpeh4/pj6pWu1fqvqdMhfqryZV6b833xmodkxr8zUR/y&#xA;480hhUDSL5qe62zkfiMni+oe9hk+kvgnNu6563/zi/KI/wA0UBYD1LG4QV7mqGg+7MDXjaP9b/ey&#xA;btP9T7AzEc52KuxVZcSelBJJ/IjN9wrkZyqJPcpeW5xTjuxV2Kom002/uzS2geQfzAUX/gjtl2LT&#xA;zyfSCUgEp5Z+Srp6NdzLEP5E+Jvv2A/HNli7IkfrNMhBOE8p6MsDR+mzMwp6rMeQPiKUH4ZnjszC&#xA;I1XxZ8AYbqemz6fdNBMK90fsy9iM5/UaeWKXCWoikJlCGaeWNf8ArSCzuW/0lB+7c/tqO3+sM6Ls&#xA;7W8Y4JfV97bCTIc2rN2KuxVxAIIIqDsRiQrAdT8uaja3LLDC88BP7t4wW28CBuDnLajQZIS2BMfJ&#xA;pMSmnlbQbuG5F7dIYuAIijb7RLChJHbbM7s3RSjLjkK7mUIsqzdtjsVdirsVdiq2WRYonkb7KKWP&#xA;yArkZSoE9yvjr/nILUWn8w6dZk19C2aZvZp5CD+EQyr2dh+7lM/xS+7+1wMp3eV50LU9m/w2/wD0&#xA;K19f47fpr9JV36cvqFfv2zG4v31eTfw/u/i+tc1zmpV5stmu/K2s2q/ansbmIUFd3hZenfrkoHcM&#xA;Zci/PnNw616H+QF21v8AmtooU0M7SQn5FCT+C5ha/wDu77pR++v0tmE+oPtjMJ2DsVdiqC1p+GkX&#xA;jf8AFTj/AIIU/jmPqzWKXuKJcnm+cg0JloWjnU7pojJ6cca8nYCp60oMzNHpfGlV0AmMbZfZeWtI&#xA;taEQ+s4/bl+L8Ps/hm+xdn4odLPm2iITQAAAAUA6AZmgMnYq7FUDrGkw6lamJ/hkXeKTurf0PfMb&#xA;VaaOaNHn0RIW89uraa1neCZeEiGjD+mcpkxyhIxlzDQQsjkeN1kRirqaqw2IIyMZEGxzVnvl/W01&#xA;K34uQt3GP3i+I/mGdRodYM0d/qH4tujK02zOZOxV2KuxV2KuxV2KuxV2KuxVK/Mtz9X0a4NaNKBE&#xA;v+z2P/C1zC7QycOE+ezGR2fEP5n6oNS89arMrVjhlFtH3AECiNqfNlJzbdk4fD08B3i/nu6+ZssW&#xA;zYsX2Z/gw/8AQvX+HeH+kfoT1fTp/wAfXp/WuP8AyOzWcf7y/NzuH0V5PT8obmmVXUqwDKwoyncE&#xA;HscVfndqti+n6neWD/btJ5IGr4xuUPh4ZuQbDqyKKcfl3qT6b550O8Q0KXkS17ASN6Zr9DZja6N4&#xA;ZeQv5bsoGiH3yrBlDDcEVB9jmuBt2TeFXYqlfmduOhXR9kH3uozC7RNYJfD7wxnyefZyrSyjyMlZ&#xA;bx/BUH3lv6ZuuxxvI+5sxstzetjsVdirsVdiqUeYdDTUYPUiAF3GPgPTkP5T/DMDXaMZY2PqH4pj&#xA;KNsDdGRijgqymjKdiCM5ggg0WlUtLue0uEuIG4yIag9j7H2OTxZZQkJR5hQaeiaVqUWo2SXCDiT8&#xA;MifysOozq9NqBlhxBvBtF5kJdirsVdirsVdirsVdirsVYD+bPmSLR9FnuGIpZQPclT0aQjjEv+yb&#xA;b6c1OuHi5YYR1O/491tWWVB8RySPJI0jks7kszHqSTUnOwAoUHAT3yH5dbzH5z0bRApZL26jSenU&#xA;Qg8pj9EascjklwxJZQjZAffnFePGg40px7U8M07sm8Vdir4c/O3RzpP5p+YrcAhJrk3aHsRdqJzT&#xA;/ZSEZtcBuAdflFSLCYpZIpUljPGSNgyMOxU1BywgEUWt+gHk3V4tX8q6VqUX93c20bqOuxUZoMFi&#xA;AB5x2+WzsoGwnOXMnYqlHmwkaHN7slf+DGYHaf8Acn4fexnyYDnLtLK/Iv8Ax/f88v8AjfN52N/H&#xA;8P0tmNlWbtsdirsVdirsVdirHfM+gfWVN7apW4UfvY16uB3H+UM1PaOh4/XEerr5sJxYbQ1pTfpT&#xA;OepqZ35UsJ7TTT66lHmcvwOxAoAK/dnT9m4ZY8fq5k23QFBOc2DJ2KuxV2KuxV2KuxV2KtSOkaNI&#xA;54ogLMT2A3OCRAFlXy3/AM5GebzMkOkxvSW+k+tXK9xBGeMSn5sK/wCxzD7FxnLllnPuH48h97hZ&#xA;pPCc6doe7f8AOKHlQ3nmbUfMsyVh0uH6vasR/wAfFzUMVP8AkxKwP+sMxNXOhTkaeO9vqXMBzHYq&#xA;7FXy7/zlp5e+r+ZNH16NaJf2zWsxHT1LZuQJ9ykoH+xzP0ktiHD1Md7eDZluO+uf+cYvMq6l5E/R&#xA;jtWfS5WioTuUNGU08AGAzSZY8GeUf53qH3H7R9rm6eVinsWFvdiqV+ZkLaHdAdQFP3OpzC7RF4Jf&#xA;jqxnyefZyrSyjyM9JruP+ZUb/gSR/wAbZuuxzvIe5sxstzetjsVdirsVdirsVdiqn9WtvV9X0k9X&#xA;/fnEcvv65Dw43dC1pUyauxV2KuxV2KuxV2KuxV2KsX8+a/babpcqSyiKMRtNdSH9iFBUk/OmavtH&#xA;KSBij9U/x9rXklQfEfm3zDP5h8w3mqy1Anf9zGf2Il+GNfoUb++dLo9MMOIQHT7+rgSNlKACTQdc&#xA;yUPuX8m/JZ8o+QNO06ZOF/Ov1zUR39ecAlT7ooVPozVZp8UrdhijwxZtlTY7FXYq8z/5yH8rNr/5&#xA;Z30kKc7rSGXUYaCp4xAiYf8AIp2P0Zfp51P3tWeNxfGGbNwHqn/OOnnAaD55SzmfjZ6qvpPU0HqJ&#xA;UofuLD3NM1nacKiMg/gO/wDVPP8AQW3DKpPscEEVG4PQ5Q57sVQ+pWzXNhcQL9qSNlX/AFqbfjlO&#xA;ox8eOUe8II2eaSRvG7I6lXU0ZTsQRnHyiQaLQyXyTaz/AFia6IIg4emCehYsDt8qZuOyMcuIy6VT&#xA;PGGXZvm12KuxV2KuxV2KuxV2KuxV2KuxV2KuxV2KuxV2KqF9eQ2drJcTGiIK07k9gPnlWbKMcTI9&#xA;EE0+WPz+/MKS6nfy/byVmmKy6my/srs0UA/Bj9HvlPY2llkmdRP/ADfx9gcLLO9niWdK0vUf+cev&#xA;y/bzT53ivbqLnpGiFbq6JHwvLUmCL6XXkR4KfHKNRk4Y+ZbcMLL7KzWOe7FXYq7FVk0MU8MkMyCS&#xA;GVSkkbCqsrChBHgRir4K/MXyjP5R85anoUgPpW0pa0kb9u3k+KFq9/gIB965t8c+KILrZx4TSQWt&#xA;1PaXMN1buY54HWSKQdVdDVSPkRhnASBB5Fi+5Pyn87W3mzyjZ3qMPrCIEuIwfssuzL/sTt8qHvnP&#xA;4QYE4pc4fbHoXYYp2GZ5kNjsVQ8+nWFw/Oe3jkf+ZlBP35VPBCRuUQUUFdERFCIoVF2VQKAD5DLA&#xA;ABQS3hV2KuxV2KuxV2KuxV2KuxV2KuxV2KuxV2KuxVp3VFLuQqqKsx2AAwEgCyrxn85PzSt9F04t&#xA;CQ9w/JNNtj+29KGZx/Ilf4d81MIS12bhG2KPP8efRxsuR8n3V1cXdzLdXMhluJ3MksrGpZmNSTnX&#xA;wgIgAbAOIvsLC81C+t7Gyha4vLqRYbeBBVnkc8VUfMnJE0oFvuf8rfINp5I8oWujx8XvG/f6lcL/&#xA;ALsuHA5Ef5KgBV9h45qcuTjlbsccOEUy3K2bsVdirsVdirw3/nKL8v21XQIPNljEWvtHHpXwXq1m&#xA;xryp/wAVO1fkzE9My9Lko13uPqIWLfK2Z7hvS/yN/MeTyn5lS1uZOOl6gwWTkaKkp2DHwDD4W+g9&#xA;s1faWnkQMsPrh9seo/U2Yp8JfZdpdQ3VulxC3KOQVB/gflmLiyCcRIci54KrliXYq7FXYq7FXYq7&#xA;FXYq7FXYq7FXYq7FXYq7FXYq7FXMyqpZiAoFSTsABgJpXl/5n/mfpmiaZJLLIfq9SsMKmklzIP2V&#xA;8FHc/wBgzUTnPVz8LF9HU/j8FoyZKfI/mTzHqfmHVptT1B+UsmyIPsRoPsog7Af29c6rS6aGCAhH&#xA;k4ZNpZmQh9P/APONv5RtpttH511uHjfXSH9D27ihigcUM7A/tSKaL4Lv+1tg6nNfpDl4Mdbl75mG&#xA;5LsVdirsVdirsVU7i3gubeW3uI1lgmRo5YnAZWRhRlYHqCDir4i/OH8trnyL5rls0Vm0a85T6TcN&#xA;U1irvGzfzxE8T7UPfNrhy8Y83X5cfCWC5a1voz8gPzjokflvWpazIONrKx3lRRsN/wDdiD/gl9xv&#xA;z+swHTTOSI/dS+ofzT3+5ycOXoX0bFLHLGskbB43FVYbgg5ZGQkLHJy12SV2KuxV2KuxV2KuxV2K&#xA;uxV2KuxV2KuxV2KuxVTuLmC2haadxHGvVjkMmSMBcjQUl5N+aH5u6ZolmRKx+Mf6NYIQJpz05N/K&#xA;nufxO2aseLrZcMPTjHM/j7nHyZafK/mbzRq3mPU31DUpeTn4Yol2jiStQiDsPxPfOo0ukhghwwH7&#xA;XElK0pzJQ9u/IP8AJJ/MNzF5n8xW5GgQNysrWQf72SKerA9YVPX+Y7dK5i6jPWw5t+HFe55Pq0AA&#xA;UHTNe5rsVdirsVdirsVdirsVYx+YvkHSvPHlmfRr793L/eWN4BVoJ1HwuPEdmHcfflmPIYG2E4CQ&#xA;p8P+Z/LWr+WdcutF1eEwXtq3Fx1VlO6uh7qw3BzaRkJCw6+USDRS2OSSKRZI2KSIQyOpIZWBqCCO&#xA;hGSIBFFD6L/Jr8+efo6Lr8gW6NEjmYhUmPahOyS+3RvnnOanST0pM8Y4sXWP833eX483JxZuhfQ9&#xA;lf2t7CJraQOvcdwfAjtlmHNHILibcoG1fLUuxV2KuxV2KuxV2KuxV2KuxV2KuxV2KpRq3mWw08Mg&#xA;YTXC9Y1Oy/6zdswdTr4Y9h6pdzEyAfP/AOZf5+RI8lppEiX98Kr6y72sB6fDT+8b8Pc9Mjp+zMup&#xA;PHn9Mf5v45fe4s8zwPUdSv8AUryW9v53ubqY1klkNSf6AdgOmdPixRxxEYigHHJtD5NXtv5I/kJd&#xA;eYpLfzF5nhaDy+pElrZPVZLulCrEbFYT49W7bb5i59Rw7Dm34sN7nk+rIYYoYkhhRYoYlCRxoAqq&#xA;qigVQNgAM17mrsVdirsVdirsVdirsVdirsVYL+a/5UaP5+0f05ONtrVsp/R2o03U9fTkpu0bHqO3&#xA;Ue9uLKYHya8mMSD4x8yeWtb8taxPpGs2rWt9AfiRujL2dG6MjU2YZtIyEhYcCUSDRSzCh6f+Xn55&#xA;a75ceK21J5LyySipOprcRr4HltKo8G39+2aXV9kgy48J4J/YW2GUh9LeUPzU8u+YbNZoblJBtzki&#xA;r8JPaSM/Gh+YzX/nJYjw548J7+hcqOUFmcM8E8YkhkWRD0ZSCPwzOhOMhYNhtX5JXYq7FXYq7FXY&#xA;q7FXYq4sFBLGgHUnpiTSpRfeadKtaqj/AFiQfsxbj6W6ZgZu0sUOR4j5MTMPKPPX5+aLpqyW63Qn&#xA;uBUfUbI8mr4STfZX3Fa/5OVQw6vVch4cPx8T9zRPM8A83/mf5l8y84JJPqWmtt9SgJCsP+LG+0/0&#xA;7e2bvRdlYsG4HFLvP6O5xpTJYjmzYqtpaXV5cxWtpC9xczMEhgiUu7sdgqqtSScSaUB9J/lD/wA4&#xA;2x2Twa752jWW6WkltotQ0aEbhrgioc/5A+Hxr0zBzam9ouXiwdS+g1VVUKoAUCgA2AAzDcl2KuxV&#xA;2KuxV2KuxV2KuxV2KuxV2KsW/MD8t/LXnnSvqWrw0niBNnfxUE8DHurHqpp8SnY/PfLMeQwOzCcB&#xA;IbvkP8x/yk81+RLs/X4vrWlO3G21aFT6L+Cv19N/8lvoJzY48wnycGeMxYTlrBEWGo3+nXSXVhcS&#xA;Wtyn2ZYmKMPao7HwyGTFGY4ZCwoNPTfK3/OQPmXTGVdTiF4ooDcQn0J/9lx/dt8uIzS5uw43xYZG&#xA;B+z9bbHKQ9b8uf8AOR3lq9CJPeLBIf8Add6hhYf89UrF95zDli1uLnEZB5fi/sbo5w9B038xNFvo&#xA;hLF+9jP+7Ld0mT7wRlX8qCJqcZRP49zaMgTOPzXoj9Zyh8GRv4A5bHtLCetfAsuMK48w6KRX62n0&#xA;1H6xln57D/OC8QcfMGigV+tp+J/hj+ew/wA4LxBRk81aGnScufBUf+IAyEu0sI6/YV4wgbvz1pkE&#xA;bOsblV3LyFY1++rZRLtaHKMSSxOQMK138+vLVgrBtTtI2FfggJupK+H7vkB9IyUZ6zL9EOH3/tYH&#xA;MHmHmX/nI8Tlk060mu2/ZlvH9OMHxEScqj6Vy+HYeXJvmn8B+K+xplmeY+YfzG83a8GS8vmjtm62&#xA;lv8AuoqHsQu7D/WJzb6bszBh3jHfvO5/HuajMljWZ7F2Ks7/AC9/Jnzn52lSW0tzZaQT+81W5BWK&#xA;nf0h9qU/6u3iRlWTNGPvbIYjJ9Uflz+T/lLyLAHsIfrWrsvGfVZwDK1ftLGOkSHwX6Sc1+TNKfPk&#xA;5kMQizjKmx2KuxV2KuxV2KuxV2KuxV2KuxV2KuxV2KqV3aWl5bS2t3ClxbTKUmglUOjqeoZWqCMI&#xA;NKQ8J/MP/nFvS74y3/k2caddNVjplwWa2Y9T6b/E8fyNR/qjMrHqiNpONPTg8nz15p8kea/Kt19W&#xA;1/TJrFiaRyOOUT/8Y5V5Rv8A7FszYTEuRcaUCOaSZJi7FV8M80EgkhkaKQdHQlT94wSiCKKpzbee&#xA;vOdtT0tbvaDorzu4+5ywzFn2fglzhH5J4imEf5r/AJgxgBdYchenKOFunjyQ1yg9kaY/wff+tPiF&#xA;c/5tfmE5JOrsK+EMC/qjGI7H0o/g+0/rXxCgLj8wPO1wKSa3eAf8VytH/wAQ45bHs7Tx5Qj8kcZS&#xA;e7v768fnd3Etw/8ANK7OfvYnMqGOMfpACLUMmrsVcASaDrir0HyZ+RP5i+aDHLFp503T3IrfX9YV&#xA;4nukZHqvt0KrT3ymeeMWyOGRe/eRf+cbPI/l4x3erA6/qS0NblQtqrf5NvuG/wCehb5DMTJqZHls&#xA;5MMAHPd62qqihVAVVFFUbAAdhmM3t4q7FXYq7FXYq7FXYq7FXYq7FXYq7FXYq7FXYq7FXYqo3llZ&#xA;3ttJa3kEdzbSjjLBMiyRsPBlYEHCDSkPL/NP/ONX5b60XmsoJdEum35WTfuifeGTkoHsnHL4amQ8&#xA;2mWCJeW69/zib5utSz6LqtpqUY6JMHtZT8h+9T73GZEdXHqGk6Y9GB6r+SX5qaYzCfy5dTAdGtAt&#xA;0CPEeg0hy0Z4Hq1nFIdGM3nlvzFYtxvdLu7VhsRNBLGf+GUZYJA9WBiUuAJIAFSdgBhQibbS9SuX&#xA;EdvayyuegVGP8MBIWk1s/IPne8/3l8v6lNXoY7O4YEVpWqoRSuA5IjqyED3J9YfkX+a98B6Pl24j&#xA;J/5aGhtwB/z2dD+GQOeA6shhl3Mq0r/nFb8w7oq17cWGnR7cxJK8sn0LEhX/AIfKzqosxp5M60L/&#xA;AJxK8vQMsmt61c3p6mG1jS2T5EuZ2I+7KZas9A2DTDqXqPlb8rfIPlcrJo2jQQ3KGq3cgM84PiJZ&#xA;S7r/ALEgZRPLKXMt0ccRyDKsrZuxV2KuxV2KuxV2KuxV2KuxV2Kv/9k=</xmpGImg:image>
               </rdf:li>
            </rdf:Alt>
         </xmp:Thumbnails>
         <xmpTPg:MaxPageSize rdf:parseType="Resource">
            <stDim:w>547.864889</stDim:w>
            <stDim:h>556.653570</stDim:h>
            <stDim:unit>Points</stDim:unit>
         </xmpTPg:MaxPageSize>
         <xmpTPg:NPages>1</xmpTPg:NPages>
         <xmpTPg:HasVisibleTransparency>False</xmpTPg:HasVisibleTransparency>
         <xmpTPg:HasVisibleOverprint>False</xmpTPg:HasVisibleOverprint>
         <xmpTPg:PlateNames>
            <rdf:Seq>
               <rdf:li>Cyan</rdf:li>
               <rdf:li>Magenta</rdf:li>
               <rdf:li>Yellow</rdf:li>
               <rdf:li>Black</rdf:li>
            </rdf:Seq>
         </xmpTPg:PlateNames>
         <xmpTPg:SwatchGroups>
            <rdf:Seq>
               <rdf:li rdf:parseType="Resource">
                  <xmpG:groupName>Default Swatch Group</xmpG:groupName>
                  <xmpG:groupType>0</xmpG:groupType>
               </rdf:li>
            </rdf:Seq>
         </xmpTPg:SwatchGroups>
         <dc:format>image/svg+xml</dc:format>
      </rdf:Description>
   </rdf:RDF>
</x:xmpmeta>
                                                                                                    
                                                                                                    
                                                                                                    
                                                                                                    
                                                                                                    
                                                                                                    
                                                                                                    
                                                                                                    
                                                                                                    
                                                                                                    
                                                                                                    
                                                                                                    
                                                                                                    
                                                                                                    
                                                                                                    
                                                                                                    
                                                                                                    
                                                                                                    
                                                                                                    
                                                                                                    
                           
<?xpacket end="w"?>
	</metadata>
<g>
	<path class="st0" d="M20.02,197.29c-2.66,0.67-5.34,1-8.06,0.33c-7.16-1.75-11.8-7.81-11.94-15.72
		c-0.18-10.29,1.16-20.4,3.88-30.33c5.17-18.84,14.79-35.25,27.5-49.93c9.46-10.92,20.22-20.42,31.83-28.99
		c17.55-12.95,36.5-23.49,56.13-32.88c25.21-12.06,51.34-21.61,78.45-28.42c5.43-1.36,11-1.95,16.51-2.82
		c10.95-1.73,21.98-3.06,32.89-5.06c17.71-3.24,35.52-3.91,53.45-3.23c24.13,0.92,47.87,4.33,71.12,10.86
		c24.85,6.97,48.25,17.2,69.72,31.62c19.89,13.35,36.95,29.69,51.23,48.93c17.07,23,29.28,48.45,38.15,75.59
		c4.95,15.13,8.69,30.57,11.42,46.24c2.5,14.33,4.24,28.76,5.02,43.3c0.72,13.34,0.74,26.68-0.13,40.01
		c-1.57,23.85-5.78,47.22-13.11,70c-5.82,18.09-13.35,35.41-22.99,51.79c-11.49,19.52-25.38,37.2-41.43,53.18
		c-10.44,10.4-21.64,19.91-33.55,28.56c-21.65,15.7-45.03,28.19-70.01,37.73c-6.41,2.45-13,3.75-19.73,4.73
		c-10.98,1.6-21.95,3.31-32.92,4.99c-10.97,1.68-21.94,3.37-32.91,5.05c-7.89,1.21-15.79,2.38-23.68,3.6
		c-1.27,0.2-2.54,0.28-3.82,0.23c-20.43-0.79-40.56-3.68-60.24-9.25c-21.59-6.11-41.82-15.3-60.54-27.68
		c-21.69-14.34-40.17-32.07-55.24-53.27c-14.37-20.23-24.75-42.43-31.93-66.15c-4.32-14.25-7.46-28.76-9.45-43.5
		c-2.76-20.48-3.62-41.05-2.72-61.7c0.57-13.11,1.84-26.14,4.09-39.07c2.59-14.9,6.36-29.5,11.68-43.67
		c5.7-15.17,12.98-29.52,22.32-42.79c6.55-9.31,14.02-17.82,22.34-25.6c7.16-6.7,18.19-5.68,23.58,3.81
		c3.61,6.36,2.74,13.75-2.46,18.98c-4.11,4.14-8.32,8.18-12.02,12.71C91.2,193.21,82.93,208.63,76.9,225.3
		c-1.69,4.66-3.25,9.35-4.44,14.17c-3.22,11.28-5.19,22.8-6.64,34.41c-0.58,4.64-0.87,9.33-1.15,14.01
		c-0.5,8.53-0.84,17.05-0.66,25.58c0.19,8.93,0.88,17.84,1.71,26.75c1.35,14.35,3.92,28.48,7.54,42.41
		c6.28,24.12,16.15,46.62,30.66,66.99c5.62,7.89,11.75,15.39,18.66,22.16c18.54,18.15,40.09,31.58,64.53,40.37
		c15.03,5.4,30.46,9.13,46.29,11.13c9.91,1.25,19.87,1.6,29.87,1.64c18.15,0.07,36.01-2.16,53.69-6.07
		c21.57-4.77,42.21-12.21,61.94-22.12c19.23-9.66,36.97-21.57,53.27-35.63c21.72-18.73,39.52-40.64,53.25-65.79
		c10.56-19.33,18.1-39.83,22.9-61.35c2.65-11.88,4.46-23.88,5.54-35.98c0.98-10.98,1.48-22,1.05-33.02
		c-0.91-23.37-3.87-46.47-9.65-69.16c-4.65-18.24-10.69-35.96-19.03-52.91c-8.31-16.89-18.28-32.65-30.91-46.59
		c-14.23-15.7-30.64-28.67-49.55-38.44c-17.73-9.16-36.36-15.72-55.83-19.93c-10.39-2.25-20.89-3.76-31.47-4.9
		c-14.34-1.54-28.71-1.49-43.08-1.25c-5.64,0.09-11.3,0.68-16.95,1.18c-8.92,0.8-17.78,1.9-26.61,3.36
		c-12.39,2.05-24.59,4.94-36.69,8.28c-15.9,4.38-31.44,9.83-46.55,16.38c-23.08,10.01-45.26,21.68-65.61,36.6
		c-7.35,5.39-14.36,11.24-20.73,17.76c-10.91,11.2-20.06,23.63-25.55,38.45c-2.71,7.31-4.45,14.82-4.93,22.63
		c-0.18,2.95-0.33,5.89-0.46,8.84C31.05,190.79,25.65,196.46,20.02,197.29z"/>
	<path class="st1" d="M164.96,373.01c-0.11,6.69,0,12.92,0.62,19.12c0.36,3.64,0.68,7.3,1.36,10.91c0.83,4.46-0.43,8.43-3.37,11.76
		c-5.55,6.27-16.51,7.12-22.68,0.53c-1.98-2.11-3.19-4.57-3.72-7.37c-0.77-4.08-1.05-8.22-1.49-12.34
		c-1.08-9.96-1.07-19.94-0.78-29.92c0.19-6.45,0.6-12.91,1.2-19.35c0.51-5.48,1.04-10.96,1.64-16.43
		c0.63-5.78,1.48-11.55,2.18-17.32c0.58-4.83,1.05-9.67,1.64-14.5c0.84-6.97,1.19-13.99,1.73-20.98c0.39-5.01,0.69-10.03,1.08-15.04
		c1.14-14.83,3.26-29.49,7.6-43.76c1.51-4.98,3.52-9.72,6.64-13.99c7.01-9.6,18.9-10.55,27.51-5.28c5.93,3.63,10.67,8.62,15.3,13.7
		c6.99,7.67,12.32,16.49,17.51,25.4c7.42,12.73,16.04,24.6,25.38,35.97c1.32,1.6,2.67,3.18,3.92,4.84c0.78,1.03,1.57,1.31,2.86,0.88
		c6.14-2.02,12.31-3.95,18.47-5.9c2.91-0.92,5.88-1.53,8.94-1.26c5.86,0.51,9.96,3.56,12.31,8.93c2.84,6.51,0.36,14.64-5.11,18.4
		c-1.41,0.97-2.97,1.54-4.57,2.05c-2.89,0.92-5.79,1.81-8.67,2.76c-1.69,0.56-1.73,0.74-0.64,2.02c4.6,5.42,9.21,10.82,13.81,16.24
		c6.92,8.16,13.83,16.33,20.76,24.48c3.21,3.77,6.39,7.57,9.67,11.27c7.14,8.05,4.4,19.74-5.98,23.99
		c-5.73,2.35-11.31,1.41-15.93-3.11c-3.09-3.02-5.67-6.49-8.5-9.75c-5.24-6.03-10.35-12.16-15.52-18.24
		c-6.82-8.03-13.64-16.07-20.46-24.1c-2.95-3.47-5.96-6.88-8.81-10.43c-1.13-1.41-2.17-1.65-3.85-1.08
		c-8.68,2.97-17.4,5.84-26.11,8.73c-14.09,4.67-28.13,9.5-42.15,14.38c-1.2,0.42-1.9,0.92-1.99,2.27c-0.15,2.15-0.54,4.27-0.69,6.42
		C165.46,356.39,164.69,364.9,164.96,373.01z"/>
	<path class="st1" d="M348.09,178.22c7.17-0.2,12.97,5,14.92,12.16c1.68,6.16,3.26,12.34,4.91,18.5c1.98,7.4,3.97,14.8,5.97,22.19
		c0.52,1.91,0.55,1.92,2.55,1.39c6.24-1.65,12.46-3.41,18.73-4.95c9.21-2.26,18.46-4.33,27.81-5.96
		c10.24-1.79,16.99,5.72,17.36,14.2c0.34,7.77-4.75,13.86-11.21,15.3c-3.65,0.81-7.33,1.55-11,2.29c-9.86,1.98-19.57,4.53-29.29,7.1
		c-1.62,0.43-3.23,0.87-4.84,1.33c-1.76,0.5-1.79,0.53-1.33,2.28c2.32,8.79,4.67,17.58,7,26.37c1.7,6.4,3.33,12.82,5.09,19.2
		c2.32,8.42-3.21,15.55-9.9,17.84c-7.77,2.66-16.06-1.38-18.88-9.41c-1.37-3.9-2.3-7.97-3.37-11.97
		c-2.93-10.94-5.83-21.89-8.74-32.83c-0.6-2.23-0.68-2.28-2.97-1.57c-9.84,3.04-19.67,6.06-29.5,9.14
		c-2.91,0.91-5.89,1.78-8.89,1.78c-6.92,0-12.29-3.9-14.29-10.29c-2.1-6.7,0.63-14.21,6.28-17.6c1.95-1.17,4.14-1.65,6.27-2.31
		c9.37-2.94,18.74-5.83,28.12-8.74c1.68-0.52,3.35-1.08,5.04-1.51c1.23-0.31,1.44-0.88,1.11-2.08c-1.91-6.92-3.75-13.86-5.61-20.79
		c-1.98-7.4-3.9-14.82-5.97-22.19c-2.29-8.18,2.86-15.03,8.32-17.47C343.87,178.68,345.99,178.02,348.09,178.22z"/>
	<path class="st1" d="M20.02,197.29c1.64-0.59,3.22-1.31,4.63-2.35c3.91-2.87,6.17-6.6,6.17-11.57c0-7.63,0.89-15.14,2.91-22.51
		c3.02-11.08,8.16-21.13,14.86-30.4c9.02-12.49,20.12-22.9,32.35-32.17c13.16-9.97,27.35-18.28,41.97-25.89
		c27.05-14.07,55.41-24.66,85.04-31.86c12.27-2.98,24.66-5.28,37.16-6.97c5.45-0.74,10.96-1.15,16.44-1.62
		c12.43-1.07,24.89-1.24,37.36-0.88c10.39,0.29,20.72,1.22,31.02,2.63c11.49,1.58,22.83,3.87,34,7
		c26.38,7.38,50.72,18.86,72.06,36.24c16.41,13.35,29.85,29.27,40.83,47.32c13.24,21.76,22.39,45.17,28.68,69.78
		c3.67,14.34,6.34,28.86,8.03,43.56c1.67,14.54,2.38,29.15,1.92,43.79c-0.76,24.39-4.29,48.35-11.54,71.7
		c-9.24,29.75-23.84,56.6-43.81,80.53c-19.26,23.08-42.12,41.85-68.16,56.79c-23.45,13.46-48.38,23.14-74.76,29.07
		c-12.8,2.87-25.75,4.76-38.84,5.68c-9.26,0.65-18.54,0.72-27.79,0.27c-16.24-0.79-32.24-3.29-47.93-7.64
		c-17.42-4.82-33.94-11.73-49.37-21.19c-9.36-5.74-18.07-12.33-26.19-19.74c-8.89-8.12-16.75-17.15-23.72-26.93
		c-9.89-13.86-17.66-28.86-23.65-44.8c-4.73-12.59-8.23-25.52-10.82-38.71c-1.71-8.7-2.92-17.47-3.78-26.3
		c-1.19-12.26-1.84-24.54-1.63-36.85c0.36-20.84,2.73-41.43,8.07-61.62c0.2-0.75,0.27-1.59,0.92-2.17c0.22,1.4-0.38,2.67-0.71,3.97
		c-2.29,9.23-3.9,18.57-5.14,27.99c-2.15,16.29-2.26,32.66-1.7,49.03c0.28,8.12,1.12,16.22,2.08,24.31
		c1.22,10.24,3.13,20.34,5.56,30.33c2.64,10.87,6.1,21.49,10.37,31.85c4.06,9.85,8.84,19.31,14.48,28.34
		c7.87,12.58,17.06,24.11,27.89,34.28c9.64,9.06,20.22,16.86,31.72,23.43c9.81,5.6,20.05,10.26,30.68,14
		c10.47,3.69,21.21,6.46,32.15,8.39c6.36,1.13,12.77,1.88,19.2,2.55c11.56,1.21,23.14,1.22,34.71,0.73
		c10.27-0.44,20.48-1.66,30.62-3.49c17.97-3.23,35.38-8.33,52.31-15.13c15.02-6.03,29.34-13.44,42.94-22.17
		c11.51-7.38,22.34-15.67,32.49-24.87c15.54-14.09,29.03-29.89,40.27-47.6c8.89-14.01,16.13-28.83,21.77-44.44
		c4.51-12.49,7.86-25.29,10.27-38.33c1.42-7.68,2.42-15.44,3.14-23.23c1.06-11.47,1.61-22.95,1.19-34.45
		c-0.34-9.32-0.98-18.63-2.08-27.91c-1.27-10.79-3.14-21.46-5.47-32.06c-2.67-12.17-6.1-24.14-10.36-35.86
		c-3.69-10.15-8.01-20.02-13.06-29.56c-7.42-14.03-16.16-27.15-26.64-39.1c-12.04-13.74-25.74-25.5-41.39-34.94
		c-12.7-7.66-26.14-13.72-40.23-18.37c-12.9-4.27-26.07-7.4-39.5-9.46c-9.55-1.46-19.14-2.4-28.79-2.95
		c-10.15-0.58-20.29-0.55-30.42-0.2c-8.52,0.29-17.02,1.16-25.5,2.12c-8.64,0.98-17.22,2.34-25.73,4.05
		c-11.1,2.24-22.08,4.99-32.93,8.27c-15.38,4.64-30.42,10.23-45.06,16.83c-12.82,5.78-25.32,12.21-37.38,19.46
		c-6.23,3.75-12.35,7.65-18.26,11.89c-13.92,9.98-26.49,21.35-36.48,35.35c-7.9,11.07-13.4,23.22-15.7,36.68
		c-0.78,4.56-1.19,9.17-1.12,13.82c0.1,6.5-3.28,10.8-8.92,13.55C22.55,197.12,21.36,197.63,20.02,197.29z"/>
	<path class="st0" d="M323.76,525.97c-2.21,1.17-4.7,1.3-7.06,1.88c-5.31,1.29-10.74,2.06-16.14,2.8
		c-5.01,0.68-10.06,1.21-15.12,1.67c-10.1,0.91-20.2,0.98-30.3,0.77c-3.94-0.08-7.92-0.25-11.86-0.79c-2.18-0.3-4.43-0.2-6.63-0.56
		c-3.9-0.64-7.84-1.07-11.76-1.63c-5.66-0.82-11.22-2.08-16.78-3.29c-4.69-1.02-9.46-2.04-13.84-4.2c0.9-0.08,1.72,0.19,2.57,0.46
		c7.13,2.24,14.4,3.94,21.74,5.29c4.75,0.87,9.51,1.76,14.31,2.31c3.93,0.45,7.92,0.68,11.84,1.18c3.8,0.49,7.64-0.13,11.41,0.77
		c1.29,0.31,2.71,0.01,4.06,0.08c7.1,0.33,14.2-0.19,21.26-0.61c6.46-0.38,12.93-1.11,19.36-2.13c7.05-1.13,14.08-2.28,21.04-3.88
		C322.46,525.93,323.12,526,323.76,525.97z"/>
	<path class="st0" d="M517.52,209.91c1.23,2.45,1.37,5.18,1.87,7.8c0.92,4.9,1.78,9.83,2.31,14.79c0.38,3.55,0.9,7.08,1.19,10.64
		c0.21,2.51,0.05,5.09,0.77,7.56c0.09,0.3,0.08,0.63,0.08,0.95c0.18,7.25,0.71,14.49,0.5,21.75c-0.09,3.03-0.14,6.08,0.01,9.11
		c0.24,4.8-0.32,9.56-0.6,14.32c-0.28,4.65-0.56,9.34-1.36,13.96c-0.06,0.34-0.21,0.59-0.46,0.8c-0.05-3.11,0.49-6.15,0.85-9.23
		c0.26-2.28,0.36-4.59,0.55-6.88c0.73-9.06,0.4-18.16,0.57-27.24c0.09-4.95-0.33-9.87-0.64-14.78c-0.28-4.41-0.72-8.84-1.2-13.25
		c-0.59-5.52-1.46-10.99-2.12-16.5c-0.46-3.85-1.35-7.64-2.12-11.44C517.56,211.48,517.55,210.7,517.52,209.91z"/>
	<path class="st0" d="M240.31,27.18c0.96-0.91,2.31-0.7,3.38-0.79c3.55-0.31,7.08-0.88,10.63-1.24c2.67-0.27,5.41,0.03,8.03-0.76
		c0.23-0.07,0.48-0.09,0.71-0.08c4.06,0.2,8.08-0.53,12.15-0.56c6.44-0.04,12.91-0.93,19.32-0.31c4.6,0.44,9.2,0,13.79,0.75
		c2.48,0.4,5.06,0.39,7.59,0.51c3.73,0.18,7.4,0.88,11.12,1.12c0.2,0.01,0.38,0.26,0.57,0.4c-3.26,0.03-6.46-0.53-9.69-0.86
		c-1.89-0.19-3.78-0.32-5.68-0.54c-6.18-0.7-12.39-0.51-18.59-0.53c-1.11,0-2.23,0.13-3.3-0.34c-0.28-0.12-0.64-0.15-0.94-0.1
		c-5.78,0.97-11.64-0.09-17.39,0.56c-3.48,0.4-6.96,0.17-10.43,0.7c-2.39,0.36-4.86,0.69-7.34,0.67c-1.81-0.01-3.63,0.3-5.43,0.57
		C245.98,26.76,243.17,27.2,240.31,27.18z"/>
	<path class="st0" d="M57.57,337.97c-0.55-4.41-0.69-8.84-1-13.27c-0.52-7.63-0.57-15.27-0.39-22.9c0.13-5.38,0.36-10.77,0.8-16.15
		c0.21-2.6,0.53-5.2,0.65-7.82c0.16-3.38,0.75-6.75,1.23-10.12c0.49-3.45,1.08-6.88,1.57-10.32c0.17-1.18,0.36-2.32,0.98-3.35
		c0.22,2.59-0.81,4.99-1.06,7.52c-0.33,3.38-0.91,6.74-1.42,10.1c-0.56,3.68-0.9,7.4-1.23,11.09c-0.27,2.99-0.48,6.01-0.66,9.02
		c-0.47,7.72-0.76,15.46-0.3,23.15c0.27,4.58-0.18,9.23,0.79,13.77c0.02,0.08,0.02,0.16,0.02,0.24c-0.22,3.03,0.35,6.02,0.5,9.03
		C57.89,338.18,57.73,338.18,57.57,337.97z"/>
	<path class="st0" d="M57.57,337.97c0.16,0,0.32,0,0.48,0c0.28,2.36,0.59,4.71,0.84,7.08c0.18,1.74,0.39,3.47,0.54,5.21
		c0.35,3.88,1.1,7.69,1.71,11.52c0.58,3.68,1.44,7.31,2.14,10.97c0.1,0.54,0.04,1.12,0.05,1.67c-1.17-2.38-1.44-4.98-1.9-7.53
		c-0.78-4.36-1.58-8.72-2.15-13.11c-0.45-3.53-1.32-7.02-1.21-10.61C58.12,341.4,57.29,339.74,57.57,337.97z"/>
	<path class="st0" d="M184.2,519.26c-2.9-0.35-5.39-1.85-8.05-2.85c-6.5-2.44-12.58-5.79-18.75-8.92c-1.38-0.7-2.92-1.27-3.9-2.63
		c1.64,0.24,2.82,1.39,4.22,2.11c8.12,4.16,16.28,8.22,24.87,11.34C183.19,518.53,183.8,518.71,184.2,519.26z"/>
	<path class="st0" d="M211.53,32.45c2.28-1.17,4.82-1.4,7.28-1.88c6.04-1.18,12.1-2.25,18.17-3.3c1.08-0.19,2.22-0.07,3.33-0.1
		c-1.16,0.82-2.58,0.71-3.85,0.88c-4.39,0.57-8.7,1.56-13.06,2.23C219.42,30.89,215.56,32.17,211.53,32.45z"/>
	<path class="st0" d="M350.14,518.3c-1.8,1.44-4.06,1.76-6.15,2.4c-5.23,1.6-10.51,3.05-15.8,4.48c-1.44,0.39-2.9,0.82-4.43,0.79
		c2.01-1.22,4.34-1.34,6.53-1.93c5.75-1.53,11.42-3.28,17.09-5.07C348.28,518.7,349.15,518.22,350.14,518.3z"/>
	<path class="st0" d="M459.97,447.31c0.02,0.82-0.55,1.28-1.06,1.78c-4.33,4.33-8.66,8.66-12.99,12.99c-0.5,0.5-0.97,1.08-1.78,1.06
		c0.87-1.36,2.14-2.34,3.25-3.47c3.58-3.62,7.19-7.21,10.79-10.8C458.74,448.32,459.22,447.66,459.97,447.31z"/>
	<path class="st0" d="M521.84,311.59c0.14,2.96-0.5,5.84-0.93,8.74c-0.76,5.1-1.73,10.15-2.89,15.17c-0.09,0.4-0.15,0.78-0.51,1.03
		c0.08-3.2,1.08-6.24,1.63-9.35c0.65-3.66,1.15-7.35,1.79-11.01C521.2,314.64,520.98,313,521.84,311.59z"/>
	<path class="st0" d="M327.59,26.22c3.29-0.24,6.49,0.57,9.68,1.06c4.85,0.74,9.71,1.53,14.47,2.79c0.33,0.09,0.59,0.22,0.79,0.48
		c-0.87-0.02-1.72-0.1-2.59-0.29c-5.96-1.3-11.96-2.32-18-3.17C330.51,26.88,328.91,27.14,327.59,26.22z"/>
	<path class="st0" d="M70.52,400.32c-0.77-0.57-0.91-1.47-1.15-2.3c-1.63-5.72-3.52-11.36-4.81-17.18
		c-0.19-0.87-0.26-1.72-0.28-2.59c0.87,1.28,0.94,2.82,1.31,4.25c1.29,4.98,2.66,9.94,4.34,14.81
		C70.27,398.27,70.67,399.25,70.52,400.32z"/>
	<path class="st0" d="M124.25,483.77c-0.81,0.02-1.28-0.55-1.78-1.05c-3.7-3.69-7.39-7.39-11.09-11.09c-0.5-0.5-1.07-0.96-1.05-1.78
		c1.92,1.42,3.46,3.24,5.13,4.92C118.4,477.76,121.54,480.55,124.25,483.77z"/>
	<path class="st0" d="M62.37,249.72c-0.29-1.88,0.5-3.57,0.97-5.3c0.94-3.49,1.58-7.07,2.78-10.49c0.13-0.37,0.2-0.76,0.56-1
		c0.03,2.18-1.02,4.1-1.46,6.17c-0.7,3.3-1.59,6.56-2.39,9.84C62.76,249.26,62.62,249.51,62.37,249.72z"/>
	<path class="st0" d="M76.76,416.62c-1.25-1.39-1.72-3.16-2.36-4.85c-0.94-2.51-1.88-5.02-2.89-7.5c-0.34-0.83-0.57-1.63-0.51-2.52
		c0.44,0.26,0.64,0.71,0.78,1.15c1.34,4.29,3.14,8.4,4.83,12.55C76.75,415.81,76.71,416.23,76.76,416.62z"/>
	<path class="st0" d="M66.69,232.93c0.56-3.54,1.62-6.92,3.36-10.07C69.24,226.32,68.18,229.7,66.69,232.93z"/>
	<path class="st2" d="M71,401.75c-0.57-0.34-0.47-0.91-0.48-1.44C71.08,400.66,70.99,401.23,71,401.75z"/>
	<path class="st3" d="M218.24,290.35c-15.91,5.36-31.54,10.62-47.42,15.97c0.18-2.55,0.32-4.85,0.52-7.13
		c0.22-2.46,0.55-4.91,0.76-7.37c0.71-8.66,1.24-17.34,2.09-25.99c0.98-9.91,2.01-19.83,4.17-29.58c0.17-0.77,0.23-1.58,0.8-2.2
		c0.71-0.07,0.93,0.51,1.27,0.93c5.11,6.27,9.3,13.16,13.38,20.1c6.93,11.79,14.66,23.01,23.29,33.62
		C217.44,289.12,217.73,289.6,218.24,290.35z"/>
	<path class="st0" d="M256.87,556.41c0,0,66.89-1.36,104.16-16.66"/>
</g>
</svg>
