<?xml version="1.0" encoding="utf-8"?>
<!-- Generator: Adobe Illustrator 28.2.0, SVG Export Plug-In . SVG Version: 6.00 Build 0)  -->
<svg version="1.1" id="Layer_1" xmlns="http://www.w3.org/2000/svg" xmlns:xlink="http://www.w3.org/1999/xlink" x="0px" y="0px"
	 viewBox="0 0 1418.37 1211.54" style="enable-background:new 0 0 1418.37 1211.54;" xml:space="preserve">
<style type="text/css">
	.st0{fill:#07294E;}
	.st1{fill:#0A2849;}
	.st2{fill:#0A2949;}
	.st3{fill:#0D2843;}
	.st4{fill:#FFFFFF;}
	.st5{fill:#0B2947;}
	.st6{fill:#0B2848;}
	.st7{fill:#0A2948;}
	.st8{fill:#0B2849;}
	.st9{fill:#0B2846;}
	.st10{fill:#0A2847;}
	.st11{fill:#082A4E;}
	.st12{fill:#0C2D51;}
	.st13{fill:#0B2C50;}
	.st14{fill:#092A4E;}
</style>
<g>
	<path class="st11" d="M1083.62,1108.25c0.15-25.71,10.32-47.85,26.45-67.39c3.3-3.99,4.68-8.07,4.68-13.17
		c0.22-336.95,0.51-673.9,0.79-1010.86c0.01-11.5-5.31-16.82-16.77-16.82C799.46,0,500.15-0.01,200.84,0.07
		c-6.79,0-13.67,0.48-20.35,1.65c-49.02,8.59-84.88,49.59-87.72,99.95c-0.1,1.74-0.26,3.48-0.41,5.48c-8.22,0-15.88-0.27-23.51,0.09
		c-6.11,0.28-12.35,0.68-18.25,2.15c-33.48,8.35-58.22,42.23-47.81,82c8.06,30.79,33.97,49.93,65.9,50.29
		c7.81,0.09,15.61,0.02,23.17,0.02c0.41,0.75,0.7,1.04,0.7,1.33c0.09,14.15,0.13,28.31,0.25,42.46c0.03,3.03-1.89,2.96-4,2.99
		c-9.32,0.11-18.67-0.18-27.95,0.5c-28.07,2.06-51.42,22.41-58.69,50.64c-6.76,26.31,4.72,55.58,27.58,70.87
		c13.43,8.99,28.27,11.99,44.14,11.45c6.09-0.2,12.19-0.03,18.58-0.03v47.72c-8.94,0-17.57-0.1-26.19,0.01
		C31.91,470.1,3.7,496.12,0.73,530.05c-3.13,35.68,21.43,67.33,56.7,72.12c9.99,1.36,20.28,0.82,30.43,0.73
		c4.08-0.04,5.07,1.37,5,5.19c-0.2,12.32-0.07,24.65-0.1,36.97c0,1.47-0.18,2.93-0.31,4.98c-2.08,0-3.86-0.03-5.65,0
		c-8.82,0.16-17.72-0.35-26.45,0.64c-25.4,2.88-43.92,16.34-54.12,39.55c-10.44,23.78-7.55,47,8.08,67.88
		c13.5,18.02,32.28,26.06,54.58,26.29c7.78,0.07,15.56,0.01,23.2,0.01c0.33,1.03,0.61,1.5,0.61,1.96
		c0.05,13.83,0.01,27.65,0.14,41.47c0.03,3.2-1.74,3.42-4.15,3.4c-7.33-0.04-14.66-0.2-21.98,0.05
		c-26.98,0.9-47.43,13.12-59.3,37.28c-11.64,23.69-9.49,47.39,5.87,68.94c13.17,18.5,31.67,27.92,54.63,27.97
		c8.09,0.02,16.19,0,24.51,0c0.15,2.16,0.35,3.62,0.35,5.09c0.02,34.31,0.04,68.62-0.02,102.94c-0.01,2.12-0.39,4.32-1.06,6.34
		c-4.98,14.98-5.95,30.19-3.54,45.8c6.81,44.01,46.85,78.63,91.27,78.63c88.77,0,177.55-0.01,266.33-0.01
		c217.86,0,435.72,0.01,653.58,0.04c6.62,0,11.88-2.38,14.34-8.66c2.28-5.84,0.9-11.02-3.35-16.07
		C1092.96,1159.04,1083.45,1135.27,1083.62,1108.25z M770.09,28.22h199.28v295.67c-1.87-1.73-3.16-2.86-4.39-4.06
		c-19.29-18.82-38.42-37.82-57.96-56.37c-5.49-5.21-11.99-9.5-18.43-13.54c-11.07-6.95-22.92-7.39-34.06-0.73
		c-8.65,5.16-17.02,11.16-24.45,17.95c-18.77,17.18-36.95,35.03-55.38,52.59c-1.28,1.22-2.64,2.36-4.61,4.12V28.22z M405.35,28.15
		h337.36v6.3c0,98.77,0.01,197.54-0.04,296.31c0,9.92,3.17,18.38,10.93,24.62c7.49,6.03,17.72,5.08,25.37-2.2
		c21.33-20.32,42.49-40.83,63.88-61.1c5.79-5.48,11.96-10.6,18.28-15.44c7.3-5.6,11.57-5.66,18.94-0.14
		c5.7,4.29,11.09,9.05,16.25,13.98c22.13,21.19,44.09,42.55,66.19,63.76c7.1,6.82,14.48,7.35,22.56,1.75
		c7.9-5.49,12.04-13.21,12.38-22.78c0.26-6.99,0.06-13.99,0.06-20.99c0.01-92.44,0.01-184.88,0.01-277.32v-6.63h89.68v987.88H405.35
		V28.15z M337.97,28.29h38.64v987.94h-38.64V28.29z M123.54,82.91c10.29-32.01,40.48-54.55,74.03-54.84
		c36.47-0.31,72.95-0.08,109.42-0.08c0.82,0,1.64,0.09,3.07,0.17v988.35h-5.94c-39.81,0-79.62,0.19-119.42-0.08
		c-23.13-0.15-43.96,6.04-62.31,20.26c-0.49,0.37-1.08,0.61-2.06,1.16v-72.37h5.77c19.32,0,38.64,0.05,57.96-0.01
		c32.11-0.12,60.93-25.47,65.55-57.59c4.66-32.31-15.61-64.49-46.78-73.52c-6.62-1.92-13.72-2.84-20.62-2.99
		c-18.48-0.4-36.97-0.13-55.46-0.13h-6.54v-46.82h5.33c18.82,0,37.64,0.13,56.46-0.04c36.3-0.35,66.16-27.69,67.97-62.03
		c2.11-40.13-27.9-71.93-68.37-72.28c-18.15-0.16-36.31-0.03-54.46-0.03h-6.78v-46.76c1.98-0.09,4.05-0.27,6.13-0.28
		c19.98-0.07,39.98,0.34,59.95-0.27c30.77-0.93,58.07-25.04,62.72-54.59c5.14-32.58-12.49-64.17-42.55-74.75
		c-7.99-2.81-16.82-4.13-25.32-4.4c-20.13-0.62-40.29-0.2-60.86-0.2v-46.88h5.75c19.99-0.03,39.98,0.23,59.96-0.17
		c27.41-0.55,53.42-20.88,61.18-47.22c9.6-32.61-6.52-67.01-37.71-80.59c-8.68-3.78-17.76-5.46-27.18-5.46
		c-18.49-0.01-36.98,0-55.47,0h-6.69v-46.76h5.52c18.32,0,36.65-0.26,54.97,0.04c41.64,0.69,76.41-36.72,68.21-79.48
		c-5.07-26.42-21.17-43.96-46.75-52.16c-6.52-2.09-13.72-2.69-20.63-2.83c-18.48-0.37-36.98-0.13-55.46-0.12h-5.74
		C119.19,98.52,121.06,90.61,123.54,82.91z M66.92,213.35c-16.98-0.18-30.71-9.94-36.86-25.69c-9.08-23.21,8.18-51.31,33.09-52.77
		c16.25-0.95,32.59-0.44,48.89-0.48c23.13-0.06,46.26,0.19,69.39-0.06c25.6-0.28,41.1,20.82,40.84,40.62
		c-0.26,20.62-16.87,38.03-37.53,38.35c-19.97,0.31-39.94,0.07-59.91,0.07C105.53,213.4,86.23,213.55,66.92,213.35z M67.3,394.82
		c-19.18-0.14-36.03-14.33-38.99-31.87c-3.41-20.24,6.72-38.1,26.18-45c4.88-1.73,10.42-2.15,15.67-2.22
		c18.48-0.26,36.97-0.1,55.45-0.1v0.06c19.48,0,38.97-0.29,58.45,0.09c16.84,0.32,28.83,8.88,35.09,24.31
		c6.4,15.77,3.59,30.46-8.21,42.93c-7.45,7.87-17.02,11.76-27.74,11.81C144.57,395.01,105.93,395.09,67.3,394.82z M67.94,575.93
		c-24.89-0.28-42.86-21.06-39.86-45.74c1.73-14.28,13.85-27.95,28.3-31.64c3.68-0.93,7.52-1.75,11.28-1.76
		c38.45-0.13,76.91-0.16,115.36-0.04c16.99,0.04,32.22,11.22,37.11,26.78c5.44,17.29-0.15,35.05-14.42,45.24
		c-6.81,4.87-14.49,7.27-22.92,7.2c-9.66-0.07-19.31,0-28.97,0c-9.48,0.01-18.97,0-28.46,0C106.22,575.97,87.08,576.15,67.94,575.93
		z M65.87,756.77c-16.66-0.35-28.33-9.24-34.88-24.12c-11.32-25.7,7.19-54.2,35.85-54.62c38.96-0.56,77.94-0.4,116.91-0.01
		c19.64,0.2,35.5,14.77,38.2,33.68c2.7,18.92-8.95,37.85-27.37,43.63c-4.5,1.41-9.52,1.55-14.31,1.59
		c-18.32,0.18-36.64,0.08-54.96,0.08v-0.13C105.5,756.87,85.67,757.2,65.87,756.77z M67.74,937.63
		c-24.88-0.2-42.68-20.59-39.64-45.2c2.2-17.91,19.25-33.71,37.7-33.84c39.77-0.3,79.54-0.33,119.31,0.02
		c18.54,0.16,34.77,16.18,36.9,35.13c2.18,19.33-9.78,37.44-28.17,42.24c-3.97,1.04-8.17,1.57-12.28,1.61
		c-18.8,0.16-37.61,0.07-56.41,0.07C106.01,937.66,86.88,937.78,67.74,937.63z M1068.81,1176.35c-295.98,0-591.96,0.01-887.94,0
		c-39.41,0-69.97-32.5-66.69-71.81c2.37-28.37,22.7-52.67,51.61-58.93c6.11-1.33,12.51-1.87,18.78-1.87
		c293.81-0.09,587.63-0.08,881.44-0.08h8.48c-12.38,21.22-18.84,43.04-18.56,66.43c0.28,23.34,7.08,45.11,18.7,66.26H1068.81z"/>
	<path class="st11" d="M1418.34,515.66c0-127.24,0.13-254.47-0.24-381.71c-0.03-10.76-1.97-22.04-5.55-32.19
		c-22.35-63.4-91.16-93.52-153.23-67.67c-40.58,16.9-68.64,58.94-68.63,102.77c0.01,27.65,0.01,55.29,0.01,82.94
		c0,222.66,0,445.32-0.01,667.98c0,1.99-0.05,3.99-0.11,5.99c-0.23,7.69-0.81,15.45,6.07,21.14c0.82,0.68,1.09,2.03,1.57,3.09
		c28.06,61.92,56.18,123.82,84.06,185.83c1.96,4.37,2.98,9.52,3.03,14.32c0.29,26.15,0.03,52.3,0.27,78.44
		c0.03,3.26,1.23,6.94,3.02,9.67c3.12,4.75,10.04,6.4,15.2,4.54c5.53-1.99,8.66-6.27,8.68-12.63c0.07-26.65-0.03-53.29,0.12-79.94
		c0.02-3.02,0.66-6.34,2.03-9.01c33.67-65.7,67.5-131.32,101.17-197.02c1.51-2.95,2.46-6.55,2.47-9.85
		c0.12-128.89,0.1-257.79,0.1-386.69H1418.34z M1284.48,54.38c40.41-9.2,80.56,10.19,97.88,46.65c5.6,11.78,8.56,24.13,8.67,37.1
		c0.17,19.32,0.07,38.64,0.07,57.96c0,0.81-0.15,1.62-0.29,3.02H1218v-6.1c0-18.32,0.26-36.64-0.06-54.96
		C1217.28,100.37,1245.23,63.32,1284.48,54.38z M1300.32,1076.6c-24.49-53.85-48.43-106.48-72.64-159.72h154.72
		C1355.06,970.07,1327.98,1022.77,1300.32,1076.6z M1391.12,884.47c0,1.46-0.2,2.92-0.33,4.85h-172.43
		c-0.13-1.9-0.35-3.64-0.35-5.39c-0.02-216.99,0-433.99-0.11-650.98c0-4.61,1.27-5.9,5.86-5.85c20.48,0.24,40.97,0.1,61.45,0.11
		c1.47,0,2.95,0.14,5.23,0.25v6.91c0,167.54,0.01,335.07-0.06,502.6c0,6.23,1.86,11.18,7.48,14.09c5.16,2.67,10.72,2.64,14.95-1.29
		c2.66-2.48,4.03-6.5,5.5-10.03c0.65-1.56,0.12-3.62,0.12-5.45v-500.6c0-6.47,0-6.48,6.51-6.48c20.32-0.01,40.64,0.11,60.95-0.09
		c4.19-0.04,5.32,1.26,5.32,5.37C1391.12,449.82,1391.13,667.14,1391.12,884.47z"/>
	<path class="st11" d="M745.71,792.69c-33.81,0.01-67.62,0.01-101.43,0.01h101.43c67.12-0.01,134.24-0.01,201.36-0.01H745.71z"/>
	<path class="st11" d="M1037.39,477.89c-0.03-8.15-2.56-15.69-7.51-22.33c-8.7-11.66-20.56-15.96-34.77-15.95
		c-165.86,0.09-331.73,0.06-497.59,0.06c-2,0-4,0.02-5.99,0.12c-19.9,1.01-36.44,18.02-36.5,37.96
		c-0.13,37.47-0.15,74.94,0.08,112.4c0.03,4.71,1.25,9.59,2.84,14.06c4.82,13.58,19.1,24.81,38.46,24.73
		c83.09-0.31,166.19-0.13,249.29-0.13h6.99c81.44,0,162.87-0.19,244.3,0.13c21.52,0.08,40.14-15.97,40.36-37.64
		C1037.72,553.5,1037.53,515.69,1037.39,477.89z M1010.54,586.81c-0.01,10.02-5.04,15.03-15.08,15.03
		c-83.11,0.01-166.22,0.01-249.33,0.01H498.3c-11.75,0-16.19-4.46-16.19-16.36c-0.01-34.48-0.01-68.96,0-103.43
		c0-10.4,4.89-15.31,15.27-15.31c166.05-0.01,332.1-0.01,498.15-0.01c9.96,0.01,15,5.1,15.01,15.15
		C1010.55,516.86,1010.56,551.84,1010.54,586.81z"/>
	<path class="st11" d="M1011.49,859.54c-0.67,6.76-5.75,11.62-12.53,11.95c-1.83,0.09-3.66,0.04-5.49,0.04h-247.3
		c-83.43,0-166.86-0.03-250.29,0.05c-6.09,0.01-10.82-1.92-13.48-7.5c-2.57-5.41-2.32-11.03,1.89-15.33
		c2.36-2.41,6.07-3.63,9.36-4.9c1.6-0.61,3.63-0.12,5.46-0.12h496.58C1006.4,843.73,1012.46,849.81,1011.49,859.54z"/>
	<path class="st11" d="M964.75,949.38c-2.28,0.38-4.64,0.34-6.97,0.34c-70.62,0.01-141.24,0.01-211.86,0.01
		c-69.29-0.01-138.58,0-207.86-0.01c-2.83,0-5.68,0.08-8.49-0.14c-7.61-0.57-12.87-6.07-12.83-13.26
		c0.03-7.35,5.6-13.19,13.12-13.73c1.16-0.09,2.33-0.03,3.49-0.03c142.08,0,284.15,0.01,426.22-0.06c5.53,0,10.32,1.3,13.71,5.72
		C979.42,936.23,974.76,947.71,964.75,949.38z"/>
	<path class="st11" d="M965.14,778.53c0.14,7.63-5.17,13.61-12.58,14.1c-1.82,0.12-3.66,0.06-5.49,0.06
		c-67.12,0-134.24,0-201.36,0.01H644.28c-33.81,0-67.62,0-101.43-0.01c-10.24-0.01-15.93-5.85-15.15-15.39
		c0.51-6.17,4.95-10.82,11.15-11.55c1.65-0.2,3.33-0.16,4.99-0.16h404.22c1.5,0,3-0.03,4.5,0.06
		C959.9,766.1,965.01,771.35,965.14,778.53z"/>
	<path class="st11" d="M882.02,700.85c-0.15,6.69-5.04,12.05-11.71,12.7c-1.98,0.19-3.99,0.09-5.99,0.09H723.44
		c-47.8,0.01-95.59,0.02-143.38,0c-9-0.01-15.1-5.31-15.17-13.02c-0.06-7.29,5.17-13.13,12.41-13.81c1.49-0.14,3-0.07,4.49-0.07
		c94.26,0,188.51-0.01,282.77,0c2,0,4.01-0.08,5.99,0.15C877.48,687.69,882.19,693.49,882.02,700.85z"/>
	<path class="st11" d="M868.43,1113.85c-2.05,5.05-5.91,7.92-11.34,8.51c-1.82,0.2-3.66,0.12-5.49,0.12H600.86
		c-83.91,0-167.82,0.03-251.73-0.08c-3.38,0-7.08-0.52-10.06-1.98c-5.48-2.68-7.92-9.05-6.59-14.84c1.36-5.92,6.89-10.5,13.36-10.9
		c2.66-0.16,5.33-0.04,7.99-0.04c166.33,0,332.65,0,498.98,0.01C865.16,1094.65,872.55,1103.68,868.43,1113.85z"/>
</g>
</svg>
