<?xml version="1.0" encoding="utf-8"?>
<!-- Generator: Adobe Illustrator 28.2.0, SVG Export Plug-In . SVG Version: 6.00 Build 0)  -->
<svg version="1.1" id="Layer_1" xmlns="http://www.w3.org/2000/svg" xmlns:xlink="http://www.w3.org/1999/xlink" x="0px" y="0px"
	 viewBox="0 0 1499.63 1461.97" style="enable-background:new 0 0 1499.63 1461.97;" xml:space="preserve">
<style type="text/css">
	.st0{fill:#07294E;}
	.st1{fill:#0A2849;}
	.st2{fill:#0A2949;}
	.st3{fill:#0D2843;}
	.st4{fill:#FFFFFF;}
	.st5{fill:#0B2947;}
	.st6{fill:#0B2848;}
	.st7{fill:#0A2948;}
	.st8{fill:#0B2849;}
	.st9{fill:#0B2846;}
	.st10{fill:#0A2847;}
	.st11{fill:#082A4E;}
	.st12{fill:#0C2D51;}
	.st13{fill:#0B2C50;}
	.st14{fill:#092A4E;}
</style>
<g>
	<path class="st11" d="M0.02,842.6c0-188.04,0-376.07,0-564.11c0-29.91,24.38-54.46,54.27-54.53c30.15-0.07,60.29-0.01,90.44-0.02
		c7.26,0,7.27-0.01,7.27-7.05c0-53.8,0.02-107.59-0.01-161.39C151.98,24.82,176.54,0,207.01,0c129.41,0.02,258.82,0.05,388.23,0.06
		C701.67,0.07,808.09,0.1,914.52,0.03c32.55-0.02,60.21,11.9,82.87,34.75c36.58,36.89,72.94,74.02,108.72,111.68
		c17.59,18.51,26.53,41.56,29.67,66.89c1.07,8.64,0.8,17.29,0.8,25.93c0.02,215.18,0.04,430.37-0.04,645.55
		c0,7.67,1.83,15.24,0.89,22.92c-0.23,1.86,0.49,2.83,2.35,3.04c15.4,1.76,26.71,11.27,38.31,20.23
		c66.53,51.43,133.06,102.86,199.59,154.29c33.72,26.07,67.56,51.99,101.12,78.26c23.65,18.5,27.66,52.55,9.45,76.45
		c-6.36,8.34-12.77,16.64-19.2,24.92c-17.8,22.89-50.97,28.12-74.75,11.08c-16.37-11.73-32.02-24.46-47.96-36.78
		c-30.3-23.41-60.58-46.86-90.89-70.27c-35.84-27.69-71.7-55.35-107.56-83.02c-2.24-1.73-4.48-3.47-6.8-5.09
		c-1.15-0.8-2.1-2.76-3.71-1.83c-1.43,0.83-0.75,2.75-0.75,4.18c-0.03,32.98,0.02,65.95-0.05,98.93
		c-0.05,25.84-14.63,46.3-38.59,54.28c-5.89,1.96-12.02,2.54-18.21,2.53c-29.31-0.02-58.63-0.01-87.94-0.01
		c-7.21,0-7.23,0.01-7.23,7.06c-0.01,52.96,0.03,105.93-0.02,158.89c-0.02,23.35-9.94,41-30.74,52.08
		c-6.41,3.41-13.29,4.8-20.67,4.8c-293.8-0.08-587.59-0.18-881.39,0.17c-19.18,0.02-44.38-16.2-49.86-40.95
		c-1.37-6.21-1.93-12.45-1.93-18.82c0.05-186.54,0.04-373.07,0.04-559.61C0.03,842.6,0.03,842.6,0.02,842.6z M187.02,619.55
		c0,58.3,0,116.59,0,174.89c0,128.91-0.01,257.82,0.01,386.74c0,15.58,7.33,23.3,22.14,23.3c290.31,0.01,580.62,0.01,870.93,0
		c13.38,0,21.96-8.3,22-21.77c0.12-42.47,0.02-84.94,0.11-127.42c0.01-3.36-1.17-5.63-3.8-7.59c-6.01-4.47-11.88-9.13-17.84-13.67
		c-7.56-5.76-13.64-12.77-17.3-21.57c-1.39-3.35-2.77-4.15-6.29-2.85c-13.28,4.88-26.55,4.27-39.35-1.66
		c-26.44-12.24-38.36-40.45-28.83-68.05c1.04-3.02,0.68-4.97-1.96-6.81c-3.41-2.38-6.64-5.01-9.92-7.58
		c-5.66-4.43-5.64-4.43-11.07,0.23c-47.22,40.47-102.24,61.66-164.03,65.12c-34.74,1.94-68.88-2.7-101.72-14.42
		c-68.7-24.52-120.87-68.65-154.33-133.67c-28.35-55.09-36.81-113.64-25.66-174.61c9.69-52.95,33.36-99.26,70.42-138.25
		c45.66-48.03,101.64-75.75,167.69-83.25c35.06-3.98,69.55-1.61,103.35,8.06c70.96,20.31,125.4,62.56,163.11,125.91
		c19.76,33.19,31.01,69.34,35.32,107.83c3.83,34.23,1.05,67.77-7.75,100.91c-4.67,17.59-11.23,34.5-19.51,50.71
		c-1.87,3.66-2.06,6.26,1.88,8.71c3.66,2.27,7.07,5.03,10.25,7.95c2.89,2.64,5.09,2.31,8.27,0.26c13.02-8.41,27.15-11.41,42.45-7.66
		c6.54,1.6,6.58,1.52,6.58-5.25c0-206.37,0-412.73,0.02-619.1c0-9.8-2.23-19.12-5.39-28.3c-0.97-2.82-2.29-4.07-5.53-2.64
		c-6.17,2.72-12.72,3.62-19.49,3.59c-26.32-0.09-52.63,0.05-78.95-0.05c-32.5-0.12-56.37-24.15-56.42-56.68
		c-0.04-26.82,0-53.63-0.02-80.45c-0.01-6.17-0.12-12.33,1.61-18.34c0.95-3.31-0.54-4.64-3.75-5.59
		c-6.18-1.82-12.43-2.12-18.77-2.12c-234.18,0.01-468.36,0.01-702.54,0.01c-2.66,0-5.33,0.07-7.99,0.1
		c-2.03,0.02-3.92,0.51-5.77,1.38c-9.39,4.41-12.22,12.11-12.21,22.02C187.05,245.13,187.02,432.34,187.02,619.55z M34.47,842.39
		c0,186.55,0,373.09,0.02,559.64c0,2.49,0.05,5.01,0.44,7.46c1.99,12.6,9.04,18.69,21.7,18.91c1.67,0.03,3.33,0.01,5,0.01
		c286.31,0,572.63,0,858.94,0c2.66,0,5.33,0.04,7.99-0.02c12.97-0.31,21.57-8.77,21.59-21.84c0.1-54.13,0.02-108.26,0.11-162.39
		c0.01-3.83-1.1-5.6-5.12-5.21c-2.31,0.23-4.66,0.04-6.99,0.04c-241.34,0-482.69,0-724.03,0c-2.66,0-5.33,0.02-7.99-0.03
		c-22.37-0.41-42.03-14.21-50.07-35.1c-3.6-9.35-4.09-19.1-4.08-28.98c0.03-297.81,0.03-595.61,0.02-893.42
		c0-5.83-0.19-11.67,0.06-17.49c0.18-4.34-1.47-5.84-5.8-5.83c-30.31,0.13-60.63,0.07-90.94,0.08c-2.85,0-5.6,0.32-8.26,1.57
		c-10.04,4.73-12.64,13.24-12.63,23.47C34.48,469.64,34.47,656.01,34.47,842.39z M787.82,479.34
		c-132.45,0.56-238.2,107.24-237.79,239.88c0.4,131.57,107.61,237.94,239.28,237.38c134.88-0.57,238.61-110.83,237.96-239.4
		C1026.6,585.13,919.61,478.78,787.82,479.34z M1465.05,1206.52c0.25-7.5-3.54-13.06-9.39-17.57
		c-31.48-24.32-62.94-48.67-94.43-72.98c-35.45-27.36-70.92-54.69-106.38-82.04c-36.25-27.96-72.46-55.98-108.76-83.88
		c-10.71-8.23-22.86-6.65-31.27,3.88c-5.61,7.02-11.13,14.13-16.49,21.34c-8.88,11.95-7.49,23.16,4.17,32.21
		c35.24,27.35,70.57,54.6,105.88,81.87c56.26,43.44,112.54,86.87,168.81,130.3c11.6,8.95,23.15,17.95,34.79,26.85
		c9.55,7.31,22.17,6.61,29.21-1.96c6.76-8.23,13.12-16.79,19.51-25.31C1463.45,1215.58,1465.24,1211.46,1465.05,1206.52z
		 M1067.78,163.18c0.2-0.41,0.4-0.82,0.6-1.23c-32.21-33.75-64.42-67.51-96.73-101.38c-1.27,1.81-0.81,3.34-0.81,4.78
		c-0.03,24.82-0.05,49.63-0.01,74.45c0.03,15.19,8.24,23.33,23.58,23.37c17.49,0.05,34.98,0.01,52.46,0.01
		C1053.84,163.18,1060.81,163.18,1067.78,163.18z M1103.11,903.05c-0.09-9.2-5.39-16.83-12.87-19.51
		c-8.87-3.17-17.44-0.81-23.6,7.09c-14.23,18.24-28.37,36.55-42.34,54.99c-6.8,8.97-5.41,21.33,2.66,27.88
		c8.69,7.05,21.4,6.24,28.56-2.76c14.8-18.63,29.13-37.64,43.58-56.54C1101.78,910.67,1103.01,906.52,1103.11,903.05z
		 M1023.8,885.65c0.18-1.61-0.73-2.4-1.64-3.1c-2.35-1.83-4.84-3.49-7.12-5.41c-2.04-1.72-3.39-1.26-4.89,0.72
		c-4.01,5.28-8.18,10.43-12.21,15.69c-0.75,0.98-2.25,2.31-1.13,3.47c3.11,3.2,6.59,6.03,10.52,8.2c0.98,0.54,1.88-0.35,2.51-1.16
		c4.39-5.62,8.77-11.24,13.12-16.88C1023.37,886.66,1023.6,886.02,1023.8,885.65z"/>
	<path class="st11" d="M603.25,264.27c96.6,0,193.2,0,289.79,0c3.33,0,6.66-0.05,9.94,0.7c8.13,1.85,13.78,8.73,13.74,16.8
		c-0.03,7.85-5.53,14.85-13.34,16.62c-2.73,0.62-5.61,0.84-8.42,0.84c-194.86,0.04-389.72,0.03-584.58,0.05
		c-3.53,0-6.98-0.31-10.28-1.64c-7.53-3.02-11.13-9.38-10.45-18.46c0.5-6.65,5.8-12.64,12.88-14.11c2.9-0.6,5.94-0.77,8.92-0.77
		C408.73,264.27,505.99,264.27,603.25,264.27z"/>
	<path class="st11" d="M603.26,1014.48c97.92,0,195.84,0.02,293.76-0.05c8.02-0.01,14.39,2.36,17.99,9.97
		c5.16,10.91-2.15,23.25-14.51,24.46c-1.82,0.18-3.66,0.11-5.49,0.11c-194.68,0-389.35,0-584.03,0.01c-3.84,0-7.62-0.05-11.26-1.66
		c-7.85-3.47-11.41-10.41-9.94-19.69c1.03-6.52,7.91-12.46,15.23-13.07c1.82-0.15,3.66-0.07,5.49-0.07
		C408.08,1014.48,505.67,1014.48,603.26,1014.48z"/>
	<path class="st11" d="M602.94,423.53c-98.1,0-196.2-0.03-294.29,0.06c-6.37,0.01-11.95-1.23-15.88-6.55
		c-4.14-5.6-4.43-11.84-1.55-17.94c3.36-7.12,9.77-10.01,17.25-9.63c10.99,0.56,21.98,0.32,32.96,0.33
		c185.2,0.04,370.41,0.03,555.61,0.03c10.38,0,16.24,3.76,18.92,12.11c3.23,10.05-4.18,20.93-14.73,21.5
		c-3.49,0.19-6.99,0.09-10.49,0.09C794.81,423.53,698.87,423.53,602.94,423.53z"/>
	<path class="st11" d="M405.85,514.11c31.97,0,63.95,0,95.92,0c7.66,0,14.08,2.38,17.97,9.48c5.11,9.35,0.83,20.54-9.21,24.12
		c-3.33,1.19-6.79,1.48-10.32,1.48c-63.11-0.02-126.23-0.02-189.34,0c-3.19,0-6.33-0.22-9.39-1.11
		c-6.94-2.03-11.47-7.59-11.84-14.45c-0.47-8.75,2.92-14.66,10.05-17.72c3.45-1.48,7.04-1.82,10.74-1.82
		C342.24,514.12,374.04,514.11,405.85,514.11z"/>
	<path class="st11" d="M405.89,889.55c32.8,0,65.6-0.03,98.41,0.03c8.47,0.02,14.91,5.04,16.95,12.82
		c1.98,7.56-1.29,15.22-8.26,19.13c-3.43,1.92-7.25,2.44-11.1,2.44c-64.27,0.03-128.54,0.06-192.82-0.01
		c-12.26-0.01-19.43-6.58-19.46-17.27c-0.03-10.04,6.98-17.07,17.37-17.1c23.31-0.08,46.62-0.03,69.93-0.03
		C386.57,889.54,396.23,889.54,405.89,889.55z"/>
	<path class="st11" d="M390.88,764.65c27.48,0,54.95-0.02,82.43,0c11.21,0.01,18.63,6.78,18.69,16.96
		c0.06,9.76-7.44,17.19-18.16,17.21c-55.62,0.11-111.24,0.11-166.85,0c-10.84-0.02-17.48-7.08-17.39-17.63
		c0.08-10.01,7.04-16.51,17.86-16.53C335.26,764.63,363.07,764.65,390.88,764.65z"/>
	<path class="st11" d="M390.95,639.71c27.29,0,54.59,0.34,81.87-0.16c12.17-0.22,19.32,8.85,19.19,17.16
		c-0.15,9.96-8.06,17.34-19.3,17.35c-54.75,0.07-109.5,0.05-164.25,0.01c-7.29-0.01-13.51-2.56-17.03-9.3
		c-2.96-5.65-2.92-11.63,0.5-17.12c3.42-5.5,8.6-7.98,15.14-7.97C335.04,639.75,362.99,639.71,390.95,639.71z"/>
	<path class="st11" d="M789.53,917.87c-111.5-0.68-201.2-88.32-200.49-201.43c0.69-109.86,89.1-199.4,202.05-198.14
		c108.16,1.21,197.74,87.97,197,201.21C987.38,828.81,900.84,916.21,789.53,917.87z M788.36,882.91
		c92.48,0.97,165.55-75.99,165.25-164.88c-0.31-90.79-71.93-165.43-165.12-165.19c-98.37,0.25-165.33,80.08-164.95,165.85
		C623.94,810.39,699.95,884.46,788.36,882.91z"/>
</g>
</svg>
