<?xml version="1.0" encoding="utf-8"?>
<!-- Generator: Adobe Illustrator 28.2.0, SVG Export Plug-In . SVG Version: 6.00 Build 0)  -->
<svg version="1.1" id="Layer_1" xmlns="http://www.w3.org/2000/svg" xmlns:xlink="http://www.w3.org/1999/xlink" x="0px" y="0px"
	 viewBox="0 0 1500.47 1505.44" style="enable-background:new 0 0 1500.47 1505.44;" xml:space="preserve">
<style type="text/css">
	.st0{fill:#07294E;}
	.st1{fill:#0A2849;}
	.st2{fill:#0A2949;}
	.st3{fill:#0D2843;}
	.st4{fill:#FFFFFF;}
	.st5{fill:#0B2947;}
	.st6{fill:#0B2848;}
	.st7{fill:#0A2948;}
	.st8{fill:#0B2849;}
	.st9{fill:#0B2846;}
	.st10{fill:#0A2847;}
	.st11{fill:#082A4E;}
	.st12{fill:#0C2D51;}
	.st13{fill:#0B2C50;}
	.st14{fill:#092A4E;}
</style>
<g>
	<path class="st11" d="M637.69,1337.96c0-24.98-0.1-49.97,0.09-74.95c0.04-4.64-1.13-7.56-5.4-10.05
		c-10.02-5.85-17.72-14.21-22.15-24.99c-2.01-4.91-4.9-6.01-9.82-5.99c-43.14,0.18-86.28-0.02-129.42,0.2
		c-9.65,0.05-16.54-3.29-22.47-11.13c-35.96-47.55-72.28-94.82-108.48-142.19c-1.42-1.85-2.89-3.67-4.17-5.61
		c-5.61-8.5-4.02-18.74,3.74-24.52c7.96-5.93,18.54-4.54,24.85,3.69c30.9,40.31,61.7,80.69,92.54,121.05
		c5.16,6.75,10.36,13.45,15.46,20.24c1.54,2.05,3.37,2.93,5.94,2.93c41.64-0.04,83.28-0.09,124.92,0.06
		c4.34,0.02,5.08-2.85,6.44-5.66c11.02-22.79,29.58-34.38,54.51-34.76c27.96-0.42,52.42,20.7,57.48,48.31
		c5.24,28.55-13.31,57.51-42.05,64.9c-5.09,1.31-6.07,3.61-6.06,8.24c0.13,48.47-0.49,96.95,0.39,145.4
		c0.32,17.59-7.13,29.91-19.37,40.63c-21.26,18.61-46.28,30.43-72.51,40.24c-22.51,8.43-45.91,11.63-69.58,11.45
		c-32.35-0.24-63.88-6.1-93.96-18.58c-72.94-30.28-121.39-82.86-144.42-158.61c-5.54-18.22-9.2-36.8-10.67-55.78
		c-0.4-5.11-2.28-7.53-7.58-9.13c-53.76-16.18-97.92-46.16-129.81-92.83c-19.52-28.56-30.8-60.19-33.64-94.9
		c-3.28-40.01,5.21-77.42,23.44-112.82c2.37-4.61,1.42-6.62-2.4-9.65c-46.08-36.67-82.98-80.37-102.03-137.08
		c-15.83-47.15-15.96-94.42,3.34-140.62c16.53-39.57,41.77-72.67,78.56-95.83c16.99-10.69,35.52-17.36,55.76-18.75
		c8.54-0.59,8.48-0.69,4.04-7.76c-20.19-32.13-32.12-67-35.74-104.86c-4.46-46.57,4.67-90.1,28.26-130.45
		c22.25-38.06,53.95-65.98,93.37-85.37c31.68-15.58,65.13-24.05,100.42-25.31c0.5-0.02,1-0.06,1.5-0.1
		c7.51-0.67,7.36-0.68,7.55-8.26c1.23-48.89,18.22-91.64,50.57-128.2c27.56-31.15,61.57-52.28,101.77-62.84
		c41.78-10.98,83.27-11.3,123.81,5.95c23.34,9.93,42.27,25.69,58.73,44.65c2.94,3.39,4.29,7.47,4.29,11.98
		c0,15.99,0.13,31.98-0.06,47.97c-0.11,9.77-8.1,17.51-17.55,17.55c-9.79,0.04-17.68-7.71-17.8-17.78
		c-0.14-12.32-0.12-24.65-0.01-36.98c0.03-3.25-1.07-5.63-3.37-7.91c-16.78-16.7-36.21-28.69-59.5-33.91
		c-17.05-3.82-34.25-4.36-51.6-2.41c-41.58,4.68-77.52,21.4-106.7,51.37c-31.1,31.94-47.07,70.47-47.14,115.31
		c-0.01,7.66,0.18,15.33-0.09,22.98c-0.36,10.13-9.1,17.83-19.05,16.87c-21.41-2.08-42.56-0.51-63.47,4.42
		c-34.34,8.11-65.16,23.2-91.37,47.02c-32.21,29.27-51.66,65.57-56.59,108.8c-7.09,62.09,11.14,116.05,54.74,161.16
		c7.59,7.85,16.63,13.76,25.8,19.54c4.36,2.74,8.48,5.89,12.49,9.13c8.28,6.68,10,16.71,4.47,24.82
		c-5.31,7.78-15.37,9.75-24.41,4.45c-5.74-3.36-11.44-6.87-16.78-10.83c-27.77-20.57-67.88-21.36-97.7-1.93
		c-31.11,20.28-52.31,48.59-65.86,82.64c-17.44,43.85-13.07,87.21,5.71,129.51c20.99,47.29,55.09,83.63,96.79,113.33
		c12.16,8.66,14.15,16.94,6.27,29.71c-12.46,20.19-21.5,41.79-25.44,65.19c-6.77,40.12,0.2,77.93,21.33,112.79
		c25.68,42.36,63.57,69.17,109.96,84.74c6.77,2.27,13.78,3.84,20.71,5.56c11.83,2.94,16.27,8.72,16.6,20.85
		c1.45,52.96,17.24,100.82,51.76,141.62c23.29,27.53,52.54,46.71,86.1,59.72c30.21,11.71,61.48,16.28,93.58,13.59
		c36.65-3.07,69.02-17.65,98.22-39.63c6.83-5.15,10.47-11.22,10.15-20.66C637.15,1385.28,637.69,1361.61,637.69,1337.96z
		 M663.67,1182.05c-13.03-0.04-23.76,9.83-23.79,21.87c-0.04,12.3,10.85,22.68,23.73,22.62c12.77-0.06,23.61-10.37,23.46-22.29
		C686.9,1191.71,676.77,1182.09,663.67,1182.05z"/>
	<path class="st11" d="M816.11,1349.67c0-25.98-0.08-51.97,0.08-77.95c0.03-4.17-1.13-6.15-5.4-7.28
		c-25.94-6.9-43.59-28.46-44.04-55.22c-0.43-25.08,15.9-48.32,43.54-56.13c30.03-8.48,61.62,8.32,71.76,37.84
		c8.52,24.79-1.6,52.8-24.38,66.29c-4.65,2.76-6.22,5.8-6.2,11.11c0.2,48.8,0.28,97.61-0.06,146.41c-0.05,7.03,2.45,11.44,7.59,15.6
		c18.36,14.87,39.54,23.86,62.05,29.98c23.12,6.29,46.75,8.88,70.68,8.11c61.97-1.98,115.35-23.68,157.17-70.36
		c22.61-25.23,37.26-55.01,45.85-87.75c4.7-17.93,7.55-36.13,7.54-54.74c-0.01-13.61,5.08-19.33,18.5-22.53
		c41.16-9.79,77.19-28.88,106.3-59.97c23.45-25.05,38.86-54.39,44.56-88.35c6.11-36.39-0.7-70.86-17.07-103.62
		c-2.97-5.95-6.41-11.67-9.76-17.43c-6.48-11.13-4.89-19.78,5.69-27.24c15.85-11.17,30.42-23.84,43.97-37.64
		c26.88-27.39,48.96-57.97,61.42-94.74c3.16-9.32,5.26-18.89,7.1-28.56c0.82-4.28-0.37-5.14-4.37-5.12
		c-24.32,0.13-48.64,0.06-72.95,0.06c-4.5,0-9,0.15-13.49-0.05c-3.11-0.13-4.7,0.98-5.93,3.96c-8.22,19.94-27.92,33.08-48.83,32.87
		c-22.53-0.24-42.09-13.56-49.96-34.3c-13.9-36.6,17.22-73.69,55.33-69.54c18.5,2.02,32.43,11.34,41.36,27.74
		c1.58,2.9,3.52,3.9,6.74,3.89c29.15-0.09,58.3-0.09,87.44-0.01c3.84,0.01,5.73-0.54,5.13-5.3c-4.28-33.56-18.08-62.83-39.67-88.54
		c-16.78-19.98-36.15-36.57-62.33-42.77c-24.48-5.79-47.53-2.1-68.61,12.11c-6.62,4.46-12.93,9.46-20.12,13
		c-8.94,4.4-18.26,1.96-23.32-5.87c-4.96-7.67-3.54-16.95,3.86-23.32c3.65-3.14,7.68-5.84,11.53-8.76
		c6.36-4.82,13.62-8.27,19.65-13.65c28.52-25.45,47.59-56.65,57.6-93.47c5.06-18.59,7.68-37.52,6.78-56.79
		c-2.6-55.92-25.15-101.73-69.56-136.35c-31.46-24.52-67.4-37.91-106.78-42.26c-11.4-1.26-22.99-1.12-34.43,0
		c-12.48,1.22-21.2-5.63-21.68-18.18c-0.26-6.82-0.18-13.66-0.07-20.48c1.25-73.3-47.58-134.88-111.06-157.68
		c-23.53-8.45-47.71-12.28-72.59-10.74c-31.53,1.95-58.53,14.31-80.81,36.85c-2.27,2.3-3.31,4.7-3.28,7.95
		c0.12,12.99,0.16,25.98-0.01,38.97c-0.1,7.65-3.67,13.53-10.71,16.67c-6.63,2.95-13.06,1.92-18.72-2.7
		c-4.45-3.63-6.48-8.65-6.27-14.14c0.51-12.99,0.72-25.99-0.43-38.93c-1.09-12.22,3.06-21.76,11.64-30.43
		c27.6-27.88,60.16-45.28,99.57-48.89c56.68-5.2,107.79,9.49,152.23,44.87c41.3,32.87,66.17,75.94,74.22,128.32
		c1.34,8.69,1.75,17.55,2.16,26.35c0.18,3.9,1.16,5.53,5.41,5.7c39.35,1.57,76.75,10.94,111.39,29.82
		c54.36,29.64,91.34,73.67,107.77,133.81c8.67,31.73,9.72,63.93,4,96.47c-5.71,32.47-17.27,62.45-35.54,89.84
		c-2.07,3.11-0.75,3.6,2.05,3.79c13.37,0.92,26.32,3.66,38.79,8.7c27.65,11.18,49.36,30.01,67.73,52.93
		c21.24,26.5,36.54,55.95,42.97,89.62c5.59,29.25,4.72,58.28-2.61,87.12c-13.99,55.02-45.49,99-86.63,136.82
		c-6.98,6.42-14.3,12.49-21.69,18.43c-2.88,2.31-3.29,4.14-1.58,7.47c11.8,22.99,19.91,47.19,23.12,72.92
		c5.38,43.06-2.51,83.65-23.85,121.31c-29.25,51.64-73.63,84.98-129.05,104.47c-4.23,1.49-8.51,2.88-12.82,4.12
		c-2.74,0.79-4.05,2.18-4.3,5.21c-3.8,46.15-17.48,89.02-43.21,127.71c-22.51,33.85-52.2,59.81-88.19,78.57
		c-33.74,17.58-69.65,26.6-107.7,28.43c-39.41,1.9-77.33-4.04-113.85-18.67c-22.13-8.87-42.41-20.76-59.18-38.14
		c-6.25-6.48-9.42-13.57-9.29-22.75C816.35,1399.64,816.11,1374.65,816.11,1349.67z M825.89,1230.89
		c13.46,0.01,23.57-9.4,23.5-21.87c-0.07-12.23-10.76-22.59-23.36-22.64c-12.66-0.05-23.43,10.28-23.39,22.43
		C802.69,1221.57,812.49,1230.87,825.89,1230.89z M1317.37,738.61c-9.69-0.09-17.19,6.97-17.23,16.25
		c-0.05,9.68,7.18,16.81,17.14,16.92c9.07,0.1,17.51-7.73,17.62-16.35C1335.03,746.34,1327.06,738.7,1317.37,738.61z"/>
	<path class="st11" d="M811.32,535.96c10.16,0,20.32,0.01,30.48,0c7.61-0.01,7.63-0.02,7.63-7.86c0.01-18.32-0.1-36.64,0.05-54.96
		c0.1-13,10.61-21.22,22.81-17.95c5.68,1.52,9.5,5.32,11.59,10.8c1.32,3.47,1.58,7.12,1.57,10.81c-0.03,17.49,0.11,34.98-0.09,52.47
		c-0.06,4.79,1.14,6.85,6.4,6.8c50.92-0.56,96.97,33.27,112.85,82.82c2.02,6.31,3.39,12.89,4.48,19.44c0.64,3.86,2.36,4.83,5.96,4.8
		c15.82-0.13,31.65-0.17,47.47,0c11.08,0.12,18.77,7.18,19.05,17.03c0.3,10.43-7.01,18.21-17.51,18.3
		c-15.49,0.12-30.98,0.19-46.47-0.06c-4.78-0.08-6.36,1.4-6.31,6.23c0.22,19.98,0.22,39.97,0,59.96c-0.05,4.93,1.35,6.78,6.5,6.67
		c13.82-0.29,27.65-0.09,41.47-0.1c3.68,0,7.37,0.23,10.86,1.37c7.93,2.61,12.59,10.79,11.33,19.48
		c-1.18,8.11-8.21,14.38-16.62,14.44c-15.99,0.11-31.98,0.15-47.97-0.03c-4.11-0.05-5.57,1.28-5.53,5.43
		c0.15,19.15,0.17,38.31-0.01,57.46c-0.04,4.44,1.57,5.74,5.85,5.69c15.32-0.19,30.65-0.17,45.97-0.02
		c10.12,0.1,17.81,6.99,18.42,16.07c0.74,11.1-6.64,19.18-18.07,19.31c-15.65,0.18-31.31,0.17-46.97-0.02
		c-4.12-0.05-5.66,0.9-6,5.45c-2.92,39.02-20.79,69.64-52.95,91.76c-19.91,13.69-42.29,19.99-66.35,20.28
		c-4.75,0.06-5.85,2.08-5.81,6.39c0.16,17.65,0.13,35.31,0.04,52.97c-0.06,10.36-4.37,17.21-12.14,19.82
		c-12.25,4.12-23.64-4.18-23.78-17.66c-0.19-17.82-0.05-35.64-0.06-53.47c0-7.87-0.01-7.87-8.09-7.88
		c-20.49-0.01-40.97,0.12-61.46-0.09c-4.8-0.05-6.34,1.52-6.28,6.31c0.22,18.15,0.14,36.31,0.06,54.46
		c-0.04,9.16-4.6,15.99-11.91,18.36c-12,3.89-23.33-4.08-23.47-16.87c-0.2-18.32-0.05-36.64-0.06-54.96c0-7.19-0.01-7.2-7.13-7.21
		c-19.15-0.01-38.31-0.01-57.46,0c-6.81,0-6.82,0.02-6.83,7.05c-0.02,18.32,0.06,36.64-0.06,54.96
		c-0.05,7.68-4.75,14.53-11.25,16.83c-7.27,2.58-13.81,1.29-19.3-4.23c-3.59-3.61-4.96-8.08-4.93-13.18
		c0.1-18.15,0.04-36.31,0.03-54.46c0-6.92-0.02-6.96-6.89-6.97c-34.75-0.02-65.06-11.21-89.55-36.3
		c-19.77-20.26-30.97-44.66-33.47-72.94c-0.74-8.35-0.67-8.35-9.09-8.35c-17.49-0.01-34.98,0.06-52.47-0.05
		c-7.27-0.05-12.75-3.4-16.07-9.96c-3.27-6.45-2.55-12.65,1.73-18.32c3.89-5.15,9.3-7.21,15.72-7.18
		c17.65,0.08,35.31-0.16,52.96,0.13c5.16,0.08,6.5-1.62,6.43-6.58c-0.26-18.48-0.09-36.97-0.11-55.46c0-6.49-0.03-6.5-6.74-6.5
		c-17.99-0.01-35.97,0.04-53.96-0.02c-9.97-0.03-17.48-7.18-18.04-16.96c-0.5-8.8,6.43-16.76,16.09-17.72
		c14.77-1.47,29.62-0.33,44.43-0.61c4.66-0.09,9.33-0.08,13.99-0.01c2.9,0.04,4.24-1.14,4.24-4.15
		c-0.05-21.49-0.07-42.97,0.02-64.46c0.02-3.98-2.34-4.08-5.24-4.08c-18.49,0.03-36.98,0.05-55.46-0.01
		c-7.55-0.02-13-3.54-16.27-10.37c-3.15-6.56-2.1-12.69,2.26-18.26c4.02-5.13,9.66-6.78,15.95-6.77c18.16,0.02,36.31-0.1,54.46,0.08
		c4.28,0.04,5.77-1.02,6.43-5.69c3.39-24.08,13.58-45.19,30.15-62.96c23.96-25.68,53.56-38.8,88.87-38.52
		c1.5,0.01,3.01-0.12,4.49,0.02c3.96,0.37,5.22-1.45,5.18-5.28c-0.14-15.82-0.05-31.65-0.05-47.47c0-3.16,0.28-6.36-0.05-9.49
		c-1.1-10.46,7.48-19.3,17.7-19.39c10.22-0.09,17.77,8.14,17.82,19.43c0.09,18.32,0.03,36.64,0.03,54.96c0,7.2,0.01,7.21,7.04,7.21
		c19.49,0.01,38.98-0.11,58.46,0.09c4.5,0.05,6.08-1.19,6.02-5.9c-0.25-18.82-0.12-37.64-0.09-56.46
		c0.01-11.36,7.36-19.34,17.69-19.33c10.11,0.02,17.62,7.83,17.72,19c0.16,18.82,0.19,37.64-0.04,56.46
		c-0.06,4.8,1.42,6.38,6.24,6.24C790.32,535.74,800.82,535.96,811.32,535.96z M755.9,571.47c-43.64,0-87.27,0.01-130.91-0.01
		c-5.67,0-11.31,0.17-16.94,0.95c-38.19,5.29-71.28,37.27-71.8,80.03c-0.95,78.93-0.3,157.88-0.22,236.83
		c0.01,10.07,1.97,19.94,5.82,29.22c14.49,34.9,43.98,54.18,82.64,54.2c87.44,0.04,174.88,0.05,262.31-0.04
		c8.82-0.01,17.66-0.77,26.2-3.17c37.66-10.6,62.25-42.27,62.38-81.39c0.25-76.94,0.08-153.89,0.07-230.84
		c0-17.23-3.99-33.42-13.76-47.75c-16.74-24.54-40.1-37.68-69.89-37.92C846.5,571.21,801.2,571.47,755.9,571.47z"/>
	<path class="st11" d="M977.16,1190.94c12.39,0,22.54-0.11,32.7,0.06c3.68,0.06,6.18-1.17,8.44-4.14
		c43.6-57.18,87.27-114.29,130.96-171.39c2.06-2.69,3.33-4.7,0.83-8.24c-25.67-36.41-3.28-85.53,41.07-90.4
		c28.8-3.16,54.72,13.45,63.48,40.69c9.8,30.45-8.81,64.06-39.99,72.52c-9.37,2.54-18.74,2.88-28.15,0.85
		c-2.99-0.64-4.59,0.23-6.29,2.47c-25.32,33.23-50.69,66.42-76.06,99.6c-21.64,28.29-43.38,56.51-64.89,84.9
		c-4.66,6.15-10.58,8.99-17.96,9.02c-24.47,0.09-48.95,0.14-73.42-0.03c-7.8-0.05-14.29-2.99-17.83-10.57
		c-3.15-6.74-2.19-12.95,2.38-18.68c2.83-3.55,6.48-5.68,11.03-6.13C955.43,1190.26,967.42,1191.35,977.16,1190.94z M1198.04,996.7
		c12.77,0.08,23.79-10.09,23.88-22.03c0.09-12.24-10.39-22.34-23.33-22.5c-13.16-0.16-23.84,9.51-23.96,21.71
		C1174.48,986.53,1184.83,996.62,1198.04,996.7z"/>
	<path class="st11" d="M821.63,190.23c29.26-0.54,61.12,24,58.48,62.66c-0.21,3.06,1.36,3.68,3.59,4.29
		c25.5,7.02,51,14.06,76.5,21.1c11.54,3.19,23.06,6.46,34.64,9.52c6.79,1.8,11.84,5.48,15.53,11.56
		c27.81,45.81,55.75,91.54,83.63,137.3c5.91,9.7,4.55,19.63-3.36,25.36c-8.84,6.41-19.74,4.36-25.88-5.37
		c-9.67-15.34-19.01-30.9-28.46-46.38c-17.26-28.27-34.53-56.53-51.72-84.84c-1.74-2.87-3.89-4.61-7.21-5.53
		c-36.72-10.11-73.42-20.33-110.1-30.62c-2.63-0.74-4.43-0.05-6.29,1.66c-21.02,19.19-53.07,20.03-76.34,2.74
		c-27.13-20.15-30-62.36-5.67-85.8C790.93,196.36,805.04,190.36,821.63,190.23z M821.08,270.39c13.16,0.11,23.84-9.5,24.04-21.65
		c0.2-12.34-10.54-22.77-23.55-22.85c-12.73-0.08-23.51,9.74-23.64,21.54C797.78,260.33,807.81,270.27,821.08,270.39z"/>
	<path class="st11" d="M306.53,531.82c-0.04-32.55,25.24-58.34,56.87-58.53c5.43-0.03,8.23-1.96,10.95-6.45
		c34.64-57.08,69.58-113.98,104.19-171.07c4.6-7.58,10.68-11.56,19.14-13.68c17.91-4.49,35.62-9.78,53.42-14.69
		c4-1.1,8.06-2.33,12.27-1.72c8.54,1.25,14.85,8.13,15.45,16.58c0.56,7.96-4.73,15.45-13.06,18c-7.8,2.38-15.69,4.45-23.55,6.63
		c-9.78,2.72-19.56,5.47-29.36,8.08c-3.58,0.95-6.11,2.85-8.07,6.08c-32.93,54.03-65.91,108.03-99,161.95
		c-2.05,3.35-0.72,5,1.5,7.14c11.53,11.1,17.19,24.91,17.33,40.71c0.2,22.75-15.14,44.62-36.61,53.25
		c-33.94,13.65-71.26-5.16-80.23-40.4C306.68,539.47,306.46,535.17,306.53,531.82z M341.99,530.6c0.01,12.47,10.36,22.4,23.31,22.38
		c12.85-0.02,23.75-10.23,23.69-22.22c-0.05-12.24-10.6-22.21-23.54-22.24C352.25,508.48,341.98,518.14,341.99,530.6z"/>
	<path class="st11" d="M139.84,770.47c-16.48,0-32.97,0.03-49.45-0.01c-11.76-0.03-19.69-7.24-19.7-17.83
		c-0.02-10.03,8.13-17.55,19.6-17.58c33.3-0.1,66.6-0.15,99.89,0.07c5.26,0.04,8.24-1.33,10.92-6.2
		c10.07-18.3,32.03-29.35,51.03-26.43c24.15,3.71,41.64,19.05,46.36,41.39c5.97,28.25-11.02,53.87-35.9,61.71
		c-25.47,8.02-53.26-4.28-63.73-29.03c-2.05-4.85-4.51-6.31-9.58-6.21C172.81,770.67,156.32,770.47,139.84,770.47z M229.81,754.83
		c-0.04,10.26,7.14,17.58,17.37,17.71c8.69,0.11,16.98-8.04,17.15-16.85c0.17-9.21-8.09-18.1-17.08-18.09
		C238.53,737.61,229,744.91,229.81,754.83z"/>
	<path class="st11" d="M1180.49,539.57c0.12,31.23-26.8,57.56-58.97,57.68c-32.58,0.12-59.24-26.37-59.35-58.98
		c-0.1-30.56,27.33-57.07,59.1-57.11C1153.91,481.11,1180.36,507.21,1180.49,539.57z M1121.35,561.22
		c13.19,0.01,23.61-9.64,23.61-21.86c0-12.31-11.02-22.83-23.73-22.69c-12.48,0.14-23.71,10.88-23.57,22.55
		C1097.8,551.4,1108.37,561.21,1121.35,561.22z"/>
	<path class="st11" d="M232.45,969.35c-1.12-29.71,24.98-56.55,55.98-57.59c32.07-1.07,59.78,23.4,61.75,53.03
		c2.43,36.42-26.66,60.49-54.11,62.47C259.6,1029.89,231.14,1000.47,232.45,969.35z M267.95,969.5
		c0.04,12.51,10.23,22.26,23.32,22.29c13.18,0.03,23.46-9.69,23.41-22.14c-0.05-12.52-10.3-22.36-23.29-22.36
		C278.36,947.28,267.91,957.19,267.95,969.5z"/>
	<path class="st11" d="M726.9,243.49c1.07,28.74-23.43,57.8-58.9,57.78c-32.83-0.02-58.68-25.19-59.03-57.94
		c-0.34-31.41,26.65-57.7,58.68-57.9C700.37,185.23,726.71,211.05,726.9,243.49z M667.78,221.48c-13.18,0.07-23.16,9.46-23.1,21.73
		c0.06,12.35,10.44,22.56,23.13,22.77c12.55,0.2,23.59-10.2,23.61-22.25C691.44,230.83,681.43,221.41,667.78,221.48z"/>
	<path class="st11" d="M715.39,651.85c11.15,0.09,17.37,5.46,21.18,13.71c8.87,19.18,17.42,38.51,26.15,57.76
		c15.12,33.34,30.3,66.66,45.38,100.02c2.12,4.69,4.08,9.49,5.68,14.38c2.46,7.51-1.33,14.56-8.81,17.05
		c-9.28,3.1-18.58-0.36-23.71-8.88c-3.11-5.15-5.15-10.81-7.52-16.31c-2.51-5.8-5.06-11.6-7.37-17.48
		c-1.33-3.38-3.31-4.77-7.11-4.75c-28.8,0.15-57.61,0.12-86.42,0.02c-3.29-0.01-5.12,0.96-6.38,4.13
		c-3.58,8.96-7.45,17.81-11.29,26.66c-1.19,2.74-2.48,5.46-4.02,8.02c-5.47,9.09-11.33,11.13-23.15,8.18
		c-6.83-1.71-10.12-8.07-9.07-15.2c1.16-7.92,5.28-14.68,8.47-21.78c22.65-50.4,45.43-100.73,68.2-151.07
		C699.73,657.21,706.3,651.6,715.39,651.85z M716.45,695.36c-0.59,0.66-0.89,0.86-1.01,1.14c-11,26.03-21.96,52.09-33.01,78.1
		c-1.42,3.34,0.51,3.22,2.72,3.22c20.63-0.03,41.25-0.13,61.88-0.02c3.93,0.02,4.04-1.16,2.68-4.34
		c-8.29-19.42-16.39-38.92-24.61-58.37C722.33,708.57,719.41,702.11,716.45,695.36z"/>
	<path class="st11" d="M878.81,754.16c0.01,27.31-0.22,54.62,0.09,81.92c0.18,15.54-9.4,21.42-23.98,18.88
		c-6.66-1.16-11.7-7.02-12.51-13.92c-0.27-2.3-0.22-4.65-0.22-6.98c-0.01-53.45-0.01-106.9-0.01-160.35c0-1.17,0.04-2.33,0.01-3.5
		c-0.18-6.81,1.92-12.72,8.11-16.05c6.88-3.7,14.19-3.61,21.05,0.23c5.87,3.28,7.47,8.98,7.47,15.34
		C878.79,697.88,878.8,726.02,878.81,754.16z"/>
</g>
</svg>
