<?xml version="1.0" encoding="utf-8"?>
<!-- Generator: Adobe Illustrator 28.2.0, SVG Export Plug-In . SVG Version: 6.00 Build 0)  -->
<svg version="1.1" id="Layer_1" xmlns="http://www.w3.org/2000/svg" xmlns:xlink="http://www.w3.org/1999/xlink" x="0px" y="0px"
	 viewBox="0 0 584.15 526.81" style="enable-background:new 0 0 584.15 526.81;" xml:space="preserve">
<style type="text/css">
	.st0{fill:#07294E;}
	.st1{fill:#0A2849;}
	.st2{fill:#0A2949;}
	.st3{fill:#0D2843;}
	.st4{fill:#FFFFFF;}
	.st5{fill:#0B2947;}
	.st6{fill:#0B2848;}
	.st7{fill:#0A2948;}
	.st8{fill:#0B2849;}
	.st9{fill:#0B2846;}
	.st10{fill:#0A2847;}
	.st11{fill:#082A4E;}
	.st12{fill:#0C2D51;}
	.st13{fill:#0B2C50;}
	.st14{fill:#092A4E;}
</style>
<g>
	<path class="st11" d="M584.06,234.55c0-0.91,0.01-1.83-0.05-2.73c-0.27-4.04-2.91-7.37-6.74-8.6c-1.36-0.44-2.76-0.48-4.16-0.48
		h-34.43c-0.57,0-1.16-0.02-1.73-0.01c-0.74,0.02-1.04-0.34-1.02-1.05c0.01-0.58-0.01-1.16-0.01-1.74c0-10.08-0.05-20.16,0.03-30.24
		c0.02-4.19-1.65-7.27-5.14-9.54c-8.73-5.68-17.77-10.78-27.17-15.27c-22.69-10.82-46.56-17.5-71.49-20.45
		c-7.71-0.91-15.45-1.35-23.22-1.43c-1.39-0.02-2.26-0.41-3.01-1.61c-1.19-1.89-2.71-3.54-4.27-5.13c-1.6-1.64-1.57-1.63-0.69-3.74
		c5.49-13.14,4.95-26.07-1.54-38.72c-3.35-6.52-8.13-11.82-14.24-15.86c-1.35-0.9-1.76-1.85-1.7-3.44
		c0.14-3.55-0.19-7.08-0.92-10.58c-4.17-19.99-22.07-35.21-43.34-35.23c-1.76,0-2.63-0.67-3.6-1.92
		c-8.89-11.34-20.53-17.33-34.95-17.77c-5.41-0.16-10.69,0.69-15.74,2.72c-1.14,0.45-2.03,0.48-2.87-0.49
		c-0.26-0.32-0.61-0.55-0.93-0.82c-10.48-8.94-22.74-11.75-36.07-9.87c-10.78,1.51-19.71,6.84-26.7,15.22
		c-1.22,1.47-2.19,1.59-3.9,1.06c-21.11-6.64-43.95,3.35-53.49,23.29c-0.67,1.41-0.95,3.15-1.95,4.23
		c-1.11,1.19-3.08,0.92-4.65,1.36c-22.97,6.51-36.82,29.6-31.72,52.99c0.34,1.5,0.03,2.61-0.82,3.89
		c-7.62,11.52-9.72,23.98-6.04,37.36c0.98,3.59,2.54,6.94,4.31,10.4c-0.51,0.23-0.72,0.37-0.95,0.42
		c-23.23,6.42-44.98,16.12-65.27,29.12c-3.75,2.4-5.61,5.5-5.55,10.02c0.14,10.16,0.05,20.32,0.04,30.49c0,2.31-0.01,2.32-2.23,2.32
		c-6.19,0.01-12.38,0.01-18.57,0.01H10.22c-3.45,0-6.25,1.31-8.32,4.1c-1.54,2.09-1.9,4.51-1.9,7.04v281.61
		c0,1.16,0.05,2.31,0.31,3.45c0.83,3.69,3.05,6.11,6.64,7.33c1.62,0.54,3.26,0.45,4.91,0.45c186.84,0,373.69-0.02,560.53,0.09
		c7.07,0,11.79-4.13,11.77-11.89C584.02,421.46,584.07,328.01,584.06,234.55z M282.15,463.15c-72.04-33.36-143.39-32.1-214.35,4.07
		v-2.52c0-89.33,0.01-178.65-0.05-267.97c-0.01-1.95,0.65-2.9,2.23-3.86c20.14-12.22,41.72-20.78,64.73-25.77
		c1.48-0.32,2.66-0.2,3.99,0.48c6.87,3.56,14.22,5.18,21.95,5c2.05-0.05,4.11-0.33,6.15-0.6c1.92-0.26,1.94-0.32,2.41,1.62
		c2.15,8.84,6.62,16.32,13.3,22.46c7.03,6.45,15.33,10.16,24.78,11.38c9.21,1.18,17.88-0.59,26.11-4.76
		c0.85-0.42,1.48-0.78,2.37,0.11c12.24,12.14,22.29,25.66,27.34,42.42c2.19,7.27,3.14,14.68,2.78,22.26
		c-0.15,3.15,0.65,5.87,2.96,8.08c1.81,1.73,3.96,2.65,6.45,2.72c1.9,0.05,3.8,0.05,5.7,0.01c0.93-0.02,1.38,0.29,1.31,1.27
		c-0.04,0.57,0,1.16,0,1.73c0,59.74,0,119.49-0.01,179.23C282.31,461.38,282.48,462.28,282.15,463.15z M294.12,227.1
		c-0.18,1.14-0.2,2.3-0.21,3.46c-0.01,8.67,0,17.35-0.01,26.02c0,2.25-0.02,2.25-2.32,2.26c-1.49,0.01-2.97,0.02-4.46,0
		c-1.72-0.03-1.73-0.04-1.89-1.76c-0.86-9.27-3.11-18.2-6.71-26.78c-5.22-12.46-12.7-23.49-21.64-33.56
		c-4.29-4.82-8.85-9.36-13.74-13.56c-4.92-4.23-9.65-4.39-14.75-0.39c-7.22,5.67-15.29,6.9-23.81,4.07
		c-13.29-4.41-18.54-17.27-16.96-27.07c0.28-1.72,0.37-3.46-0.07-5.16c-1.55-5.97-8.29-8.99-13.79-6.17c-0.88,0.45-1.71,1-2.59,1.46
		c-14.6,7.93-32.22,0.63-36.71-15.28c-1.84-6.55-1.11-12.9,2.38-18.99c3.16,1.41,6.25,2.76,9.47,3.73
		c15.01,4.55,29.76,4.13,44.21-2.28c4.58-2.03,6.88-5.39,6.73-9.7c-0.23-6.58-6.82-11.12-13-8.75c-3.39,1.3-6.77,2.62-10.36,3.3
		c-10.6,2.01-20.65,0.53-30.2-4.55c-1.4-0.75-1.73-1.89-2.03-3.15c-2.54-10.84,2.81-22.43,12.76-27.6
		c3.87-2.02,7.96-3.07,12.36-2.96c4.35,0.1,8.2-2.85,9.37-7.06c0.42-1.51,0.67-3.07,1.13-4.56c3.22-10.51,13.38-17.92,24.24-17.76
		c2.42,0.04,4.75,0.54,7.03,1.29c2.09,0.69,2.16,0.71,2.21,2.91c0.09,4.24,0.65,8.39,1.69,12.49c2.19,8.61,6.08,16.38,11.91,23.11
		c3.62,4.19,9.6,4.58,13.75,1.05c4.07-3.49,4.56-9.21,1.1-13.54c-6.12-7.63-9.08-16.36-9.25-26.1c-0.03-1.63,0.39-3.04,1.26-4.42
		c9.38-14.81,30.3-15.78,41.03-1.85c1.54,1.99,3.2,3.76,5.68,4.57c3.15,1.04,6,0.34,8.72-1.38c3.4-2.16,7.08-3.59,11.11-3.82
		c9.14-0.5,16.57,2.89,22.23,10.12c0.5,0.64,0.72,1.23,0.34,2.03c-2.19,4.62-4.35,9.25-6.55,13.87c-0.05,0.11-0.27,0.15-0.42,0.23
		c-0.68-0.49-0.92-1.32-1.34-1.99c-2.89-4.55-8.34-6.04-12.95-3.53c-4.58,2.51-6.46,8.02-4.09,12.8c1.71,3.47,3.78,6.76,5.7,10.13
		c1.58,2.76,1.59,2.76-0.65,5.03c-2.21,2.23-4.52,4.37-6.59,6.72c-3.77,4.29-3.29,10.25,0.97,13.89c3.49,2.98,8.92,3.17,12.25,0.02
		c5.16-4.87,10.1-9.98,15.11-15.01c1.01-1.01,1.54-2.34,2.12-3.61c4.46-9.66,8.93-19.33,13.39-28.98c1.08-2.32,1.09-2.37,3.7-2.12
		c11.86,1.15,20.39,9.81,22.55,20.18c0.75,3.62,0.74,7.26-0.2,10.8c-1.39,5.28,1.3,10.18,6.16,12.26
		c9.27,3.96,14.49,11.2,15.59,21.23c0.58,5.25-0.73,10.14-3.32,14.73c-0.59,1.07-1.5,1.21-2.44,1.42
		c-5.09,1.09-10.21,1.96-15.38,2.52c-5.41,0.58-10.84,1.09-16.3,0.97c-3.22-0.06-6.42-0.32-9.6-0.86c-2.65-0.45-4.99-1.57-7.29-2.94
		c-5.83-3.51-12.73-0.63-14.49,5.92c-1.09,4.04,0.68,8.42,4.47,10.63c5.54,3.22,11.51,5.26,17.86,6.26
		c5.59,0.87,11.2,0.53,16.81,0.28c9.24-0.41,18.39-1.67,27.43-3.67c1.29-0.29,2.3-0.03,3.4,0.83c10.61,8.33,12.26,24.66,3.41,35.24
		c-6.46,7.71-14.84,10.38-24.63,8.75c-3.15-0.52-5.9,0.04-8.38,1.97c-2.6,2.02-3.77,4.71-3.62,8.01c0.18,3.79-0.68,7.38-2.23,10.8
		c-6.98,15.33-26.5,19.71-39.38,8.84c-1.78-1.51-3.59-2.73-5.94-3.35C301.12,217.91,295.02,221.06,294.12,227.1z M516.49,257.26
		V466.9c-0.81,0.57-1.33-0.06-1.85-0.35c-13.03-7.23-26.71-12.92-40.91-17.37c-11.43-3.57-23.08-6.18-34.94-7.89
		c-9.83-1.42-19.69-2.19-29.6-2.24c-10.9-0.04-21.76,0.74-32.59,2.15c-25.55,3.34-49.93,10.65-73.22,21.62
		c-0.37,0.18-0.75,0.32-1.08,0.44c-0.8-0.38-0.51-1.03-0.52-1.55c-0.04-1.57-0.01-3.14-0.01-4.71V282.01c0-0.57-0.01-1.16,0-1.74
		c0.03-1.9,0.03-1.9,1.83-1.99c5.92-0.34,9.74-4.28,9.81-10.28c0.08-6.53,0.02-13.05,0.02-19.58v-2.76
		c3.73,0.83,7.13,1.84,10.69,2.06c13.43,0.88,25.03-3.25,34.77-12.52c5.93-5.65,9.9-12.51,12.11-20.4c0.52-1.88,0.52-1.9,2.62-2.1
		c10.63-1.05,19.95-5.01,27.62-12.52c7.98-7.8,12.48-17.31,13.46-28.46c0.23-2.55,0.38-5.1,0.03-7.66c-0.2-1.52-0.11-1.55,1.38-1.49
		c6.52,0.23,13.01,0.89,19.45,1.8c12.86,1.82,25.4,4.9,37.67,9.14c14.56,5.04,28.41,11.5,41.51,19.62c1.42,0.88,1.77,1.86,1.77,3.41
		C516.47,216.77,516.49,237.02,516.49,257.26z"/>
	<path class="st12" d="M253.8,344.3c-1.22,0.18-2.47,0.18-3.7,0.18c-25.02,0.01-50.04,0.01-75.05,0.01c-25.01,0-50.04,0-75.05-0.01
		c-1.16,0-2.32-0.01-3.46-0.16c-4.63-0.58-8.18-4.37-8.43-8.98c-0.27-4.76,2.84-8.96,7.47-10.03c1.14-0.27,2.28-0.37,3.45-0.37
		c50.69,0.01,101.38,0.01,152.07,0.01c5.34,0,8.97,2.38,10.41,6.74C263.38,337.39,259.71,343.43,253.8,344.3z"/>
	<path class="st13" d="M262,369.31c0.08,4.81-3.16,8.82-7.85,9.73c-1.14,0.23-2.28,0.32-3.44,0.32
		c-50.43-0.01-100.85-0.01-151.27-0.01c-2.34,0-4.61-0.25-6.67-1.49c-3.39-2.04-5.25-6.08-4.58-9.96c0.7-4.03,3.84-7.18,7.86-7.91
		c1.3-0.24,2.63-0.27,3.95-0.27c25,0.01,50.01,0.01,75.01,0.01h75.02c1.32,0,2.64,0.02,3.95,0.25
		C258.59,360.79,261.92,364.67,262,369.31z"/>
	<path class="st11" d="M261.95,300.89c-0.44,4.63-4.03,8.22-8.71,8.66c-0.99,0.09-1.98,0.11-2.97,0.11
		c-50.17,0.01-100.34,0.01-150.51,0c-0.91,0-1.82-0.01-2.72-0.09c-5.21-0.45-8.99-4.56-8.96-9.74c0.03-5.07,3.99-9.25,9.13-9.62
		c0.91-0.07,1.82-0.05,2.73-0.05h150.51c1.56,0,3.12-0.02,4.65,0.46C259.56,292.03,262.4,296.24,261.95,300.89z"/>
	<path class="st14" d="M189.88,265.98c-0.54,4.78-4.02,8.33-8.62,8.79c-0.91,0.09-1.82,0.08-2.73,0.08H99.52
		c-1.65,0-3.29,0.01-4.89-0.54c-4.26-1.48-6.97-5.75-6.49-10.27c0.48-4.45,4.15-8.1,8.63-8.53c0.98-0.1,1.97-0.08,2.96-0.08
		c13.04-0.01,26.09-0.01,39.13-0.01h39.88c1.57,0,3.13,0.02,4.64,0.54C187.6,257.43,190.37,261.67,189.88,265.98z"/>
	<path class="st12" d="M486.3,344.28c-1.3,0.2-2.64,0.2-3.95,0.2c-25.01,0.01-50.04,0.01-75.05,0.01c-24.93,0-49.86,0-74.79-0.01
		c-1.08,0-2.15-0.01-3.22-0.12c-4.89-0.52-8.55-4.35-8.8-9.17c-0.24-4.76,3.12-8.98,7.9-9.96c1.06-0.22,2.12-0.27,3.2-0.27h151.83
		c5.4,0,8.97,2.3,10.47,6.67C495.82,337.27,492.19,343.38,486.3,344.28z"/>
	<path class="st13" d="M494.33,370.79c-0.47,4.13-3.59,7.43-7.75,8.26c-1.31,0.26-2.62,0.31-3.94,0.31
		c-25.17-0.01-50.34-0.01-75.51-0.01c-25,0-50.01,0-75.01,0.01c-2.42,0-4.78-0.22-6.91-1.5c-3.39-2.03-5.29-6.17-4.58-9.95
		c0.76-4.1,3.84-7.23,7.86-7.9c1.14-0.19,2.29-0.27,3.45-0.27c50.34-0.01,100.68-0.01,151.02-0.01c1.99,0,3.97,0.12,5.82,0.96
		C492.63,362.44,494.83,366.46,494.33,370.79z"/>
	<path class="st11" d="M494.33,301.18c-0.52,4.4-4.03,7.88-8.48,8.34c-1.07,0.11-2.14,0.13-3.21,0.13H332.38
		c-1,0-1.98-0.01-2.97-0.1c-5.18-0.46-8.99-4.64-8.92-9.78c0.07-4.97,3.95-9.12,8.96-9.55c0.99-0.09,1.98-0.07,2.97-0.07h150.5
		c1.65,0,3.29-0.01,4.89,0.53C492.18,292.18,494.88,296.5,494.33,301.18z"/>
	<path class="st14" d="M422.41,265.1c0.01,4.83-3.79,9.12-8.6,9.66c-0.98,0.11-1.98,0.09-2.97,0.09h-79.25
		c-1.49,0-2.95-0.03-4.4-0.5c-4.29-1.44-7.14-5.76-6.65-10.17c0.5-4.63,4.17-8.28,8.77-8.69c0.9-0.08,1.81-0.06,2.72-0.06
		c26.26-0.01,52.51-0.01,78.76,0c0.99,0,1.98-0.02,2.96,0.08C418.58,256.02,422.4,260.26,422.41,265.1z"/>
</g>
</svg>
