<?xml version="1.0" encoding="utf-8"?>
<!-- Generator: Adobe Illustrator 28.2.0, SVG Export Plug-In . SVG Version: 6.00 Build 0)  -->
<svg version="1.1" id="Layer_1" xmlns="http://www.w3.org/2000/svg" xmlns:xlink="http://www.w3.org/1999/xlink" x="0px" y="0px"
	 viewBox="0 0 726.68 726.62" style="enable-background:new 0 0 726.68 726.62;" xml:space="preserve">
<style type="text/css">
	.st0{fill:#07294E;}
	.st1{fill:#0A2849;}
	.st2{fill:#0A2949;}
	.st3{fill:#0D2843;}
	.st4{fill:#FFFFFF;}
	.st5{fill:#0B2947;}
	.st6{fill:#0B2848;}
	.st7{fill:#0A2948;}
	.st8{fill:#0B2849;}
	.st9{fill:#0B2846;}
	.st10{fill:#0A2847;}
	.st11{fill:#082A4E;}
	.st12{fill:#0C2D51;}
	.st13{fill:#0B2C50;}
	.st14{fill:#092A4E;}
</style>
<g>
	<path class="st11" d="M723.08,619.34c-1.36-1.12-2.72-2.25-4.15-3.27c-11.11-7.9-23.51-12.72-36.83-15.26
		c-3.9-0.75-7.83-1.28-12.18-1.97v-4.22c0-12.7,0-25.4-0.01-38.1c0-1.41,0-2.82-0.13-4.22c-0.55-5.65-3.52-8.94-9.11-10.13
		c-12.35-2.62-24.89-3.61-37.46-4.01c-16.95-0.55-33.84,0.49-50.67,2.55c-23.04,2.81-45.62,7.72-67.78,14.56
		c-41.01,12.64-79.47,30.83-115.78,53.63c-8.56,5.37-16.95,11-25.81,16.77c-1.11-0.77-2.16-1.5-3.21-2.22
		c-15.19-10.52-30.75-20.41-46.93-29.33c-31.7-17.49-64.69-31.87-99.57-41.78c-23.34-6.64-47.07-11.27-71.23-13.45
		c-15.71-1.41-31.45-1.94-47.21-0.88c-9.39,0.62-18.74,1.55-27.97,3.4c-7.39,1.49-10.37,5.12-10.37,12.74
		c-0.01,13.4,0,26.81-0.01,40.21c0,1.36-0.11,2.72-0.17,3.99c-4.02,0.62-7.64,1.07-11.21,1.75c-14.4,2.72-27.66,8.09-39.54,16.84
		C0.6,620.72-1.52,626.3,1.48,633c10.94,24.45,21.7,48.99,32.41,73.54c2.45,5.62,6.38,8.29,12.54,8.38
		c10.11,0.14,20.21,0.6,30.31,0.98c27.97,1.07,55.93,2.18,83.89,3.23c15.86,0.6,31.72,1.11,47.59,1.7
		c29.96,1.1,59.92,2.23,89.88,3.37c15.62,0.59,31.24,1.24,46.87,1.83c6.46,0.24,12.94,0.75,19.39,0.54
		c26.67-0.87,53.34-1.98,80.01-2.99c25.02-0.94,50.05-1.88,75.07-2.81c25.38-0.94,50.76-1.89,76.14-2.82
		c28.08-1.03,56.16-2.15,84.24-2.99c6.5-0.2,10.56-3.04,13.08-8.8c10.57-24.1,21.21-48.18,31.78-72.28
		c0.74-1.71,1.39-3.53,1.66-5.36C726.87,624.96,725.99,621.75,723.08,619.34z M647.13,638.67c-1.14-0.06-2.04-0.06-2.93-0.16
		c-20.73-2.25-41.5-2.66-62.31-1.25c-52.63,3.55-103.08,16.55-152.25,35.09c-21.89,8.26-43.31,17.61-64.05,28.45
		c-2.04,1.07-3.46,0.56-5.2-0.34c-27.68-14.39-56.44-26.23-85.94-36.31c-25.72-8.8-51.91-15.81-78.63-20.75
		c-15.48-2.87-31.09-4.87-46.81-6.07c-16.32-1.25-32.64-1.55-48.97-0.48c-5.98,0.39-11.94,1.1-17.9,1.65
		c-0.8,0.08-1.6,0.11-2.37,0.17c-0.79-2.97-0.82-73.39-0.01-76.73c4.8-0.46,9.69-1.12,14.6-1.34c17.05-0.77,34.08-0.46,51.06,1.37
		c23.66,2.56,46.84,7.47,69.61,14.35c31.98,9.66,62.28,23.17,91.33,39.57c14.75,8.32,29.03,17.4,42.94,27.06
		c2.06,1.43,2.91,2.94,2.86,5.46c-0.14,8.58-0.07,17.17-0.03,25.75c0,1.52,0.02,3.09,0.4,4.54c1.39,5.33,6.46,8.66,12.07,8.11
		c5.25-0.52,9.51-4.86,9.91-10.3c0.19-2.57,0.08-5.17,0.08-7.76c0.01-6.93,0.07-13.87-0.04-20.81c-0.04-2.09,0.59-3.41,2.34-4.64
		c40.87-28.69,84.73-51.41,132.51-66.27c22.37-6.95,45.19-11.83,68.48-14.6c17.79-2.13,35.62-2.65,53.5-1.87
		c5.14,0.22,10.27,0.87,15.75,1.36V638.67z"/>
	<path class="st11" d="M191.67,503.62c-1.52-0.18-3.03-0.32-4.53-0.54c-8.93-1.37-15.55-6.27-20.62-13.52
		c-3.13-4.48-5.28-9.45-6.59-14.73c-3.31-13.39-5.58-26.94-5.31-40.78c0.08-4.44,0.69-8.87,1.09-13.58
		c-1.49-1.22-3.26-2.57-4.92-4.04c-12.96-11.42-17.29-25.64-13.31-42.33c1.68-7.07,3.86-14.03,5.81-21.04
		c3.29-11.82,4.59-23.99,6.21-36.09c0.79-5.9,2.8-11.17,6.47-15.76c2.49-3.11,5.13-6.16,8.06-8.84c1.85-1.7,2.16-3.25,1.67-5.54
		c-2.63-12.14-2.69-24.26,0.88-36.26c4.11-13.81,11.69-25.33,23.05-34.24c1.79-1.4,2.35-2.84,2.43-5.01
		c0.41-12.43,4.41-23.47,13.13-32.57c3.04-3.17,6.43-5.86,10.39-7.78c1.19-0.57,2.16-1.17,2.68-2.55c1.32-3.52,2.78-6.99,4.29-10.43
		c2.32-5.27,2.59-10.92,3.33-16.5c1.64-12.29,6.78-22.92,15.9-31.44c4.84-4.51,10.43-7.54,17.16-8.25
		c6.14-0.65,11.85,0.56,16.56,4.5c7.01,5.86,14.03,6.33,22.15,2.23c8.59-4.33,17.72-5.26,26.98-1.65
		c5.44,2.12,9.76,5.72,13.14,10.32c7.5,10.19,11.83,21.55,11.83,34.38c-0.01,39.51,0,79.02,0,118.54c0,1.38,0,2.76,0,4.57
		c-1.11-0.5-1.74-0.73-2.32-1.04c-6.07-3.34-12.1-6.77-18.22-10.01c-1.48-0.78-2.15-1.64-2.03-3.25c0.07-0.94,0.01-1.88,0.01-2.82
		c0-35.63-0.04-71.26,0.04-106.89c0.01-6.97-2.18-13.18-5.74-18.96c-3.35-5.45-6.87-6.52-12.9-4.18c-3.06,1.18-5.96,2.88-9.09,3.78
		c-12.7,3.67-24.41,1.27-35.13-6.31c-3.07-2.17-4.17-2.22-6.98,0.34c-5.06,4.61-7.87,10.47-8.94,17.17
		c-0.64,4.06-0.76,8.23-1.71,12.21c-1.06,4.43-2.75,8.71-4.25,13.03c-1.53,4.43-3.23,8.81-4.72,13.25
		c-0.48,1.43-0.61,2.99-0.72,4.51c-0.57,7.62,1.89,11.21,8.21,13.84c6.99,2.9,9.44,9.56,6.18,15.82c-2.76,5.32-8.89,7.61-14.43,5.29
		c-8.24-3.45-15.22-8.4-19.27-16.71c-0.14-0.29-0.44-0.51-0.78-0.89c-1.36,2.16-1.48,4.5-1.66,6.8c-0.64,8.21,0.64,16.2,3.28,23.94
		c1.67,4.88,3.7,9.65,5.68,14.41c1.16,2.79,1.79,5.55,1.02,8.56c-1.14,4.43-4.99,8.25-9.1,8.86c-4.25,0.63-9.05-1.63-11.14-5.91
		c-2.47-5.06-4.46-10.35-6.64-15.54c-0.44-1.05-0.81-2.13-1.43-3.77c-8.88,11.71-10.82,24.3-8.53,38.22
		c1.14-0.2,2.03-0.28,2.88-0.51c4.66-1.22,9.26-2.7,13.97-3.68c7.31-1.52,13.06,3.07,13.57,10.51c0.38,5.53-2.86,9.65-8.49,11.39
		c-6.95,2.15-13.93,4.27-20.66,6.99c-4.54,1.83-8.73,4.55-12.95,7.1c-3.75,2.26-5.48,5.68-5.97,10.17
		c-1.76,16.14-4.89,32.04-9.03,47.74c-0.87,3.29-2.21,6.44-3.08,9.73c-2.4,9.08,0.28,16.42,7.82,22.01c6.75,5,14.47,7.72,22.53,9.63
		c2.28,0.54,4.64,0.69,6.94,1.13c5.43,1.05,9.07,5.08,9.47,10.37c0.37,4.9-2.6,9.46-7.35,11.29c-2.87,1.11-5.81,0.75-8.7,0.2
		c-3.91-0.75-7.78-1.69-12.09-2.65c-0.13,1.41-0.33,2.63-0.33,3.86c-0.03,12.32,2.05,24.36,5.46,36.13
		c2.83,9.77,7.71,12.27,17.62,9.75c5.64-1.43,10.83-3.9,15.61-7.18c2.42-1.66,5-2.52,7.94-2.33c4.53,0.29,7.86,2.42,9.56,6.63
		c1.77,4.39,1.28,8.65-2.1,12.1c-1.78,1.82-3.99,3.29-6.2,4.6c-3.42,2.02-7.01,3.77-10.71,5.73c0.66,3.72,2.41,6.87,4.56,9.8
		c4.12,5.6,9.51,9.72,15.56,13.03c8.86,4.85,18.4,7.7,28.24,9.63c7.39,1.45,14.84,2.48,22.41,2.18c10.28-0.4,19.65-3.32,27.67-9.97
		c8.78-7.28,13.75-16.82,16.24-27.78c0.28-1.24,0.13-2.58,0.13-3.87c0.01-31.28,0-62.56,0-93.84c0-1.29,0-2.58,0-3.83
		c7.41-4.05,14.69-8.03,22.22-12.14c0.09,0.85,0.26,1.72,0.26,2.58c0.01,37.04,0.02,74.08-0.01,111.13c0,1.63-0.22,3.29-0.59,4.87
		c-3.2,13.42-9.3,25.33-18.86,35.35c-10.66,11.18-23.94,17.19-39.07,19.26c-16.25,2.23-32.1-0.21-47.73-4.62
		c-11.4-3.22-22.13-7.88-31.62-15.1c-10.33-7.85-17.72-17.74-21.11-30.41C192.15,504.84,191.92,504.31,191.67,503.62z"/>
	<path class="st11" d="M373.16,382.01c7.77,4.32,15.02,8.34,22.5,12.49c0,1.24,0,2.64,0,4.04c0,30.45,0.19,60.91-0.11,91.36
		c-0.09,9.42,2.86,17.53,7.87,25.1c7.78,11.76,19.06,18.19,32.9,19.27c20.69,1.61,40.21-2.88,58.04-13.67
		c6.32-3.82,11.42-9.04,14.56-15.9c0.62-1.36,1.03-2.81,1.6-4.41c-2.53-1.27-4.89-2.3-7.1-3.6c-3.03-1.79-6.14-3.53-8.84-5.74
		c-3.66-2.99-4.96-7.1-3.72-11.74c1.94-7.3,10.33-10.31,17.05-6.28c3.22,1.93,6.44,3.88,9.82,5.52c3.82,1.85,7.89,2.96,12.19,3.2
		c4.21,0.24,7.33-1.5,9.47-4.94c1.11-1.77,2.08-3.72,2.66-5.72c3.44-11.77,5.81-23.73,5.6-36.08c-0.02-0.94-0.07-1.88-0.14-2.82
		c-0.02-0.22-0.15-0.44-0.33-0.95c-0.94,0.14-1.94,0.24-2.92,0.45c-3.33,0.73-6.62,1.69-9.98,2.18c-2.28,0.33-4.75,0.45-6.96-0.09
		c-5.27-1.28-8.74-6.45-8.28-11.66c0.48-5.55,4.59-9.71,10.29-10.33c7.92-0.87,15.44-3.13,22.47-6.81c3.09-1.62,6.04-3.67,8.66-5.98
		c5.38-4.74,7.1-10.91,5.89-17.89c-0.34-1.96-0.83-3.92-1.49-5.79c-4.18-11.9-6.57-24.24-8.74-36.61
		c-1.08-6.13-1.93-12.3-2.72-18.48c-0.38-2.99-1.67-5.31-3.92-7.23c-4.54-3.86-9.77-6.57-15.29-8.61
		c-6.27-2.32-12.66-4.32-19.06-6.25c-4.83-1.45-8.04-4.35-9.07-9.3c-1.72-8.21,6.58-14,12.42-12.88c4.95,0.95,9.8,2.37,14.7,3.6
		c0.89,0.22,1.77,0.49,2.65,0.73c3.47-11.97-0.34-30.88-8.32-37.74c-2.09,5.08-4.17,10.15-6.27,15.22c-0.4,0.98-0.86,1.93-1.31,2.89
		c-2.72,5.7-8.43,8.01-14.06,5.7c-5.66-2.32-8.61-8.93-6.4-14.6c1.49-3.83,3.3-7.53,4.77-11.37c3.39-8.83,5.95-17.86,5.28-27.47
		c-0.19-2.78-0.84-5.52-1.28-8.29c-0.26-0.06-0.51-0.11-0.77-0.17c-0.54,0.81-1.11,1.6-1.6,2.43c-4.35,7.39-10.65,12.5-18.61,15.47
		c-8.51,3.18-16.83-3.95-15.18-12.88c0.56-3.05,2.27-5.39,4.8-7.11c0.96-0.65,2.04-1.18,3.12-1.61c5.59-2.17,7.83-6.41,7.65-12.18
		c-0.18-5.87-1.83-11.41-4.45-16.56c-4.19-8.23-6.12-16.94-6.88-26.05c-0.55-6.64-3.38-12.41-7.73-17.43
		c-0.69-0.79-1.52-1.48-2.36-2.1c-2.48-1.81-3.12-1.82-5.55,0.09c-7.59,5.95-16.11,9.07-25.83,8.61
		c-5.24-0.25-10.18-1.55-14.87-3.93c-2.08-1.05-4.29-1.91-6.51-2.63c-3.67-1.2-6.75-0.12-9.02,2.97c-4.35,5.92-7.1,12.51-7.12,19.9
		c-0.08,36.33-0.04,72.66-0.04,108.99c0,1.41,0,2.82,0,4.19c-7.39,4.05-14.67,8.03-22.18,12.14c-0.1-0.75-0.29-1.5-0.29-2.24
		c-0.01-42.21-0.06-84.42,0.08-126.63c0.01-3.57,1.06-7.19,2.01-10.68c1.93-7.09,4.93-13.7,9.54-19.5
		c8.89-11.2,21.44-14.93,34.97-10.29c2.66,0.91,5.2,2.16,7.77,3.33c5.76,2.63,10.9,2.34,15.96-2.07c8.29-7.22,17.67-7.5,27.32-2.94
		c6.91,3.26,11.94,8.68,15.91,15.08c5.11,8.25,7.98,17.23,8.37,26.96c0.15,3.8,1.01,7.44,2.5,10.93c0.46,1.08,1.02,2.12,1.49,3.19
		c1.21,2.8,1.89,6.04,3.75,8.3c1.83,2.23,4.97,3.33,7.33,5.18c11.08,8.68,17.09,20.2,17.95,34.16c0.27,4.34,1.66,7.11,5,9.98
		c12.81,10.98,20.25,25.09,22.68,41.81c1.35,9.3,0.88,18.51-1.19,27.67c-0.15,0.68-0.19,1.38-0.3,2.19c1.71,1.26,3.43,2.47,5.1,3.74
		c8.26,6.32,13.24,14.5,14.04,25.01c1.12,14.83,4.54,29.22,8.41,43.53c1.16,4.3,2.84,8.5,3.63,12.86
		c3.18,17.48-1.7,32.07-16.22,42.92c-1.63,1.21-2.69,2.3-2.19,4.6c1.93,8.96,1.74,18.04,0.43,27.02
		c-1.22,8.35-2.93,16.65-4.81,24.89c-1.42,6.24-4.27,11.94-8.37,16.93c-5.56,6.78-12.61,10.79-21.45,11.4
		c-0.57,0.04-1.14,0.15-1.73,0.23c-0.24,0.49-0.51,0.89-0.63,1.33c-3.83,14.52-12.86,25.1-25.11,33.26
		c-10.41,6.93-21.95,11.13-33.99,14.14c-10.66,2.67-21.47,4.14-32.46,3.9c-14.83-0.32-28.49-4.46-40.57-13.25
		c-8.84-6.43-15.29-14.9-20.09-24.63c-1.76-3.57-3.13-7.34-4.53-11.08c-1.7-4.56-2.3-9.27-2.29-14.17
		c0.09-35.74,0.05-71.49,0.05-107.23C373.16,385.15,373.16,383.79,373.16,382.01z"/>
	<path class="st11" d="M475.47,315.57c-7.7-27.99-39.49-44.52-66.28-31.68c-9.59,4.59-18.69,9.88-27.27,16.11
		c-6.07,4.41-11.97,9.06-18.15,13.75c-4.52-3.5-8.83-6.96-13.25-10.26c-10.2-7.6-20.81-14.53-32.51-19.65
		c-8.94-3.91-18.07-5.46-27.82-3.43c-20.07,4.17-36.26,20.32-39.54,39.85c-3.56,21.2,5.85,41.71,24.19,52.24
		c9.66,5.54,20.06,7.96,31.19,5.89c6.88-1.28,13.19-4.18,19.33-7.45c11.88-6.31,22.75-14.13,33.31-22.4
		c1.73-1.35,3.47-2.68,5.1-3.95c5.71,4.37,11.05,8.6,16.54,12.64c10.06,7.4,20.59,14.02,32.28,18.6c7.13,2.79,14.41,3.95,22.09,2.74
		C464.72,373.86,483.52,344.85,475.47,315.57z M309.76,353.56c-10.09,5.01-19.48,3.73-27.94-3.18c-8.68-7.09-11.75-16.62-9.26-27.49
		c2.48-10.81,9.54-17.53,20.29-20.23c4.56-1.14,9.13-1.06,13.44,1.03c4.32,2.09,8.77,4.05,12.77,6.67
		c8.15,5.34,16.03,11.07,24.01,16.67c0.84,0.59,1.56,1.35,2.68,2.34C334.15,338.63,322.69,347.15,309.76,353.56z M438.72,354.52
		c-7.39,3.44-14.65,3.4-22.02-0.34c-8.52-4.34-16.49-9.51-24.21-15.09c-3.99-2.88-7.88-5.89-11.92-8.92c0.43-0.74,0.5-1,0.67-1.13
		c11.03-9.02,22.64-17.12,35.38-23.67c14.94-7.67,30.28,1.94,35.36,13.32C457.95,332.11,452.11,348.27,438.72,354.52z"/>
	<path class="st11" d="M22.54,374.62c-3.29,0-6.59,0.13-9.87-0.05c-2.08-0.12-4.27-0.37-6.17-1.15c-4.59-1.9-7.07-6.77-6.39-11.81
		c0.64-4.72,4.39-8.51,9.27-9.31c1.04-0.17,2.1-0.29,3.15-0.3c6.7-0.03,13.4-0.02,20.09-0.01c5.41,0.01,9.64,2.05,11.74,7.3
		c2.62,6.55-1.47,14.04-8.47,14.9c-4.39,0.54-8.9,0.1-13.36,0.1C22.54,374.4,22.54,374.51,22.54,374.62z"/>
	<path class="st11" d="M703.87,374.42c-4.11,0-8.25,0.32-12.32-0.07c-6.32-0.61-10.31-5.64-9.95-11.9
		c0.29-4.93,3.96-9.15,8.84-10.08c1.15-0.22,2.33-0.37,3.5-0.37c6.82-0.03,13.63-0.09,20.45,0.01c6.06,0.09,10.07,2.86,11.72,7.81
		c2.13,6.41-1.83,13.52-8.52,14.35c-4.51,0.56-9.14,0.11-13.71,0.11C703.87,374.32,703.87,374.37,703.87,374.42z"/>
	<path class="st11" d="M374.57,22.43c0,3.99,0.15,7.99-0.04,11.97c-0.26,5.74-4.53,10.06-10.28,10.71
		c-4.97,0.56-9.99-2.82-11.59-7.88c-0.31-0.99-0.51-2.06-0.51-3.1c-0.04-7.75-0.1-15.5,0.01-23.25c0.07-4.72,3.1-8.76,7.32-10.25
		c4.29-1.52,9.23-0.27,12.23,3.14c1.94,2.2,2.88,4.8,2.88,7.74c0,3.64,0,7.28,0,10.92C374.58,22.43,374.57,22.43,374.57,22.43z"/>
	<path class="st11" d="M679.52,188.88c-0.04,2.8-2.29,5.92-5.94,8.08c-4.74,2.81-9.55,5.5-14.33,8.23c-1.93,1.1-3.83,2.28-5.83,3.26
		c-5.65,2.79-11.54,0.9-14.76-4.66c-2.93-5.05-1.55-11.15,3.72-14.4c6.98-4.3,14.09-8.42,21.34-12.26
		C670.97,173.31,679.52,178.92,679.52,188.88z"/>
	<path class="st11" d="M670.32,449.35c0.06-8.04,6-12.78,13.89-10.9c7.53,1.79,15.03,3.71,22.51,5.69
		c6.09,1.61,8.93,7.06,7.48,13.44c-1.38,6.07-8.13,9.42-12.88,8.01c-7.64-2.26-15.45-3.93-23.17-5.94
		C673.07,458.31,670.28,454.54,670.32,449.35z"/>
	<path class="st11" d="M198.18,89.33c-3.82-0.11-6.87-1.75-8.79-5.01c-4.18-7.08-8.28-14.21-12.22-21.43
		c-2.6-4.77-0.92-10.43,3.69-13.64c4.65-3.24,10.78-2.66,14.42,1.4c0.7,0.78,1.3,1.67,1.83,2.58c3.76,6.51,7.56,13,11.2,19.58
		C212.56,80.51,206.97,89.56,198.18,89.33z"/>
	<path class="st11" d="M550.8,58.29c-0.62,1.87-0.97,3.88-1.9,5.58c-3.72,6.8-7.55,13.55-11.49,20.23
		c-2.46,4.17-6.81,5.96-11.48,5.04c-4.69-0.92-8.06-4.23-9.03-8.82c-0.51-2.42-0.11-4.73,1.07-6.82c4.04-7.17,8.05-14.35,12.3-21.39
		c2.59-4.3,7.58-5.92,12.3-4.47C547.36,49.12,550.43,53.23,550.8,58.29z"/>
	<path class="st11" d="M58.37,175.86c1.46,0.4,3.07,0.53,4.35,1.24c7.39,4.11,14.8,8.2,22.01,12.62c4.29,2.63,5.64,8,3.85,12.78
		c-1.75,4.68-6.12,7.7-10.94,7.2c-1.81-0.19-3.68-0.86-5.28-1.74c-6.68-3.69-13.3-7.5-19.89-11.35c-4.61-2.69-6.33-7-5-12.01
		C48.79,179.62,53.31,176.07,58.37,175.86z"/>
	<path class="st11" d="M465.44,21.93c-0.34,2.21-0.45,3.62-0.8,4.98c-1.77,7.05-3.57,14.1-5.42,21.13
		c-1.19,4.51-4.11,7.34-8.68,8.24c-5.17,1.02-13.26-2.2-13.05-10.67c0.03-1.05,0.11-2.12,0.36-3.14c1.92-7.62,3.86-15.24,5.84-22.85
		c1.13-4.33,4.04-6.84,8.4-7.44c4.44-0.61,8.54,0.36,11.18,4.28C464.46,18.23,464.9,20.51,465.44,21.93z"/>
	<path class="st11" d="M23.48,261.34c0.5,0.09,1.68,0.2,2.8,0.49c7.28,1.85,14.56,3.71,21.82,5.64c5.48,1.45,8.44,5.38,8.25,10.74
		c-0.2,5.63-3.79,9.99-9.18,10.93c-1.34,0.23-2.83,0.17-4.16-0.16c-6.84-1.68-13.65-3.47-20.46-5.27c-1.47-0.39-2.96-0.81-4.33-1.45
		c-4.79-2.26-7.09-7.37-5.8-12.68C13.7,264.36,17.52,261.33,23.48,261.34z"/>
	<path class="st11" d="M289.24,44.91c-0.06,5.86-4.18,10.46-9.79,11.52c-4.64,0.88-10.19-2.3-11.6-7.22
		c-2.36-8.24-4.48-16.55-6.41-24.9c-1.07-4.62,2.1-9.47,6.9-11.46c4.55-1.89,9.78-0.63,12.63,3.32c1.08,1.49,1.91,3.27,2.4,5.04
		c1.93,7.14,3.69,14.33,5.49,21.5C289.09,43.63,289.18,44.57,289.24,44.91z"/>
	<path class="st11" d="M114.37,103.34c3.18-0.15,5.8,1.17,7.95,3.27c5.54,5.42,11.08,10.85,16.4,16.48
		c4.19,4.44,3.97,10.61-0.14,14.95c-4.2,4.43-10.71,5.05-15.19,0.88c-6.02-5.59-11.8-11.45-17.41-17.45
		c-3.04-3.25-3.6-7.34-1.59-11.48C106.39,105.85,109.79,103.66,114.37,103.34z"/>
	<path class="st11" d="M23.33,465.36c-5.77-0.13-9.21-2.74-10.65-7.49c-1.53-5.07-0.12-9.79,3.86-12.51
		c1.15-0.78,2.45-1.47,3.78-1.82c7.49-1.98,14.99-3.95,22.53-5.72c4.94-1.16,9.28,0.82,11.79,4.98c3.73,6.2,1.08,13.78-5.81,16.06
		c-4.01,1.32-8.15,2.23-12.24,3.31c-3.52,0.93-7.04,1.86-10.57,2.74C24.91,465.18,23.74,465.29,23.33,465.36z"/>
	<path class="st11" d="M703.13,261.34c5.63,0.02,9.78,3.42,11.15,8.67c1.21,4.65-0.93,9.6-5.29,11.9c-1.43,0.76-3.02,1.29-4.59,1.71
		c-7.02,1.87-14.07,3.63-21.09,5.5c-2.57,0.68-4.87,0.06-7.11-1.1c-4.06-2.1-6.27-6.48-5.85-11.52c0.36-4.32,3.17-7.66,7.77-8.91
		c7.58-2.04,15.19-3.98,22.79-5.93C701.81,261.43,702.76,261.39,703.13,261.34z"/>
	<path class="st11" d="M584.93,128.49c0.49-1.12,0.9-3.56,2.32-5.06c5.8-6.15,11.75-12.18,17.95-17.93
		c3.03-2.81,7.04-3.2,10.96-1.78c6.91,2.51,9.31,11.04,4.85,16.9c-0.28,0.37-0.58,0.74-0.91,1.07
		c-5.48,5.49-10.91,11.04-16.49,16.42c-3.44,3.32-7.99,3.97-12.06,1.89C587.32,137.85,585.05,134.37,584.93,128.49z"/>
</g>
</svg>
