<?xml version="1.0" encoding="utf-8"?>
<!-- Generator: Adobe Illustrator 28.2.0, SVG Export Plug-In . SVG Version: 6.00 Build 0)  -->
<svg version="1.1" id="Layer_1" xmlns="http://www.w3.org/2000/svg" xmlns:xlink="http://www.w3.org/1999/xlink" x="0px" y="0px"
	 viewBox="0 0 772.76 670.36" style="enable-background:new 0 0 772.76 670.36;" xml:space="preserve">
<style type="text/css">
	.st0{fill:#07294E;}
	.st1{fill:#0A2849;}
	.st2{fill:#0A2949;}
	.st3{fill:#0D2843;}
	.st4{fill:#FFFFFF;}
	.st5{fill:#0B2947;}
	.st6{fill:#0B2848;}
	.st7{fill:#0A2948;}
	.st8{fill:#0B2849;}
	.st9{fill:#0B2846;}
	.st10{fill:#0A2847;}
	.st11{fill:#082A4E;}
	.st12{fill:#0C2D51;}
	.st13{fill:#0B2C50;}
	.st14{fill:#092A4E;}
</style>
<g>
	<path class="st11" d="M517.1,191.42c-2.67,7.54-6.91,14.07-12.9,19.84c15.9,12.06,29.5,25.78,41,41.55
		c11.79,16.16,26.23,44.54,26.38,51.57c-4.04,0.74-8.1,1.31-12.08,2.26c-3.42,0.82-6.76,2-10.09,3.15
		c-1.37,0.47-2.36,0.32-3.55-0.57c-2.16-1.6-4.39-3.19-6.79-4.39c-7.4-3.71-15.24-5.8-23.53-4.25
		c-15.24,2.84-24.3,18.64-19.38,33.39c0.53,1.62,1.12,3.22,1.68,4.82c-0.2,0.14-0.39,0.27-0.59,0.41c-0.78-0.62-1.49-1.34-2.34-1.84
		c-2.7-1.62-5.29-3.62-8.22-4.64c-11.39-3.96-21.85,1.95-24.36,13.77c-0.7,3.29-0.8,6.79-0.59,10.16
		c1.1,17.71,9.25,30.75,25.73,38.11c1.27,0.57,2.53,1.16,4.06,1.86c-1.01,1.81-1.8,3.51-2.86,5.03c-4.08,5.89-8.24,11.74-12.4,17.57
		c-6.17,8.66-10.55,18.06-11.87,28.7c-0.76,6.18-1.37,12.38-1.88,18.59c-0.54,6.6-2.43,12.52-6.61,17.87
		c-6.46,8.26-14.29,14.92-22.78,20.9c-0.77,0.53-1.61,0.99-2.46,1.37c-2.41,1.05-3.56,0.8-5.21-1.27
		c-2.75-3.43-4.59-7.36-6.08-11.48c-2.62-7.29-3.43-14.86-3.49-22.54c-0.09-10.24-1.56-20.15-6.63-29.26c-1-1.8-1.2-3.73-1.12-5.79
		c0.11-2.69,0.14-5.42-0.16-8.1c-1.48-13-7.96-22.42-20.24-27.41c-8.03-3.27-16.45-3.86-24.96-2.68c-4.43,0.61-8.7,0.37-12.78-1.46
		c-4.39-1.97-8.79-3.95-13.02-6.24c-4.87-2.62-7.96-6.79-9.53-12.15c-1.49-5.06-1.5-10.21-1.25-15.39
		c1.21-24.79,23.01-42.89,47.65-39.83c7.85,0.98,15.47,2.79,23.04,5c3.94,1.16,7.86,2.71,11.89,3.15
		c10.86,1.17,21.76,1.98,32.66,2.65c4.73,0.29,9.39-0.77,13.73-2.73c9.93-4.47,15.41-12.04,15.49-23.12
		c0.02-2.81-0.2-5.65-0.63-8.43c-1.38-8.83-5.41-16.18-12.55-21.73c-6.31-4.9-13.6-7.3-21.35-8.61c-8.97-1.53-18.02-1.6-27.07-1.22
		c-2.17,0.08-4.43,0.59-6.45,1.39c-11.45,4.57-22.86,9.28-34.27,13.95c-0.71,0.29-1.39,0.64-2.56,1.19c1.69,1.37,2.95,2.59,4.4,3.51
		c3.33,2.11,7.07,3.12,10.94,3.68c8.2,1.19,16.43,0.6,24.66,0.38c5.52-0.15,11.06-0.51,16.56-0.22c4.9,0.26,9.85,0.91,14.61,2.08
		c6.84,1.68,9.25,5.05,9.72,12.05c0.17,2.63-0.11,3.07-2.73,3.52c-1.5,0.26-3.04,0.38-4.55,0.35c-3.05-0.08-6.11-0.26-9.16-0.48
		c-9.37-0.69-18.63-1.57-27.71-4.6c-11.15-3.73-22.68-6.09-34.58-5.99c-22.59,0.2-40.33,9.69-53.45,27.89
		c-11.45,15.87-14.41,33.75-11.26,52.7c2.54,15.25,10.88,26.54,24.84,33.47c3.37,1.68,6.74,3.35,10.18,4.87
		c8.89,3.93,18.07,5.75,27.83,4.05c3.96-0.68,7.97-0.29,11.86,0.91c3.82,1.19,5.82,3.81,6.21,7.7c0.16,1.63,0.25,3.31,0.09,4.93
		c-0.61,6.43,0.83,12.43,3.86,18.02c2.6,4.8,3.54,9.91,3.75,15.25c0.09,2.35-0.01,4.72,0.23,7.05c0.59,5.6,0.95,11.27,2.08,16.76
		c2.14,10.36,6.11,20,12.84,28.32c5.55,6.87,12.52,11.01,21.6,10.63c5.86-0.25,11.37-2.03,16.27-5.24
		c12.9-8.44,24.3-18.5,33.01-31.38c3.61-5.33,6.26-11.07,7.18-17.47c0.81-5.58,1.3-11.2,1.99-16.79c0.53-4.31,0.92-8.66,1.78-12.91
		c1.36-6.74,5.18-12.32,9.31-17.63c6.67-8.56,12.34-17.74,17.6-27.21c7.28-13.12,0.36-23.34-9.98-26.5
		c-3.9-1.19-7.66-2.98-11.34-4.81c-4.08-2.02-6.39-5.55-7.72-10.16c3.4,0.77,6.31,1.66,9.28,2.05c7.47,0.98,14.56-0.19,20.82-4.65
		c6.52-4.64,9.16-11.79,7.07-19.54c-0.81-3.04-2.18-5.94-3.33-8.89c-0.39-0.98-0.96-1.9-1.32-2.89c-0.85-2.36-0.1-3.47,2.37-3.16
		c4.17,0.51,8.08,1.79,10.76,5.32c3.94,5.18,9.2,6.7,15.33,5.45c3.55-0.73,6.99-1.96,10.51-2.89c4.3-1.13,8.58-2.44,12.96-3.21
		c3.88-0.69,5.97,0.61,7.61,4.2c0.92,2.01,1.69,4.17,2.05,6.34c0.69,4.17,1.15,8.38,1.51,12.6c1.81,21.51,0.11,42.76-5.09,63.7
		c-18.12,72.81-76.58,129.24-149.95,144.84c-2.95,0.63-5.93,1.08-8.88,1.62c-0.92-1.68-1.66-3.01-2.38-4.34
		c-6.15-11.37-13.57-21.75-23.61-30.06c-11.37-9.41-24.39-14.39-39.24-14.3c-11.51,0.08-22.25,3.3-32.54,8.21
		c-10.26,4.89-19.48,11.33-28.02,19.2c-13.79-7.65-26.57-16.67-37.93-27.07c2.38-3.83,4.87-7.12,6.6-10.77
		c3.22-6.79,3.65-14.2,2.55-21.44c-1.34-8.81,0.19-17.06,2.95-25.28c1.16-3.45,2.32-6.91,3.28-10.42
		c3.74-13.71,0.95-26.07-7.94-37.06c-2.06-2.55-4.34-4.96-6.69-7.25c-4.54-4.44-9.25-8.7-13.8-13.13
		c-4.34-4.22-6.45-9.46-6.46-15.52c-0.01-7.4,0.13-14.81-0.06-22.21c-0.09-3.61-0.33-7.32-1.28-10.77
		c-2.61-9.52-9.38-15.48-17.92-19.73c-1.94-0.96-3.85-1.46-6.09-1.11c-3.01,0.47-6.08,0.73-9.13,0.77
		c-3.98,0.05-7.98-0.06-11.95-0.35c-5.46-0.41-10.44-2.58-15.67-4.87c-26.66,100.56,24.27,218.9,137.86,260.71
		c111.1,40.88,234.38-13.13,279.5-123.48C633.67,346.16,586.94,239.64,517.1,191.42z M246.88,439.82c-0.92,3.03-1.88,6.05-2.89,9.06
		c-2.43,7.27-4.27,14.68-4.61,22.35c-0.17,3.73,0.41,7.48,0.49,11.23c0.07,3.26,0.05,6.54-0.22,9.79c-0.08,0.98-0.93,2.27-1.79,2.72
		c-1.33,0.69-2-0.82-2.7-1.68c-14.7-17.85-26.08-37.6-33.8-59.42c-8.08-22.84-11.75-46.39-11.17-70.59
		c0.2-8.09,0.81-16.17,2.3-24.69c5.23,0.49,9.99,1.51,14.37,3.97c3.15,1.77,4.53,4.34,4.43,8.11c-0.22,7.74-0.1,15.49-0.02,23.24
		c0.13,12.37,4.87,22.85,13.46,31.6c4.03,4.11,8.4,7.87,12.53,11.88c2.28,2.2,4.51,4.48,6.53,6.9
		C247.6,428.87,248.63,434.1,246.88,439.82z M316.67,551.88c2.66-1.77,4.64-3.2,6.72-4.46c6.66-4.04,13.66-7.24,21.32-8.99
		c11.68-2.66,22.12-0.1,31.5,7.13c6.21,4.8,11.02,10.87,15.15,17.49c0.22,0.36,0.3,0.82,0.62,1.74
		C366.06,565.26,341.33,561.3,316.67,551.88z"/>
	<path class="st11" d="M523.83,15.54c-3.42-9.39-13.43-16.7-24.76-15.39c-11.09,1.28-22.17,2.62-33.25,3.99
		c-16.09,1.99-32.17,4.05-48.26,6.05c-15.98,1.98-31.96,3.91-47.93,5.9c-17.96,2.24-35.91,4.52-53.86,6.77
		c-16.67,2.09-33.33,4.28-50.02,6.17c-5.69,0.65-10.59,2.73-15.24,5.9c-30.68,20.95-61.4,41.84-92.12,62.74
		c-30.91,21.03-61.79,42.11-92.78,63.02c-14.13,9.52-14.33,28.42-3.21,38.34c1.07,0.96,1.88,2.4,2.36,3.77
		c3.56,10.08,6.94,20.23,10.55,30.29c0.8,2.25,0.39,3.53-1.33,5.15c-8.99,8.5-12.72,18.98-10.98,31.26
		c2.86,20.22,21.88,34.01,41.91,30.49c17.17-3.02,30-18.25,29.95-35.54c-0.05-17.72-12.76-32.72-30.19-35.6
		c-1.84-0.3-3.7-0.53-5.81-0.82c-2.68-7.82-5.37-15.66-8.25-24.05c18.39-1.92,36.32-3.78,54.32-5.65c0.52,1.29,0.96,2.24,1.3,3.22
		c5.24,15.34,10.46,30.69,15.71,46.03c3.68,10.79,7.26,21.61,11.14,32.32c3.78,10.45,13.74,16.68,24.52,15.84
		c20.52-1.61,40.93-4,61.2-7.59c24.67-4.37,48.97-10.29,72.85-17.85c34.59-10.95,67.93-24.91,99.91-42.1
		c18.03-9.69,35.5-20.31,52.44-31.8c4.3-2.92,7.54-6.68,9.46-11.54c2.46-6.24,1.94-12.38-0.2-18.6
		c-9.06-26.33-18.04-52.69-27.05-79.04c-0.94-2.76-1.85-5.54-2.87-8.61c1.57-1.09,2.81-1.97,4.07-2.82
		c15.8-10.63,31.66-21.18,47.4-31.91C524.23,37.46,527.69,26.17,523.83,15.54z M98.47,252.2c6.74-0.1,12.51,5.58,12.45,12.24
		c-0.06,6.66-5.51,12.03-12.21,12.04c-6.81,0.02-12.35-5.58-12.26-12.37C86.54,257.69,91.97,252.3,98.47,252.2z M470.97,176.36
		c-83.1,56.13-174.73,87.97-275.43,95.51c-8.67-25.39-17.23-50.48-25.96-76.03c4.67-0.52,8.94-1.03,13.21-1.48
		c15.19-1.61,30.39-3.2,45.58-4.78c12.27-1.28,24.55-2.52,36.82-3.8c13.56-1.41,27.12-2.78,40.67-4.29
		c4.17-0.46,7.81-2.38,11.27-4.71c22.33-15.04,44.69-30.04,67.04-45.05c18.15-12.2,36.29-24.4,54.44-36.6
		c1.17-0.78,2.35-1.53,3.52-2.29C443.67,94.86,469.91,170.78,470.97,176.36z M497.3,26.85c-64,43.01-128,86.02-191.98,129.06
		c-1.92,1.28-3.87,2.1-6.15,2.33c-12.28,1.23-24.55,2.49-36.82,3.76c-12.5,1.3-25,2.66-37.51,3.96
		c-12.38,1.29-24.78,2.52-37.16,3.81c-14.73,1.54-29.45,3.12-44.17,4.66c-12.15,1.28-24.31,2.51-36.46,3.79
		c-7.95,0.83-15.89,1.71-23.83,2.54c-1.1,0.12-2.21,0.12-3.54-0.49c1.11-0.78,2.21-1.57,3.33-2.34
		C143.17,137,203.34,96.09,263.47,55.11c2.13-1.45,4.33-2.23,6.81-2.53c21.69-2.66,43.38-5.32,65.06-8.02
		c21.69-2.7,43.36-5.46,65.05-8.16c18.07-2.24,36.15-4.42,54.22-6.66c14.1-1.75,28.2-3.56,42.31-5.33c0.92-0.11,1.85-0.14,2.78-0.2
		c0.11,0.2,0.21,0.41,0.32,0.62C499.11,25.5,498.24,26.22,497.3,26.85z"/>
	<path class="st11" d="M573.87,525.99c4.92-6.43,9.67-12.65,14.49-18.95c1.21,0.79,2.31,1.47,3.37,2.19
		c56.27,37.88,112.54,75.77,168.83,113.62c4.07,2.74,7.63,5.88,9.85,10.34c1.49,2.98,2.46,6.09,2.34,9.48
		c-0.11,2.82,0.21,5.69-0.25,8.45c-1.87,11.34-13.29,20.19-24.75,19.13c-2.99-0.27-6.05-1.02-8.84-2.14
		c-36.33-14.46-73.63-25.67-111.89-33.7c-19.91-4.18-39.99-7.21-60.26-9.07c-16.78-1.54-33.58-1.91-50.38-1.11
		c-24.79,1.17-49.03,5.29-72.2,14.63c-14.85,5.98-28.48,13.96-40.52,24.55c-6.1,5.37-12.99,7.84-21.11,6.61
		c-4.95-0.75-8.91-3.33-12.79-6.31c-6.33-4.86-12.6-9.88-19.36-14.09c-15.72-9.79-33-15.84-51-19.84
		c-20.29-4.51-40.87-6.05-61.63-5.91c-38.3,0.28-75.81,6.36-112.9,15.4c-31.2,7.6-61.77,17.2-91.56,29.24
		c-14.09,5.69-29.63-2.2-32.53-17c-2.18-11.15-0.17-20.58,10.82-27.98c57.15-38.47,114.3-76.93,171.46-115.4
		c0.48-0.33,0.98-0.63,1.7-1.08c4.79,6.26,9.55,12.47,14.52,18.96c-1.35,0.94-2.67,1.87-4.01,2.77
		C139.38,566.39,83.49,604,27.61,641.61c-0.88,0.59-1.76,1.17-2.62,1.8c-0.86,0.63-1.21,1.41-0.36,2.58
		c3.77-1.44,7.58-2.91,11.39-4.36c32.01-12.17,64.75-21.86,98.18-29.27c21.7-4.81,43.61-8.38,65.73-10.56
		c20.15-1.98,40.37-2.62,60.59-1.44c25.23,1.48,49.92,5.78,73.66,14.78c18.3,6.94,35.1,16.42,49.97,29.21
		c0.71,0.61,1.45,1.17,2.29,1.83c0.54-0.35,1.06-0.6,1.47-0.97c18.2-15.85,39.15-26.64,62.07-33.86
		c18.82-5.93,38.12-9.06,57.75-10.6c15.75-1.23,31.49-1.12,47.23-0.33c15.38,0.77,30.68,2.55,45.9,4.89
		c30.01,4.6,59.49,11.51,88.55,20.26c19.24,5.8,38.27,12.21,56.89,19.79c0.73,0.3,1.51,0.48,3.02,0.95
		c-0.51-1.32-0.62-2.24-1.12-2.79c-0.7-0.76-1.69-1.25-2.57-1.84c-55.98-37.68-111.96-75.36-167.94-113.04
		C576.45,527.81,575.22,526.93,573.87,525.99z"/>
	<path class="st11" d="M550.98,430.29c-0.48,2.64-0.67,5.38-1.48,7.92c-4.14,13.04-11.68,23.71-22.83,31.71
		c-3.09,2.21-6.53,3.73-10.39,4c-6.09,0.43-11.36-3.51-12.64-9.43c-1.23-5.67,1.98-11.33,7.47-13.66c1.89-0.8,3.74-1.95,5.24-3.33
		c3.66-3.37,6.47-7.42,8.63-11.91c1.13-2.34,1.78-4.61,1.28-7.4c-0.93-5.19,2.65-10.55,7.73-12.52c4.83-1.87,10.71-0.08,13.79,4.26
		C549.97,423,550.78,426.5,550.98,430.29z"/>
</g>
</svg>
