<?xml version="1.0" encoding="utf-8"?>
<!-- Generator: Adobe Illustrator 28.2.0, SVG Export Plug-In . SVG Version: 6.00 Build 0)  -->
<svg version="1.1" id="Layer_1" xmlns="http://www.w3.org/2000/svg" xmlns:xlink="http://www.w3.org/1999/xlink" x="0px" y="0px"
	 viewBox="0 0 1416.01 1474.42" style="enable-background:new 0 0 1416.01 1474.42;" xml:space="preserve">
<style type="text/css">
	.st0{fill:#07294E;}
	.st1{fill:#0A2849;}
	.st2{fill:#0A2949;}
	.st3{fill:#0D2843;}
	.st4{fill:#FFFFFF;}
	.st5{fill:#0B2947;}
	.st6{fill:#0B2848;}
	.st7{fill:#0A2948;}
	.st8{fill:#0B2849;}
	.st9{fill:#0B2846;}
	.st10{fill:#0A2847;}
	.st11{fill:#082A4E;}
	.st12{fill:#0C2D51;}
	.st13{fill:#0B2C50;}
	.st14{fill:#092A4E;}
</style>
<g>
	<path class="st11" d="M465.88,482.67c59.98,0,113.29,9.53,164.91,28.28c5.23,1.9,7.35,0.57,10.32-3.69
		c24.42-35.08,53.4-65.91,87.14-92.24c42.91-33.48,90.51-57.87,142.66-73.24c29.78-8.78,60.26-13.86,91.26-15.99
		c49.67-3.41,98.42,1.79,146.18,15.66c64.25,18.65,120.98,50.71,170.23,96.11c42.96,39.61,76.53,85.94,100.34,139.23
		c17.21,38.52,28.61,78.73,33.6,120.75c2.22,18.72,3.73,37.46,3.47,56.26c-0.67,48.98-8.94,96.63-25.98,142.7
		c-22.6,61.14-57.14,114.47-104.01,159.77c-3.85,3.72-4.64,6.88-3.2,12.16c16.42,60.2,32.52,120.49,48.68,180.76
		c12.19,45.48,24.36,90.97,36.51,136.47c3.31,12.41,0.93,20.91-7.45,26.13c-7.16,4.46-14.56,4.27-21.78,0.17
		c-20.27-11.51-40.49-23.1-60.72-34.68c-18.64-10.67-37.32-21.26-55.87-32.1c-3.85-2.25-5.68-1.96-8.04,2.13
		c-22.04,38.22-44.37,76.28-66.49,114.45c-4.72,8.14-10.97,13.72-20.84,12.46c-9.98-1.28-15.64-7.46-18.23-17.3
		c-12.74-48.26-25.73-96.46-38.68-144.67c-10.27-38.25-20.62-76.48-30.92-114.72c-1.78-6.59-3.62-13.16-5.24-19.78
		c-0.74-3.01-2.08-3.77-5.28-3.47c-25.25,2.33-50.54,2.35-75.8,0.1c-3.63-0.32-5.03,0.39-5.94,3.83
		c-6.48,24.62-13.1,49.21-19.71,73.8c-10.67,39.69-21.39,79.36-32.06,119.05c-7.78,28.92-15.61,57.84-23.21,86.81
		c-2.5,9.52-8.45,15.09-17.92,16.37c-9.16,1.24-15.6-3.49-20.07-11.16c-22.29-38.27-44.58-76.54-66.83-114.83
		c-3.41-5.87-3.34-5.95-9.29-2.54c-37.56,21.52-75.16,42.98-112.65,64.62c-8.21,4.74-16.29,6.79-24.87,1.45
		c-7.36-4.58-10.79-12.77-8.59-21.14c7.54-28.65,15.23-57.25,22.87-85.88c10.38-38.9,20.76-77.81,31.17-116.71
		c7.19-26.84,14.43-53.67,21.64-80.5c3.8-14.14,7.53-28.3,11.43-42.41c0.71-2.58,0.33-4.48-1.58-6.29
		c-15.26-14.46-29.38-29.95-42.24-46.58c-2.01-2.61-4.48-2.63-7.15-2.09c-24.97,5.07-50.2,8.37-75.52,10.97
		c-23.83,2.45-47.73,4.22-71.7,4.84c-25.3,0.66-50.61,0.54-75.89-0.27c-23.94-0.77-47.79-3.18-71.6-5.94
		c-29.28-3.4-58.27-8.43-87.08-14.58c-57.16-12.21-112.55-29.88-165.96-53.7c-30.91-13.79-60.78-29.52-89.41-47.6
		c-8.22-5.19-11.71-12.42-10.14-22.04C13.23,803.04,44.04,732.01,92.5,668.6c48.52-63.48,109.55-111.28,182.12-144.31
		c34.81-15.84,71.17-26.96,108.89-33.84C412.44,485.18,441.54,482.82,465.88,482.67z M469.56,523.07
		c-9.48,0.16-18.95,0.35-28.44,0.88c-28.87,1.61-57.19,6.43-85.06,13.91c-65.31,17.51-123.29,48.84-173.99,93.47
		c-48.21,42.44-85.32,93.12-111.27,151.93c-12.01,27.21-20.9,55.41-27.11,84.48c-1.78,8.31-1.76,8.39,5.31,12.53
		c54.95,32.1,113.47,55.74,174.61,73.02c31.88,9.01,64.23,15.95,96.94,21.3c28.61,4.68,57.39,7.82,86.26,9.68
		c26.23,1.69,52.5,2.21,78.85,1.73c45.87-0.83,91.36-4.81,136.62-12.06c4.49-0.72,4.8-1.76,2.58-5.39
		c-11.03-18.09-20.54-36.96-28.49-56.6c-23.45-57.92-34.09-118.05-31.19-180.55c1.08-23.32,3.89-46.4,8.69-69.24
		c7.99-38.03,21.16-74.2,39.05-108.68c2.78-5.36,2.78-5.4-3.12-7.35C564.28,531.02,517.65,522.58,469.56,523.07z M989.81,365.33
		c-209.89-0.32-383.35,168.75-384.78,382.39c-1.45,217.26,174.36,387.89,384.89,387.93c210.44,0.04,385.08-168.97,385.62-384.22
		C1376.07,534.8,1200.39,364.86,989.81,365.33z M1316.58,1352.95c0.72-1.96-0.08-3.34-0.45-4.73c-6.68-25.07-13.4-50.14-20.11-75.2
		c-15.88-59.29-31.81-118.57-47.55-177.89c-1.26-4.76-2.69-4.48-6.05-1.95c-17.85,13.46-36.85,25.13-56.72,35.34
		c-34.22,17.59-70.11,30.56-107.82,38.38c-3.43,0.71-4.99,2.04-3.85,5.78c1.64,5.41,2.96,10.91,4.43,16.37
		c9.77,36.47,19.57,72.94,29.32,109.42c7.3,27.32,14.54,54.66,21.84,81.97c1.85,6.94,3.85,13.84,6.09,21.89
		c1.3-2.23,1.87-3.22,2.44-4.2c17.59-30.2,35.13-60.43,52.78-90.6c7.69-13.16,18.2-15.98,31.6-8.41
		c16.38,9.25,32.62,18.72,48.94,28.07C1286.46,1335.78,1301.47,1344.33,1316.58,1352.95z M663.09,1353.31
		c2.22-1.19,3.53-1.85,4.8-2.58c30.05-17.19,60.11-34.37,90.15-51.57c3.34-1.91,6.72-3.59,10.68-3.89
		c10.88-0.84,17.11,5.22,22.12,13.95c16.99,29.59,34.22,59.04,51.4,88.52c0.67,1.15,0.9,2.88,3.14,3.09
		c3.57-13.16,7.18-26.29,10.7-39.44c8.13-30.37,16.22-60.75,24.34-91.13c8.63-32.3,17.22-64.62,25.97-96.89
		c1.09-4.02,0.12-5.69-4-6.56c-8.78-1.84-17.55-3.89-26.19-6.32c-49.86-14.02-95.78-36.18-137.56-66.86c-5-3.67-5.1-3.63-6.74,2.44
		c-6.3,23.29-12.58,46.58-18.81,69.88c-13.63,50.95-27.23,101.9-40.84,152.86C669.27,1330,666.31,1341.2,663.09,1353.31z"/>
	<path class="st11" d="M655.77,187.27c0.44,99.11-80.45,185.58-186.23,185.78c-102.19,0.19-186.92-82.09-186.85-187.33
		C282.76,83.49,366.64,0.32,469.11,0C571.36-0.32,656.77,83.54,655.77,187.27z M469.46,40.43
		c-80.53-0.07-146.27,64.92-146.44,144.82c-0.17,82.64,65.59,147.58,146.44,147.49c83.42-0.1,146.02-68.1,146.02-145.22
		C615.48,105.67,550.96,40.51,469.46,40.43z"/>
	<path class="st11" d="M1327.25,751.17c-0.32,181.35-146.17,337.48-339.6,336.19c-184.74-1.23-333.59-149.88-334.29-335.92
		c-0.69-183.02,145.72-337.52,336.76-337.97C1175.82,413.01,1327.35,563.54,1327.25,751.17z M1286.87,751.24
		c0.24-162.95-129.67-297.75-296.68-297.41c-168.47,0.35-296.82,135.39-296.48,297.57c0.34,162.49,131.22,296.13,297.37,295.65
		C1158.54,1046.57,1286.48,911.24,1286.87,751.24z"/>
	<path class="st11" d="M991.12,561.69c8.49-0.02,14.43,4.21,18.33,13.75c13.69,33.43,27.45,66.82,40.96,100.33
		c1.74,4.31,4.09,6.29,8.68,6.58c15.6,0.99,31.19,2.23,46.78,3.4c21.9,1.65,43.81,3.12,65.67,5.12c7.35,0.67,12.39,5.41,15,12.36
		c2.97,7.9,1.98,15.41-4.3,21.14c-9.95,9.08-20.39,17.65-30.67,26.37c-18.54,15.72-37.07,31.45-55.74,47.03
		c-3.18,2.66-3.68,5.26-2.71,9.14c8.98,36,17.82,72.04,26.6,108.09c2.1,8.6-1.17,15.5-7.97,20.59c-6.8,5.08-14.46,5.33-21.62,1.12
		c-13.77-8.1-27.24-16.72-40.83-25.13c-18.55-11.48-37.13-22.89-55.6-34.5c-2.74-1.72-4.64-1.36-7.19,0.22
		c-31.25,19.43-62.58,38.72-93.84,58.13c-7.81,4.85-15.69,5.6-23.45,0.49c-7.82-5.15-10.27-13.22-7.77-23.37
		c8.73-35.55,17.44-71.1,26.24-106.62c0.83-3.34,0.05-5.63-2.59-7.84c-18.25-15.28-36.43-30.66-54.59-46.05
		c-10.8-9.15-21.73-18.15-32.21-27.65c-5.72-5.19-7.48-12.11-4.95-19.66c2.52-7.51,7.46-12.73,15.5-13.88
		c7.4-1.06,14.89-1.51,22.35-2.07c21.23-1.61,42.47-3.24,63.71-4.65c9.3-0.62,18.59-1.17,27.87-2.05c3.72-0.36,5.59-1.94,6.93-5.24
		c12.13-29.93,24.37-59.81,36.58-89.71c1.83-4.47,3.54-8.99,5.56-13.37C975.44,565.99,981.25,561.4,991.12,561.69z M990.85,635.78
		c-1.95,1.05-2.1,2.47-2.59,3.65c-9,22.03-18.16,43.99-26.88,66.13c-3.85,9.79-10.46,15-20.9,15.7
		c-18.59,1.24-37.17,2.57-55.75,3.96c-6.68,0.5-13.33,1.32-20.95,2.08c1.61,1.45,2.32,2.12,3.07,2.75
		c18.66,15.83,37.32,31.66,55.97,47.5c7.45,6.32,9.91,13.94,7.4,23.66c-5.86,22.71-11.25,45.54-16.78,68.33
		c-0.38,1.55-1.69,3.6-0.32,4.7c1.72,1.39,3.34-0.68,4.78-1.57c19.13-11.8,38.43-23.34,57.22-35.65
		c10.57-6.93,19.88-6.88,30.45,0.03c18.94,12.38,38.41,23.96,57.69,35.83c1.22,0.75,2.57,2.43,3.95,1.56
		c1.72-1.09,0.52-3.02,0.15-4.55c-5.38-21.98-10.35-44.07-16.38-65.87c-3.34-12.06-0.52-20.8,9.05-28.61
		c18.04-14.74,35.64-30.03,53.4-45.13c0.9-0.77,2.51-1.15,2.06-3.29c-8.05-0.65-16.16-1.33-24.27-1.94
		c-17.42-1.31-34.84-2.5-52.25-3.93c-9.28-0.76-15.82-5.39-19.14-14.39c-2.18-5.93-4.75-11.72-7.14-17.58
		C1005.44,671.48,998.21,653.79,990.85,635.78z"/>
</g>
</svg>
