<?xml version="1.0" encoding="utf-8"?>
<!-- Generator: Adobe Illustrator 28.2.0, SVG Export Plug-In . SVG Version: 6.00 Build 0)  -->
<svg version="1.1" id="Layer_1" xmlns="http://www.w3.org/2000/svg" xmlns:xlink="http://www.w3.org/1999/xlink" x="0px" y="0px"
	 viewBox="0 0 779.75 779.58" style="enable-background:new 0 0 779.75 779.58;" xml:space="preserve">
<style type="text/css">
	.st0{fill:#07294E;}
	.st1{fill:#0A2849;}
	.st2{fill:#0A2949;}
	.st3{fill:#0D2843;}
	.st4{fill:#FFFFFF;}
	.st5{fill:#0B2947;}
	.st6{fill:#0B2848;}
	.st7{fill:#0A2948;}
	.st8{fill:#0B2849;}
	.st9{fill:#0B2846;}
	.st10{fill:#0A2847;}
	.st11{fill:#082A4E;}
	.st12{fill:#0C2D51;}
	.st13{fill:#0B2C50;}
	.st14{fill:#092A4E;}
</style>
<g>
	<path class="st11" d="M772.14,453.08c-12.44-24.16-32.86-36.74-59.99-38.19c-12.77-0.68-24.63,2.71-35.9,8.59
		c-60.94,31.83-121.9,63.61-182.86,95.41c-1.32,0.69-2.67,1.35-4.64,2.33c0.14-1.43,0.2-2,0.25-2.57
		c2.89-28.82-7.58-51.53-31.47-67.85c-10.87-7.42-23.2-10.6-36.27-11.11c-13.86-0.55-27.72-1.11-41.59-1.7
		c-26.66-1.13-53.32-2.27-79.98-3.43c-12.92-0.57-25.85-1.07-38.76-1.85c-13.48-0.81-26.06,1.78-38.08,8.11
		c-34.94,18.4-70,36.55-105.02,54.79c-1.23,0.64-2.49,1.23-3.89,1.93c-0.64-1.09-1.21-1.96-1.69-2.87
		c-3.59-6.87-7.05-13.82-10.78-20.62c-6.9-12.56-21.2-16.83-33.93-10.26c-7.1,3.67-14.18,7.39-21.26,11.08
		c-10.95,5.69-21.95,11.29-32.83,17.12C1.09,498.62-3.4,512.74,2.71,525.23c0.67,1.37,1.39,2.72,2.09,4.07
		c37.43,71.81,74.85,143.61,112.28,215.42c3.91,7.5,7.66,15.1,11.84,22.45c6.44,11.29,19.98,15.46,31.78,10.09
		c1.82-0.83,3.58-1.79,5.35-2.71c16.57-8.63,33.12-17.32,49.73-25.88c13.45-6.94,17.55-22.73,10.67-34.93
		c-3.69-6.55-7-13.31-10.46-19.99c-0.42-0.8-0.7-1.66-1.1-2.65c3.31-1.74,6.5-3.25,9.52-5.05c4.51-2.68,9.32-2.98,14.32-2.27
		c1.4,0.19,2.78,0.48,4.16,0.77c37.44,8.05,74.86,16.14,112.31,24.13c12.06,2.57,24.05,5.4,36.44,6.22
		c15.66,1.03,30.31-1.91,44.25-9.19c82.31-42.96,164.67-85.81,247-128.72c20.43-10.65,41.01-21.01,61.18-32.13
		C776.67,526.89,789.18,486.17,772.14,453.08z M207.78,731.05c-0.58,0.39-1.22,0.7-1.85,1.02c-17.08,8.92-34.17,17.84-51.26,26.75
		c-0.83,0.44-1.67,0.89-2.55,1.18c-2.59,0.85-4.92,0.07-6.46-2.2c-0.73-1.07-1.28-2.25-1.88-3.39
		C102.89,675.93,62,597.45,21.11,518.97c-0.44-0.83-0.91-1.65-1.27-2.52c-1.21-3.01-0.4-5.57,2.32-7.33
		c0.79-0.51,1.65-0.9,2.48-1.34c16.78-8.74,33.56-17.48,50.36-26.2c1.44-0.74,2.97-1.31,4.85-2.12c1.43,0.98,2.96,1.8,4.19,2.94
		c0.82,0.77,1.22,1.99,1.77,3.03c40.83,78.37,81.67,156.75,122.5,235.13c0.6,1.14,1.25,2.27,1.73,3.46
		C211.17,726.84,210.34,729.36,207.78,731.05z M735.15,527.85c-16.86,9.54-34.28,18.12-51.47,27.08
		c-85.34,44.49-170.72,88.9-256,133.51c-12.61,6.59-25.69,8.5-39.59,6.82c-13.91-1.68-27.48-5.11-41.15-8
		c-21.94-4.63-43.86-9.41-65.79-14.12c-11.6-2.49-23.19-5.03-34.81-7.4c-7.18-1.46-14.48-2.42-21.64-0.26
		c-4.12,1.24-8.01,3.29-11.96,5.08c-2.23,1.02-4.36,2.25-6.97,3.61c-27.78-53.32-55.34-106.22-83.03-159.38
		c1.43-0.78,2.53-1.41,3.66-2c35.01-18.25,70.04-36.46,105.01-54.79c8.45-4.43,17.27-6.47,26.8-6.04
		c25.25,1.14,50.51,2.11,75.76,3.18c21.73,0.92,43.46,1.86,65.18,2.82c7.99,0.35,15.97,0.75,23.96,1.15
		c22.76,1.15,42.6,18.74,46.52,41.23c4.29,24.67-9.67,48.44-33.32,56.65c-5.38,1.87-10.91,2.86-16.62,2.62
		c-20.67-0.88-41.34-1.78-62.01-2.65c-13.51-0.58-27.01-1.12-40.52-1.68c-2.82-0.12-5.64-0.33-8.45-0.4
		c-1.52-0.03-3.08-0.04-4.55,0.27c-4.52,0.95-7.43,4.53-7.51,8.97c-0.08,4.7,2.74,8.44,7.26,9.57c1.02,0.25,2.08,0.37,3.13,0.41
		c14.1,0.58,28.19,1.09,42.29,1.69c20.32,0.86,40.63,1.82,60.95,2.66c5.16,0.21,10.36,0.51,15.49,0.09
		c20.46-1.67,36.87-11.01,49.51-27.07c1.34-1.71,2.82-3.02,4.75-4.02c68.59-35.71,137.15-71.45,205.73-107.17
		c17.14-8.93,34.39-8.73,50.72,1.33C769.7,462.07,767.74,509.43,735.15,527.85z"/>
	<path class="st11" d="M605.09,338.51c-0.03-18.62-2.99-36.72-9.57-54.18c-20.54-54.55-69.32-89.81-121.53-96.15
		c-19.03-2.31-37.8-1.34-56.29,3.55c-36.5,9.63-65.44,30.18-86.72,61.3c-16.11,23.57-24.62,49.77-25.65,78.32
		c-0.21,6.09-0.47,12.3,0.36,18.31c2.93,21.25,21.22,34.34,39.86,34.22c36.57-0.23,73.13-0.07,109.69-0.07
		c36.68,0,73.36,0.02,110.05-0.01c18.16-0.01,33.69-12.03,38.46-29.54C605.16,349.07,605.1,343.8,605.09,338.51z M585.86,343.79
		c-0.31,12.53-9.14,20.91-21.82,20.92c-36.32,0.03-72.64,0.01-108.97,0.01c-36.08,0-72.17-0.01-108.26,0.02
		c-3.82,0-7.52-0.43-10.94-2.21c-7.18-3.74-11.12-9.77-11.45-17.78c-1.24-30.59,6.42-58.72,24.3-83.7
		c17.86-24.96,41.67-41.92,71.3-50.03c36.02-9.86,70.49-5.36,102.46,14.01c33.72,20.43,53.95,50.57,61.35,89.26
		C585.69,324.02,586.11,333.91,585.86,343.79z"/>
	<path class="st11" d="M456.39,0.01c-43.68-0.66-78.3,34.52-79.37,75.67c-1.14,44.02,33.9,80.55,78.43,80.59
		c42.86-0.3,76.75-34.76,77.79-76.27C534.3,37.27,499.92,0.66,456.39,0.01z M454.92,136.98c-31.79,0.11-59.31-26.12-58.72-60.3
		c0.52-30,24.99-57.51,59.08-57.48c32.01,0.02,58.95,25.44,58.73,59.62C513.79,112.27,486.09,137.22,454.92,136.98z"/>
	<path class="st11" d="M688.1,93.06c-1.19-0.73-2.5-1.3-3.79-1.86c-9.15-3.99-18.28-8.03-27.49-11.88
		c-2.33-0.98-3.82-2.28-4.79-4.68c-2.83-6.96-5.93-13.81-8.94-20.71c-1.4-3.23-2.71-6.51-4.28-9.66c-1.76-3.54-4.66-5.55-8.73-5.5
		c-4.05,0.05-6.88,2.06-8.66,5.62c-0.48,0.95-0.88,1.93-1.3,2.9c-3.99,9.15-8.04,18.28-11.91,27.48c-0.94,2.24-2.32,3.53-4.53,4.46
		c-9.31,3.92-18.55,8-27.82,12.03c-1.18,0.52-2.38,1.02-3.48,1.69c-3.3,2.02-4.87,5.01-4.6,8.89c0.3,4.22,2.75,6.82,6.49,8.44
		c9.8,4.27,19.56,8.63,29.41,12.79c2.23,0.95,3.59,2.24,4.53,4.47c3.36,8.02,6.89,15.96,10.37,23.93c1.03,2.37,1.93,4.82,3.17,7.07
		c3.73,6.76,12.78,6.84,16.7,0.19c0.71-1.2,1.24-2.52,1.8-3.81c4.04-9.27,8.11-18.51,12.05-27.81c0.8-1.88,1.94-3,3.8-3.8
		c9.3-3.96,18.54-8.03,27.8-12.08c1.4-0.61,2.81-1.22,4.11-2.01c3.04-1.87,4.53-4.66,4.58-7.41
		C692.54,97.72,690.96,94.83,688.1,93.06z M644.83,107.21c-4.26,1.62-7.03,4.33-8.63,8.63c-1.66,4.49-3.78,8.81-5.98,13.87
		c-0.8-1.64-1.32-2.63-1.78-3.66c-1.69-3.87-3.41-7.74-5.03-11.64c-1.28-3.11-3.4-5.24-6.52-6.53c-4.87-2.03-9.67-4.22-14.94-6.53
		c1-0.64,1.58-1.13,2.25-1.42c3.54-1.57,7.03-3.31,10.67-4.59c4.68-1.64,7.73-4.56,9.39-9.26c1.28-3.64,3.04-7.13,4.6-10.67
		c0.32-0.74,0.73-1.43,1.32-2.57c0.68,1.39,1.22,2.38,1.67,3.41c1.65,3.76,3.37,7.5,4.88,11.32c1.34,3.38,3.57,5.67,6.97,7
		c3.83,1.5,7.57,3.22,11.33,4.87c1.03,0.45,2.03,0.97,3.66,1.76C653.64,103.41,649.31,105.51,644.83,107.21z"/>
	<path class="st11" d="M310.88,221.79c-1.07-0.69-2.28-1.19-3.47-1.71c-9.35-4.1-18.69-8.25-28.1-12.23
		c-2.22-0.94-3.59-2.24-4.53-4.47c-3.68-8.77-7.53-17.47-11.33-26.19c-0.7-1.62-1.34-3.27-2.2-4.8c-1.89-3.34-4.8-5.16-8.66-5.06
		c-3.7,0.1-6.46,1.92-8.24,5.17c-0.45,0.82-0.8,1.7-1.18,2.56c-4.17,9.58-8.39,19.14-12.48,28.76c-0.8,1.87-1.94,2.99-3.81,3.78
		c-9.5,4.06-18.95,8.25-28.42,12.39c-0.86,0.38-1.74,0.72-2.57,1.15c-3.39,1.78-5.41,4.52-5.47,8.41c-0.06,4.01,1.86,6.94,5.41,8.78
		c0.94,0.49,1.91,0.9,2.88,1.33c8.83,3.84,17.62,7.79,26.51,11.48c3.01,1.25,5.06,2.91,6.18,6.1c1.39,3.98,3.29,7.78,4.98,11.66
		c2.48,5.7,4.97,11.41,7.48,17.1c1.72,3.9,4.61,6.14,9.01,6.14c3.61,0.01,6.32-1.61,8.16-4.65c0.72-1.2,1.26-2.52,1.82-3.81
		c4.04-9.26,8.1-18.5,12.04-27.8c0.84-1.98,2.04-3.21,4.03-4.05c9.4-4,18.75-8.11,28.11-12.21c1.4-0.61,2.82-1.23,4.07-2.08
		C316.74,233.7,316.62,225.5,310.88,221.79z M278.46,231.08c-4.08,1.81-8.15,3.65-12.28,5.34c-3.25,1.33-5.42,3.55-6.72,6.8
		c-1.53,3.82-3.25,7.56-4.9,11.32c-0.46,1.05-0.99,2.07-1.76,3.67c-0.78-1.67-1.32-2.78-1.82-3.92c-1.64-3.76-3.34-7.51-4.89-11.32
		c-1.28-3.13-3.43-5.23-6.54-6.52c-3.79-1.57-7.54-3.27-11.31-4.93c-1.06-0.46-2.09-0.97-3.99-1.86c4.81-2.08,8.82-4.05,13-5.57
		c4.87-1.76,8.18-4.75,9.84-9.75c1.07-3.22,2.64-6.28,4.01-9.39c0.46-1.04,0.99-2.04,1.74-3.56c0.73,1.5,1.26,2.52,1.72,3.56
		c1.61,3.66,3.32,7.27,4.75,11c1.41,3.66,3.88,5.99,7.5,7.42c4.68,1.86,9.26,3.96,14.39,6.17
		C279.98,230.23,279.25,230.73,278.46,231.08z"/>
</g>
</svg>
