<?xml version="1.0" encoding="utf-8"?>
<!-- Generator: Adobe Illustrator 28.2.0, SVG Export Plug-In . SVG Version: 6.00 Build 0)  -->
<svg version="1.1" id="Layer_1" xmlns="http://www.w3.org/2000/svg" xmlns:xlink="http://www.w3.org/1999/xlink" x="0px" y="0px"
	 viewBox="0 0 728.41 546.32" style="enable-background:new 0 0 728.41 546.32;" xml:space="preserve">
<style type="text/css">
	.st0{fill:#07294E;}
	.st1{fill:#0A2849;}
	.st2{fill:#0A2949;}
	.st3{fill:#0D2843;}
	.st4{fill:#FFFFFF;}
	.st5{fill:#0B2947;}
	.st6{fill:#0B2848;}
	.st7{fill:#0A2948;}
	.st8{fill:#0B2849;}
	.st9{fill:#0B2846;}
	.st10{fill:#0A2847;}
	.st11{fill:#082A4E;}
	.st12{fill:#0C2D51;}
	.st13{fill:#0B2C50;}
	.st14{fill:#092A4E;}
</style>
<g>
	<path class="st11" d="M545.97,525.43c-0.5-15.44-3.71-30.34-9.89-44.46c-17.21-39.38-46.68-64.73-88.22-75.68
		c-26.57-7-53.3-13.42-79.99-19.98c-2.73-0.67-4.17-1.78-4.76-4.63c-1.27-6.09-2.79-12.14-4.48-18.13
		c-0.66-2.35-0.17-3.87,1.45-5.63c20.82-22.6,34.21-48.97,39.82-79.22c0.35-1.87,1.16-2.99,3.01-3.85
		c13.12-6.06,20.54-16.37,22.36-30.69c1.8-14.1,3.61-28.2,5.37-42.31c1.39-11.14-1.06-21.25-8.23-30.05
		c-3.48-4.27-7.79-7.46-12.75-10c0-1.37-0.05-2.65,0.01-3.93c0.49-10.57,1.04-21.14,1.48-31.71c0.07-1.81,0.84-3.03,2.02-4.28
		c3.39-3.59,6.94-7.07,9.94-10.96c9.63-12.45,12.86-26.51,9.35-41.88c-3.97-17.39-13.12-31.86-26.17-43.81
		c-14.46-13.26-32.06-19.79-51.17-22.51c-16.6-2.36-33.28-2.18-49.93-0.17c-20.59,2.48-39.88,8.69-57.49,19.83
		c-1.21,0.76-2.8,1.17-4.25,1.29c-7.14,0.62-14.31,0.87-21.43,1.65c-13.61,1.47-26.88,4.44-39.56,9.74
		c-12.82,5.35-23.89,13.02-32.3,24.27c-9.33,12.47-13.2,26.83-14.82,42.01c-1.5,14.01-0.32,27.94,1.12,41.87
		c0.61,5.83,1.19,11.67,1.81,17.74c-0.92,0.5-1.53,0.84-2.15,1.17c-14.49,7.56-22.22,21.09-20.58,37.36
		c1.51,15.08,3.6,30.1,5.55,45.13c2.02,15.57,10.68,25.95,25.23,31.51c1.49,0.57,2.4,1.14,2.59,2.84c0.19,1.74,0.68,3.45,1.06,5.17
		c6.11,27.3,18.47,51.4,37.15,72.22c1.34,1.49,1.68,2.78,1.16,4.71c-1.83,6.81-3.58,13.64-5.09,20.52c-0.62,2.79-1.89,4.03-4.7,4.72
		c-25.9,6.33-51.76,12.79-77.62,19.29c-42.43,10.67-72.83,35.83-90.58,75.89c-7.13,16.1-10.46,33.11-10.28,50.75
		c0.08,7.37,4.78,13.26,11.8,14.73c1.81,0.38,3.74,0.35,5.61,0.35c170.26,0.01,340.52,0.01,510.78,0.01c1.41,0,2.83,0.01,4.23-0.11
		c6.87-0.58,12.48-5.57,13.48-12.35C546.32,531.11,546.06,528.24,545.97,525.43z M514.67,515.96H31.47c0.14-1.36,0.15-2.51,0.4-3.6
		c9.12-40.18,33.36-66.5,73.04-77.5c29.87-8.28,60.12-15.2,90.2-22.72c1.02-0.25,2.06-0.47,3.07-0.77
		c5.61-1.67,9.52-5.22,10.98-10.91c3.81-14.79,7.52-29.6,11.09-44.44c1.38-5.73-0.47-10.67-4.71-14.72
		c-6.15-5.87-11.64-12.28-16.42-19.32c-11.96-17.62-19.5-36.9-21.76-58.15c-0.15-1.4-0.34-2.8-0.57-4.19
		c-1.16-7.05-6.96-12.21-14.09-12.55c-1.06-0.05-2.12-0.02-3.17-0.05c-5.35-0.12-8.03-2.49-8.71-7.74
		c-0.72-5.59-1.42-11.19-2.11-16.79c-1.06-8.63-2.1-17.26-3.16-25.89c-0.66-5.38,1.46-8.22,6.83-9.05c1.15-0.18,2.33-0.27,3.5-0.35
		c8.92-0.66,14.9-7.57,14.02-16.48c-0.74-7.6-1.79-15.18-2.59-22.77c-1.5-14.26-3.21-28.52-2.43-42.9c0.23-4.33,0.77-8.68,1.7-12.91
		c2.81-12.75,10.46-21.85,21.9-27.88c9.48-5,19.71-7.49,30.21-9.15c9.78-1.55,19.61-2.24,29.5-2.25c4.71-0.01,8.91-1.2,12.87-3.98
		c13.54-9.53,28.78-14.76,45.09-16.98c13.67-1.85,27.42-2.31,41.14-0.72c15,1.74,29,6.18,40.24,16.89
		c7.46,7.11,12.68,15.69,15.28,25.73c2,7.69,0.05,14.43-5.38,20.15c-3.24,3.41-6.53,6.78-9.97,9.98c-4.02,3.75-5.86,8.17-6.07,13.72
		c-0.63,16.44-1.66,32.87-2.41,49.31c-0.14,3.14-0.24,6.42,0.49,9.43c1.47,6.04,5.71,9.52,11.79,10.73c1.04,0.2,2.09,0.32,3.14,0.5
		c4.43,0.76,6.73,3.6,6.4,8.16c-0.25,3.28-0.69,6.54-1.1,9.81c-1.34,10.84-2.75,21.68-4.06,32.52c-0.75,6.19-3.01,8.45-9.21,8.94
		c-8.46,0.67-13.9,6.01-14.66,14.34c-2.21,24.28-10.86,46.09-25.66,65.38c-4.2,5.47-8.99,10.57-13.98,15.35
		c-5.3,5.1-7.08,10.68-5.18,17.82c3.31,12.48,6.52,25.01,9.35,37.61c1.81,8.05,6.35,12.57,14.34,14.52
		c29.55,7.2,59.06,14.6,88.55,22.03c28.63,7.22,50.3,23.67,64.76,49.45c5.4,9.61,8.82,19.96,10.71,30.82
		C514.74,514.82,514.67,515.29,514.67,515.96z"/>
	<path class="st11" d="M542.93,370.74c1.06,4.26,2.05,8.11,2.96,11.99c0.37,1.59,1.56,1.84,2.86,2.16
		c9.35,2.3,18.69,4.64,28.04,6.98c18.69,4.68,37.54,8.79,56.02,14.15c44.52,12.93,74.34,41.65,89.37,85.54
		c4.37,12.78,6.14,26.06,6.24,39.53c0.05,7.29-4.72,13.18-11.74,14.8c-1.47,0.34-3.03,0.41-4.55,0.41
		c-39.04,0.02-78.08,0.02-117.12,0.01c-0.82,0-1.63-0.09-2.42-0.13c-0.74-2.49-0.94-25.04-0.23-29.84
		c8.58-0.38,17.24-0.11,25.88-0.16c8.7-0.05,17.4-0.01,26.1-0.01c8.7,0,17.4,0,26.1,0c8.68,0,17.37,0,26.6,0
		c-0.42-2.37-0.64-4.41-1.14-6.38c-9.78-38.78-33.77-64.19-72.29-74.93c-26.12-7.29-52.6-13.3-78.92-19.89
		c-4.56-1.14-9.11-2.3-13.67-3.44c-6.27-1.56-10.31-5.41-11.89-11.69c-3.12-12.41-6.27-24.82-9.27-37.27
		c-2.34-9.72,3.05-17.56,12.94-19.26c9.61-1.65,19.25-3.17,28.78-5.16c15.19-3.18,30.1-7.45,44.61-12.99
		c0.75-0.29,1.47-0.66,2.28-1.03c-0.1-0.44-0.09-0.81-0.26-1.06c-11.38-17.15-18.6-36.08-23.8-55.84
		c-4.46-16.97-7.19-34.24-8.81-51.71c-1.34-14.41-1.95-28.85-1.97-43.32c-0.02-15.17-0.58-30.33-2.2-45.42
		c-1.76-16.51-4.4-32.85-10.65-48.37c-2.65-6.58-5.99-12.76-10.98-17.93c-5.09-5.27-11.21-7.99-18.58-7.89
		c-3.41,0.05-6.82-0.03-10.23-0.04c-3.97-0.01-7.31-1.55-10.17-4.21c-2.76-2.56-5.48-5.15-8.26-7.69
		c-6.5-5.95-14.28-8.93-22.98-9.61c-3.86-0.3-7.74-0.4-11.61-0.51c-8.07-0.23-14.33-6.61-14.45-14.8
		c-0.12-8.23,5.83-15.26,13.8-15.41c12.76-0.24,25.35,1.04,37.27,6.18c7.1,3.06,13.41,7.35,19.01,12.6c2.66,2.5,5.34,3.62,9.06,3.55
		c12.01-0.24,22.97,3.19,32.58,10.51c6.93,5.28,12.28,11.95,16.65,19.43c6.82,11.69,11.03,24.38,14.08,37.47
		c3.55,15.26,5.74,30.74,6.46,46.37c0.73,15.85,0.99,31.72,1.47,47.58c0.86,28.05,3.78,55.8,11.94,82.79
		c4.37,14.46,9.96,28.41,18.76,40.82c2.63,3.71,5.69,7.19,8.92,10.41c7.62,7.57,6.42,19.28-2.91,24.58
		c-10.15,5.77-21.03,9.92-32.03,13.73c-16.79,5.82-33.98,10.13-51.43,13.47C545.9,370.07,544.66,370.36,542.93,370.74z"/>
</g>
</svg>
