<?xml version="1.0" encoding="utf-8"?>
<!-- Generator: Adobe Illustrator 28.2.0, SVG Export Plug-In . SVG Version: 6.00 Build 0)  -->
<svg version="1.1" id="Layer_1" xmlns="http://www.w3.org/2000/svg" xmlns:xlink="http://www.w3.org/1999/xlink" x="0px" y="0px"
	 viewBox="0 0 1033.55 1572.33" style="enable-background:new 0 0 1033.55 1572.33;" xml:space="preserve">
<style type="text/css">
	.st0{fill:#07294E;}
	.st1{fill:#0A2849;}
	.st2{fill:#0A2949;}
	.st3{fill:#0D2843;}
	.st4{fill:#FFFFFF;}
	.st5{fill:#0B2947;}
	.st6{fill:#0B2848;}
	.st7{fill:#0A2948;}
	.st8{fill:#0B2849;}
	.st9{fill:#0B2846;}
	.st10{fill:#0A2847;}
	.st11{fill:#082A4E;}
	.st12{fill:#0C2D51;}
	.st13{fill:#0B2C50;}
	.st14{fill:#092A4E;}
</style>
<g>
	<path class="st11" d="M1011.8,707.98c14.7-0.01,21.69-6.83,21.72-21.33c0.04-33.6,0.04-67.18,0-100.78
		c-0.01-13.97-6.92-20.91-20.95-20.99c-15.22-0.09-30.45-0.01-45.67-0.04c-2.01,0-4.01-0.21-6.02-0.33v-40.26h6.02
		c15.22,0,30.45,0.02,45.67,0c13.83-0.02,20.94-7.11,20.96-21.02c0.03-33.6,0.03-67.18-0.01-100.78
		c-0.02-14.41-6.78-21.21-21.18-21.28c-15.22-0.07-30.45-0.02-45.67-0.02h-5.69v-40.62h6.16c15.57,0,31.14,0.05,46.72-0.02
		c12.15-0.06,19.62-7.5,19.65-19.66c0.05-34.29,0.05-68.59,0-102.88c-0.02-13.35-6.93-20.39-20.34-20.53
		c-15.22-0.17-30.45-0.04-45.67-0.04h-6.98v-7.14c0-32.55,0.12-65.09-0.06-97.64c-0.08-13.52-1.69-26.94-7.62-39.32
		C935.85,17.71,907.55,0,868.09,0.01c-215.36,0.01-430.72,0-646.08,0c-43.04,0-86.08-0.03-129.14,0.03
		C87.1,0.05,81.26-0.08,75.59,0.8C29.42,7.87-0.04,48.34,0,88.09c0.27,304.8,0.15,609.6,0.2,914.41c0,5.04,0.38,10.14,1.21,15.11
		c7.01,41.94,44.12,73.24,86.56,73.22c65.97-0.02,131.93,0.04,197.9-0.12c5.1-0.02,7.98,1.5,10.94,5.81
		c41.18,60.07,98.66,90.66,171.13,93.12c11.62,0.39,23.31-1.79,34.99-2.56c2.13-0.14,5.63,0.12,6.29,1.36
		c2.99,5.64,5.2,11.69,7.75,17.75c-1.29,0.72-2.17,1.29-3.1,1.73c-13.39,6.4-16.48,14.74-10.62,28.53
		c41.63,97.86,83.28,195.72,124.87,293.6c17.92,42.19,69.36,55.59,105.55,27.39c24.69-19.21,32.11-52.72,18.91-83.42
		c-19.17-44.6-38.09-89.31-57.1-133.98c-22.55-53.03-45.08-106.08-67.58-159.12c-2.8-6.61-7.45-11.22-14.52-12.28
		c-3.79-0.57-7.85,0.57-12.49,1.01c-2.1-4.91-4.29-10.39-6.81-15.72c-1.41-2.97-0.66-4.51,1.92-6.43
		c19.27-14.34,35.44-31.64,48.33-51.9c2.4-3.76,4.97-4.91,9.29-4.91c72.79,0.14,145.58,0.21,218.37,0.04
		c25.39-0.05,47.04-9.53,64.4-28.11c16.38-17.54,24.04-38.66,24.1-62.55c0.08-33.94,0.03-67.89,0.04-101.83v-6.56h6.45
		c15.4,0,30.79,0.03,46.19-0.01c13.12-0.04,20.34-7.31,20.35-20.56c0.03-33.77,0.04-67.54,0-101.31
		c-0.01-14.35-6.8-21.13-21.25-21.21c-15.22-0.08-30.45-0.02-45.67-0.02H961v-40.61C978.25,707.98,995.03,707.99,1011.8,707.98z
		 M961.97,601.98h34.53v69.09h-34.53V601.98z M962.03,418.21h34.53v69.01h-34.53V418.21z M962,234.63h34.6v69.01H962V234.63z
		 M222,1054.35h-5.52c-41.99,0-83.99,0.07-125.98-0.03c-24.59-0.06-43.65-13.18-51.18-35.88c-2.1-6.31-2.65-13.39-2.67-20.13
		c-0.18-76.29-0.12-152.58-0.12-228.88c0-225.74,0.05-451.46-0.08-677.2c-0.01-18.15,5.84-33.16,20.11-44.6
		C66.07,40,77.07,36.58,89.16,36.57c43.4-0.04,86.8-0.03,130.2-0.03c0.68,0,1.37,0.18,2.64,0.35V1054.35z M722.69,1504.44
		c-0.2,14.03-9.63,26.41-23.24,30.11c-13.82,3.75-28.68-2.21-35.5-14.69c-3.07-5.6-5.31-11.66-8.16-18.05
		c19.82-8.42,38.76-16.44,58.2-24.7C717.42,1486.26,722.83,1494.35,722.69,1504.44z M600.84,1210.75
		c32.98,77.62,65.72,154.72,98.76,232.49c-4.61,2.01-9.01,3.94-13.44,5.82c-13.5,5.75-27.04,11.39-40.49,17.24
		c-2.99,1.3-4.49,1.27-5.93-2.13c-31.95-75.42-64-150.79-96.03-226.18c-0.26-0.63-0.44-1.3-0.84-2.52
		C562.01,1227.31,581.05,1219.19,600.84,1210.75z M544.11,1176.38c5.73-2.47,10.79-4.66,16.57-7.15c2.21,5.05,4.38,10.02,6.82,15.58
		c-5.48,2.37-10.66,4.63-16.55,7.19C548.67,1186.81,546.49,1181.83,544.11,1176.38z M641.57,983.18
		c-1.43,96.12-78.26,171.11-174.2,169.65c-95.61-1.46-168.57-79.31-168.42-171.66c0.16-92.7,74.91-170.27,171.49-171.06
		C565.83,810.93,642.97,888.51,641.57,983.18z M923.72,468.55v525.44c0,9.81,0.06,19.64-4.32,28.79
		c-10.1,21.03-26.96,31.5-50.15,31.54c-65.97,0.08-131.93,0.03-197.9,0.03h-4.62c28.69-104.44,2.45-188.82-88.3-250.54
		c-73.51-41.44-146.66-40.98-219.45,1.86c-88.34,62.09-113.78,145.7-85.26,248.64c-3.68,0-7.82,0.19-11.92-0.14
		c-0.98-0.07-2.12-1.71-2.63-2.88c-0.45-1.04-0.12-2.42-0.12-3.64V36.52h8.23c200,0,399.99,0.04,599.99-0.06
		c24.03-0.01,42.26,9.46,51.9,31.77c3.34,7.72,4.36,16.98,4.38,25.53C923.81,218.68,923.72,343.62,923.72,468.55z M961.98,785.77
		h34.63v69.06h-34.63V785.77z"/>
	<path class="st11" d="M771.84,859.02c-0.65-1.83-0.17-4.83,0.99-6.43c21.06-29.31,31.38-62.53,35.73-97.88
		c3.18-25.84,2.26-51.67-1.13-77.44c-3.5-26.57-9.48-52.57-17.63-78.07c-1.94-6.06-6-10.13-12.2-11.97
		c-1.44-0.43-2.83-1.05-4.56-1.71c0-5.27,0.39-10.38-0.13-15.39c-0.4-3.89-1.15-8.1-3.06-11.4c-15.19-26.15-30.7-52.11-46.11-78.12
		c-2.89-4.87-6.87-8.22-12.56-9.55c-1.28-0.29-2.71-1.85-3.24-3.16c-5.69-14.26-10.87-28.73-16.92-42.83
		c-3.75-8.74-13.68-12.06-22.65-8.71c-1.4,0.53-2.77,1.11-4.75,1.9c0-3.93-0.14-7.24,0.03-10.54c0.39-7.46-1.98-13.6-7.62-18.69
		c-4.67-4.2-8.93-8.87-13.41-13.3c-55.12-54.52-112.17-106.9-174-153.84c-31.08-23.59-62.79-46.29-99.39-60.84
		c-14.37-5.7-29.16-9.97-44.94-7.6c-15.87,2.38-22.24,12.94-16.68,27.99c10.88,29.48,21.39,59.12,33.18,88.23
		c8.3,20.52,18.24,40.39,27.88,60.33c4.16,8.58,10.92,14.81,20.47,17.62c2.92,0.86,5.6,2.53,8.72,3.98
		c-4.48,6.32-6.15,12.75-3.32,19.67c5.63,13.74,11.51,27.37,17.09,41.13c2.33,5.73,6.29,9.51,11.86,11.87
		c4.63,1.98,9.25,4.01,14.51,6.31c-3.48,7.55-2.45,14.11,1.06,20.7c3.94,7.39,7.35,15.05,11.09,22.56
		c7.32,14.69,12.43,30.94,28.13,40.19c-5.97,7.53-6.16,15.36-1.59,23.81c17.65,32.57,35.14,65.22,52.6,97.9
		c2.75,5.16,6.38,9.23,11.97,11.1c7.01,2.34,10.97,6.33,13.36,14c5.99,19.14,13.76,37.72,20.37,56.68
		c2.75,7.89,7.12,13.57,14.69,17.41c10.39,5.27,20.38,11.31,31.07,17.32c-6.03,6.57-5.39,13.86-4.08,21.21
		c0.46,2.57,1.19,5.1,1.89,7.62c9.07,32.45,27.47,57.79,57.01,74.56c17.86,10.12,37.35,14.48,57.64,15.7
		c3.05,0.18,4.63,1.21,5.63,4.18c3.19,9.42,6.67,18.75,10.06,28.1c8.71,23.96,17.44,47.92,26.17,71.87
		c1.9,5.24,5.47,8.93,10.76,10.72c7.26,2.45,13.89,1.26,19.31-4.33c6.26-6.46,6.14-13.89,3.2-21.89
		C796.07,926.38,783.87,892.73,771.84,859.02z M754.5,778.13c-10.43-44.95-27.14-87.67-46.55-129.4
		c-36.85-79.17-81.43-153.76-133.44-223.89c-4.89-6.59-10.2-12.91-15.83-18.86c-6.37-6.72-14.62-8.28-22-5.05
		c-11.23,4.93-14.18,19.85-6.21,29.16c9.96,11.66,20.23,23.15,29.05,35.67c43.14,61.28,81.22,125.59,113.22,193.4
		c19.33,40.99,36.13,82.97,46.23,127.29c3.51,15.41,5.55,31.15,8.3,47c-29.93-1.4-58.9-21.73-69.09-51.77
		c5.8-0.4,11.44-0.85,17.1-1.16c9.29-0.5,15.92-5.58,18.03-13.93c2.16-8.53-1.27-16.08-9.92-20.98
		c-23.26-13.17-46.62-26.16-69.81-39.46c-2.46-1.4-4.78-4.03-5.85-6.64c-3.98-9.67-7.41-19.56-11.12-29.61
		c2.19-1.07,4.25-1.91,6.16-3.05c6.04-3.65,9.25-9.16,8.99-16.13c-0.27-7.82-4.31-13.47-11.49-16.79
		c-12.37-5.72-24.74-11.41-37.03-17.27c-1.76-0.84-3.68-2.25-4.59-3.91c-10.86-19.94-21.56-39.97-32.28-60.01
		c-0.24-0.43-0.28-0.98-0.66-2.41c2.47,0.32,4.57,0.6,6.66,0.86c9.16,1.11,17-3.02,20.24-10.66c3.59-8.45,1.2-16.84-6.65-22.67
		c-16.28-12.1-32.66-24.07-48.88-36.24c-2.14-1.6-4.07-3.86-5.29-6.22c-4.81-9.31-9.15-18.86-13.99-28.14
		c-1.66-3.2-1.34-5.26,1.27-7.65c4.82-4.37,8.28-9.7,7.71-16.5c-0.65-7.82-4.94-13.23-12.17-16.36
		c-8.49-3.68-16.96-7.41-25.41-11.18c-7.18-3.19-8.07-4.45-9.61-13.34c4.97,0,9.83,0.11,14.7-0.02c9.58-0.24,16.67-5.2,18.85-13.02
		c2.46-8.81-0.56-16.73-9.37-21.75c-20.01-11.42-40.28-22.38-60.33-33.72c-2.27-1.28-4.54-3.5-5.6-5.83
		c-8.87-19.55-17.78-39.1-26.02-58.92c-6.7-16.12-12.52-32.59-18.71-48.91c-0.67-1.79-1.18-3.65-2.32-7.27
		c9.36,4.31,17.66,7.66,25.52,11.83c29.92,15.87,57.2,35.75,83.73,56.64c57.8,45.51,111.67,95.41,163.7,147.33
		c1.83,1.83,3.17,5.02,3.24,7.62c0.46,18.53,0.46,37.09,0.78,55.63c0.18,10.67,4.35,16.8,12.74,19.44
		c8.47,2.65,15.64-0.3,21.96-9.02c2.44-3.36,4.89-6.73,8.21-11.31c0.57,3.34,1.19,5.4,1.22,7.47c0.18,9.46,0.36,18.9,0.21,28.34
		c-0.13,8.48,2.8,15.31,10.6,18.9c7.45,3.44,14.68,2.31,20.82-3.57c0.35-0.34,0.88-0.47,1.75-0.91c7.26,12.19,13.9,24.7,21.84,36.33
		c7.65,11.19,10.92,22.86,10,36.34c-0.73,10.62,0.03,21.34,0.1,32.01c0.13,17.23,10.32,24.91,27.51,19.86
		c11.19,51.76,14.56,103.03-5.61,153.73C757.56,792.34,756.15,785.21,754.5,778.13z"/>
	<path class="st11" d="M868.42,207.7c-0.41,9.03-7.67,16.55-16.69,17.19c-2.08,0.15-4.19,0.09-6.29,0.09
		c-98.98,0.01-197.97,0.01-296.96-0.01c-2.95,0-6.01,0.08-8.86-0.56c-8.69-1.95-14.18-9.92-13.58-19.2
		c0.56-8.79,7.18-15.72,16.01-16.61c2.25-0.22,4.54-0.16,6.81-0.16h148.49c50.36,0.01,100.74-0.02,151.1,0.03
		C860.74,188.48,868.93,196.48,868.42,207.7z"/>
	<path class="st11" d="M851.54,139.8c-1.57,0.14-3.14,0.07-4.72,0.07c-99.89,0.01-199.77,0.06-299.64-0.15
		c-4.63-0.01-9.82-1.37-13.77-3.73c-6.73-4.02-8.98-12.39-6.74-19.91c2.07-6.94,8.22-11.89,15.82-12.6
		c2.08-0.19,4.19-0.12,6.29-0.13h148.51c50.37,0,100.76-0.01,151.13,0.02c10.66,0.01,18.08,5.73,19.81,15.03
		C870.15,128.63,862.22,138.81,851.54,139.8z"/>
	<path class="st11" d="M470.66,831.93c-82.53-0.15-149.96,67.01-150.12,149.54c-0.16,82.28,66.86,149.51,149.24,149.71
		c82.67,0.2,150.04-66.82,150.14-149.35C620,899.66,552.72,832.09,470.66,831.93z M468.14,1094.27
		c-63.36-1.32-110.61-51.59-110.47-112.81c0.16-62.36,48.67-112.26,112.46-112.36C538,869,582.97,924.22,582.81,982.38
		C582.33,1044.91,531.05,1095.58,468.14,1094.27z"/>
	<path class="st11" d="M548.95,945.02c-7.03,7.48-18.3,7.48-26.68-0.4c-15.94-14.98-34.72-21.22-56.3-18.27
		c-13.87,1.89-25.94,7.99-36.12,17.71c-5.52,5.26-12.05,7.2-19.28,4.54c-13.27-4.86-16.55-20.92-6.24-30.69
		c19.88-18.86,43.55-28.67,70.26-29.01c28.4,0.2,52.34,9.71,72.46,28.69C555.84,925.9,556.56,936.91,548.95,945.02z"/>
</g>
</svg>
