<?xml version="1.0" encoding="utf-8"?>
<!-- Generator: Adobe Illustrator 28.2.0, SVG Export Plug-In . SVG Version: 6.00 Build 0)  -->
<svg version="1.1" id="Layer_1" xmlns="http://www.w3.org/2000/svg" xmlns:xlink="http://www.w3.org/1999/xlink" x="0px" y="0px"
	 viewBox="0 0 563.74 607.27" style="enable-background:new 0 0 563.74 607.27;" xml:space="preserve">
<style type="text/css">
	.st0{fill:#07294E;}
	.st1{fill:#0A2849;}
	.st2{fill:#0A2949;}
	.st3{fill:#0D2843;}
	.st4{fill:#FFFFFF;}
	.st5{fill:#0B2947;}
	.st6{fill:#0B2848;}
	.st7{fill:#0A2948;}
	.st8{fill:#0B2849;}
	.st9{fill:#0B2846;}
	.st10{fill:#0A2847;}
</style>
<g>
	<path class="st0" d="M96.96,434c-26.22-0.15-44.15,22.81-44.69,46.28c-0.64,27.95,20.44,49.42,44.16,49.25
		c24.17,0.17,44.41-21.1,44.61-46.93C141.24,455.87,121.77,434.14,96.96,434z M121.61,482.84c-0.37,14.31-11.99,26.17-25.29,25.82
		c-14.38-0.24-25.22-13.14-24.64-28.39c0.53-14.11,12.13-25.75,25.66-25.41C111.17,455.21,122.01,467.7,121.61,482.84z"/>
	<path class="st0" d="M356.22,298.36V166.08c0-0.45-0.04-0.9,0.01-1.34c0.14-1.34-0.29-2.04-1.64-1.85
		c-0.41,0.06-0.83,0.01-1.25,0.01c-21.5,0-43.01-0.01-64.51,0c-3.24,0.01-2.89-0.5-2.89,3.15v264.29c0.01,3.47-0.38,3.02,2.74,3.02
		c21.5,0.02,43,0.02,64.51,0c3.51,0,3.02,0.46,3.02-3.26C356.22,386.18,356.22,342.27,356.22,298.36z M334.06,412.42
		c-8.88,0.02-17.76,0.01-26.64,0c-2.04,0-2.04-0.02-2.07-2.13v-1.07c0-74.02,0-148.04,0.01-222.06c0-3.89-0.42-3.3,2.97-3.31
		c8.55-0.03,17.1-0.02,25.65-0.01c3.13,0.01,2.83-0.39,2.83,2.96v222.59C336.8,412.76,337.21,412.42,334.06,412.42z M356.22,298.36
		V166.08c0-0.45-0.04-0.9,0.01-1.34c0.14-1.34-0.29-2.04-1.64-1.85c-0.41,0.06-0.83,0.01-1.25,0.01c-21.5,0-43.01-0.01-64.51,0
		c-3.24,0.01-2.89-0.5-2.89,3.15v264.29c0.01,3.47-0.38,3.02,2.74,3.02c21.5,0.02,43,0.02,64.51,0c3.51,0,3.02,0.46,3.02-3.26
		C356.22,386.18,356.22,342.27,356.22,298.36z M334.06,412.42c-8.88,0.02-17.76,0.01-26.64,0c-2.04,0-2.04-0.02-2.07-2.13v-1.07
		c0-74.02,0-148.04,0.01-222.06c0-3.89-0.42-3.3,2.97-3.31c8.55-0.03,17.1-0.02,25.65-0.01c3.13,0.01,2.83-0.39,2.83,2.96v222.59
		C336.8,412.76,337.21,412.42,334.06,412.42z M356.22,298.36V166.08c0-0.45-0.04-0.9,0.01-1.34c0.14-1.34-0.29-2.04-1.64-1.85
		c-0.41,0.06-0.83,0.01-1.25,0.01c-21.5,0-43.01-0.01-64.51,0c-3.24,0.01-2.89-0.5-2.89,3.15v264.29c0.01,3.47-0.38,3.02,2.74,3.02
		c21.5,0.02,43,0.02,64.51,0c3.51,0,3.02,0.46,3.02-3.26C356.22,386.18,356.22,342.27,356.22,298.36z M334.06,412.42
		c-8.88,0.02-17.76,0.01-26.64,0c-2.04,0-2.04-0.02-2.07-2.13v-1.07c0-74.02,0-148.04,0.01-222.06c0-3.89-0.42-3.3,2.97-3.31
		c8.55-0.03,17.1-0.02,25.65-0.01c3.13,0.01,2.83-0.39,2.83,2.96v222.59C336.8,412.76,337.21,412.42,334.06,412.42z M356.22,298.36
		V166.08c0-0.45-0.04-0.9,0.01-1.34c0.14-1.34-0.29-2.04-1.64-1.85c-0.41,0.06-0.83,0.01-1.25,0.01c-21.5,0-43.01-0.01-64.51,0
		c-3.24,0.01-2.89-0.5-2.89,3.15v264.29c0.01,3.47-0.38,3.02,2.74,3.02c21.5,0.02,43,0.02,64.51,0c3.51,0,3.02,0.46,3.02-3.26
		C356.22,386.18,356.22,342.27,356.22,298.36z M334.06,412.42c-8.88,0.02-17.76,0.01-26.64,0c-2.04,0-2.04-0.02-2.07-2.13v-1.07
		c0-74.02,0-148.04,0.01-222.06c0-3.89-0.42-3.3,2.97-3.31c8.55-0.03,17.1-0.02,25.65-0.01c3.13,0.01,2.83-0.39,2.83,2.96v222.59
		C336.8,412.76,337.21,412.42,334.06,412.42z M356.22,298.36V166.08c0-0.45-0.04-0.9,0.01-1.34c0.14-1.34-0.29-2.04-1.64-1.85
		c-0.41,0.06-0.83,0.01-1.25,0.01c-21.5,0-43.01-0.01-64.51,0c-3.24,0.01-2.89-0.5-2.89,3.15v264.29c0.01,3.47-0.38,3.02,2.74,3.02
		c21.5,0.02,43,0.02,64.51,0c3.51,0,3.02,0.46,3.02-3.26C356.22,386.18,356.22,342.27,356.22,298.36z M334.06,412.42
		c-8.88,0.02-17.76,0.01-26.64,0c-2.04,0-2.04-0.02-2.07-2.13v-1.07c0-74.02,0-148.04,0.01-222.06c0-3.89-0.42-3.3,2.97-3.31
		c8.55-0.03,17.1-0.02,25.65-0.01c3.13,0.01,2.83-0.39,2.83,2.96v222.59C336.8,412.76,337.21,412.42,334.06,412.42z M356.22,298.36
		V166.08c0-0.45-0.04-0.9,0.01-1.34c0.14-1.34-0.29-2.04-1.64-1.85c-0.41,0.06-0.83,0.01-1.25,0.01c-21.5,0-43.01-0.01-64.51,0
		c-3.24,0.01-2.89-0.5-2.89,3.15v264.29c0.01,3.47-0.38,3.02,2.74,3.02c21.5,0.02,43,0.02,64.51,0c3.51,0,3.02,0.46,3.02-3.26
		C356.22,386.18,356.22,342.27,356.22,298.36z M334.06,412.42c-8.88,0.02-17.76,0.01-26.64,0c-2.04,0-2.04-0.02-2.07-2.13v-1.07
		c0-74.02,0-148.04,0.01-222.06c0-3.89-0.42-3.3,2.97-3.31c8.55-0.03,17.1-0.02,25.65-0.01c3.13,0.01,2.83-0.39,2.83,2.96v222.59
		C336.8,412.76,337.21,412.42,334.06,412.42z M356.22,298.36V166.08c0-0.45-0.04-0.9,0.01-1.34c0.14-1.34-0.29-2.04-1.64-1.85
		c-0.41,0.06-0.83,0.01-1.25,0.01c-21.5,0-43.01-0.01-64.51,0c-3.24,0.01-2.89-0.5-2.89,3.15v264.29c0.01,3.47-0.38,3.02,2.74,3.02
		c21.5,0.02,43,0.02,64.51,0c3.51,0,3.02,0.46,3.02-3.26C356.22,386.18,356.22,342.27,356.22,298.36z M334.06,412.42
		c-8.88,0.02-17.76,0.01-26.64,0c-2.04,0-2.04-0.02-2.07-2.13v-1.07c0-74.02,0-148.04,0.01-222.06c0-3.89-0.42-3.3,2.97-3.31
		c8.55-0.03,17.1-0.02,25.65-0.01c3.13,0.01,2.83-0.39,2.83,2.96v222.59C336.8,412.76,337.21,412.42,334.06,412.42z M356.22,298.36
		V166.08c0-0.45-0.04-0.9,0.01-1.34c0.14-1.34-0.29-2.04-1.64-1.85c-0.41,0.06-0.83,0.01-1.25,0.01c-21.5,0-43.01-0.01-64.51,0
		c-3.24,0.01-2.89-0.5-2.89,3.15v264.29c0.01,3.47-0.38,3.02,2.74,3.02c21.5,0.02,43,0.02,64.51,0c3.51,0,3.02,0.46,3.02-3.26
		C356.22,386.18,356.22,342.27,356.22,298.36z M334.06,412.42c-8.88,0.02-17.76,0.01-26.64,0c-2.04,0-2.04-0.02-2.07-2.13v-1.07
		c0-74.02,0-148.04,0.01-222.06c0-3.89-0.42-3.3,2.97-3.31c8.55-0.03,17.1-0.02,25.65-0.01c3.13,0.01,2.83-0.39,2.83,2.96v222.59
		C336.8,412.76,337.21,412.42,334.06,412.42z M399.83,601.82V3.8c0-3.69,0.3-3.25-3.09-3.26c-13.12-0.01-26.24,0.01-39.35-0.02
		c-0.88,0-1.83,0.34-2.65-0.33c-0.82-0.05-1.65-0.16-2.47-0.16H244.68c-0.42,0-0.84,0.04-1.25-0.01c-1.23-0.14-1.63,0.51-1.54,1.74
		c0.05,0.62,0.01,1.25,0.01,1.87c0,23.17,0.01,46.33-0.01,69.49c0,1.04,0.26,2.14-0.29,3.17c-0.25,0.01-0.49,0.08-0.72,0.03
		c-7.33-1.49-14.66-2.99-21.99-4.48c-17.92-3.65-35.85-7.29-53.77-10.93c-17.11-3.48-34.22-6.95-51.32-10.44
		c-6.36-1.29-12.7-2.65-19.05-3.95c-1.95-0.41-1.98-0.35-2.4,1.82c-0.05,0.26-0.07,0.53-0.12,0.79
		c-3.05,17.46-6.09,34.93-9.16,52.39c-3.4,19.39-6.84,38.78-10.24,58.17c-3.41,19.39-6.78,38.78-10.18,58.18
		c-3.9,22.19-7.83,44.39-11.72,66.59c-3.57,20.35-7.11,40.72-10.68,61.07c-4.07,23.17-8.17,46.33-12.23,69.49
		c-4.07,23.16-8.09,46.34-12.16,69.5c-5.21,29.66-10.44,59.31-15.66,88.96c-0.39,2.24-0.39,2.27,1.75,2.71
		c13.28,2.72,26.55,5.43,39.83,8.13c17.27,3.52,34.53,7.04,51.8,10.56c15.23,3.1,30.47,6.18,45.7,9.29
		c4.64,0.94,9.28,1.93,13.92,2.89c2.03,0.42,2.07,0.4,2.49-1.93c0.84-4.65,1.62-9.31,2.44-13.96c4.25-24.13,8.51-48.25,12.75-72.38
		c3.74-21.33,7.44-42.66,11.19-63.98c3.89-22.2,7.83-44.4,11.73-66.6c4.72-26.94,9.41-53.89,14.14-80.83
		c6.05-34.48,12.14-68.96,18.2-103.44c5.03-28.61,10.03-57.22,15.05-85.83c0.06-0.34-0.11-0.89,0.71-0.92v4.83
		c0,160.17,0,320.34,0.02,480.51c0,0.95-0.3,1.96,0.25,2.86c0.16-0.38,0.24-0.76,0.28-1.15c0.11,1.23,0.65,1.05,3.03,1.05
		c50.39,0.01,100.78,0.01,151.18,0C400.15,605.29,399.83,605.69,399.83,601.82z M207.68,196.7c-3.89,22.11-7.8,44.21-11.68,66.32
		c-3.9,22.2-7.76,44.41-11.66,66.61c-3.74,21.32-7.52,42.64-11.26,63.96c-3.73,21.23-7.42,42.47-11.14,63.71
		c-3.58,20.35-7.18,40.7-10.75,61.06c-3.4,19.39-6.78,38.79-10.18,58.18c-0.31,1.75-0.66,3.5-0.93,5.26
		c-0.14,0.87-0.43,1.33-1.49,0.96c-5.92-1.2-12.04-2.43-18.15-3.68c-15.56-3.16-31.12-6.32-46.67-9.49
		c-16.46-3.35-32.91-6.71-49.36-10.08c-1.87-0.38-1.88-0.41-1.51-2.54c3.96-22.64,7.94-45.28,11.91-67.92
		c4.39-25.1,8.76-50.2,13.16-75.3c4.9-27.9,9.84-55.8,14.74-83.7c4.57-26.07,9.1-52.14,13.67-78.2
		c4.61-26.33,9.25-52.65,13.88-78.98c0.38-2.19,0.42-2.25,2.38-1.85c15.14,3.09,30.29,6.2,45.44,9.29
		c16.29,3.32,32.58,6.62,48.88,9.92c6.35,1.29,12.71,2.56,19.06,3.86C208,194.49,208.06,194.58,207.68,196.7z M213.99,160.54
		c-0.74,4.03-1.43,8.06-2.14,12.1c-0.08,0.43-0.08,0.89-0.54,1.33c-6.25-1.26-12.59-2.54-18.93-3.83
		c-18.09-3.68-36.17-7.38-54.25-11.07c-14.09-2.87-28.17-5.75-42.27-8.6c-1.25-0.25-1.59-0.67-1.3-2.12
		c0.87-4.37,1.52-8.78,2.29-13.17c0.35-1.97,0.38-1.98,2.03-1.64c23.94,4.9,47.88,9.81,71.82,14.7c13.6,2.78,27.21,5.51,40.81,8.26
		C214.63,157.13,214.61,157.12,213.99,160.54z M225.32,96.1c-1.47,8.15-2.87,16.32-4.29,24.48c-0.83,4.74-1.65,9.48-2.52,14.21
		c-0.33,1.81-0.39,1.8-2.09,1.46c-29.16-5.94-58.32-11.89-87.48-17.83c-8.8-1.79-17.6-3.57-26.39-5.37
		c-1.64-0.34-1.69-0.38-1.38-2.2c1.74-10.01,3.49-20.01,5.24-30.01c0.59-3.33,1.19-6.65,1.84-10.27c9.4,1.92,18.51,3.79,27.63,5.64
		c16.2,3.31,32.41,6.61,48.62,9.92c13.19,2.68,26.38,5.39,39.58,8.03C225.28,94.4,225.55,94.83,225.32,96.1z M380.75,518.59
		c0.02,1.29-0.36,1.82-1.56,1.67c-0.57-0.08-1.16-0.02-1.74-0.02H264.43c-0.42,0-0.83,0.01-1.25,0c-1.86-0.04-1.89-0.04-1.9-2.1
		c-0.01-4.38-0.02-8.76,0.01-13.14c0.01-1.86,0.04-1.9,1.81-1.91c3.49-0.02,6.97-0.01,10.46-0.01h104.06c0.58,0,1.17,0.06,1.74-0.01
		c1.13-0.12,1.39,0.49,1.38,1.58C380.71,509.3,380.69,513.95,380.75,518.59z M378.55,584.73H264.04c-3.13-0.01-2.75,0.33-2.76-3.04
		c-0.01-12.52,0-25.03,0-37.55c0-0.62,0.01-1.25,0-1.87c0-0.81,0.4-1.1,1.1-1.08c0.58,0.01,1.16-0.01,1.75-0.01h113.76
		c0.16,0,0.33,0,0.49,0.01c2.52,0.01,2.35-0.3,2.35,2.65v38.62C380.73,584.93,380.89,584.73,378.55,584.73z M380.73,125.47v354.12
		c-0.02,2.91,0.23,2.6-2.39,2.6c-38.27,0-76.54,0-114.81-0.01c-0.75,0-1.49-0.06-2.24-0.09c0-1.79-0.01-3.58-0.01-5.37
		c0-116.75,0-233.5-0.01-350.26c0-1.07-0.07-2.13-0.11-3.2c0.78-1.03,1.85-0.57,2.79-0.58c14.03-0.03,28.06-0.02,42.09-0.02
		c23.99,0,47.98,0,71.97,0.01C380.97,122.67,380.73,122.22,380.73,125.47z M379.14,101.73c-0.41-0.05-0.83-0.01-1.24-0.01H264.02
		c-0.91,0-1.82-0.06-2.73-0.1c-0.01-1.43-0.01-2.86-0.01-4.28c-0.01-3.31,0-6.61-0.01-9.91c0-3.16-0.04-2.82,2.49-2.82h116.87
		c0.03,5.18,0.03,10.36,0.12,15.53C380.78,101.52,380.26,101.87,379.14,101.73z M261.71,20.71c0.66,0.04,1.32,0.1,1.98,0.1
		c38.97,0.01,77.95,0,116.92,0c0.04,1.61,0.11,3.21,0.11,4.82c0.01,11.61,0.01,23.23,0.01,34.84c0,0.63-0.05,1.26,0.01,1.88
		c0.09,1.1-0.43,1.4-1.33,1.32c-0.5-0.04-1,0-1.5,0H264.2c-0.16,0-0.33-0.01-0.49,0c-2.65,0-2.43,0.13-2.43-2.6
		c0-12.6-0.01-25.19,0-37.79C261.28,22.4,261.09,21.48,261.71,20.71z M242.43,601.96c0,0.26,0,0.51-0.01,0.73
		c-0.01-0.26-0.02-0.51-0.02-0.77c0.01-160.26,0.01-320.52,0.02-480.77c0-0.79-0.04-1.58,0-2.24c0,0.19,0.01,0.43,0.01,0.67V601.96z
		 M354.59,162.89c-0.41,0.06-0.83,0.01-1.25,0.01c-21.5,0-43.01-0.01-64.51,0c-3.24,0.01-2.89-0.5-2.89,3.15v264.29
		c0.01,3.47-0.38,3.02,2.74,3.02c21.5,0.02,43,0.02,64.51,0c3.51,0,3.02,0.46,3.02-3.26c0.01-43.92,0.01-87.83,0.01-131.74V166.08
		c0-0.45-0.04-0.9,0.01-1.34C356.37,163.4,355.94,162.7,354.59,162.89z M334.06,412.42c-8.88,0.02-17.76,0.01-26.64,0
		c-2.04,0-2.04-0.02-2.07-2.13v-1.07c0-74.02,0-148.04,0.01-222.06c0-3.89-0.42-3.3,2.97-3.31c8.55-0.03,17.1-0.02,25.65-0.01
		c3.13,0.01,2.83-0.39,2.83,2.96v222.59C336.8,412.76,337.21,412.42,334.06,412.42z M356.22,298.36V166.08
		c0-0.45-0.04-0.9,0.01-1.34c0.14-1.34-0.29-2.04-1.64-1.85c-0.41,0.06-0.83,0.01-1.25,0.01c-21.5,0-43.01-0.01-64.51,0
		c-3.24,0.01-2.89-0.5-2.89,3.15v264.29c0.01,3.47-0.38,3.02,2.74,3.02c21.5,0.02,43,0.02,64.51,0c3.51,0,3.02,0.46,3.02-3.26
		C356.22,386.18,356.22,342.27,356.22,298.36z M334.06,412.42c-8.88,0.02-17.76,0.01-26.64,0c-2.04,0-2.04-0.02-2.07-2.13v-1.07
		c0-74.02,0-148.04,0.01-222.06c0-3.89-0.42-3.3,2.97-3.31c8.55-0.03,17.1-0.02,25.65-0.01c3.13,0.01,2.83-0.39,2.83,2.96v222.59
		C336.8,412.76,337.21,412.42,334.06,412.42z M356.22,298.36V166.08c0-0.45-0.04-0.9,0.01-1.34c0.14-1.34-0.29-2.04-1.64-1.85
		c-0.41,0.06-0.83,0.01-1.25,0.01c-21.5,0-43.01-0.01-64.51,0c-3.24,0.01-2.89-0.5-2.89,3.15v264.29c0.01,3.47-0.38,3.02,2.74,3.02
		c21.5,0.02,43,0.02,64.51,0c3.51,0,3.02,0.46,3.02-3.26C356.22,386.18,356.22,342.27,356.22,298.36z M334.06,412.42
		c-8.88,0.02-17.76,0.01-26.64,0c-2.04,0-2.04-0.02-2.07-2.13v-1.07c0-74.02,0-148.04,0.01-222.06c0-3.89-0.42-3.3,2.97-3.31
		c8.55-0.03,17.1-0.02,25.65-0.01c3.13,0.01,2.83-0.39,2.83,2.96v222.59C336.8,412.76,337.21,412.42,334.06,412.42z M356.22,298.36
		V166.08c0-0.45-0.04-0.9,0.01-1.34c0.14-1.34-0.29-2.04-1.64-1.85c-0.41,0.06-0.83,0.01-1.25,0.01c-21.5,0-43.01-0.01-64.51,0
		c-3.24,0.01-2.89-0.5-2.89,3.15v264.29c0.01,3.47-0.38,3.02,2.74,3.02c21.5,0.02,43,0.02,64.51,0c3.51,0,3.02,0.46,3.02-3.26
		C356.22,386.18,356.22,342.27,356.22,298.36z M334.06,412.42c-8.88,0.02-17.76,0.01-26.64,0c-2.04,0-2.04-0.02-2.07-2.13v-1.07
		c0-74.02,0-148.04,0.01-222.06c0-3.89-0.42-3.3,2.97-3.31c8.55-0.03,17.1-0.02,25.65-0.01c3.13,0.01,2.83-0.39,2.83,2.96v222.59
		C336.8,412.76,337.21,412.42,334.06,412.42z M356.22,298.36V166.08c0-0.45-0.04-0.9,0.01-1.34c0.14-1.34-0.29-2.04-1.64-1.85
		c-0.41,0.06-0.83,0.01-1.25,0.01c-21.5,0-43.01-0.01-64.51,0c-3.24,0.01-2.89-0.5-2.89,3.15v264.29c0.01,3.47-0.38,3.02,2.74,3.02
		c21.5,0.02,43,0.02,64.51,0c3.51,0,3.02,0.46,3.02-3.26C356.22,386.18,356.22,342.27,356.22,298.36z M334.06,412.42
		c-8.88,0.02-17.76,0.01-26.64,0c-2.04,0-2.04-0.02-2.07-2.13v-1.07c0-74.02,0-148.04,0.01-222.06c0-3.89-0.42-3.3,2.97-3.31
		c8.55-0.03,17.1-0.02,25.65-0.01c3.13,0.01,2.83-0.39,2.83,2.96v222.59C336.8,412.76,337.21,412.42,334.06,412.42z M356.22,298.36
		V166.08c0-0.45-0.04-0.9,0.01-1.34c0.14-1.34-0.29-2.04-1.64-1.85c-0.41,0.06-0.83,0.01-1.25,0.01c-21.5,0-43.01-0.01-64.51,0
		c-3.24,0.01-2.89-0.5-2.89,3.15v264.29c0.01,3.47-0.38,3.02,2.74,3.02c21.5,0.02,43,0.02,64.51,0c3.51,0,3.02,0.46,3.02-3.26
		C356.22,386.18,356.22,342.27,356.22,298.36z M334.06,412.42c-8.88,0.02-17.76,0.01-26.64,0c-2.04,0-2.04-0.02-2.07-2.13v-1.07
		c0-74.02,0-148.04,0.01-222.06c0-3.89-0.42-3.3,2.97-3.31c8.55-0.03,17.1-0.02,25.65-0.01c3.13,0.01,2.83-0.39,2.83,2.96v222.59
		C336.8,412.76,337.21,412.42,334.06,412.42z M356.22,298.36V166.08c0-0.45-0.04-0.9,0.01-1.34c0.14-1.34-0.29-2.04-1.64-1.85
		c-0.41,0.06-0.83,0.01-1.25,0.01c-21.5,0-43.01-0.01-64.51,0c-3.24,0.01-2.89-0.5-2.89,3.15v264.29c0.01,3.47-0.38,3.02,2.74,3.02
		c21.5,0.02,43,0.02,64.51,0c3.51,0,3.02,0.46,3.02-3.26C356.22,386.18,356.22,342.27,356.22,298.36z M334.06,412.42
		c-8.88,0.02-17.76,0.01-26.64,0c-2.04,0-2.04-0.02-2.07-2.13v-1.07c0-74.02,0-148.04,0.01-222.06c0-3.89-0.42-3.3,2.97-3.31
		c8.55-0.03,17.1-0.02,25.65-0.01c3.13,0.01,2.83-0.39,2.83,2.96v222.59C336.8,412.76,337.21,412.42,334.06,412.42z M356.22,298.36
		V166.08c0-0.45-0.04-0.9,0.01-1.34c0.14-1.34-0.29-2.04-1.64-1.85c-0.41,0.06-0.83,0.01-1.25,0.01c-21.5,0-43.01-0.01-64.51,0
		c-3.24,0.01-2.89-0.5-2.89,3.15v264.29c0.01,3.47-0.38,3.02,2.74,3.02c21.5,0.02,43,0.02,64.51,0c3.51,0,3.02,0.46,3.02-3.26
		C356.22,386.18,356.22,342.27,356.22,298.36z M334.06,412.42c-8.88,0.02-17.76,0.01-26.64,0c-2.04,0-2.04-0.02-2.07-2.13v-1.07
		c0-74.02,0-148.04,0.01-222.06c0-3.89-0.42-3.3,2.97-3.31c8.55-0.03,17.1-0.02,25.65-0.01c3.13,0.01,2.83-0.39,2.83,2.96v222.59
		C336.8,412.76,337.21,412.42,334.06,412.42z M356.22,298.36V166.08c0-0.45-0.04-0.9,0.01-1.34c0.14-1.34-0.29-2.04-1.64-1.85
		c-0.41,0.06-0.83,0.01-1.25,0.01c-21.5,0-43.01-0.01-64.51,0c-3.24,0.01-2.89-0.5-2.89,3.15v264.29c0.01,3.47-0.38,3.02,2.74,3.02
		c21.5,0.02,43,0.02,64.51,0c3.51,0,3.02,0.46,3.02-3.26C356.22,386.18,356.22,342.27,356.22,298.36z M334.06,412.42
		c-8.88,0.02-17.76,0.01-26.64,0c-2.04,0-2.04-0.02-2.07-2.13v-1.07c0-74.02,0-148.04,0.01-222.06c0-3.89-0.42-3.3,2.97-3.31
		c8.55-0.03,17.1-0.02,25.65-0.01c3.13,0.01,2.83-0.39,2.83,2.96v222.59C336.8,412.76,337.21,412.42,334.06,412.42z"/>
	<path class="st1" d="M242.17,605.39c0-161.97,0-323.93,0-485.9c0-1.06,0-2.12,0-3.28c0.74,0.49,0.45,1.11,0.48,1.62
		c0.05,0.71,0.01,1.43,0.01,2.15c0,160.27,0,320.54,0.01,480.8c0,4.85-0.56,4.26,3.99,4.26c49.81,0.01,99.63,0.01,149.44,0
		c3.84,0,3.48,0.38,3.48-3.74c0-198.9,0-397.81,0-596.71c0-4.17,0.35-3.78-3.44-3.78c-12.87-0.01-25.74,0.01-38.61-0.02
		c-0.94,0-2.02,0.44-2.8-0.59c0.82-0.05,1.65-0.16,2.47-0.16c13.36-0.01,26.73-0.01,40.09-0.01c0.42,0,0.83,0.04,1.24,0
		c1.11-0.11,1.77,0.21,1.6,1.61c-0.07,0.62-0.01,1.25-0.01,1.88c0,199.5,0,399,0,598.49c0,3.67,0,3.67-3.38,3.67
		c-50.55,0-101.11,0-151.66-0.01C244.12,605.65,243.11,605.93,242.17,605.39z"/>
	<path class="st2" d="M563.55,67.34c0.29,0.96,0.15,1.95,0.15,2.93c0.01,177.42,0.01,354.84,0,532.25c0,3.6,0.45,3.14-2.87,3.14
		c-50.8,0.01-101.61,0.01-152.41,0.01c-0.33,0-0.66,0-1,0c-1.84,0.02-1.92,0.14-1.89-2.07c0.02-1.16,0-2.32,0-3.49
		c0-176.7,0-353.4,0.03-530.11c0-1.04-0.59-2.28,0.49-3.15c0.23,0.27,0.4,0.57,0.53,0.91c0.47,1.94,0.27,3.91,0.27,5.87
		c0.01,174.83,0.01,349.66,0.01,524.49c0,6.8-0.44,6.03,5.64,6.04c48.07,0.02,96.13,0.01,144.2,0c5.86,0,5.45,0.59,5.45-6
		c0-174.92,0-349.84,0.02-524.76c0-1.95-0.33-3.97,0.52-5.85C562.93,67.22,563.21,67.14,563.55,67.34z"/>
	<path class="st3" d="M563.55,67.34c-0.19,0-0.38,0-0.57,0c-1.36,1.2-3,0.86-4.55,0.86c-25.3,0.02-50.6,0.01-75.9,0.01
		c-23.97,0-47.95,0.01-71.92-0.02c-1.54,0-3.18,0.35-4.54-0.86c0-0.16-0.01-0.33-0.01-0.49c0.82-0.05,1.65-0.14,2.47-0.14
		c50.79-0.01,101.58-0.01,152.36,0.03C561.77,66.74,562.88,66.1,563.55,67.34z"/>
	<path class="st4" d="M96.96,434c-26.22-0.15-44.15,22.81-44.69,46.28c-0.64,27.95,20.44,49.42,44.16,49.25
		c24.17,0.17,44.41-21.1,44.61-46.93C141.24,455.87,121.77,434.14,96.96,434z M121.61,482.84c-0.37,14.31-11.99,26.17-25.29,25.82
		c-14.38-0.24-25.22-13.14-24.64-28.39c0.53-14.11,12.13-25.75,25.66-25.41C111.17,455.21,122.01,467.7,121.61,482.84z"/>
	<path class="st4" d="M261.28,476.72c0,1.79,0.01,3.58,0.01,5.37c-0.82-0.69-0.41-1.66-0.41-2.48
		c-0.02-117.92-0.02-235.84-0.01-353.75c0-0.87-0.26-1.79,0.29-2.6c0.04,1.07,0.11,2.13,0.11,3.2
		C261.28,243.22,261.28,359.97,261.28,476.72z"/>
	<path class="st4" d="M356.22,298.36V166.08c0-0.45-0.04-0.9,0.01-1.34c0.14-1.34-0.29-2.04-1.64-1.85
		c-0.41,0.06-0.83,0.01-1.25,0.01c-21.5,0-43.01-0.01-64.51,0c-3.24,0.01-2.89-0.5-2.89,3.15v264.29c0.01,3.47-0.38,3.02,2.74,3.02
		c21.5,0.02,43,0.02,64.51,0c3.51,0,3.02,0.46,3.02-3.26C356.22,386.18,356.22,342.27,356.22,298.36z M334.06,412.42
		c-8.88,0.02-17.76,0.01-26.64,0c-2.04,0-2.04-0.02-2.07-2.13v-1.07c0-74.02,0-148.04,0.01-222.06c0-3.89-0.42-3.3,2.97-3.31
		c8.55-0.03,17.1-0.02,25.65-0.01c3.13,0.01,2.83-0.39,2.83,2.96v222.59C336.8,412.76,337.21,412.42,334.06,412.42z"/>
	<path class="st4" d="M380.61,20.81c-38.97,0-77.95,0.01-116.92,0c-0.66,0-1.32-0.06-1.98-0.1c0.74-0.59,1.6-0.3,2.41-0.3
		c38.05-0.02,76.1-0.02,114.15,0C379.05,20.41,379.93,20.03,380.61,20.81z"/>
	<path class="st4" d="M380.63,84.61H263.76c-2.53,0-2.49-0.34-2.49,2.82c0.01,3.3,0,6.6,0.01,9.91c0,1.42,0,2.85,0.01,4.28
		c-0.8-0.59-0.4-1.48-0.41-2.21c-0.04-4.02-0.03-8.04-0.02-12.06c0.01-3.03,0.07-3.09,2.99-3.1h3.23c36.89,0,73.78,0,110.67,0.02
		C378.7,84.27,379.73,83.9,380.63,84.61z"/>
	<path class="st5" d="M261.29,482.09c-0.56-0.23-0.68-0.72-0.68-1.29c0-0.89-0.01-1.79-0.01-2.68c0-117.44,0-234.88,0.01-352.32
		c0-0.87,0.08-1.74,0.13-2.62c0.01-0.02,0.14-0.07,0.2-0.06c0.08,0.02,0.15,0.09,0.22,0.14c0.04,1.07,0.11,2.13,0.11,3.2
		c0.01,116.76,0.01,233.51,0.01,350.26C261.28,478.51,261.29,480.3,261.29,482.09z"/>
	<path class="st6" d="M380.63,84.61H263.76c-2.53,0-2.49-0.34-2.49,2.82c0.01,3.3,0,6.6,0.01,9.91c0,1.42,0,2.85,0.01,4.28
		c-0.81-0.35-0.68-1.13-0.68-1.82c-0.01-4.47-0.03-8.93,0.01-13.4c0.01-2.06,0.29-2.33,2.12-2.42c0.5-0.03,0.99-0.01,1.49-0.01
		c37.8,0,75.59,0,113.39,0.03C378.63,84,379.8,83.46,380.63,84.61z"/>
	<path class="st7" d="M380.61,20.81c-38.97,0-77.95,0.01-116.92,0c-0.66,0-1.32-0.06-1.98-0.1c-0.21-0.25-0.17-0.53,0.11-0.56
		c0.66-0.06,1.33-0.03,1.99-0.03c37.94,0,75.89-0.01,113.83,0.02C378.63,20.14,379.83,19.56,380.61,20.81z"/>
	<path class="st0" d="M562.98,600.91V67.34H406.07c0,0.45-0.01,0.89-0.01,1.34v533.04c0,3.56-0.17,3.32,3.13,3.32
		c49.97,0,99.94,0,149.92-0.01C563.46,605.03,562.98,605.58,562.98,600.91z M543.96,130.61c-0.91-0.04-1.82-0.11-2.73-0.11
		c-38.73-0.01-77.46-0.01-116.19-0.01c-0.03-4.56-0.08-9.12-0.09-13.67c-0.01-8.85-0.01-17.69,0-26.54
		c0.01-2.87-0.32-2.63,2.35-2.63h113.73c0.5,0,0.99-0.01,1.49,0c1.87,0.04,1.9,0.05,1.9,2.08c0.01,12.87,0.01,25.74,0,38.61
		C544.42,129.12,544.59,129.96,543.96,130.61z M544.45,166.7c0.03,1.5-0.53,1.92-1.77,1.79c-0.49-0.06-0.99-0.01-1.49-0.01
		c-37.76,0-75.52,0-113.29-0.01c-3.38,0-2.92,0.39-2.95-3.08c-0.02-4.02-0.01-8.04,0.01-12.07c0-1.83,0.03-1.87,1.8-1.87
		c5.4-0.02,10.79-0.01,16.19-0.01h98.09c0.59,0,1.17,0.05,1.75-0.01c1.33-0.16,1.68,0.5,1.66,1.86
		C544.38,157.76,544.37,162.23,544.45,166.7z M424.95,479.11V192.69c0-3.25,0-3.25,3.04-3.25h113.53c0.99,0,2-0.16,2.95,0.27
		c-0.01,0.99-0.04,1.97-0.04,2.95v285.42c0,1.34-0.02,2.68-0.02,4.02c-1,0.03-1.99,0.09-2.99,0.09c-37.84,0-75.68,0-113.52-0.01
		C424.52,482.18,424.95,482.67,424.95,479.11z M544.43,517.58c-0.01,2.8,0.21,2.67-2.37,2.67c-4.98-0.01-9.96-0.01-14.94-0.01
		h-99.11c-0.58,0-1.16-0.03-1.74,0.01c-0.93,0.08-1.34-0.29-1.33-1.36c0.03-4.82,0.03-9.65,0-14.48c-0.01-1.09,0.45-1.4,1.35-1.33
		c0.58,0.04,1.17,0,1.75,0c37.76,0,75.53,0,113.29,0.01c3.5,0,3.07-0.49,3.09,3.22C544.44,510.07,544.43,513.82,544.43,517.58z
		 M424.95,544.15c0-0.63,0.02-1.26,0-1.88c-0.01-0.8,0.36-1.11,1.07-1.08c0.66,0.02,1.33-0.01,1.99-0.01h113.03
		c0.59,0,1.17,0.07,1.75-0.01c1.34-0.17,1.66,0.52,1.66,1.86c-0.04,13.32-0.05,26.64,0.01,39.96c0,1.52-0.55,1.88-1.76,1.75
		c-0.41-0.05-0.83-0.01-1.25-0.01c-37.84,0-75.68,0-113.53-0.01c-3.5,0-2.95,0.51-2.96-3.29C424.93,569,424.95,556.57,424.95,544.15
		z"/>
	<path class="st0" d="M96.96,434c-26.22-0.15-44.15,22.81-44.69,46.28c-0.64,27.95,20.44,49.42,44.16,49.25
		c24.17,0.17,44.41-21.1,44.61-46.93C141.24,455.87,121.77,434.14,96.96,434z M121.61,482.84c-0.37,14.31-11.99,26.17-25.29,25.82
		c-14.38-0.24-25.22-13.14-24.64-28.39c0.53-14.11,12.13-25.75,25.66-25.41C111.17,455.21,122.01,467.7,121.61,482.84z"/>
	<path class="st0" d="M356.22,298.36V166.08c0-0.45-0.04-0.9,0.01-1.34c0.14-1.34-0.29-2.04-1.64-1.85
		c-0.41,0.06-0.83,0.01-1.25,0.01c-21.5,0-43.01-0.01-64.51,0c-3.24,0.01-2.89-0.5-2.89,3.15v264.29c0.01,3.47-0.38,3.02,2.74,3.02
		c21.5,0.02,43,0.02,64.51,0c3.51,0,3.02,0.46,3.02-3.26C356.22,386.18,356.22,342.27,356.22,298.36z M334.06,412.42
		c-8.88,0.02-17.76,0.01-26.64,0c-2.04,0-2.04-0.02-2.07-2.13v-1.07c0-74.02,0-148.04,0.01-222.06c0-3.89-0.42-3.3,2.97-3.31
		c8.55-0.03,17.1-0.02,25.65-0.01c3.13,0.01,2.83-0.39,2.83,2.96v222.59C336.8,412.76,337.21,412.42,334.06,412.42z"/>
	<path class="st4" d="M544.41,482.1c0-1.34,0.02-2.68,0.02-4.02V192.66c0-0.98,0.03-1.96,0.04-2.95c0.59,0.8,0.31,1.73,0.31,2.59
		c0.01,95.76,0.01,191.51,0,287.27C544.78,480.41,545.12,481.36,544.41,482.1z"/>
	<path class="st4" d="M543.96,130.61c-0.76,0.58-1.61,0.3-2.42,0.3c-38.05,0.01-76.11,0.01-114.16-0.01c-0.78,0-1.67,0.4-2.34-0.41
		c38.73,0,77.46,0,116.19,0.01C542.14,130.5,543.05,130.57,543.96,130.61z"/>
	<path class="st8" d="M544.41,482.1c0-1.34,0.02-2.68,0.02-4.02V192.66c0-0.98,0.03-1.96,0.04-2.95c0.39,0.26,0.56,0.65,0.57,1.12
		c0.01,0.8,0.01,1.61,0.01,2.41c0,95.13,0,190.26-0.03,285.39C545.02,479.78,545.6,481.15,544.41,482.1z"/>
	<path class="st9" d="M543.82,131.17c-0.65,0.06-1.32,0.03-1.99,0.03c-37.94,0-75.88,0-113.82-0.03c-0.99,0-2.19,0.6-2.97-0.68
		c38.73,0,77.46,0,116.19,0.01c0.91,0,1.82,0.07,2.73,0.11C544.16,130.86,544.1,131.14,543.82,131.17z"/>
	<path class="st10" d="M543.39,169.22c-39.24,0-78.49,0-117.73,0c0-0.09,0-0.18,0-0.27c39.28,0,78.55,0,117.83,0
		C543.45,169.05,543.42,169.13,543.39,169.22z"/>
</g>
</svg>
