<?xml version="1.0" encoding="utf-8"?>
<!-- Generator: Adobe Illustrator 28.2.0, SVG Export Plug-In . SVG Version: 6.00 Build 0)  -->
<svg version="1.1" id="Layer_1" xmlns="http://www.w3.org/2000/svg" xmlns:xlink="http://www.w3.org/1999/xlink" x="0px" y="0px"
	 viewBox="0 0 592.27 529.32" style="enable-background:new 0 0 592.27 529.32;" xml:space="preserve">
<style type="text/css">
	.st0{fill:#b5d56a;}
	.st1{fill:#b5d56a;}
	.st2{fill:#b5d56a;}
	.st3{fill:#b5d56a;}
	.st4{fill:#FFFFFF;}
	.st5{fill:#b5d56a;}
	.st6{fill:#b5d56a;}
	.st7{fill:#b5d56a;}
	.st8{fill:#b5d56a;}
	.st9{fill:#b5d56a;}
	.st10{fill:#b5d56a;}
	.st11{fill:#b5d56a;}
	.st12{fill:#b5d56a;}
	.st13{fill:#b5d56a;}
	.st14{fill:#b5d56a;}
</style>
<g>
	<path class="st11" d="M549.07,465.95c-2.29-14.55-9.68-26.04-21.29-35.01c-40.47-31.28-80.89-62.62-121.34-93.92
		c-11.89-9.21-23.8-18.41-35.65-27.64c-1.3-1.02-2.6-2.19-3.44-3.56c-1.98-3.25-1.41-6.49,0.33-9.77c3.27-6.14,6.6-12.26,9.46-18.59
		c9.78-21.61,15.29-44.33,16.76-67.97c0.72-11.31,0.39-22.64-0.84-33.93c-1.56-14.36-4.6-28.38-9.3-42.02
		c-12.46-36.21-33.59-66.4-63.53-90.3C284.26,14.53,243.06,0.47,198.14,0c-12.18,0.14-23.28,0.94-34.27,2.85
		c-27.62,4.81-53.17,14.89-76.43,30.53c-30.29,20.36-53.17,47.19-68.81,80.14c-10.55,22.22-16.55,45.66-18.2,70.17
		c-1.07,15.89-0.22,31.71,2.52,47.43c4.26,24.32,12.66,47.07,25.46,68.15c16.45,27.06,38.15,48.93,65.1,65.59
		c29.71,18.36,62.08,27.94,96.9,29.33c18.57,0.75,36.86-1.35,54.88-5.87c21.81-5.47,42.04-14.48,60.8-26.82
		c0.39-0.26,0.8-0.49,1.16-0.77c4.49-3.56,10.07-2.7,14.06,1.75c37.43,41.75,74.99,83.39,112.5,125.07
		c7.51,8.35,14.89,16.84,22.6,25c12.57,13.29,28.28,18.34,46.23,16.37c11.41-1.25,21.42-6.03,29.71-13.97
		C546.35,501.53,552.1,485.18,549.07,465.95z M197.02,343.48c-79.9-0.27-147.3-64.83-146.09-148.81
		c1.15-79.44,66.22-143.87,146.64-143.7c80.95,0.16,146.27,65.88,145.82,147.34C342.96,277.68,278.65,343.27,197.02,343.48z"/>
	<path class="st11" d="M474.53,210.86c-2.11-0.69-4.29-1.14-7.06-1.86c1.38-0.57,2.29-0.97,3.2-1.34c4.22-1.63,7.87-4.09,11.04-7.33
		c9.13-9.29,8.39-25.94-2.87-33.42c-2.67-1.77-5.7-3.12-8.72-4.21c-5.83-2.11-11.95-2.58-18.09-2.6c-12.08-0.04-24.14-0.01-36.2,0
		c-0.98,0-1.98,0.11-3.07,0.16v105.71c0.61,0.06,1.06,0.14,1.5,0.14c14.02-0.01,28.03,0.01,42.05-0.08
		c4.75-0.04,9.44-0.81,13.94-2.33c11.72-3.95,19.53-11.43,21.58-24.09C493.98,226.48,487.16,215.06,474.53,210.86z M436.46,177.83
		c0-0.04,0-0.08,0-0.12c4.51-0.1,9.03,0.01,13.53,0.32c3.73,0.26,7.37,0.88,10.05,3.76c5.17,5.57,3.17,14.94-3.14,18.64
		c-6.14,3.6-13.63,1.85-20.4,2.22c-0.04,0-0.02-18.28-0.02-19.91C436.48,181.1,436.48,179.46,436.46,177.83z M457.88,247.22
		c-1.86,0.63-3.82,0.98-5.69,1.16c-5.2,0.51-10.51,0.18-15.73,0.18c0,0,0-27.54,0-27.54c0.21-0.19,0.35-0.41,0.49-0.41
		c5.04,0,10.08,0.21,15.12,0.26c7.72,0.07,14.93,4.76,15.06,13.04c0.06,3.71-1.08,7.52-3.81,10.15
		C461.81,245.53,459.91,246.54,457.88,247.22z"/>
	<path class="st11" d="M592.11,162.24c0,7.57,0,14.88,0,22.54c-0.93-0.42-1.64-0.73-2.34-1.06c-9.66-4.66-19.79-6.34-30.31-4.08
		c-13.52,2.91-22.68,13.29-24.45,27.02c-0.77,5.96-0.7,11.87,0.75,17.69c3.6,14.48,15.15,23.14,30.44,23.09
		c8.6-0.03,16.75-1.76,24.36-5.83c0.38-0.2,0.81-0.31,1.47-0.55c0.08,0.94,0.19,1.64,0.2,2.34c0.01,5.57-0.07,11.14,0.05,16.71
		c0.04,1.79-0.64,2.64-2.23,3.27c-9.32,3.67-19.03,4.68-28.94,4.57c-7.29-0.08-14.46-1.01-21.27-3.69
		c-13.4-5.27-22.58-14.76-27.09-28.44c-4.66-14.11-4.61-28.42,0.43-42.36c6.43-17.79,19.21-29.1,37.61-33.47
		c12.86-3.06,25.8-2.19,38.54,1.26C590.21,161.49,591.06,161.86,592.11,162.24z"/>
	<path class="st11" d="M323.78,207.03c-11.54-32.51-23.11-65.02-34.71-97.51c-0.42-1.16-1.2-2.31-2.08-3.19
		c-11.28-11.29-24.3-20.01-38.89-26.48c-3.88-1.72-7.76-2.73-12.06-2.56c-6.01,0.25-12.05,0.06-18.29,0.06
		c-27.27,74.91-54.43,149.56-81.68,224.42h54.64c5.26-16.6,10.52-33.18,15.77-49.72h80.08c2.87,8.92,5.72,17.76,8.57,26.61
		c0.22,0.09,0.43,0.19,0.66,0.28c0.22-0.41,0.39-0.87,0.67-1.22c15.79-19.7,25.11-42.08,27.84-67.19
		C324.42,209.4,324.16,208.13,323.78,207.03z M217.44,213.01c0.3-1.07,0.57-2.09,0.89-3.1c3.41-10.65,6.82-21.3,10.24-31.96
		c3.35-10.45,6.59-20.93,10.11-31.32c1.56-4.59,3.06-9.21,4.19-13.93c1.14-4.77,1.65-9.66,2.82-14.42c0.02-0.1,0.17-0.94,0.34-0.92
		c0.32,0.04,0.63,0.07,0.95,0.12c0.32,0.05,0.85,6.47,0.94,7.08c1.22,8.4,3.99,16.35,6.56,24.4c6.48,20.4,13.03,40.78,19.53,61.16
		c0.28,0.87,0.52,1.76,0.77,2.63C272.66,213.35,222.73,213.58,217.44,213.01z"/>
</g>
</svg>
