<?xml version="1.0" encoding="utf-8"?>
<!-- Generator: Adobe Illustrator 28.2.0, SVG Export Plug-In . SVG Version: 6.00 Build 0)  -->
<svg version="1.1" id="Layer_1" xmlns="http://www.w3.org/2000/svg" xmlns:xlink="http://www.w3.org/1999/xlink" x="0px" y="0px"
	 viewBox="0 0 1529.13 1530.14" style="enable-background:new 0 0 1529.13 1530.14;" xml:space="preserve">
<style type="text/css">
	.st0{fill:#07294E;}
	.st1{fill:#0A2849;}
	.st2{fill:#0A2949;}
	.st3{fill:#0D2843;}
	.st4{fill:#FFFFFF;}
	.st5{fill:#0B2947;}
	.st6{fill:#0B2848;}
	.st7{fill:#0A2948;}
	.st8{fill:#0B2849;}
	.st9{fill:#0B2846;}
	.st10{fill:#0A2847;}
	.st11{fill:#082A4E;}
	.st12{fill:#0C2D51;}
	.st13{fill:#0B2C50;}
	.st14{fill:#092A4E;}
</style>
<g>
	<path class="st4" d="M490.63,430.63c-4.01,2.25-5.72,5.38-7.98,7.91c-10.43,11.66-20.72,23.45-31.25,35.03
		c-5.79,6.36-8.14,14.47-11.64,21.95c-18.81,40.09-37.35,80.31-55.98,120.49c-6.52,14.05-13.17,28.03-19.51,42.15
		c-2.74,6.1-6.78,10.21-13.5,11.25c-2.36,0.37-3.53,1.21-3.04,3.94c1.12,6.26,1.57,12.56-0.11,18.83c-0.81,3.04,1.39,3.13,3.4,3.57
		c21.12,4.65,42.24,9.33,63.35,14.01c4.23,0.94,8.57,1.71,11.78,5c4.29,4.39,5.66,9.63,4.32,15.64
		c-6.13,27.44-12.22,54.89-18.33,82.34c-6.37,28.59-12.72,57.19-19.12,85.77c-2.23,9.96-9.28,14.76-19.12,12.66
		c-23.6-5.04-47.17-10.26-70.73-15.45c-43.72-9.63-87.43-19.29-131.14-28.96c-16.74-3.7-33.47-7.42-50.18-11.22
		c-8.68-1.98-13.46-9.8-11.54-19.15c2.48-12.07,5.26-24.07,7.91-36.1c8.3-37.7,16.6-75.41,24.91-113.11
		c1.43-6.5,2.79-13.02,4.37-19.48c2.49-10.13,10.16-14.66,20.37-12.38c21.76,4.84,43.56,9.54,65.31,14.45
		c3.46,0.78,5.12,0.13,6.15-3.48c2.56-8.96,7.26-16.76,14.02-23.25c0.97-0.93,2.15-1.76,2.19-3.21
		c0.42-12.84,7.73-23.23,12.57-34.41c21.24-49.04,42.88-97.91,64.37-146.84c4.69-10.67,9.37-21.34,14.04-32.02
		c1.14-2.62,2.59-5.06,4.48-7.18c20.73-23.22,41.52-46.39,62.23-69.63c25.8-28.96,51.67-57.86,77.22-87.04
		c5.92-6.76,12.25-10.09,21.52-10.04c59.46,0.33,118.92,0.22,178.39,0.1c6.2-0.01,11.68,1.23,17.07,4.4
		c36.75,21.6,73.62,42.98,110.37,64.57c4.61,2.71,9.18,4.1,14.58,4.09c57.46-0.13,114.93-0.08,172.39-0.08
		c13.43,0,19.38,5.45,19.51,18.97c0.24,24.48,0.24,48.97,0,73.45c-0.13,12.84-6.53,18.7-19.45,18.7
		c-65.79,0.01-131.58-0.02-197.37,0.06c-4.88,0.01-9.08-1.3-13.18-3.81c-25.86-15.79-51.77-31.51-77.69-47.22
		c-4.66-2.82-4.83-2.72-4.84,2.54c-0.02,46.47,0.03,92.94-0.08,139.41c-0.01,3.99,1.24,5.8,5.23,6.96
		c47.48,13.76,94.91,27.71,142.35,41.64c10.65,3.12,14.34,8.07,14.34,19.23c0.01,81.61,0.01,163.23,0,244.84
		c0,11.92-5.85,18.68-17.78,18.83c-27.81,0.36-55.63,0.34-83.44-0.01c-11.14-0.14-16.94-6.84-16.95-17.98
		c-0.03-48.8-0.11-97.61,0.11-146.41c0.02-5.45-1.67-7.9-6.89-9.46c-37.47-11.23-74.86-22.75-112.27-34.19
		c-3.74-1.14-6.07-1.6-7.15,3.83c-9,45.38-18.36,90.7-27.69,136.01c-5.7,27.7-11.62,55.36-17.3,83.07
		c-9.59,46.79-19.07,93.61-28.56,140.42c-1.92,9.46-7.71,14.72-17.33,14.76c-30.15,0.12-60.3,0.19-90.44-0.02
		c-13.92-0.09-19.9-7.88-17.79-21.99c6.15-41.14,12.32-82.28,18.36-123.44c4.98-33.92,9.73-67.87,14.66-101.79
		c5.41-37.21,10.94-74.4,16.39-111.6c3.62-24.69,7.2-49.39,10.76-74.1c0.28-1.97,0.34-3.98,0.34-5.98
		c0.02-51.3,0.01-102.6,0.01-153.9C490.63,434.85,490.63,433.09,490.63,430.63z M680.63,450.04c0-30.98,0.04-61.96-0.03-92.94
		c-0.01-6.75,2.46-12.2,8.35-15.42c5.59-3.05,11.22-1.91,16.58,1.36c33.11,20.22,66.25,40.38,99.35,60.62
		c2.38,1.45,4.79,2.13,7.54,2.12c58.46-0.02,116.92-0.04,175.38,0.05c4.08,0.01,5.61-1.3,5.54-5.46
		c-0.19-11.99-0.06-23.98-0.06-35.97c0-7.47-0.01-7.49-7.43-7.49c-53.63-0.01-107.26-0.04-160.89,0.05
		c-5.7,0.01-10.67-1.47-15.58-4.35c-37.76-22.16-75.63-44.15-113.42-66.27c-2.87-1.68-5.76-2.32-9.01-2.32
		c-56.13,0.04-112.26,0.06-168.39-0.05c-4.07-0.01-6.85,1.39-9.46,4.37c-15.28,17.37-30.67,34.65-46.08,51.91
		c-25.94,29.06-51.93,58.07-77.85,87.14c-5.86,6.57-11.48,13.14-14.9,21.61c-6.6,16.36-14.06,32.37-21.16,48.52
		c-18.22,41.46-36.42,82.92-54.71,124.35c-1.37,3.11-0.87,4.35,2.58,5.08c12.87,2.7,25.7,5.58,38.5,8.6
		c3.55,0.84,5.45-0.12,6.98-3.44c22.96-49.73,45.94-99.45,69.14-149.07c4.55-9.74,7.71-20.26,15.16-28.53
		c14.26-15.83,28.4-31.77,42.59-47.66c8.31-9.31,16.47-18.77,24.99-27.9c7.69-8.25,19.33-7,25.08,2.32
		c2.21,3.57,2.38,7.53,2.38,11.57c-0.02,66.12-0.01,132.24-0.03,198.37c0,2.16,0.02,4.35-0.29,6.48
		c-5.37,37.05-10.77,74.09-16.22,111.12c-4.34,29.46-8.82,58.9-13.12,88.36c-5.68,38.85-11.23,77.72-16.87,116.58
		c-3.85,26.51-7.67,53.03-11.7,79.51c-0.59,3.86,0.37,5.1,4.21,5.08c18.32-0.1,36.64-0.12,54.96,0.02c3.59,0.03,5.08-1.48,5.69-4.76
		c1.29-6.87,2.72-13.71,4.13-20.56c5.64-27.38,11.3-54.76,16.93-82.15c7.46-36.35,14.89-72.71,22.34-109.07
		c5.01-24.46,10.01-48.91,15.02-73.37c5.52-26.9,10.97-53.81,16.61-80.69c2.23-10.62,10.57-15.35,21.1-12.3
		c4.32,1.25,8.56,2.73,12.86,4.05c44.9,13.7,89.81,27.37,134.69,41.1c11.19,3.42,13.77,7.05,13.78,18.79
		c0.01,47.3,0,94.6,0.01,141.9c0,6.99,0.08,7.07,6.89,7.08c13.99,0.02,27.98,0.01,41.97,0c7.73,0,7.75-0.01,7.75-7.63
		c0-68.12,0-136.24,0-204.36c0-2.83-0.08-5.66,0-8.49c0.09-2.91-1.03-4.41-4.01-5.29c-47.45-13.87-94.85-27.92-142.3-41.8
		c-11.79-3.45-15.54-8.05-15.55-20.34C680.61,510.33,680.62,480.18,680.63,450.04z M165.49,729.97c-1.55,6.89-2.85,12.69-4.15,18.5
		c-5.58,25-11.13,50-16.77,74.99c-0.81,3.61,0.02,5.7,3.92,6.45c5.06,0.97,10.05,2.29,15.09,3.41
		c33.46,7.4,66.91,14.81,100.37,22.18c32.32,7.13,64.67,14.17,96.97,21.39c3.85,0.86,5.51-0.32,6.32-4.01
		c6.47-29.58,13.05-59.13,19.52-88.71c1.15-5.27,0.77-5.58-4.04-3.91c-16.42,5.72-33.25,9.3-50.6,10.78
		c-47.81,4.08-91.81-6.94-132.08-32.92C187.84,750.26,176.61,741.17,165.49,729.97z M309.12,760.76
		c19.91,0.24,35.45-1.44,50.56-5.79c11.18-3.22,22.13-7.26,33.19-10.9c2.15-0.71,3.45-2.14,3.41-4.37
		c-0.04-2.51-2.28-2.53-3.99-2.94c-4.04-0.98-8.09-1.9-12.15-2.79c-37.05-8.15-74.1-16.25-111.14-24.43
		c-29.73-6.56-59.44-13.23-89.18-19.78c-1.76-0.39-4.11-1.88-5.3,0.75c-1.01,2.24-0.63,4.56,1.24,6.45
		c16.19,16.4,33.06,31.97,53.67,42.8C255.67,753.54,283.44,761.33,309.12,760.76z M317.69,682.6c0.01-12.79-8.36-21.65-23.02-24.37
		c-9.71-1.8-21.21,5.16-25.13,14.84c-1.44,3.56-0.32,4.66,3.04,5.37c13.14,2.79,26.24,5.75,39.35,8.65
		C317.3,688.27,317.68,687.98,317.69,682.6z"/>
	<path class="st4" d="M648.72,1174.32c-55.62,0-111.25,0-166.87,0.01c-3.5,0-6.99-0.04-10.42-0.89
		c-6.71-1.68-11.65-6.99-11.69-13.82c-0.17-27.81-0.17-55.62,0-83.43c0.04-6.76,4.91-12.13,11.79-13.75
		c2.88-0.68,5.94-0.87,8.91-0.88c112.58-0.04,225.16-0.04,337.74-0.01c2.98,0,6.01,0.23,8.94,0.76c7.21,1.3,12.47,6.88,12.52,14.16
		c0.19,27.48,0.22,54.96,0.01,82.43c-0.06,8.16-5.52,13.65-13.61,14.7c-3.46,0.45-6.96,0.68-10.45,0.69
		C759.97,1174.33,704.34,1174.32,648.72,1174.32z M649.73,1143.26c51.13,0,102.25-0.05,153.38,0.09c4.74,0.01,6.41-1.35,6.3-6.21
		c-0.29-12.82-0.24-25.65-0.02-38.47c0.08-4.4-1.08-6.16-5.85-6.15c-102.25,0.12-204.5,0.12-306.75,0
		c-4.96-0.01-6.25,1.84-6.16,6.46c0.23,12.32,0.07,24.65,0.08,36.97c0.01,7.28,0.03,7.3,7.14,7.3
		C548.48,1143.25,599.1,1143.25,649.73,1143.26z"/>
	<path class="st4" d="M879.54,995.68c-57.29,0-114.58,0.01-171.87,0c-12.83,0-18.25-5.4-18.26-18.17
		c-0.01-25.48-0.02-50.96,0.01-76.44c0.01-11.61,5.85-17.55,17.55-17.56c115.08-0.03,230.16-0.03,345.25,0.01
		c11.16,0,17.3,6.23,17.33,17.39c0.07,25.98,0.07,51.96,0.01,77.94c-0.03,11.01-5.97,16.81-17.13,16.82
		C994.79,995.69,937.16,995.68,879.54,995.68z M879.07,964.51c50.94,0,101.88,0.01,152.81-0.01c6.27,0,6.54-0.27,6.56-6.43
		c0.03-12.65-0.1-25.3,0.07-37.95c0.05-4.1-1.43-5.61-5.54-5.52c-9.32,0.2-18.64,0.06-27.96,0.06c-92.72,0-185.44,0-278.16,0
		c-6.93,0-6.95,0.02-6.96,6.88c-0.01,11.82-0.01,23.64,0,35.46c0,7.5,0.01,7.51,7.37,7.52
		C777.86,964.52,828.46,964.52,879.07,964.51z"/>
	<path class="st4" d="M419.67,1352.4c-56.95,0-113.91,0-170.86,0c-13.38,0-19-5.67-19-19.19c-0.01-24.98-0.02-49.96,0-74.94
		c0.01-12.31,5.75-18.11,17.94-18.11c114.74-0.01,229.48-0.01,344.22,0c12.3,0,17.97,5.69,17.98,18.06
		c0.02,25.48,0.02,50.96,0,76.44c-0.01,11.75-6.05,17.73-17.91,17.74C534.57,1352.41,477.12,1352.4,419.67,1352.4z M420.34,1321.25
		c50.61,0,101.23,0,151.84,0c7.28,0,7.29-0.01,7.3-7.07c0.01-11.82,0.01-23.64,0-35.46c0-7.4-0.01-7.41-7.48-7.41
		c-77.42,0-154.84,0-232.26,0c-23.81,0-47.62-0.01-71.43,0.01c-7.37,0-7.38,0.03-7.39,7.6c-0.01,11.82-0.01,23.64,0.01,35.46
		c0.01,6.8,0.09,6.87,7.07,6.87C318.78,1321.25,369.56,1321.24,420.34,1321.25z"/>
	<path class="st4" d="M1338.91,638.99c-56.94,0-113.88-0.24-170.81,0.16c-14.9,0.11-19.9-9.17-19.78-19.9
		c0.28-24.14,0.06-48.28,0.1-72.42c0.03-14.2,5.9-20.04,20.05-20.04c113.38-0.01,226.75-0.01,340.13,0
		c14.88,0,20.51,5.63,20.52,20.5c0.01,24.31,0.03,48.61,0,72.92c-0.02,13.09-5.76,18.77-18.89,18.77
		C1453.12,638.99,1396.01,638.98,1338.91,638.99z M1338.76,608.5c50.46,0,100.92,0,151.37,0c7.9,0,7.91-0.02,7.92-7.62
		c0.01-12.16-0.21-24.32,0.1-36.47c0.13-5.02-1.44-6.63-6.52-6.58c-23.48,0.23-46.96,0.1-70.44,0.1c-78.27,0-156.54,0-234.8,0.01
		c-6.86,0-6.87,0.02-6.88,6.96c-0.01,11.99-0.01,23.98,0,35.97c0.01,7.61,0.02,7.63,7.87,7.63
		C1237.85,608.5,1288.3,608.5,1338.76,608.5z"/>
	<path class="st4" d="M190.05,1530.14c-57.46,0-114.92,0-172.38,0c-12.12,0-17.64-5.51-17.65-17.66
		c-0.02-25.32-0.02-50.63,0.02-75.95c0.02-11.91,6.29-18.33,18.13-18.34c114.42-0.03,228.85-0.03,343.27,0
		c12.64,0,19.08,5.96,19.21,18.53c0.27,25.31,0.26,50.63,0.01,75.95c-0.12,11.91-6.28,17.46-18.21,17.47
		C304.97,1530.15,247.51,1530.14,190.05,1530.14z M190.16,1499.93c50.96,0,101.91,0,152.87,0c6.6,0,6.62-0.03,6.63-6.68
		c0.02-12.32,0.01-24.65,0-36.97c-0.01-6.98-0.02-7.01-6.88-7.01c-29.81-0.01-59.62-0.01-89.42-0.01c-71.61,0-143.21,0-214.82,0.01
		c-7.41,0-7.42,0.02-7.43,7.51c-0.01,11.99-0.01,23.98,0,35.97c0.01,7.17,0.02,7.18,7.18,7.18
		C88.91,1499.93,139.53,1499.93,190.16,1499.93z"/>
	<path class="st4" d="M1109.36,705.45c56.95,0,113.91-0.01,170.86,0c13.51,0,19.12,5.59,19.13,19.06c0.02,24.81,0.03,49.63,0,74.44
		c-0.01,12.74-5.88,18.64-18.75,18.65c-114.24,0.03-228.48,0.03-342.72,0c-13.02,0-18.63-5.69-18.64-18.5
		c-0.01-25.48-0.02-50.96,0.01-76.44c0.01-11.46,5.71-17.19,17.25-17.19C994.12,705.44,1051.74,705.45,1109.36,705.45z
		 M1108.72,786.54c50.79,0,101.57,0,152.36,0c7.13,0,7.15-0.02,7.15-7.27c0.01-12.49-0.15-24.98,0.09-37.46
		c0.09-4.6-1.5-6.05-6.06-6.01c-19.81,0.19-39.63,0.08-59.44,0.08c-81.92,0-163.85,0-245.77,0c-7.32,0-7.33,0.01-7.34,7.49
		c-0.01,11.99-0.01,23.98,0,35.97c0.01,7.2,0.02,7.21,7.15,7.21C1007.48,786.54,1058.1,786.54,1108.72,786.54z"/>
	<path class="st4" d="M609.16,0c61.27,0.16,109.8,49.31,109.66,111.05c-0.13,56.09-45.21,108.83-110.6,108.75
		c-59.13-0.08-109.85-47.42-109.21-112.23C499.59,48.26,549.27-0.56,609.16,0z M687.7,110.23c1.48-43.01-35.78-78.92-78.04-79.31
		c-42.56-0.39-79.68,35.15-79.72,77.38c-0.04,44.92,34.74,80.6,78.54,80.63C653.56,188.96,688.82,151.63,687.7,110.23z"/>
</g>
</svg>
