<?xml version="1.0" encoding="utf-8"?>
<!-- Generator: Adobe Illustrator 28.2.0, SVG Export Plug-In . SVG Version: 6.00 Build 0)  -->
<svg version="1.1" id="Layer_1" xmlns="http://www.w3.org/2000/svg" xmlns:xlink="http://www.w3.org/1999/xlink" x="0px" y="0px"
	 viewBox="0 0 722.05 620.17" style="enable-background:new 0 0 722.05 620.17;" xml:space="preserve">
<style type="text/css">
	.st0{fill:#07294E;}
	.st1{fill:#0A2849;}
	.st2{fill:#0A2949;}
	.st3{fill:#0D2843;}
	.st4{fill:#FFFFFF;}
	.st5{fill:#0B2947;}
	.st6{fill:#0B2848;}
	.st7{fill:#0A2948;}
	.st8{fill:#0B2849;}
	.st9{fill:#0B2846;}
	.st10{fill:#0A2847;}
	.st11{fill:#082A4E;}
	.st12{fill:#0C2D51;}
	.st13{fill:#0B2C50;}
	.st14{fill:#092A4E;}
</style>
<path class="st11" d="M722.05,506.12c-0.01-145.33-0.01-290.66-0.01-435.99c0-9.3-3.14-12.55-12.52-12.36
	c-15.73,0.34-31.45,0.89-47.18,1.34c-1.25,0.04-2.49,0-3.97,0V13.13c0-1.09,0.02-2.17-0.04-3.26c-0.27-4.96-3.35-8.65-8.21-9.51
	c-2.11-0.38-4.32-0.4-6.48-0.34c-15.19,0.43-30.34,1.67-45.36,3.93c-29.02,4.36-57.46,11.16-85.21,20.77
	c-30.76,10.64-60.18,24.12-87.52,41.92c-24.3,15.82-45.87,34.63-63.1,58.14c-0.37,0.51-0.66,1.07-1.14,1.83
	c-1.14-1.47-1.84-2.42-2.58-3.33c-4.13-5.03-8.1-10.21-12.46-15.04c-19.03-21.07-41.58-37.75-66.14-51.72
	c-41-23.33-85.04-38.5-131.08-48.15c-18.06-3.78-36.33-6.32-54.74-7.61C87.93,0.3,81.51,0.19,75.11,0.01
	c-2.54-0.07-4.99,0.43-7.07,2.01c-2.99,2.27-4.2,5.33-4.18,9.06c0.06,14.66,0.02,29.3,0.02,43.96v3.96
	c-1.23,0.06-2.07,0.17-2.91,0.13c-7.7-0.31-15.39-0.77-23.09-0.97c-9.33-0.25-18.66-0.42-27.99-0.37C3.95,57.82,0.08,62.05,0,68.04
	c-0.01,0.76,0,1.51,0,2.27v434.03c0,1.09-0.01,2.17,0.01,3.26c0.07,3.03,1.46,5.38,3.73,7.28c2.13,1.79,4.66,2.14,7.32,2.18
	c9.23,0.14,18.46,0.18,27.67,0.51c9.65,0.33,19.31,0.7,28.93,1.5c14.92,1.23,29.8,2.76,44.69,4.32c6.56,0.68,13.08,1.74,19.62,2.61
	c0.08,0.26,0.18,0.52,0.27,0.77c-0.81,0.83-1.62,1.68-2.44,2.5c-8.36,8.36-16.84,16.61-25.06,25.12
	c-9.98,10.35-10.21,26.51-0.45,36.88c6.99,7.43,14.2,14.66,21.65,21.62c10.77,10.09,27.14,9.59,37.61-0.85
	c14.76-14.71,29.48-29.46,44.22-44.19c6.37-6.37,12.78-12.69,19.11-19.11c1.23-1.25,2.39-1.75,4.01-1.02
	c0.49,0.21,1.04,0.3,1.56,0.45c42.41,12.69,83.33,29.05,122.37,50c4.34,2.33,8.27,2.37,12.62,0.03c7.53-4.06,15.17-7.97,22.89-11.68
	c45.74-21.96,93.41-38.39,142.87-49.7c25.71-5.88,51.66-10.42,77.83-13.56c11.31-1.36,22.64-2.48,33.99-3.36
	c12.88-1,25.77-1.74,38.66-2.32c9.32-0.42,18.66-0.41,27.99-0.5c4.01-0.05,7.11-1.54,9.28-4.98
	C722.15,510.22,722.05,508.18,722.05,506.12z M84.29,20.73c1.9,0,3.61-0.1,5.31,0.02c17.43,1.18,34.73,3.43,51.89,6.8
	c30.43,5.96,59.96,14.87,88.53,26.89C254.4,64.7,277.56,77.2,298.9,92.91c18.39,13.54,34.7,29.17,47.61,48.14
	c4.49,6.6,4.53,6.56,4.53,14.68v57.62c-12.67,1.16-24.86,3.54-36.61,7.79c-11.8,4.25-22.92,9.81-33.27,17.03
	c-0.85-0.42-1.63-0.75-2.37-1.17c-33.59-19.11-69.37-32.71-106.69-42.45c-17.96-4.68-36.13-8.27-54.53-10.75
	c-5.03-0.68-10.07,2.59-11.26,7.32c-1.35,5.32,1.33,10.61,6.49,12.26c2.35,0.76,4.88,0.98,7.35,1.34
	c29.17,4.27,57.59,11.46,85.38,21.27c19.06,6.72,37.51,14.81,55.35,24.3c0.94,0.5,1.85,1.05,3.09,1.77
	c-15.22,14.7-26.78,31.57-34.51,51.08c-8.81-3.15-17.04-6.23-25.36-9.04c-25.22-8.49-50.98-14.85-77.3-18.87
	c-3.11-0.47-6.21-1.03-9.34-1.31c-6.05-0.54-10.77,3.13-11.36,8.65c-0.63,5.9,2.95,10.4,9.04,11.47
	c12.39,2.18,24.84,4.05,37.12,6.67c23.68,5.07,46.78,12.2,69.23,21.31c0.5,0.19,0.96,0.47,1.76,0.87
	c-5.1,22.53-4.92,45.08,0.76,68.03c-1.3-0.38-2.2-0.56-3.05-0.89c-25.11-9.49-50.88-16.68-77.21-21.85
	c-8.29-1.63-16.66-2.86-25.02-4.13c-1.78-0.27-3.73-0.22-5.46,0.21c-4.33,1.09-7.13,4.88-7.25,9.31c-0.13,4.68,2.42,8.57,6.92,9.86
	c2.9,0.83,5.95,1.15,8.94,1.61c27.32,4.1,54.02,10.7,80.09,19.8c10.02,3.5,19.83,7.6,29.72,11.5c0.92,0.37,1.94,1.1,2.42,1.94
	c2.93,5.07,5.7,10.21,8.65,15.55c-0.42,0.49-0.92,1.17-1.51,1.76c-5.74,5.77-11.55,11.47-17.22,17.31c-1.37,1.4-2.7,1.75-4.58,1.56
	c-8.95-0.91-16.74,1.66-23.01,8.24c-1.37,1.43-2.61,1.83-4.56,1.22c-15.43-4.84-31.13-8.62-47-11.7
	c-15.13-2.94-30.34-5.27-45.72-6.37c-3.78-0.27-7.58-0.46-11.36-0.72c-1.16-0.08-2.32-0.26-3.5-0.4V20.73z M255.37,451.18
	c3.46,3.46,7.25,7.25,10.89,10.9c-4.79,4.73-10.07,9.96-15.34,15.17c-3.57-3.59-7.3-7.34-10.81-10.86
	C245.23,461.28,250.49,456.04,255.37,451.18z M93.94,500.88c-12.71-1.41-25.51-2.09-38.28-2.81c-11.06-0.62-22.12-0.83-33.18-1.23
	c-0.64-0.03-1.26-0.14-2.21-0.25V78.61c2.75-0.91,37.76,0.17,43.5,1.38c0.04,1.26,0.11,2.62,0.11,3.99v367.27
	c0,1.19-0.02,2.38,0.02,3.58c0.19,5.76,4.02,9.72,9.82,10.07c2.82,0.17,5.63,0.21,8.45,0.3c20.99,0.56,41.72,3.35,62.24,7.61
	c9.87,2.06,19.63,4.59,29.44,6.92c1.22,0.3,2.41,0.72,3.95,1.19c-0.86,0.99-1.37,1.66-1.96,2.25c-7.73,7.76-15.52,15.48-23.2,23.3
	c-1.46,1.5-2.81,1.8-4.85,1.51C129.87,505.49,111.94,502.88,93.94,500.88z M239.64,507.32c-29.75,29.77-59.51,59.51-89.27,89.27
	c-1.72,1.72-3.47,3.32-5.98,3.14c-2.13,0.09-3.76-0.71-5.11-2.07c-6.53-6.5-13.1-12.97-19.55-19.56c-3.05-3.11-2.92-6.89,0.06-10.14
	c0.52-0.56,1.06-1.08,1.6-1.62c29.3-29.29,58.61-58.57,87.91-87.87c0.3-0.3,0.61-0.62,0.91-0.91c4.2-4.11,7.58-4.11,11.77,0.06
	c5.93,5.88,11.83,11.79,17.72,17.7C243.94,499.58,243.95,503.02,239.64,507.32z M324.69,560.32c-0.08,0.06-0.21,0.15-0.29,0.11
	c-25.77-11.12-51.92-21.26-79.23-29.54c4.91-6.17,11.37-10.36,15.16-17.48c23.82,12.78,45.71,27.6,64.67,46.48
	C324.8,560.19,324.76,560.27,324.69,560.32z M350.82,556.93c-24.35-26.98-53.58-47.16-85.22-63.65c6.17-6.19,12.19-12.22,18.56-18.6
	c19.86,12.94,42.26,20.63,66.66,22.7V556.93z M367,477.36c-68.5,2.74-126.94-51.45-127.21-122.32
	c0.17-66.66,54.23-121.19,121.32-121.79c64.79-0.57,122.32,51.43,122.89,121.46C484.54,420.42,432.26,474.75,367,477.36z
	 M373.37,555.78c-0.36,0.42-0.72,0.82-1.12,1.18c-0.13,0.12-0.4,0.09-0.8,0.17v-59.47c4.12-0.54,8.09-0.99,12.03-1.58
	c27.45-4.13,51.55-15.53,72.42-33.73c14.15-12.35,25.41-26.98,33.71-43.84c0.82-1.67,1.93-2.67,3.64-3.4
	c24.22-10.3,49.2-18.24,74.88-23.9c12.91-2.84,26-4.82,39.01-7.18c4.96-0.9,8.21-3.86,8.96-8.2c1.15-6.55-3.63-12.28-10.31-11.94
	c-4.1,0.19-8.19,0.92-12.25,1.59c-31.02,5.05-61.28,12.98-90.74,23.94c-0.69,0.26-1.42,0.44-2.69,0.83
	c2.69-11.44,4.2-22.65,4.23-34.02c0.02-11.41-1.14-22.7-3.85-33.95c1.14-0.53,1.98-0.98,2.86-1.32
	c30.22-11.74,61.33-20.24,93.34-25.44c3.42-0.55,6.88-0.93,10.3-1.49c7.17-1.18,11.08-7.55,8.57-13.85
	c-1.74-4.37-5.59-6.81-10.63-6.27c-5.28,0.56-10.54,1.38-15.77,2.27c-29.59,5-58.42,12.86-86.56,23.29c-2.64,0.98-5.25,2.03-8.3,3.2
	c-7.9-19.5-19.47-36.48-35.2-51.42c7.65-3.78,14.56-7.39,21.63-10.66c34.25-15.8,70.02-26.8,107.1-33.57
	c6.18-1.13,12.42-1.98,18.63-2.91c6.37-0.95,10.33-5.48,9.75-11.25c-0.59-5.86-5.78-9.83-11.71-9.05
	c-13.66,1.81-27.19,4.33-40.63,7.38c-39.22,8.93-76.78,22.34-112.33,41.25c-1.53,0.81-3.05,1.66-4.56,2.5
	c-1.51,0.84-3.02,1.7-4.81,2.7c-21.23-14.32-44.71-22.53-70.6-24.4c-0.12-0.89-0.33-1.71-0.33-2.52
	c-0.02-20.19,0.01-40.37-0.05-60.56c-0.01-1.89,0.78-3.32,1.71-4.8c7.47-11.92,16.5-22.58,26.58-32.37
	c17.81-17.31,38.19-31.02,59.92-42.84c31.44-17.1,64.77-29.23,99.45-37.82c18.97-4.71,38.16-8.18,57.59-10.25
	c5.93-0.64,11.89-0.99,17.84-1.43c1.15-0.08,2.32-0.01,3.66-0.01v424.09c-1.31,0.13-2.58,0.27-3.85,0.4
	c-12.08,1.17-24.24,1.9-36.24,3.61c-26.89,3.82-53.22,10.21-79.01,18.72c-29.46,9.71-57.7,22.1-84.27,38.2
	C411.81,519.48,391.04,535.72,373.37,555.78z M701.87,496.5c-0.77,0.11-1.58,0.3-2.4,0.34c-11.81,0.42-23.66,0.55-35.45,1.31
	c-14.72,0.95-29.43,2.1-44.09,3.76c-15.83,1.79-31.62,4.02-47.36,6.48c-24.02,3.74-47.68,9.19-71.15,15.47
	c-34.64,9.27-68.34,21.15-101.12,35.66c-0.87,0.39-1.76,0.69-3.1,0.54c0.81-0.87,1.58-1.77,2.44-2.59
	c10.6-10.16,22.04-19.29,34.28-27.4c29.97-19.87,62.48-34.3,96.68-45.11c23.61-7.48,47.67-13,72.2-16.49
	c14.64-2.09,29.32-3.21,44.09-3.51c5.9-0.11,9.59-2.51,11-7.27c0.28-0.92,0.39-1.91,0.44-2.87c0.08-1.19,0.04-2.39,0.04-3.58V79.67
	c14.73-0.96,29-1.43,43.5-1.7V496.5z"/>
<path class="st11" d="M606.05,115.57c-1.44,3.06-3.99,4.79-7.29,5.35c-5.15,0.86-10.34,1.55-15.48,2.46
	c-46.89,8.3-91.57,22.93-133.12,46.49c-13.48,7.65-26.3,16.3-38.27,26.2c-1.04,0.87-2.08,1.78-3.25,2.46
	c-6.51,3.81-14.54-0.76-14.61-8.27c-0.1-3.42,1.39-6.07,4.03-8.09c6.48-4.95,12.82-10.1,19.51-14.76
	c25.56-17.78,53.36-31.23,82.52-41.96c26.25-9.66,53.17-16.85,80.76-21.52c4.84-0.82,9.69-1.58,14.55-2.28
	c4.06-0.59,7.49,0.68,9.87,4.08C607.42,108.82,607.65,112.19,606.05,115.57z"/>
<path class="st11" d="M328.23,189.89c0.07,3.79-1.52,6.68-4.74,8.61c-3.23,1.93-6.56,1.92-9.83,0.07c-0.9-0.52-1.73-1.18-2.53-1.84
	c-22.49-18.61-47.54-32.93-74.26-44.46c-29.26-12.64-59.6-21.84-90.94-27.63c-6.77-1.25-13.6-2.22-20.41-3.33
	c-0.93-0.15-1.86-0.3-2.77-0.53c-5.06-1.25-8.01-5.54-7.43-10.8c0.52-4.79,4.7-8.41,10.25-8.46c2.78,0.39,6.1,0.8,9.4,1.33
	c34.59,5.45,68.17,14.65,100.64,27.79c21.16,8.57,41.53,18.72,60.73,31.11c9.58,6.18,18.8,12.88,27.58,20.15
	C326.48,184.01,328.17,186.47,328.23,189.89z"/>
<path class="st11" d="M361.96,250.6c-56.24,0.01-102.51,45.44-103.17,101.32c-0.72,60.18,47.62,105.01,103.35,104.88
	c57.4-0.03,103.08-47.41,102.88-103.17C464.81,295.92,417.75,250.59,361.96,250.6z M362.84,437.29
	c-47.37,0.42-84.84-38.34-84.44-83.71c-0.52-43.41,35.18-82.64,82.23-83.39c45.56-0.72,84.44,35.65,84.87,83.38
	C445.92,398.94,408.25,436.89,362.84,437.29z"/>
</svg>
