<?xml version="1.0" encoding="utf-8"?>
<!-- Generator: Adobe Illustrator 28.2.0, SVG Export Plug-In . SVG Version: 6.00 Build 0)  -->
<svg version="1.1" id="Layer_1" xmlns="http://www.w3.org/2000/svg" xmlns:xlink="http://www.w3.org/1999/xlink" x="0px" y="0px"
	 viewBox="0 0 630.07 633.19" style="enable-background:new 0 0 630.07 633.19;" xml:space="preserve">
<style type="text/css">
	.st0{fill:#07294E;}
	.st1{fill:#0A2849;}
	.st2{fill:#0A2949;}
	.st3{fill:#0D2843;}
	.st4{fill:#FFFFFF;}
	.st5{fill:#0B2947;}
	.st6{fill:#0B2848;}
	.st7{fill:#0A2948;}
	.st8{fill:#0B2849;}
	.st9{fill:#0B2846;}
	.st10{fill:#0A2847;}
	.st11{fill:#082A4E;}
	.st12{fill:#0C2D51;}
	.st13{fill:#0B2C50;}
	.st14{fill:#092A4E;}
</style>
<g>
	<path class="st11" d="M630.03,385.76c0-1.68-0.01-3.38-0.13-5.05c-0.8-10.21-4.29-19.33-11.23-26.94
		c-9.17-10.05-20.73-14.57-34.23-14.57c-67.07,0.01-134.15,0-201.22,0.04c-2.66,0-5.36,0.21-7.99,0.61
		c-21.37,3.27-37.57,22.19-37.58,43.8c0,34.14,0,68.27,0.01,102.39c0,33.93-0.04,67.87,0.01,101.8c0.03,14.73,6,26.69,17.46,35.87
		c8.41,6.74,18.18,9.48,28.82,9.48c65.88,0,131.77,0,197.65-0.01c2.57,0,5.16-0.11,7.71-0.36c13.16-1.3,23.74-7.38,31.74-17.79
		c6.32-8.22,9.02-17.67,9.02-28.05C630,519.9,630.03,452.82,630.03,385.76z M600.25,386.26c0,66.69,0.01,133.37-0.01,200.07
		c0,1.76-0.11,3.58-0.49,5.31c-1.51,6.52-6.83,11-13.5,11.51c-1.28,0.09-2.58,0.12-3.86,0.12c-65.8,0-131.58,0.01-197.38-0.03
		c-2.35-0.01-4.81-0.16-7.04-0.82c-6.19-1.83-10.2-7.24-10.49-13.7c-0.05-1.1-0.03-2.19-0.03-3.27v-99.44
		c0-33.44-0.01-66.88,0.01-100.33c0-1.56,0.07-3.18,0.41-4.72c1.56-6.94,7.04-11.51,14.14-11.92c0.9-0.05,1.79-0.03,2.67-0.03
		c66.09,0,132.18-0.01,198.27,0.03c2.26,0,4.6,0.2,6.75,0.82c6.03,1.7,10.14,7.26,10.52,13.74
		C600.28,384.49,600.25,385.38,600.25,386.26z"/>
	<path class="st11" d="M292.37,45.74c0-3.25-0.27-6.56-0.94-9.74C286.9,14.6,268.75,0.01,246.8,0.01
		c-66.28-0.01-132.54,0-198.82,0.01c-2.57,0-5.15,0.13-7.71,0.37C17.86,2.45-0.07,22.1,0,44.51c0.12,34.14,0.04,68.26,0.04,102.39
		c0,34.12-0.04,68.26,0.01,102.38c0.03,19.86,13.07,37.17,32.13,42.88c4.69,1.4,9.5,1.84,14.39,1.84
		c66.77-0.03,133.53-0.01,200.31-0.03c1.39,0,2.78,0.03,4.17-0.05c10.73-0.56,20.07-4.45,27.75-12
		c9.17-9.01,13.59-20.09,13.59-32.89C292.41,181.27,292.42,113.5,292.37,45.74z M264.05,147.2c0,33.24,0,66.48-0.01,99.72
		c0,1.88,0.01,3.81-0.4,5.63c-1.51,6.56-7.07,11.15-13.81,11.59c-0.99,0.07-1.99,0.04-2.98,0.04c-66.97,0-133.95,0-200.92-0.01
		c-1.38,0-2.79-0.03-4.13-0.28c-7.26-1.42-11.59-6.47-11.96-13.87c-0.04-0.88-0.03-1.78-0.03-2.67c0-66.97-0.01-133.95,0.04-200.92
		c0.01-2.33,0.31-4.81,1.15-6.96c2.27-5.75,6.62-9.01,12.9-9.45c1.28-0.08,2.58-0.07,3.86-0.07c66.28,0,132.56,0,198.84-0.03
		c4.05,0,7.93,0.36,11.28,2.93c3.69,2.79,5.81,6.44,6.09,11.08c0.09,1.39,0.08,2.78,0.08,4.17V147.2z"/>
	<path class="st11" d="M183.78,471.15c21.47,0,42.94,0,64.84,0c-0.61-0.81-0.98-1.44-1.48-1.94c-4.4-4.44-8.9-8.78-13.21-13.31
		c-9.04-9.49-2.62-22,6.57-24.54c5.44-1.51,10.22-0.19,14.25,3.69c2.36,2.27,4.57,4.69,6.84,7.05
		c10.54,10.93,21.06,21.88,31.62,32.78c2.77,2.86,4.84,6.01,5.15,10.11c0.34,4.55-1.28,8.38-4.41,11.58
		c-3.54,3.62-7.14,7.17-10.72,10.75c-9.47,9.48-18.93,18.96-28.41,28.43c-0.91,0.91-1.83,1.84-2.86,2.6
		c-7.37,5.39-14.76,3.62-20.07-2c-5.24-5.55-5.09-13.9,0.32-19.68c4.13-4.42,8.53-8.59,12.8-12.88c0.67-0.67,1.29-1.4,2.49-2.7
		c-1.83,0-2.97,0-4.11,0c-32.35,0-64.7-0.06-97.05,0.04c-8.52,0.03-13.01-5.13-15.12-11.11c-1.4-4-0.87-7.88,1.5-11.36
		c1.16-1.71,2.61-3.24,4.08-4.71c94.78-94.81,189.58-189.6,284.38-284.39c0.95-0.95,1.88-1.93,2.81-2.9
		c-0.06-0.21-0.13-0.43-0.19-0.64c-1.14,0-2.27,0-3.41,0c-24.41,0-48.82,0-73.23-0.01c-1.48,0-2.98-0.08-4.45-0.27
		c-10.06-1.28-13.46-9.76-12.43-17.13c1.01-7.22,5.56-11.48,12.81-12.29c1.38-0.15,2.77-0.21,4.16-0.21
		c37.21-0.01,74.42-0.02,111.63,0.02c1.97,0,4.01,0.11,5.88,0.64c10.03,2.85,13.92,15.54,7.28,23.53c-0.89,1.07-1.89,2.03-2.87,3.02
		c-94.26,94.77-188.52,189.53-282.78,284.3c-0.97,0.97-1.92,1.96-2.88,2.94C183.6,470.76,183.69,470.95,183.78,471.15z"/>
	<path class="st11" d="M568.44,569.11c-0.82,7.79-6.3,12.68-14.15,12.98c-0.88,0.04-1.78,0.03-2.67,0.03
		c-45.94,0-91.87,0.01-137.82-0.03c-1.86,0-3.81-0.11-5.56-0.65c-5.28-1.63-8.58-5.29-9.58-10.72c-0.99-5.41,0.11-10.17,3.93-14.6
		c38.75-44.93,77.36-89.98,116.01-135c0.56-0.64,1.04-1.36,1.91-2.53c-1.64-0.04-2.78-0.11-3.92-0.11
		c-34.03,0-68.06,0.01-102.1-0.03c-2.35-0.01-4.78-0.19-7.04-0.78c-4.68-1.24-7.74-4.41-9.02-9.05c-2.04-7.34,0.12-14.37,5.92-17.82
		c2.19-1.31,4.6-1.83,7.08-2.06c0.79-0.07,1.58-0.04,2.38-0.04c46.34,0,92.68,0.01,139.01-0.03c5.36,0,9.49,2,12.71,6.36
		c2.94,4,3.52,13.53-0.88,18.39c-5.79,6.4-11.27,13.07-16.89,19.62c-33.23,38.69-66.45,77.37-99.68,116.06
		c-0.7,0.82-1.38,1.64-2.06,2.47c0.11,0.23,0.21,0.47,0.32,0.7h3.49c33.84,0,67.67,0,101.51,0.01c1.88,0,3.8-0.05,5.64,0.27
		C565.38,554.08,569.27,561.28,568.44,569.11z"/>
	<path class="st11" d="M228.85,220.76c-22.63-53.06-45.21-106.15-67.83-159.21c-0.65-1.54-1.48-3.05-2.43-4.41
		c-3.72-5.33-9.93-7.5-15.98-5.31c-5.2,1.87-9.28,5.13-11.57,10.42c-20.81,47.91-41.66,95.8-62.5,143.7
		c-2.3,5.28-4.68,10.51-6.87,15.82c-2.77,6.74-0.88,14.13,4.32,17.99c7.32,5.44,18.83,2.77,22.55-6.03
		c6.3-14.88,12.9-29.63,19.38-44.43c0.47-1.07,0.98-2.13,1.47-3.19h72.17c0.52,1.14,0.98,2.13,1.4,3.11
		c6.3,14.34,12.56,28.7,18.87,43.04c0.72,1.62,1.55,3.22,2.55,4.68c3.94,5.73,9.77,6.84,15.49,5.55c5.61-1.27,10.05-7,10.57-12.76
		C230.73,226.6,230.08,223.66,228.85,220.76z M123.54,155.94c0.17-2.21,19.45-47.81,21.79-51.64c1.48,1.68,21.72,48.7,22.17,51.64
		H123.54z"/>
</g>
</svg>
