<?xml version="1.0" encoding="utf-8"?>
<!-- Generator: Adobe Illustrator 28.2.0, SVG Export Plug-In . SVG Version: 6.00 Build 0)  -->
<svg version="1.1" id="Layer_1" xmlns="http://www.w3.org/2000/svg" xmlns:xlink="http://www.w3.org/1999/xlink" x="0px" y="0px"
	 viewBox="0 0 1427.12 1334.73" style="enable-background:new 0 0 1427.12 1334.73;" xml:space="preserve">
<style type="text/css">
	.st0{fill:#07294E;}
	.st1{fill:#0A2849;}
	.st2{fill:#0A2949;}
	.st3{fill:#0D2843;}
	.st4{fill:#FFFFFF;}
	.st5{fill:#0B2947;}
	.st6{fill:#0B2848;}
	.st7{fill:#0A2948;}
	.st8{fill:#0B2849;}
	.st9{fill:#0B2846;}
	.st10{fill:#0A2847;}
	.st11{fill:#082A4E;}
	.st12{fill:#0C2D51;}
	.st13{fill:#0B2C50;}
	.st14{fill:#092A4E;}
</style>
<g>
	<path class="st4" d="M1045.25,434.87c7.03,11.77,4.12,21.83-5.62,29.83c-14.26,11.71-28.98,22.85-43.56,34.16
		c-6.57,5.09-13.52,9.73-19.83,15.12c-2.08,1.78-3.53,5.18-3.82,7.99c-0.83,7.92-0.79,15.92-1.34,23.87
		c-0.17,2.45-0.91,4.92-1.78,7.23c-3.89,10.27-9.22,13.04-19.78,10.4c-6.28-1.57-12.6-3.07-18.79-4.94
		c-4.26-1.29-7.99-1.02-11.9,1.25c-17.68,10.24-36.42,18.95-52.92,30.81c-17.36,12.47-32.93,27.52-48.7,42.08
		c-32.78,30.26-65.12,61-97.76,91.41c-7.66,7.14-16.06,13.5-23.66,20.7C679.9,759.77,667.35,777,663,798.95
		c-1.25,6.31-1.58,12.88-1.58,19.34c-0.09,127.57-0.07,255.14-0.07,382.7c0,2.15,0,4.3,0,6.83c-58,0-115.7,0-173.96,0
		c-0.11-2.07-0.32-4.16-0.33-6.26c-0.08-58.62,0.91-117.27-0.5-175.85c-1.57-65.42-28.41-119.85-77.21-163.39
		c-16.63-14.83-35.31-26.6-55.53-35.92c-1.02-0.47-1.97-1.11-3.79-2.16c7.07-10.39,13.64-20.74,20.9-30.59
		c37.49-50.91,85.11-89.41,142.56-115.83c5.06-2.32,9.49-0.33,13.99,0.46c60.28,10.54,118.77-17.7,148.41-71.75
		c1.16-2.12,3.33-4.18,5.53-5.19c100.9-46.37,201.86-92.62,302.81-138.88c18.89-8.66,37.8-17.28,56.7-25.9
		C1042.43,435.88,1044,435.36,1045.25,434.87z"/>
	<path class="st4" d="M435.65,1207.95c-116.8,0-233.3,0-350.52,0c0-2.18,0-4.11,0-6.04c0-55.78-0.22-111.57,0.06-167.35
		c0.31-59.78,24.81-107.74,72.44-143.6c23.82-17.94,50.84-28.92,80.62-32.05c74.49-7.84,131.66,20.97,172.17,83.19
		c16,24.57,24.59,52.22,25,81.53c0.85,60.1,0.57,120.21,0.73,180.32C436.16,1205.22,435.84,1206.5,435.65,1207.95z"/>
	<path class="st4" d="M1123.76,283.54c15.49,0,30.98,0.03,46.47-0.01c8.62-0.02,12.45-2.79,15.09-10.9
		c9.71-29.86,19.39-59.73,29.07-89.6c3.61-11.15,12.31-17.79,23.66-18.02c11.53-0.23,20.83,6.19,24.58,17.51
		c6.94,20.98,13.64,42.04,20.45,63.06c2.92,9.01,5.86,18.01,8.83,27c2.73,8.25,6.32,10.95,15.01,10.95
		c30.98-0.01,61.95-0.07,92.93-0.17c10.47-0.03,18.89,3.61,23.95,13.18c6.03,11.4,3.86,23.71-6.41,31.84
		c-10.69,8.46-21.98,16.17-33.03,24.17c-14.56,10.54-29.16,21.02-43.69,31.6c-8.08,5.88-9.41,10.3-6.29,19.79
		c9.54,29.04,19.09,58.08,28.6,87.13c3.97,12.13,0.79,23.02-8.58,29.84c-9.46,6.88-20.67,6.62-31.03-0.9
		c-25.05-18.18-50.05-36.43-75.08-54.64c-7.65-5.57-11.74-5.54-19.37,0.01c-25.29,18.42-50.53,36.92-75.92,55.19
		c-13.78,9.91-31.41,5.38-38.34-9.55c-2.96-6.37-2.71-12.86-0.55-19.45c9.45-28.73,18.78-57.49,28.25-86.22
		c3.75-11.38,2.73-14.96-7.04-22.05c-24.78-17.99-49.58-35.95-74.36-53.94c-8.32-6.04-11.85-14.29-10.44-24.35
		c1.33-9.44,6.5-16.4,15.55-19.71c3.65-1.34,7.79-1.77,11.72-1.82c15.32-0.2,30.64-0.08,45.96-0.08
		C1123.76,283.44,1123.76,283.49,1123.76,283.54z"/>
	<path class="st4" d="M551.16,450.94c49.91-0.27,89.87,39.33,90.13,89.31c0.25,48.92-39.68,88.82-89.34,89.27
		c-48.87,0.44-88.99-39.67-89.22-89.2C462.5,491.29,502.16,451.2,551.16,450.94z"/>
	<path class="st4" d="M260.06,805.95c-50.12-0.19-89.49-40.32-88.89-91.51c0.54-45.46,38.36-87.9,89.92-87
		c49.77,0.87,89.28,39.59,88.65,90.81C349.15,766.67,309.04,806.14,260.06,805.95z"/>
	<path class="st4" d="M888.85,112.53c-2.69-1.15-4.08-1.89-5.55-2.36c-28.32-8.99-56.59-18.17-85.02-26.8
		c-13.1-3.98-20.97-15.51-18.19-28.46c2.56-11.91,15.02-20.75,26.5-18.24c9.24,2.01,18.45,4.39,27.44,7.32
		c23.37,7.62,46.6,15.63,69.89,23.48c0.91,0.31,1.85,0.52,4,1.11c-2.66-4.69-4.77-8.49-6.95-12.24
		c-3.84-6.62-7.76-13.19-11.58-19.82c-6.98-12.14-3.9-26.17,7.16-32.85c11.8-7.13,25.87-3.67,33.21,8.69
		c18.94,31.89,37.82,63.81,56.37,95.92c9.92,17.17,1.64,33.52-17.91,37.23c-34.6,6.58-69.17,13.35-103.71,20.23
		c-11.23,2.24-21.32,1.38-28.64-8.62c-9.85-13.45-3.04-32.71,13.18-36.58c11.79-2.81,23.79-4.74,35.69-7.07
		C885.65,113.3,886.54,113.07,888.85,112.53z"/>
	<path class="st4" d="M1320.57,782.11c-3.43,12.06-6.17,23.19-9.76,34.04c-6.98,21.12-14.13,42.19-21.8,63.07
		c-5.06,13.78-18.51,19.88-30.86,14.98c-12.91-5.13-17.99-18.01-13.19-32.19c8.83-26.1,17.41-52.3,26.01-78.48
		c1.07-3.27,1.68-6.69,2.86-11.51c-2.18,1.81-3.28,2.62-4.27,3.55c-7.76,7.3-15.47,14.65-23.24,21.93
		c-10.54,9.88-24.93,9.92-34.37,0.16c-9.16-9.48-8.76-24.09,1.52-33.91c27.19-25.98,54.46-51.89,81.97-77.53
		c12.88-12.01,30.87-7.85,38.26,8.59c13.91,30.92,27.58,61.94,41.32,92.93c1.82,4.1,3.77,8.17,5.15,12.42
		c3.88,12.01-2.1,24.36-13.76,28.96c-11.37,4.49-24.21-0.29-29.55-11.42c-4.81-10.03-9.14-20.3-13.71-30.45
		C1322.5,785.79,1321.73,784.4,1320.57,782.11z"/>
	<path class="st4" d="M160.89,263.11c-0.18-6.22,2.09-11.58,6.3-15.84c17.55-17.74,35.06-35.52,53.02-52.84
		c9.63-9.29,24.11-8.3,33.15,1.26c8.7,9.2,8.51,23.54-0.74,32.89c-17.08,17.27-34.29,34.41-51.49,51.56
		c-6.83,6.81-17.25,8.84-25.84,4.94C165.91,280.82,161.13,273.41,160.89,263.11z"/>
	<path class="st4" d="M651.59,1334.73c-13.55-0.72-27.2-1.05-40.76-2.3c-10.87-1.01-18.91-10.71-19.41-21.94
		c-0.5-11.22,6.74-21.37,17.38-23.63c3.98-0.85,8.21-0.76,12.32-0.78c19.95-0.09,39.92,0.27,59.86-0.25
		c10.37-0.27,19.59,0.97,26.1,10c10.21,14.15,1.77,34.68-15.56,36.62C678.33,1333.93,664.98,1334.02,651.59,1334.73z"/>
	<path class="st4" d="M454.22,1254.77c4.49,1.33,11.1,3.48,17.82,5.25c17.65,4.66,35.3,9.36,53.04,13.65
		c12.6,3.05,20.76,12.64,20.22,24.78c-0.51,11.35-9.05,21.25-20.54,22.12c-5.97,0.45-12.27-0.86-18.14-2.42
		c-21.02-5.56-41.97-11.38-62.83-17.47c-11.4-3.33-17.83-14.72-15.8-26.67C429.88,1262.84,440.33,1254.39,454.22,1254.77z"/>
	<path class="st4" d="M0.09,687.75c0-12.3-0.17-24.61,0.05-36.91c0.22-12.29,9.75-21.94,22.06-22.81
		c12.13-0.85,22.83,7.65,24.62,19.92c0.52,3.56,0.09,7.26,0.11,10.9c0.14,21.28,0.05,42.57,0.54,63.85
		c0.31,13.3-9.59,24.81-22.79,25.39c-13.05,0.57-24.22-9.64-24.53-22.94C-0.14,712.69,0.09,700.22,0.09,687.75z"/>
	<path class="st4" d="M310.67,178.78c-10.25-0.65-19.45-7.28-22.58-16.84c-3.36-10.26,0.38-21.1,10.03-27.42
		c10.57-6.91,21.26-13.66,32.19-19.98c10.78-6.23,21.75-12.18,32.94-17.64c13.05-6.37,27.82-0.11,32.71,13.27
		c3.83,10.48-0.34,22.24-10.25,28.03c-21.08,12.32-42.19,24.59-63.43,36.63C318.8,176.82,314.56,177.5,310.67,178.78z"/>
	<path class="st4" d="M1128.44,1073.41c9.25,0.39,16.66,4.92,20.67,13.91c4.29,9.61,2.55,18.83-4.67,26.33
		c-15.48,16.04-31.31,31.74-47.04,47.53c-2.11,2.12-4.39,4.09-6.77,5.9c-10.48,7.96-24.2,6.53-32.74-3.33
		c-7.98-9.22-7.25-23.05,1.75-32.08c17.14-17.21,34.29-34.41,51.48-51.56C1115.7,1075.54,1121.36,1073.44,1128.44,1073.41z"/>
	<path class="st4" d="M938.54,1266.86c-10.54-0.9-20.01-7.93-22.73-17.51c-3.06-10.77,0.98-21.5,10.59-27.11
		c20.95-12.24,41.96-24.36,62.99-36.46c11.42-6.57,24.52-3.63,31.69,6.92c7.11,10.48,5.13,24.22-5.59,31.91
		c-9.7,6.95-20.03,13.09-30.36,19.12c-11.34,6.61-22.92,12.83-34.56,18.89C946.83,1264.56,942.56,1265.47,938.54,1266.86z"/>
	<path class="st4" d="M660.67,74.41c-11.82,0-23.63-0.02-35.45,0.01c-13.95,0.03-24.3-9.49-24.59-22.66
		c-0.3-13.59,9.61-24.21,23.53-24.36c24.62-0.25,49.25-0.22,73.87,0.02c12.95,0.13,22.96,11.19,22.68,24.29
		c-0.27,12.81-10.55,22.69-23.6,22.7C684.96,74.41,672.82,74.41,660.67,74.41z"/>
	<path class="st4" d="M54.65,911.69c-10.08,0.06-19.5-6.1-22.28-16.01c-6.99-24.9-13.68-49.89-19.94-74.99
		c-2.68-10.74,6.29-23.42,17.1-25.79c13.63-2.99,25.8,4.3,29.28,17.38c6.05,22.76,12.09,45.52,18.35,68.22
		C81.62,896.63,70.96,911.59,54.65,911.69z"/>
	<path class="st4" d="M1160.4,1022.48c1.68-4.42,2.84-9.14,5.14-13.22c11.43-20.25,23.23-40.28,34.77-60.47
		c6.74-11.8,20.04-16.42,31.51-10.68c11.89,5.95,16.96,20.25,10.29,32.31c-12.05,21.8-24.61,43.32-37.43,64.68
		c-5.8,9.67-16.29,12.96-26.92,9.83C1168.18,1042.11,1161.48,1033.06,1160.4,1022.48z"/>
	<path class="st4" d="M757.51,1296.83c0.04-11.39,8.29-20.17,20.31-23.17c21.74-5.44,43.42-11.17,64.95-17.4
		c13.48-3.91,26.56,1.54,31,14.06c4.71,13.27-1.58,26.58-15.79,30.66c-24.24,6.96-48.61,13.59-73.19,19.23
		C770.05,1323.59,757.45,1311.95,757.51,1296.83z"/>
	<path class="st4" d="M151.68,338.74c-1.64,4.1-2.85,8.44-5.01,12.25c-11.54,20.39-23.36,40.62-34.97,60.97
		c-5.84,10.23-16.84,14.91-28.07,11.65c-10.01-2.91-17.18-13.1-16.49-24.06c0.19-3.06,0.98-6.39,2.48-9.02
		c12.62-22.07,25.23-44.15,38.36-65.92c5.43-9,16.42-12.41,25.72-9.35C144.4,318.78,150.95,327.63,151.68,338.74z"/>
	<path class="st4" d="M35.61,581.87c-15-0.08-26.33-13.86-22.67-28.4c6.02-23.96,12.36-47.85,19-71.64
		c3.74-13.39,16.27-20.24,28.95-16.68c12.84,3.61,19.97,15.95,16.5,29.26c-6.11,23.43-12.42,46.8-18.76,70.17
		C55.87,574.77,46.18,581.92,35.61,581.87z"/>
	<path class="st4" d="M554.47,63.32c-0.03,10.43-6.76,19.66-16.63,22.34c-24.01,6.53-48.03,13.02-72.09,19.33
		c-11.39,2.99-23.37-3.72-27.53-15.02c-4.13-11.22,0.78-24.5,11.91-28.88c11.24-4.43,22.92-7.84,34.61-10.96
		c14.1-3.77,28.31-7.23,42.64-9.97C542,37.37,554.52,48.51,554.47,63.32z"/>
</g>
</svg>
