<?xml version="1.0" encoding="utf-8"?>
<!-- Generator: Adobe Illustrator 28.2.0, SVG Export Plug-In . SVG Version: 6.00 Build 0)  -->
<svg version="1.1" id="Layer_1" xmlns="http://www.w3.org/2000/svg" xmlns:xlink="http://www.w3.org/1999/xlink" x="0px" y="0px"
	 viewBox="0 0 1160.08 1519.87" style="enable-background:new 0 0 1160.08 1519.87;" xml:space="preserve">
<style type="text/css">
	.st0{fill:#07294E;}
	.st1{fill:#0A2849;}
	.st2{fill:#0A2949;}
	.st3{fill:#0D2843;}
	.st4{fill:#FFFFFF;}
	.st5{fill:#0B2947;}
	.st6{fill:#0B2848;}
	.st7{fill:#0A2948;}
	.st8{fill:#0B2849;}
	.st9{fill:#0B2846;}
	.st10{fill:#0A2847;}
	.st11{fill:#082A4E;}
	.st12{fill:#0C2D51;}
	.st13{fill:#0B2C50;}
	.st14{fill:#092A4E;}
</style>
<g>
	<path class="st11" d="M636.62,1519.87c-17.63-3.08-34.77-7.74-50.47-16.62c-34.12-19.3-57.46-47.35-68.9-85.08
		c-4.29-14.16-5.92-28.6-5.9-43.34c0.08-70.11,0.04-140.23,0.03-210.34c0-7.08-0.01-7.09-7.12-7.09c-70.45,0-140.89-0.01-211.34,0
		c-22.66,0.01-44.45-4.25-64.66-14.61c-43.3-22.21-70.03-57.36-78.17-105.36c-11.7-69.02,29.26-136.18,95.58-158.3
		c13.64-4.55,27.72-7.12,42.17-7.13c71.95-0.03,143.89-0.03,215.84-0.04c7.7,0,7.71,0,7.71-7.52c0-69.95,0.19-139.9-0.09-209.84
		c-0.11-27.71,6.17-53.49,20.73-77.03c20.87-33.74,50.63-55.87,89.27-64.9c41.78-9.77,80.82-2.26,115.76,22.84
		c34.08,24.48,53.7,57.91,58.85,99.73c0.88,7.15,0.91,14.28,0.91,21.43c0.02,69.28,0.01,138.56,0.01,207.84c0,7.45,0,7.46,7.27,7.46
		c72.11,0.02,144.23-0.49,216.34,0.24c45.68,0.46,82.37,20.56,110.36,56.31c19.54,24.96,29.3,53.83,29.29,85.37
		c-0.02,62.88-39.45,115.24-95.22,135.22c-16.15,5.78-32.86,8.3-49.98,8.3c-69.95,0-139.9,0-209.84,0c-8.22,0-8.22,0-8.22,7.99
		c-0.01,71.45,0.1,142.89-0.05,214.34c-0.13,62.71-44.44,119.65-105.26,135.6c-6.58,1.73-13.27,3.04-19.91,4.55
		C659.94,1519.87,648.28,1519.87,636.62,1519.87z M908.27,889.21c-39.97,0-79.95,0-119.92,0c-8.77,0-8.78-0.02-8.78-8.88
		c-0.01-76.45-0.05-152.9,0.02-229.36c0.02-20.75-4.92-40.17-14.53-58.5c-25.84-49.3-83.34-76.14-136.99-64.21
		c-58.16,12.93-100.14,64.24-99.58,124.13c0.71,75.11,0.17,150.24,0.17,225.36c0,1.83-0.15,3.68,0.02,5.49
		c0.43,4.66-1.81,6.34-6.21,5.99c-1.99-0.16-4-0.02-5.99-0.02c-76.29,0.01-152.57,0.01-228.86,0.04
		c-22.39,0.01-43.4,5.76-62.01,17.94c-44.39,29.06-64.67,70.29-59.22,123.38c2.22,21.65,10.28,41.35,23.49,58.64
		c26.13,34.17,60.87,51.05,103.95,50.98c59.13-0.1,118.26-0.03,177.39-0.03c16.82,0,33.65-0.02,50.47,0.02
		c6.63,0.01,6.92,0.35,6.97,7.15c0.01,1.67,0,3.33,0,5c0,75.45,0.03,150.91-0.03,226.36c-0.01,9.38,1.02,18.6,3.1,27.72
		c11.29,49.6,53.97,89.39,105.72,95.83c30.18,3.75,58.27-1.88,83.52-18.35c38.49-25.1,58.47-61.03,58.55-107.31
		c0.13-75.62,0.04-151.24,0.04-226.86c0-1.83,0.04-3.66,0.06-5.5c0.03-2.65,1.39-3.97,4.03-3.99c1.83-0.02,3.66-0.06,5.5-0.06
		c75.29,0,150.57-0.05,225.86,0.03c19.28,0.02,37.75-3.49,55.22-11.71c52.08-24.47,81.74-80.58,70.42-137.89
		c-12.01-60.8-65.32-101.96-122.45-101.43C981.56,889.5,944.91,889.23,908.27,889.21z"/>
	<path class="st11" d="M203.57,134.01c0-19.65,0.02-39.3-0.01-58.96C203.5,28.36,246.6-7.39,292.49,1.31
		c36.93,7,62.26,37.28,62.46,75.27c0.22,39.97,0.05,79.94,0.06,119.91c0,6.91,0.02,6.93,6.83,6.93c39.97,0.01,79.95-0.3,119.91,0.1
		c33.08,0.33,57.06,16.01,70.29,46.19c15.92,36.33,0.73,75.45-31.2,94.45c-12.49,7.44-26.08,10.67-40.53,10.66
		c-39.47-0.01-78.94-0.01-118.41,0c-6.85,0-6.87,0.02-6.87,6.9c-0.01,40.3,0.31,80.61-0.12,120.91
		c-0.29,27.28-12.33,48.89-35.25,63.6c-44.22,28.37-103.27,3.68-114.43-47.53c-1.24-5.68-1.69-11.49-1.68-17.36
		c0.07-39.97,0.04-79.94,0.03-119.91c0-6.59-0.02-6.61-6.62-6.61c-39.97-0.01-79.94,0.05-119.91-0.02
		c-33.66-0.06-61.11-19.39-72.69-51c-12.6-34.38,3.01-74.34,35.6-91.37c11.6-6.06,23.85-9.06,36.94-9.04
		c39.8,0.07,79.61,0.02,119.41,0.02c7.25,0,7.25-0.01,7.26-7.46C203.58,175.31,203.58,154.66,203.57,134.01z"/>
	<path class="st11" d="M986.63,558.32c7.66,0,15.32-0.2,22.97,0.07c4.34,0.15,5.85-1.34,5.79-5.73c-0.2-14.98-0.23-29.97-0.02-44.95
		c0.31-22.16,20.79-36.61,41.64-29.6c12.26,4.12,20.41,15.92,20.53,30.13c0.13,14.82,0.17,29.63-0.04,44.45
		c-0.07,4.41,1.42,5.76,5.76,5.7c15.31-0.2,30.63-0.23,45.95,0c13.3,0.2,24.75,8.7,28.86,20.88c4.19,12.44,0.35,25.81-10.01,34.2
		c-6.21,5.03-13.54,6.9-21.42,6.9c-14.15-0.01-28.3-0.01-42.45,0.01c-6.53,0.01-6.59,0.08-6.59,6.79
		c-0.02,14.65,0.17,29.3-0.06,43.95c-0.38,24.74-25.75,39.28-47.01,26.86c-10.57-6.17-14.97-16.22-15.14-28.11
		c-0.2-14.48-0.18-28.97,0.02-43.45c0.06-4.51-1.38-6.19-6-6.12c-14.65,0.21-29.3,0.13-43.95,0.06
		c-18.35-0.08-32.06-13.38-32.17-31.09c-0.1-17.08,13.94-30.74,31.88-30.94C972.31,558.26,979.47,558.32,986.63,558.32z"/>
</g>
</svg>
