<?xml version="1.0" encoding="utf-8"?>
<!-- Generator: Adobe Illustrator 28.2.0, SVG Export Plug-In . SVG Version: 6.00 Build 0)  -->
<svg version="1.1" id="Layer_1" xmlns="http://www.w3.org/2000/svg" xmlns:xlink="http://www.w3.org/1999/xlink" x="0px" y="0px"
	 viewBox="0 0 1423.82 1331.63" style="enable-background:new 0 0 1423.82 1331.63;" xml:space="preserve">
<style type="text/css">
	.st0{fill:#07294E;}
	.st1{fill:#0A2849;}
	.st2{fill:#0A2949;}
	.st3{fill:#0D2843;}
	.st4{fill:#FFFFFF;}
	.st5{fill:#0B2947;}
	.st6{fill:#0B2848;}
	.st7{fill:#0A2948;}
	.st8{fill:#0B2849;}
	.st9{fill:#0B2846;}
	.st10{fill:#0A2847;}
	.st11{fill:#082A4E;}
	.st12{fill:#0C2D51;}
	.st13{fill:#0B2C50;}
	.st14{fill:#092A4E;}
</style>
<g>
	<path class="st11" d="M170.03,727.72c0-184.38,0-368.76,0-553.13c0-13.92,5.72-19.66,19.7-19.68c22.15-0.03,44.3,0,66.46-0.01
		c6.66,0,6.68-0.02,6.68-6.59c0.01-42.97,0.27-85.95-0.16-128.91c-0.13-12.92,8.23-19.37,19.41-19.37
		C507.48,0.12,732.83,0.11,958.18,0c7.8,0,13.62,2.81,18.94,8.25c30.49,31.2,61.12,62.26,91.7,93.36
		c28.84,29.33,57.67,58.66,86.55,87.94c4,4.05,5.6,8.72,5.59,14.4c-0.08,101.25-0.07,202.51-0.06,303.76
		c0.01,65.62,0.06,131.25,0.09,196.87c0,7.11,0.02,7.13,7.22,7.13c42.14,0.01,84.28,0.01,126.42-0.01c3.85,0,7.72,0.03,11.3,1.56
		c5.85,2.5,9.24,6.94,9.74,13.37c0.17,2.15,0.1,4.33,0.1,6.49c0,83.28,0,166.56,0,249.83c0,15.35-5.42,20.84-20.6,20.84
		c-42.31,0.01-84.61,0-126.92,0c-7.24,0-7.26,0.01-7.26,7.12c-0.01,59.13-0.23,118.26,0.16,177.38c0.1,14.62-8.67,20.14-20.21,20.11
		c-51.47-0.16-102.93-0.07-154.4-0.06c-7.72,0-7.73,0.01-7.74,7.75c-0.01,21.49-0.21,42.97,0.09,64.46
		c0.15,10.91-5.03,20.29-20.04,20.28c-256.16-0.22-512.33-0.16-768.49-0.13c-5.74,0-11.4,0.1-15.76-4.54
		c-3.53-3.75-4.63-8.25-4.62-13.3c0.08-26.48,0.03-52.96,0.03-79.45C170.03,1044.84,170.03,886.28,170.03,727.72z M294.52,557.31
		c0,172.55,0,345.11,0,517.66c0,8.27,0,8.27,8.47,8.27c106.26,0,212.53,0,318.79,0c166.89,0,333.78,0,500.67,0
		c6.9,0,6.91-0.02,6.91-6.82c0.01-21.49,0-42.97,0-64.46c0-8.15,0-8.16-8.08-8.16c-114.92,0-229.85,0.01-344.77-0.02
		c-12.58,0-18.79-6.19-18.8-18.68c-0.02-85.11-0.02-170.22,0-255.33c0-10.89,5.75-17.05,16.58-17.95c2.15-0.18,4.33-0.1,6.49-0.1
		c113.76,0,227.52,0,341.28-0.01c7.27,0,7.29-0.02,7.29-6.53c0.01-160.23-0.02-320.46,0.1-480.68c0-5.02-1.39-6.59-6.47-6.56
		c-29.98,0.21-59.96,0.1-89.94,0.1c-21.82,0-43.64,0.04-65.46-0.02c-15.64-0.04-21.06-5.52-21.07-21.01c0-52.3,0-104.6,0-156.9
		c0-7.77-0.01-7.77-7.99-7.77c-212.03,0-424.05,0-636.08,0c-7.93,0-7.94,0-7.94,7.8C294.52,212.54,294.52,384.92,294.52,557.31z
		 M202.23,727.7c0,177.38,0,354.76,0,532.14c0,9.25,0,9.25,9.12,9.25c242.34,0,484.67,0,727.01,0c1.5,0,3-0.05,4.5-0.01
		c2.48,0.08,3.66-1.01,3.66-3.56c-0.03-17.82-0.03-35.64-0.01-53.46c0-2.51-1.21-3.66-3.65-3.67c-1.83-0.01-3.66-0.04-5.5-0.04
		c-217.19,0-434.38,0-651.56,0c-17.88,0-22.92-4.99-22.92-22.7c0-329.28,0-658.56,0-987.84c0-2.17-0.09-4.33,0-6.49
		c0.13-2.97-1.19-4.19-4.16-4.18c-17.32,0.05-34.64,0.06-51.96,0c-3.14-0.01-4.65,1.23-4.53,4.43c0.08,2-0.01,4-0.01,6
		C202.23,374.28,202.23,550.99,202.23,727.7z M1037.22,743.93c-79.94,0-159.87,0-239.81,0c-7.38,0-7.4,0.01-7.4,7.43
		c0,70.78,0,141.55,0,212.33c0,7.87,0.01,7.88,8.04,7.88c159.2,0,318.41,0,477.61,0c7.96,0,7.97-0.01,7.97-8.03
		c0-70.61,0-141.22,0-211.83c0-7.77-0.01-7.78-7.61-7.78C1196.42,743.92,1116.82,743.92,1037.22,743.93z M711.87,1176.12
		c136.22,0,272.44,0,408.66,0c1.67,0,3.33-0.08,4.99,0c2.76,0.14,3.87-1.1,3.86-3.86c-0.05-17.82-0.07-35.64,0.01-53.45
		c0.01-3.08-1.29-4.2-4.21-4.02c-1.82,0.11-3.66,0.01-5.49,0.01c-267.94,0-535.88,0-803.82,0c-5.33,0-10.67,0.22-15.98-0.07
		c-4.16-0.22-5.48,1.29-5.43,5.42c0.19,16.15,0.07,32.31,0.08,48.46c0,7.51,0.01,7.51,7.68,7.51
		C438.76,1176.12,575.31,1176.12,711.87,1176.12z M1105.2,185.24c-0.27-2.07-2.06-2.95-3.27-4.19
		c-39.25-40.08-78.52-80.14-117.83-120.16c-1.3-1.33-2.28-4.12-4.43-3.23c-1.7,0.7-0.81,3.32-0.81,5.08
		c-0.04,38.79-0.04,77.58-0.03,116.38c0,6.69,0.04,6.73,6.62,6.73c38.29,0.01,76.59,0.01,114.88-0.02
		C1101.92,185.81,1103.63,186.29,1105.2,185.24z"/>
	<path class="st11" d="M1423.8,109.58c1.21,47.87-40.2,92.43-92.26,92.86c-51.77,0.43-94.93-42.39-94.29-95.65
		c0.6-49.73,43.42-91.96,94.73-91.12C1383.41,16.51,1424.7,58.92,1423.8,109.58z M1330.55,170.11
		c32.93,0.38,61.23-26.89,61.66-59.42c0.45-34.17-27.23-63.35-60.86-63.11c-36.05,0.26-60.52,28.66-61.85,58.29
		C1267.87,142.47,1297.85,170.99,1330.55,170.11z"/>
	<path class="st11" d="M0.08,1114.26c-1.56-31.65,26.42-61.92,61.74-62.02c34.83-0.1,62.57,27.75,62.72,62.96
		c0.15,33.39-28.04,60.94-61.91,61.67C26.89,1177.65-1.72,1146.16,0.08,1114.26z M92.28,1114.91c0-17.36-12.94-30.36-30.19-30.33
		c-16.89,0.03-30.42,13.31-30.41,29.87c0,16.64,13.91,30.65,30.48,30.7C78.62,1145.19,92.28,1131.49,92.28,1114.91z"/>
	<path class="st11" d="M1377.68,302.65c-0.05,13.02-10.91,23.66-24,23.53c-12.93-0.13-23.34-10.67-23.35-23.63
		c-0.01-13.26,10.5-23.83,23.69-23.8C1367.06,278.77,1377.73,289.55,1377.68,302.65z"/>
	<path class="st11" d="M155.51,54.79c0.02,12.66-10.96,24-23.32,24.07c-13.05,0.07-23.93-10.68-24.04-23.77
		c-0.11-13.2,10.61-24,23.74-23.93C144.68,31.24,155.48,42.04,155.51,54.79z"/>
	<path class="st11" d="M101.25,944.16c13.14,0.2,23.4,10.66,23.27,23.71c-0.13,12.9-11.49,24.05-24.11,23.67
		c-12.8-0.39-23.38-11.28-23.3-24C77.2,954.35,87.93,943.96,101.25,944.16z"/>
	<path class="st11" d="M1160.96,1308.3c-0.03,12.99-10.51,23.36-23.57,23.33c-12.96-0.02-23.72-10.57-23.77-23.3
		c-0.06-12.93,10.79-23.95,23.73-24.11C1150.22,1284.06,1161,1295.06,1160.96,1308.3z"/>
	<path class="st11" d="M1245.6,558.07c-13.15-0.03-23.92-10.81-23.78-23.81c0.13-12.46,11.16-23.29,23.91-23.47
		c12.27-0.17,23.8,11.24,23.83,23.58C1269.59,547.33,1258.71,558.09,1245.6,558.07z"/>
	<path class="st11" d="M1322.97,1114.78c-13.34-0.01-23.71-10.42-23.59-23.68c0.11-12.82,10.91-23.42,23.76-23.31
		c12.95,0.11,23.48,10.58,23.62,23.48C1346.89,1104.34,1336.33,1114.79,1322.97,1114.78z"/>
	<path class="st11" d="M54.52,604.32c-13.32,0.06-24.03-10.49-23.91-23.57c0.11-12.73,10.8-23.25,23.71-23.36
		c13.22-0.11,23.39,9.9,23.54,23.17C78.02,594.17,68.1,604.26,54.52,604.32z"/>
	<path class="st11" d="M611.51,448.7c73.28,0,146.56,0,219.84-0.02c3.52,0,6.97,0.11,10.3,1.46c6.16,2.51,10,8.13,10,14.78
		c0,6.85-4.04,12.57-10.54,14.88c-2.7,0.96-5.48,1.27-8.35,1.27c-147.56-0.02-295.11-0.02-442.67-0.01c-4.4,0-8.67-0.54-12.36-3.19
		c-5.34-3.84-7.87-10.78-6.21-16.75c1.99-7.13,7.33-11.69,14.66-12.34c2.15-0.19,4.33-0.09,6.49-0.09
		C465.62,448.7,538.57,448.7,611.51,448.7z"/>
	<path class="st11" d="M610.95,326.22c-73.61,0-147.22-0.03-220.82,0.05c-6.34,0.01-11.9-1.26-15.89-6.6
		c-6.51-8.71-2.8-20.65,7.59-24.57c3.03-1.14,6.18-1.19,9.35-1.19c146.88,0.01,293.77,0.01,440.65-0.01c3.88,0,7.64,0.25,11.16,2.09
		c5.88,3.07,9.22,9.19,8.49,15.67c-0.79,7.05-5.12,12.11-11.77,13.9c-2.95,0.8-5.95,0.64-8.94,0.64
		C757.5,326.23,684.23,326.22,610.95,326.22z"/>
	<path class="st11" d="M610.99,558.1c-73.6,0-147.2,0-220.8,0.02c-4.37,0-8.67,0.04-12.34-2.92c-5.06-4.08-7.78-9.28-6.53-15.75
		c1.31-6.76,5.44-11.37,12.39-12.82c2.58-0.54,5.29-0.69,7.93-0.69c146.53-0.03,293.07-0.03,439.6-0.02c4.18,0,8.29,0.15,12.08,2.36
		c6.75,3.94,9.58,10.58,7.64,18.33c-1.62,6.47-7.57,11.14-14.69,11.45c-2.33,0.1-4.66,0.05-6.99,0.05
		C756.52,558.09,683.76,558.09,610.99,558.1z"/>
	<path class="st11" d="M611.5,603.53c73.93,0,147.87-0.01,221.8,0.01c10.23,0,16.67,4.92,18.01,13.57
		c1.29,8.32-3.49,15.82-11.63,17.82c-2.71,0.67-5.6,0.87-8.41,0.87c-146.7,0.04-293.41,0.03-440.11,0.06
		c-5.48,0-10.79-0.57-14.86-4.56c-4.59-4.49-6.6-9.95-4.5-16.38c2.2-6.74,7.04-10.31,13.9-11.24c1.97-0.27,3.99-0.14,5.99-0.14
		C464.96,603.53,538.23,603.53,611.5,603.53z"/>
	<path class="st11" d="M611.51,371.66c74.27,0,148.53-0.01,222.8,0.02c11.89,0,18.97,8.2,16.79,19.36
		c-1.29,6.61-5.74,10.4-11.98,11.98c-2.86,0.73-5.94,0.82-8.92,0.82c-145.7,0.04-291.41,0.03-437.11,0.04
		c-8.26,0-16.07-0.71-20.36-9.43c-4.91-10,1.87-22.03,12.97-22.73c1.83-0.11,3.66-0.06,5.49-0.06
		C464.64,371.66,538.08,371.66,611.51,371.66z"/>
	<path class="st11" d="M534.05,216.78c47.79,0,95.57,0.01,143.36-0.01c3.18,0,6.35,0.03,9.33,1.26c6.31,2.6,9.87,7.43,10.18,14.15
		c0.31,6.5-2.65,11.56-8.44,14.75c-3.62,1.99-7.59,2.23-11.63,2.23c-95.24-0.02-190.48-0.01-285.71-0.04
		c-2.32,0-4.69-0.08-6.94-0.57c-8.46-1.86-13.87-8.94-13.14-16.94c0.74-8.12,7.11-14.15,15.64-14.77c1.49-0.11,3-0.05,4.49-0.05
		C438.81,216.78,486.43,216.78,534.05,216.78z"/>
	<path class="st11" d="M984.61,857.74c0-19.31,0.11-38.63-0.08-57.94c-0.05-4.66,1.3-6.57,6.22-6.4
		c17.79,0.63,35.66-1.26,53.38,0.98c30.66,3.89,50.3,26.26,52.65,57.9c0.87,11.77-0.56,23.32-5.43,34.19
		c-10.34,23.13-29.11,34.03-53.62,35.25c-15.78,0.79-31.63,0.05-47.45,0.27c-4.42,0.06-5.78-1.52-5.75-5.81
		C984.7,896.7,984.61,877.22,984.61,857.74z M1015.07,857.8c0,10.82,0.14,21.65-0.07,32.47c-0.08,4.01,1.39,5.34,5.24,5.09
		c3.81-0.25,7.66,0.05,11.49-0.09c17.81-0.65,27.53-8.27,32.62-25.34c1.9-6.38,1.8-12.97,0.96-19.33
		c-2.29-17.44-12.75-29.3-31.06-29.79c-4.66-0.13-9.33,0.1-13.98-0.13c-3.83-0.18-5.34,1.16-5.27,5.15
		C1015.21,836.48,1015.07,847.14,1015.07,857.8z"/>
	<path class="st11" d="M860.54,857.62c0-19.31,0.13-38.62-0.09-57.92c-0.05-4.76,1.44-6.39,6.26-6.32
		c15.81,0.24,31.62,0.05,47.43,0.1c20.94,0.07,39.52,16.27,42.61,37.09c3.05,20.54-8.14,40.78-26.45,47.76
		c-4.38,1.67-8.95,2.56-13.66,2.59c-5.49,0.03-10.99-0.01-16.48,0.03c-10.02,0.07-9.24-1.17-9.27,9.51
		c-0.02,8.49-0.16,16.98,0.06,25.46c0.11,4.44-1.3,6.33-6.01,6.07c-6.14-0.35-12.32-0.31-18.47-0.01c-4.53,0.22-6.08-1.32-6.03-5.94
		C860.66,896.57,860.54,877.1,860.54,857.62z M890.92,837.78c0,4.16,0.06,8.31-0.02,12.47c-0.06,2.96,1.23,4.19,4.19,4.14
		c5.65-0.1,11.3,0.03,16.95-0.03c7.99-0.09,12.19-3.77,13.93-12.08c1.88-8.94-1.27-17.66-7.49-20.45c-1.33-0.59-2.87-0.95-4.32-0.98
		c-6.31-0.12-12.63-0.02-18.95-0.13c-3.28-0.06-4.4,1.53-4.33,4.59C890.99,829.46,890.91,833.62,890.92,837.78z"/>
	<path class="st11" d="M1125.59,857.64c0-19.3,0.12-38.61-0.08-57.91c-0.05-4.73,1.47-6.38,6.29-6.35c25.29,0.18,50.59,0.17,75.88,0
		c4.57-0.03,6.32,1.48,6.07,6.04c-0.27,4.98-0.29,9.99,0,14.97c0.28,4.71-1.38,6.48-6.24,6.4c-14.81-0.24-29.62,0.1-44.43-0.18
		c-5.11-0.1-6.88,1.64-6.49,6.63c0.34,4.3,0.36,8.67,0,12.97c-0.44,5.19,1.76,6.58,6.66,6.45c11.14-0.29,22.3,0.07,33.44-0.17
		c4.66-0.1,6.74,1.3,6.36,6.23c-0.35,4.63-0.25,9.32-0.03,13.97c0.19,3.95-1.45,5.25-5.27,5.2c-11.81-0.15-23.63,0.11-35.44-0.13
		c-4.42-0.09-5.79,1.49-5.72,5.79c0.2,12.81-0.06,25.63,0.13,38.44c0.07,4.54-1.53,6.22-6.12,5.98c-6.14-0.33-12.31-0.06-18.47-0.08
		c-6.44-0.02-6.54-0.11-6.55-6.85C1125.57,895.92,1125.58,876.78,1125.59,857.64z"/>
</g>
</svg>
