<?xml version="1.0" encoding="utf-8"?>
<!-- Generator: Adobe Illustrator 28.2.0, SVG Export Plug-In . SVG Version: 6.00 Build 0)  -->
<svg version="1.1" id="Layer_1" xmlns="http://www.w3.org/2000/svg" xmlns:xlink="http://www.w3.org/1999/xlink" x="0px" y="0px"
	 viewBox="0 0 1447.6 1259.42" style="enable-background:new 0 0 1447.6 1259.42;" xml:space="preserve">
<style type="text/css">
	.st0{fill:#07294E;}
	.st1{fill:#0A2849;}
	.st2{fill:#0A2949;}
	.st3{fill:#0D2843;}
	.st4{fill:#FFFFFF;}
	.st5{fill:#0B2947;}
	.st6{fill:#0B2848;}
	.st7{fill:#0A2948;}
	.st8{fill:#0B2849;}
	.st9{fill:#0B2846;}
	.st10{fill:#0A2847;}
	.st11{fill:#082A4E;}
	.st12{fill:#0C2D51;}
	.st13{fill:#0B2C50;}
	.st14{fill:#092A4E;}
</style>
<g>
	<path class="st11" d="M758.26,356.04c0-99.67,0-199.35,0-299.02c0-31,25.77-56.78,56.85-56.78c191.79-0.01,383.59-0.01,575.38,0
		c28.31,0,52.49,21.5,56.21,49.73c0.53,4,0.87,7.97,0.86,12c-0.01,188.9,0,377.8-0.01,566.7c0,28.84-16.22,50.68-43.72,58.69
		c-6.2,1.81-12.67,2.08-19.1,2.08c-94.37,0.02-188.74,0.01-283.11,0.01c-1.61,0-3.22,0.09-4.82-0.01c-3.43-0.2-4.54,1.07-3.82,4.61
		c3.2,15.79,7.96,31.12,13.83,46.09c15.71,40.08,39.01,75.18,69.85,105.23c37.26,36.3,80.9,61.46,131.12,75.2
		c26.2,7.17,52.84,10.68,79.98,10.68c33.93-0.01,59.58,25.38,59.74,59.37c0.17,36.17,0.04,72.34,0.04,108.52
		c0,33.12,0.01,66.24,0,99.35c-0.02,35.56-25.54,60.98-61.21,60.94c-29.43-0.03-58.69-2.27-87.86-6.33
		c-75.3-10.48-146.31-33.86-212.98-70.31c-45.34-24.79-86.9-54.87-124.92-89.9c-37.79-34.82-70.88-73.64-99.2-116.44
		c-28.95-43.75-51.89-90.54-69.08-140.17c-12.18-35.18-21.09-71.15-26.78-107.88c-4.83-31.14-7.35-62.49-7.3-94.07
		c0.16-92.76,0.06-185.52,0.06-278.28C758.27,356.04,758.26,356.04,758.26,356.04z M817.39,362.38c0.01,0,0.03,0,0.04,0
		c0,91.8,0,183.6,0,275.4c0,42.94,5.55,85.2,15.53,126.92c15.87,66.37,43.26,127.67,81.21,184.28
		c29.46,43.93,64.6,82.82,105.02,116.93c41.29,34.84,86.56,63.46,135.94,85.35c51.57,22.86,105.31,38.13,161.47,44.68
		c22.05,2.57,44.14,3.89,66.31,4.4c4.14,0.1,5.66-1.2,5.65-5.47c-0.1-66.24-0.1-132.47,0-198.71c0.01-4.35-1.34-5.98-5.81-5.88
		c-12.55,0.29-25.05-0.97-37.47-2.42c-20.91-2.44-41.5-6.62-61.74-12.68c-32.73-9.79-63.37-24-92.01-42.52
		c-37.53-24.26-69.42-54.51-95.71-90.66c-23.65-32.53-41.39-67.99-53.08-106.49c-7.35-24.22-11.99-48.94-14.27-74.13
		c-0.8-8.82-1.09-17.64-1.1-26.48c0-3.21,1.08-4.87,4.46-4.66c1.44,0.09,2.89,0,4.34,0c114.95,0,229.9,0,344.85,0
		c7.46,0,7.47-0.01,7.47-7.39c0-185.53,0-371.05,0-556.58c0-7.57-0.01-7.57-7.76-7.57c-185.2,0-370.41,0-555.61,0
		c-7.71,0-7.72,0.01-7.72,7.57C817.39,164.96,817.39,263.67,817.39,362.38z"/>
	<path class="st11" d="M345.33,0.23c95.33,0,190.66,0.37,285.98-0.23c27.92-0.18,57.25,23.09,57.9,57.08
		c0.18,9.32,0.05,18.65,0.05,27.97c0,181.01-0.04,362.02,0.05,543.02c0.01,20.75-7.66,37.53-24.23,50
		c-11.07,8.33-23.88,11.39-37.59,11.38c-95.17-0.03-190.33-0.01-285.5-0.01c-8.34,0-8.38,0.02-6.49,8.28
		c11.29,49.41,33.75,93.07,67.21,131.15c31.89,36.3,70.33,63.32,115.09,81.27c28.22,11.32,57.61,17.79,87.94,20.23
		c8.52,0.68,17.01,0.75,25.51,0.84c31.82,0.32,57.8,25.8,57.91,57.7c0.23,70.89,0.21,141.78,0.01,212.68
		c-0.09,31.64-26.32,57.53-58.03,57.8c-25.25,0.22-50.36-1.61-75.47-4.35c-44.92-4.91-88.7-14.78-131.37-29.39
		c-65.17-22.3-124.98-54.66-179.47-96.87c-66.12-51.22-120.21-112.92-162.07-185.34c-25.13-43.49-44.57-89.42-58.52-137.62
		c-10.74-37.1-17.84-74.92-21.48-113.43C0.76,671.08,0,649.77,0,628.39C0.01,438.22,0,248.05,0.01,57.88
		c0-32.14,25.38-57.64,57.42-57.64C153.39,0.22,249.36,0.23,345.33,0.23z M344.65,58.68c-2.89,0-5.79,0-8.68,0
		c-90.35,0-180.69,0-271.04,0c-6.4,0-6.4,0.02-6.43,6.34c-0.01,1.77-0.01,3.54-0.01,5.31c0,175.39-0.03,350.78,0.04,526.17
		c0.01,18.63-0.29,37.26,0.64,55.91c1.11,22.33,2.9,44.58,6.31,66.64c4.57,29.55,11.42,58.62,20.75,87.08
		c24.39,74.44,62.17,141.2,113.85,200.15c51.14,58.34,111.75,104.17,181.48,137.92c43.14,20.88,88.3,35.91,135.4,45.13
		c35.42,6.93,71.13,10.53,107.2,11.03c4.67,0.06,6.04-1.43,6.01-6.04c-0.19-24.43-0.09-48.87-0.09-73.31
		c0-41.64-0.05-83.27,0.08-124.91c0.01-4.38-1.33-5.99-5.77-5.86c-8.84,0.26-17.62-0.89-26.43-1.51
		c-36.57-2.54-71.66-11.32-105.5-25.08c-32.65-13.28-62.72-31.08-90.08-53.38c-52.08-42.43-89.59-95.25-112.62-158.31
		c-9.46-25.9-15.51-52.66-18.59-80.06c-1.39-12.3-2.11-24.64-2.08-37.03c0.01-3.23,1.07-4.84,4.45-4.64c1.92,0.11,3.86,0,5.79,0
		c114.46,0,228.92,0,343.38,0c7.37,0,7.38-0.01,7.38-7.4c0-185.68,0-371.35,0-557.03c0-7.1-0.01-7.11-7.17-7.11
		C530.17,58.68,437.41,58.68,344.65,58.68z"/>
</g>
</svg>
