<?xml version="1.0" encoding="utf-8"?>
<!-- Generator: Adobe Illustrator 28.2.0, SVG Export Plug-In . SVG Version: 6.00 Build 0)  -->
<svg version="1.1" id="Layer_1" xmlns="http://www.w3.org/2000/svg" xmlns:xlink="http://www.w3.org/1999/xlink" x="0px" y="0px"
	 viewBox="0 0 581.88 440.2" style="enable-background:new 0 0 581.88 440.2;" xml:space="preserve">
<style type="text/css">
	.st0{fill:#07294E;}
	.st1{fill:#0A2849;}
	.st2{fill:#0A2949;}
	.st3{fill:#0D2843;}
	.st4{fill:#FFFFFF;}
	.st5{fill:#0B2947;}
	.st6{fill:#0B2848;}
	.st7{fill:#0A2948;}
	.st8{fill:#0B2849;}
	.st9{fill:#0B2846;}
	.st10{fill:#0A2847;}
	.st11{fill:#082A4E;}
	.st12{fill:#0C2D51;}
	.st13{fill:#0B2C50;}
	.st14{fill:#092A4E;}
</style>
<g>
	<path class="st11" d="M572.69,421.88c-1.04-0.1-2.1-0.05-3.15-0.05H314.18c-0.89,0-1.78,0.02-2.66-0.01
		c-0.6-0.02-1.21-0.12-1.9-0.19c0.1-0.58,0.18-0.98,0.23-1.37c0.3-2.41,1.57-3.63,3.98-4.4c18.38-5.85,36.72-11.85,55.07-17.81
		c47.74-15.51,95.49-31.04,143.24-46.57c12.67-4.11,25.32-8.28,38.01-12.3c4.77-1.52,6.3-5.02,5.42-8.86
		c-1.88-8.19-3.73-16.38-5.68-24.55c-1.03-4.34-4.62-6.33-8.88-5.03c-2.63,0.81-5.21,1.73-7.83,2.57c-0.74,0.24-1.51,0.42-2.42,0.66
		c-4.64-12.5-9.22-24.82-13.88-37.36c1.19-0.25,2.21-0.46,3.22-0.67c2.19-0.46,3.85-1.67,4.86-3.66c2.3-4.59-1.35-10-6.56-9.48
		c-3.44,0.35-6.85,1.11-10.24,1.86c-23.37,5.19-46.16,12.33-68.51,20.87c-46.11,17.62-89.37,40.6-129.55,69.31
		c-0.62,0.44-1.27,0.84-1.91,1.27c-0.12-0.09-0.23-0.17-0.34-0.25c0.28-0.71,0.54-1.44,0.86-2.14c3.25-6.97,7.05-13.64,11.35-20.01
		c12.2-18.1,27.47-33.23,45.11-45.98c21.27-15.37,44.45-27.23,68.97-36.5c15.35-5.8,30.99-10.66,47-14.27
		c4.88-1.1,9.81-1.97,14.7-3.05c3.68-0.82,5.98-4.11,5.42-7.46c-0.62-3.67-3.64-6.01-7.5-5.7c-1.44,0.11-2.88,0.41-4.3,0.68
		c-21.06,4.08-41.58,10.07-61.57,17.82c-27.41,10.61-53.25,24.13-76.5,42.28c-16.55,12.92-31.02,27.83-42.73,45.33
		c-6.35,9.5-11.68,19.55-15.96,30.15c-0.33,0.83-0.45,1.85-1.45,2.43c-0.47-0.8-0.9-1.49-1.27-2.18
		c-7.28-13.42-16.11-25.75-26.14-37.23c-19.04-21.83-41.43-39.61-66.09-54.62c-26.54-16.16-54.72-28.76-84.26-38.31
		c-7.06-2.28-14.23-4.24-21.4-6.16c-3.7-1-7.37,1.25-8.17,4.63c-0.9,3.81,1.03,7.13,4.86,8.24c2.25,0.66,4.54,1.18,6.79,1.82
		c26.57,7.56,52.13,17.65,76.54,30.6c24.69,13.09,47.58,28.71,67.83,48.06c11.08,10.59,20.97,22.19,29.54,34.92
		c0.49,0.73,0.92,1.49,1.39,2.24c-1.7-0.64-3.04-1.54-4.36-2.45c-34.64-23.76-71.46-43.47-110.39-59.22
		c-26.54-10.74-53.68-19.6-81.7-25.6c-2.61-0.55-5.23-1.14-7.87-1.4c-3.77-0.36-6.79,2.28-7.21,5.98c-0.38,3.33,2.04,6.46,5.53,7.17
		c1,0.21,2.01,0.41,3.01,0.6c-0.8,3.52-12.99,35.88-14.08,37.39c-1.57-0.51-3.17-1.02-4.78-1.54c-1.69-0.55-3.36-1.16-5.06-1.67
		c-4.27-1.27-7.87,0.73-8.89,5.05c-1.97,8.34-3.84,16.69-5.75,25.03c-0.52,2.29-0.08,4.45,1.61,6.04c1.07,1,2.5,1.8,3.91,2.26
		c28.77,9.41,57.56,18.76,86.34,28.11c43.68,14.2,87.36,28.39,131.04,42.58c6.68,2.17,13.35,4.38,20.05,6.48
		c1.4,0.44,2.25,1.07,2.46,2.56c0.13,0.92,0.46,1.81,0.77,2.98H120.46c-36.37,0-72.75,0-109.13,0.01c-1.28,0-2.61,0.04-3.84,0.34
		c-2.95,0.73-4.72,3.15-4.78,6.22c-0.05,3.12,1.56,5.61,4.46,6.44c1.29,0.37,2.71,0.39,4.06,0.39
		c186.25,0.02,372.48,0.02,558.73,0.02c0.73,0,1.46,0.01,2.18-0.01c3.88-0.09,6.72-2.74,6.85-6.41
		C579.13,425.16,576.52,422.24,572.69,421.88z M535.87,316.51c0.75-0.25,1.52-0.43,2.6-0.74c0.96,4.16,1.85,8,2.72,11.81
		c-1.59,1.04-222.65,73-225.72,73.47c0.12-0.66,0.17-1.29,0.33-1.88c0.79-2.88,1.72-5.73,2.4-8.63c0.37-1.62,1.19-2.4,2.75-2.9
		c6.38-2.02,12.73-4.18,19.09-6.28c49.8-16.49,99.6-32.97,149.4-49.46C504.92,326.78,520.39,321.63,535.87,316.51z M43.69,327.98
		c0.93-4.09,1.82-7.99,2.77-12.19c1.07,0.3,1.97,0.51,2.85,0.8c23.45,7.76,46.89,15.53,70.34,23.29
		c40.99,13.56,81.98,27.13,122.98,40.7c7.13,2.36,14.23,4.78,21.38,7.08c1.45,0.47,2.29,1.14,2.67,2.69c0.86,3.52,1.91,7,3.07,11.11
		C194.13,376.87,119.02,352.46,43.69,327.98z M275.07,376.45c-1.5-0.01-3.07-0.25-4.49-0.72c-49.58-16.39-99.15-32.81-148.72-49.23
		c-17.39-5.76-34.79-11.5-52.19-17.25c-0.84-0.27-1.67-0.56-2.78-0.95c1.67-4.51,3.28-8.85,4.97-13.41
		c2.67,0.44,5.21,0.79,7.72,1.29c19.1,3.86,37.84,9.02,56.02,16.08c13.58,5.26,26.68,11.54,38.99,19.37
		c2.05,1.3,4.14,2.18,6.61,1.33c2.32-0.8,3.88-2.32,4.44-4.71c0.59-2.55,0-4.83-1.99-6.61c-0.66-0.58-1.44-1.03-2.19-1.51
		c-19.07-11.98-39.63-20.64-61.05-27.39c-13.56-4.28-27.34-7.69-41.33-10.27c-0.71-0.12-1.41-0.33-2.39-0.58
		c1.51-4.08,2.97-8.05,4.53-12.27c0.93,0.19,1.78,0.33,2.61,0.54c24.18,6.01,47.66,14.11,70.69,23.56
		c47.06,19.31,90.74,44.45,130.85,75.78c0.89,0.69,1.75,1.43,2.64,2.13c2.87,2.25,6.08,2.29,8.9,0.01
		c10.19-8.24,20.79-15.91,31.62-23.27c30.36-20.64,62.49-38,96.27-52.35c22.69-9.64,45.93-17.71,69.71-24.21
		c2.57-0.7,5.16-1.33,7.75-1.97c0.38-0.09,0.79-0.1,1.47-0.19c1.52,4.09,2.98,8.02,4.55,12.23c-0.93,0.23-1.74,0.47-2.57,0.63
		c-28.63,5.32-56.3,13.71-82.46,26.65c-7.01,3.47-13.7,7.58-20.52,11.44c-2.35,1.33-3.7,3.32-3.65,6.12
		c0.09,4.66,4.7,7.79,9.06,6.12c0.52-0.2,1.02-0.49,1.49-0.79c16.99-10.86,35.34-18.73,54.43-25.02
		c15.36-5.07,31.01-8.95,46.91-11.85c0.63-0.11,1.27-0.1,2.15-0.17c1.62,4.38,3.23,8.73,4.91,13.24c-0.94,0.36-1.67,0.68-2.41,0.92
		c-67.12,22.22-134.25,44.43-201.38,66.62c-1.35,0.44-2.83,0.68-4.26,0.69C298.35,376.51,286.71,376.52,275.07,376.45z
		 M304.01,391.81c-2.37,8.37-4.76,16.73-7.12,25.1c-0.47,1.68-1.25,3.12-2.72,4.15c-1.13,0.79-2.17,0.84-3.33,0.04
		c-1.57-1.07-2.34-2.59-2.84-4.35c-2.11-7.52-4.24-15.04-6.36-22.56c-0.36-1.3-0.7-2.61-1.04-3.89c2.01-0.66,21.48-0.71,23.76-0.08
		C304.24,390.74,304.15,391.29,304.01,391.81z"/>
	<path class="st11" d="M292.33,3.16c-69.64,0.06-125.36,57.69-123.66,126.66c1.62,66.04,54.94,120.98,123.76,120.98
		c68.17,0.01,122.62-54.01,123.77-121.14C417.47,56.37,358.49,3.07,292.33,3.16z M402.02,112.99c-0.74-0.19-1.13-0.23-1.48-0.39
		c-10-4.54-20.6-7-31.32-9.08c-12.62-2.46-25.36-3.93-38.17-4.92c-2.01-0.15-4-0.36-6.03-0.55c-1.28-12.7-2.56-25.28-3.87-38.23
		c7.11-1.83,14.28-4.16,21.2-7.21c6.95-3.07,13.53-6.82,20.1-11.02C384.72,60.38,397.87,84,402.02,112.99z M350.62,33.21
		c-10.25,6.14-20.63,10.69-32.15,13.42c-2.11-9.87-4.52-19.31-8.73-28.67C324.52,20.33,337.85,25.3,350.62,33.21z M311.67,149.23
		c-3.68,0.81-32.11,0.91-37.97,0.2c-0.92-2.71-1.33-32.71-0.46-38.46c12.73-0.55,25.52-0.47,38.53-0.04
		C312.57,123.88,312.12,136.59,311.67,149.23z M292.74,16.59c0.79,0.91,1.83,1.75,2.4,2.83c1.62,3.06,3.41,6.09,4.48,9.36
		c2.02,6.12,3.59,12.39,5.32,18.6c0.12,0.44,0.06,0.93,0.09,1.6c-8.45,1.05-16.77,0.99-25.08-0.02
		C279.84,40.12,287.82,19.72,292.74,16.59z M307.66,62.2c1.8,11.72,2.89,23.17,3.63,34.88h-37.25c-0.64-3.39,2.05-30.58,3.52-34.87
		C287.45,63.43,297.41,63.49,307.66,62.2z M275.15,17.95c-4.3,9.44-6.67,18.96-8.83,28.76c-11.77-2.71-22.79-6.78-33.7-12.48
		C245.77,25.69,259.64,20.39,275.15,17.95z M220.62,43.09c22.81,11.51,21.77,10.67,43.29,16.95c-0.74,6.24-1.59,12.52-2.22,18.83
		c-0.63,6.33-1.05,12.67-1.57,19.15c-2.3,0.21-4.46,0.44-6.61,0.61c-15.14,1.17-30.18,3.05-45.03,6.34
		c-8.2,1.81-16.28,4.07-23.96,7.56c-0.41,0.19-0.88,0.28-1.7,0.55C186.78,84.86,199.35,61.7,220.62,43.09z M185.24,127.32
		c4.64-3.03,9.84-4.8,15.1-6.39c9.91-3.01,20.04-5.02,30.29-6.31c8.41-1.06,16.85-1.86,25.28-2.75c1.1-0.12,2.22-0.01,3.63-0.01
		v36.69c-0.41,0.04-0.95,0.15-1.49,0.12c-19.59-1.41-39.05-3.65-57.98-9.21c-4.89-1.43-9.68-3.16-14.04-5.84
		c-1.41-0.87-2.66-2.01-4.41-3.37C183.14,129,184.12,128.06,185.24,127.32z M183.98,147.92c24.75,9.81,50.42,12.31,76.47,14.46
		c0.92,8.9,1.82,17.71,2.76,26.86c-16.08,3.73-31,10.43-44.84,19.92C200.32,192.47,188.89,172.32,183.98,147.92z M229.63,218.02
		c8.45-6.36,27.02-14.17,35.72-15.21c1.3,5.54,2.41,11.15,3.97,16.64c1.57,5.49,3.57,10.85,5.48,16.56
		C258.39,233.43,243.44,227.4,229.63,218.02z M305.54,203.88c-1.57,7.76-3.42,15.46-6.41,22.8c-1.08,2.68-2.5,5.23-3.93,7.76
		c-0.61,1.09-1.61,1.96-2.67,3.21c-0.96-1-1.91-1.67-2.43-2.58c-1.52-2.66-3.08-5.32-4.24-8.14c-3.44-8.4-5.39-17.23-7.17-26.59
		c9.25-0.99,18.19-0.79,27.34,0.52C305.85,202.02,305.73,202.96,305.54,203.88z M292.39,186.44c-5.22-0.1-10.44,0.17-15.99,0.29
		c-0.8-7.76-1.61-15.52-2.44-23.49h36.82c-0.41,8.02-1.35,15.97-2.47,24.09C302.95,187.02,297.67,186.55,292.39,186.44z
		 M309.62,236.13c4.94-10.73,7.46-21.64,9.73-32.82c13.2,3.11,25.74,7.38,38.31,13.02C343.15,226.78,327.45,233.21,309.62,236.13z
		 M389.59,179.85c-5.41,10.03-12.27,18.97-20.68,27.06c-15.21-7.38-30.93-12.9-47.29-16.8c0.96-9.29,1.91-18.41,2.88-27.76
		c2.88-0.23,5.77-0.43,8.64-0.68c19.58-1.72,39.02-4.22,57.84-10.19c3.21-1.02,6.35-2.29,9.9-3.57
		C398.79,159.34,394.98,169.87,389.59,179.85z M399.83,132.99c-3.52,1.77-7.04,3.6-10.72,4.99c-8.1,3.05-16.57,4.76-25.07,6.3
		c-11.13,2.02-22.36,3.22-33.62,4.21c-1.67,0.15-3.34,0.17-5.07,0.25v-36.93c1.35,0,2.53-0.11,3.7,0.02
		c9.46,1.06,18.93,2.03,28.37,3.28c9.2,1.22,18.3,3.07,27.17,5.85c4,1.24,7.9,2.82,11.74,4.48c2.41,1.04,4.71,2.43,6.41,4.59
		C402.18,131.59,401,132.4,399.83,132.99z"/>
</g>
</svg>
