<?xml version="1.0" encoding="utf-8"?>
<!-- Generator: Adobe Illustrator 28.2.0, SVG Export Plug-In . SVG Version: 6.00 Build 0)  -->
<svg version="1.1" id="Layer_1" xmlns="http://www.w3.org/2000/svg" xmlns:xlink="http://www.w3.org/1999/xlink" x="0px" y="0px"
	 viewBox="0 0 678.77 787.74" style="enable-background:new 0 0 678.77 787.74;" xml:space="preserve">
<style type="text/css">
	.st0{fill:#07294E;}
	.st1{fill:#0A2849;}
	.st2{fill:#0A2949;}
	.st3{fill:#0D2843;}
	.st4{fill:#FFFFFF;}
	.st5{fill:#0B2947;}
	.st6{fill:#0B2848;}
	.st7{fill:#0A2948;}
	.st8{fill:#0B2849;}
	.st9{fill:#0B2846;}
	.st10{fill:#0A2847;}
	.st11{fill:#082A4E;}
	.st12{fill:#0C2D51;}
	.st13{fill:#0B2C50;}
	.st14{fill:#092A4E;}
</style>
<g>
	<path class="st11" d="M677.35,769.36c-1.15-2.31-2.44-4.59-3.21-7.04c-4.9-15.51-4.64-30.77,2.77-45.55
		c1.18-2.37,1.88-4.79,1.77-7.45c-0.11-2.7-0.18-5.4-0.18-8.11V395.36c0-1.18,0.02-2.36-0.03-3.53c-0.32-7.36-5.5-12.44-12.91-12.64
		c-1.5-0.04-2.99,0-4.64,0c11.76-97.98-12.17-185.42-75.39-261.04C521.4,41.45,430.37,2.73,341.2,0.14
		C163.85-5.01,12.97,131.93,0.81,309.48c-3.6,52.46,4.8,103.12,25.34,151.6c22.06,52.04,55.3,95.76,99.59,130.78
		c66.81,52.82,143.18,76.02,228.41,71.65v4.5c0,22.69-0.03,45.39,0.02,68.08c0,3.64,0.14,7.29,0.49,10.9
		c2.58,26.85,26.43,40.82,44.24,40.75c86.55-0.33,173.1-0.15,259.65-0.15c2.82,0,5.65,0.12,8.46-0.05c1.6-0.1,3.29-0.42,4.73-1.09
		C678.16,783.45,680.56,775.86,677.35,769.36z M638.06,318.64c-2.6,0.83-135.56,1.14-141.88,0.33c-0.65-22.06-1.92-44.18-4.56-66.2
		c-2.62-21.92-6.39-43.63-11.35-65.4h121.91C624.04,228.41,636.04,272.16,638.06,318.64z M638.07,345.23
		c-0.42,11.41-1.5,22.46-3.33,33.69H494.88c0.48-11.32,0.95-22.42,1.43-33.69H638.07z M500.91,76.29
		c33.98,22.56,62.33,50.83,85.13,84.48c-0.24,0.42-0.28,0.53-0.36,0.62c-0.07,0.08-0.17,0.19-0.25,0.19
		c-36.67,0.06-73.33,0.1-110,0.14c-0.57,0-1.14-0.13-1.96-0.22c-0.6-1.9-1.21-3.77-1.79-5.66c-7.94-25.9-17.92-50.95-31.32-74.56
		c-9.02-15.9-19.3-30.88-31.98-44.12c-0.55-0.57-1-1.24-1.5-1.87C440.77,43.3,472.03,57.11,500.91,76.29z M470.7,319.15H194.17
		c-3.33-15.48,8.31-108.96,16.39-131.73h243.57C464.78,230.53,469.87,274.36,470.7,319.15z M282.48,47.05
		c6.67-5.83,13.85-10.89,21.88-14.7c19.38-9.21,38.6-8.75,57.63,1c10.9,5.58,20.19,13.28,28.6,22.1
		c13.26,13.91,23.47,29.92,32.34,46.85c9.3,17.74,16.64,36.28,22.75,55.33c0.32,1,0.55,2.04,0.77,3.06
		c0.05,0.19-0.14,0.43-0.29,0.85H217.71c0.19-0.9,0.25-1.47,0.42-2c7.99-25.03,17.81-49.26,31.41-71.83
		C258.63,72.63,269.17,58.71,282.48,47.05z M138.27,94.66c35.1-28.62,74.58-48.6,119.16-60.05c-0.85,1.18-1.23,1.86-1.74,2.39
		c-17.1,17.98-30.12,38.7-40.86,60.94c-9.36,19.39-16.91,39.49-23.14,60.09c-0.33,1.11-0.74,2.2-1.17,3.46H77.46
		C94.76,135.91,114.85,113.76,138.27,94.66z M25.84,314.97c0.86-14.79,2.69-29.47,5.68-43.99c5.79-28.13,15.3-54.94,28.55-80.43
		c1.33-2.56,2.81-3.43,5.66-3.42c37.97,0.1,75.94,0.06,113.91,0.06h4.18c-4.98,22.02-8.8,43.74-11.42,65.67
		c-2.63,21.93-3.89,43.96-4.61,66.24H25.83C25.83,317.69,25.76,316.33,25.84,314.97z M60.19,473.92
		c-14.76-28.48-25.16-58.44-30.24-90.13c-1.8-11.23-2.73-22.6-4.01-33.92c-0.15-1.38-0.02-2.8-0.02-4.69h141.96
		c1,44.24,5.76,87.93,15.86,131.3c-1.32,0.1-2.32,0.24-3.33,0.24c-38.55,0.01-77.1-0.02-115.65,0.06
		C62.38,476.79,61.24,475.95,60.19,473.92z M169.55,591.95C127.84,566.08,93.3,527.93,78,502.99c2.45-0.71,106.34-1,112.57-0.27
		c0.37,1.17,0.8,2.48,1.2,3.8c7.14,23.43,15.92,46.2,27.27,67.94c9.89,18.95,21.56,36.67,36.27,52.27c0.41,0.43,0.8,0.87,1.15,1.33
		c0.13,0.17,0.12,0.44,0.31,1.22C225.54,621.36,196.68,608.78,169.55,591.95z M353.92,634.31c-5.11,2.22-10.47,3.34-15.98,3.85
		c-17.8,1.66-33.29-4.32-47.41-14.59c-13.97-10.15-25.06-23.03-34.67-37.23c-13.45-19.88-23.42-41.51-31.72-63.95
		c-2-5.39-3.77-10.87-5.62-16.32c-0.33-0.98-0.54-2.01-0.8-3.01c2.6-0.78,131.36-1.01,136.2-0.25V634.31z M361.55,395.32
		c-5,6.7-7.38,14.38-7.4,22.74c-0.02,17.98,0,35.97,0,53.95v4.1c-2.8,0.74-138.74,0.97-143.99,0.27
		c-10.61-42.89-15.57-86.6-16.52-130.77c2.94-0.77,272.32-0.98,277.01-0.24c-0.16,11.32-0.53,22.43-1.65,33.81h-4.47
		c-23.74,0-47.49-0.05-71.23,0.03C380.06,379.25,369.43,384.75,361.55,395.32z M394.29,404.49c4.08,0.15,8.18,0.02,12.18,0.02
		c0.88,2.97,0.99,288.95,0.12,292.72c-8.95-0.25-17.93,0.21-26.76,4.59v-4.17c0-92.85,0.06-185.71-0.1-278.57
		C379.72,411.26,385.62,404.16,394.29,404.49z M647.52,762.38c-1.7,0.04-3.18,0.1-4.66,0.1H520.45c-39.39,0-78.78,0.02-118.18-0.03
		c-2.67,0-5.45-0.14-8.01-0.82c-9.61-2.56-15.46-11.67-14.32-21.88c1.02-9.08,9.32-16.66,18.74-17.1c1.29-0.06,2.59-0.04,3.88-0.04
		h245.06C644.55,736.04,644.9,748.99,647.52,762.38z M652.83,696.55c-0.09,0.1-0.17,0.18-0.25,0.26c-0.08,0.08-0.17,0.21-0.27,0.23
		c-0.45,0.08-0.92,0.21-1.38,0.21c-72.08,0-144.17,0-216.25-0.01c-0.45,0-0.9-0.14-1.3-0.2c-0.71-2.66-0.94-287.32-0.27-291.99
		c2.7-0.7,216.13-0.78,219.72-0.04V696.55z"/>
	<path class="st11" d="M630.39,466.67c0-8.11,0.07-16.22-0.02-24.33c-0.08-5.99-3.39-10.78-8.67-12.41
		c-1.86-0.58-3.92-0.68-5.9-0.68c-24.21-0.05-48.43-0.03-72.64-0.03c-24.57,0-49.14,0.12-73.71-0.06
		c-8.45-0.07-13.99,6.52-13.85,13.97c0.26,14.22,0.24,28.45,0.01,42.67c-0.13,7.55,5.2,14.12,14.08,14.09
		c48.9-0.15,97.8-0.15,146.7,0c9.25,0.03,14.31-7.11,14.05-14.17C630.21,479.38,630.4,473.02,630.39,466.67z M604.65,474.27H481.92
		c-0.82-2.48-1.03-13.88-0.36-18.78c2.44-0.78,118.47-1.01,123.09-0.19V474.27z"/>
	<path class="st11" d="M615.33,577.45c-1.18,5.26-4.57,8.67-9.93,9.82c-1.59,0.34-3.26,0.39-4.9,0.39
		c-38.32,0.02-76.64,0.02-114.96,0.01c-1.41,0-2.83-0.1-4.21-0.32c-6.64-1.04-11.13-6.46-10.89-13.06
		c0.24-6.4,5.41-11.7,11.96-12.19c1.29-0.09,2.59-0.05,3.88-0.05c18.92-0.01,37.85-0.01,56.77-0.01c19.4,0,38.79,0.02,58.19-0.01
		c3.37,0,6.56,0.48,9.29,2.64C614.69,567.97,616.48,572.29,615.33,577.45z"/>
	<path class="st11" d="M615.63,619.98c-0.07,6.56-5.03,11.94-11.55,12.47c-1.4,0.11-2.81,0.09-4.23,0.09H486.29
		c-1.53,0-3.07,0.03-4.58-0.13c-6.5-0.67-11.35-6.19-11.27-12.74c0.09-6.65,5.3-12.15,11.92-12.54c1.29-0.07,2.59-0.05,3.88-0.05
		h113.92c1.41,0,2.83-0.03,4.23,0.11C610.82,607.86,615.69,613.43,615.63,619.98z"/>
</g>
</svg>
