<?xml version="1.0" encoding="utf-8"?>
<!-- Generator: Adobe Illustrator 28.2.0, SVG Export Plug-In . SVG Version: 6.00 Build 0)  -->
<svg version="1.1" id="Layer_1" xmlns="http://www.w3.org/2000/svg" xmlns:xlink="http://www.w3.org/1999/xlink" x="0px" y="0px"
	 viewBox="0 0 995.12 227.3" style="enable-background:new 0 0 995.12 227.3;" xml:space="preserve">
<style type="text/css">
	.st0{fill:#B4D46F;}
	.st1{fill:#4F2D8A;}
	.st2{fill:#112A4C;}
	.st3{fill:#B6D36F;}
</style>
<g>
	<path class="st0" d="M24.21,219.7c0,0,14.14,4.4,29.84,3.67c0,0,23.29,0.34,41.48-5.98c0,0,8.11-2.24,2.87-5.4
		c0,0-7.8-3.06-14.69-3.49c0,0-19.69-2.78-23.97-4.59c0,0-9.37-2.98-2.85-7.14c0,0,3.17-1.72,10.8-1.95c0,0,11.08-0.02,14.38-0.9
		c0,0,5.37-0.65,6.95-4.49c0,0,2.43-5.33,5.86-6.28c0,0,3.73-1.2,5-1.41c0,0,2.25-0.27,2.87-1.47c0,0-0.11,0.98-2.34,1.53
		c0,0-3.57,0.84-4.88,1.68c0,0-2.26,0.77-3.41,3.26c0,0-0.77,1.88-1.07,2.91c0,0-0.59,2.66-3.62,4.23c0,0-4.32,2.32-13.45,2.8
		c0,0-12.64,0.43-14.77,2.14c0,0-2.7,2.01,5.15,3.87c0,0,8.1,2.06,14.02,2.66c0,0,14.36,1.84,16.59,2.66c0,0,7.82,2.09,9.11,4.92
		c0,0,1.61,3.08-4.31,5.55c0,0-4.57,2.03-8.6,2.86c0,0-8.92,2.06-10.89,2.18c0,0-10.4,1.59-19.44,1.62
		C60.84,225.13,41.38,225.55,24.21,219.7z"/>
	<g>
		<path class="st0" d="M61.93,55.31c-0.48,1.38-1.32,2.57-2.44,3.42c-2.43,1.86-6.08,3.86-6.08,3.86l6.23-1.74
			c-1.56,3.78-9.14,22.1-9.14,22.1c-4.11,10.69-2.05,21.15-2.05,21.15c-0.37,2.06-8.03,11.87-8.27,12.17
			c5.02-3.84,9.3-10.11,9.43-10.3c-0.56,2.9-5.5,12.44-5.65,12.74c0.83-1.16,5.57-6.9,5.57-6.9c2.05,3.97,1.86,16.59,1.73,20.89
			c-0.04,1.3-0.19,2.6-0.49,3.86c-2.95,12.43-16.2,24.61-16.2,24.61c1.19-0.48,4.53-2.63,4.53-2.63c-0.7,1.91-12.7,16.88-12.7,16.88
			c-4.67-28.65,1.95-68.65,1.95-68.65c-1.61,2.34-4.39,21.14-4.39,21.14c-2.78,12.06-0.89,44.77-0.59,49.65l6.74,0.02
			c0.53,0,1,0.42,1.03,0.98c0.02,0.32-0.1,0.6-0.29,0.81c-0.18,0.19-0.43,0.3-0.7,0.3l-15.24-0.06c-0.53,0-1-0.42-1.03-0.98
			c-0.02-0.32,0.1-0.6,0.29-0.81c0.18-0.19,0.43-0.3,0.7-0.3l6.73,0.02c-4.37-33.41,4.53-69.62,4.53-69.62
			C28.15,93.32,46.4,59.7,46.4,59.7c3.32-4.9,11.48-23.58,11.64-23.95c-2.25,3.07-22.8,41.8-22.8,41.8
			c-7.19,10.42-14.21,43.57-14.21,43.57c-4.51,19.31-1.31,54.45-1.31,54.45c-8.48-8.32-14.17-18.4-14.17-18.4l4.18,3.74
			c-10.67-16.56-9.7-28.57-9.7-28.57l2.15,2.16c-3.27-16.53,4.98-30.67,4.98-30.67c-0.91,15.96,4.84,25.54,5,25.82
			c-5.26-15.15-2.28-29.46-2.28-29.46c1.13-5.63,3.87-10.87,6.79-15.67c2.82-4.65,6.02-9.05,9.4-13.26
			c3.02-3.76,6.31-7.23,9.26-11.05c2.42-3.13,4.78-6.31,7.12-9.51c0.24-0.33,0.49-0.67,0.73-1.01c0.16,1.8,0.73,4.22,0.73,4.22
			c0.3-1.47,0.25-7.11,0.25-7.11l5.54-9.03c2.6-3.78,5.4-11.49,5.4-11.49l1.67,5.2C56.96,29.13,56.2,25,56.2,25
			c7.13-12.59,2.29-24.78,2.2-25C73.13,18.83,64.48,47.93,61.93,55.31z"/>
		<path class="st0" d="M33.06,201.19c-9.96,10.13-9.99,18.08-9.99,18.08l-0.07,0l0.07-18.41c0.78-0.27,1.34-1.04,1.34-1.95
			c0-1.13-0.86-2.06-1.93-2.06c-1.07,0-1.94,0.91-1.95,2.05c0,0.91,0.55,1.68,1.33,1.96l-0.07,18.2
			c-1.64-10.52-9.93-17.87-9.93-17.87c2.84-6.46,4.67-19.52,4.67-19.52l11.94,0.04C28.91,189.57,33.06,201.19,33.06,201.19z"/>
	</g>
	<path class="st1" d="M18.84,220.15l-0.03,0l0-0.21C18.82,220.01,18.83,220.08,18.84,220.15z"/>
	<g>
		<path class="st2" d="M86.5,92.08v68.8c0,7.12,3.71,10.68,10.82,10.68h20.02v24.17H96.88c-24.46,0-36.18-11.12-36.18-34.69V92.08
			H86.5z"/>
		<path class="st2" d="M136.47,89.12c7.41,0,13.49,5.93,13.49,13.34c0,7.41-6.08,13.49-13.49,13.49c-7.41,0-13.49-6.08-13.49-13.49
			C122.98,95.05,129.06,89.12,136.47,89.12z M124.76,122.33h23.43v73.39h-23.43V122.33z"/>
		<path class="st2" d="M184.36,104.39v17.94h18.24v21.5h-18.24v23.13c0,5.19,1.93,7.12,7.71,7.12h10.53v21.65H194
			c-22.39,0-32.62-9.49-32.62-30.39v-60.94H184.36z"/>
		<path class="st2" d="M247.97,197.06c-9.79,0-19.13-4-26.1-11.12c-7.12-7.27-10.97-16.61-10.97-26.98
			c0-10.38,3.85-19.72,10.97-26.98c6.97-7.12,16.16-10.97,26.1-10.97c14.83,0,26.98,8.01,34.69,23.13l-35.58,24.17l-8.9-13.49
			l19.27-13.35c-2.67-1.78-5.34-2.52-8.15-2.52c-8.9,0-16.31,7.71-16.31,17.94c0,10.38,7.27,18.09,16.16,18.09
			c8.45,0,16.01-5.19,21.2-14.97l17.5,8.45C280,186.97,265.32,197.06,247.97,197.06z"/>
		<path class="st2" d="M296.01,122.33h21.2v10.97c4.74-7.86,12.01-10.97,22.98-10.97c0.89,0,1.78,0,2.82,0v22.24
			c-0.3,0-0.74,0-1.04,0c-16.75,0-23.57,6.82-23.57,23.58v27.58h-22.39V122.33z"/>
		<path class="st2" d="M397.72,160.58c0-10.82-4.75-16.31-14.09-16.31c-7.56,0-13.05,5.63-13.05,14.53s5.34,14.68,14.23,14.68
			c2.37,0,5.34-0.74,9.19-1.93v24.02c-4.3,0.89-7.56,1.19-10.08,1.19c-21.5,0-36.92-16.01-36.92-37.96
			c0-22.24,15.72-37.96,36.92-37.96c14.83,0,27.58,8.15,33.51,21.2c3.26,7.12,3.26,14.53,3.26,22.98v30.69h-22.98V160.58z"/>
		<path class="st2" d="M433.46,122.33h21.2v10.97c4.75-7.86,12.01-10.97,22.98-10.97c0.89,0,1.78,0,2.82,0v22.24
			c-0.3,0-0.74,0-1.04,0c-16.75,0-23.57,6.82-23.57,23.58v27.58h-22.39V122.33z"/>
		<path class="st2" d="M509.82,163.99c0,6.82,4.45,11.56,10.68,11.56c6.23,0,10.67-4.74,10.67-11.56v-41.66h22.98v37.96
			c0,18.09-6.67,29.21-22.24,35.58v31.43h-22.98v-31.43c-15.72-6.67-22.09-17.49-22.09-35.58v-37.96h22.98V163.99z"/>
	</g>
	<g>
		<path class="st3" d="M634.76,153.38h-22.47v-5.97h22.34c14.62,0,23.96-12.08,23.96-25.97c0-16.67-11.51-25.7-25.31-25.83
			c-14.76,0-25.59,8.33-25.59,30.97v68.48h-7.31V123.8c0-20.14,14.48-34.86,32.76-34.72c19.63,0.42,32.63,15,33.03,32.5
			C666.3,133.8,656.01,153.38,634.76,153.38z"/>
		<path class="st3" d="M734.53,195.05v-29.72c0-20.97-10.97-34.31-28.56-34.86c-15.7-0.28-28.16,14.17-28.02,30.28
			c0,15.97,11.91,29.72,28.16,29.72c8.12,0.14,13.54-2.08,19.76-7.64l4.33-4.03v7.92l-4.74,3.75c-4.74,3.47-11.78,6.67-19.76,6.39
			c-19.76-0.69-35.47-17.5-34.79-37.36c0.68-19.31,15.97-34.45,34.66-34.72c19.9-0.14,35.6,15.56,35.6,37.64v32.64H734.53z"/>
		<path class="st3" d="M763.36,195.05V91.16h6.5v103.89H763.36z"/>
		<path class="st3" d="M848.78,195.05v-29.72c0-20.97-10.96-34.31-28.56-34.86c-15.7-0.28-28.16,14.17-28.02,30.28
			c0,15.97,11.91,29.72,28.16,29.72c8.12,0.14,13.54-2.08,19.76-7.64l4.33-4.03v7.92l-4.74,3.75c-4.74,3.47-11.78,6.67-19.76,6.39
			c-19.76-0.69-35.47-17.5-34.79-37.36c0.68-19.31,15.97-34.45,34.66-34.72c19.9-0.14,35.6,15.56,35.6,37.64v32.64H848.78z"/>
		<path class="st3" d="M899.41,195.05c-15.43,0-31.95-14.17-32.08-34.72c-0.27-16.81,13-35.56,36.69-35.56h8.26v5.97h-6.23
			c-20.31,0-31,11.95-31.68,29.03c-0.68,15.83,12.05,29.17,27.89,29.17h10.56v6.11H899.41z"/>
		<path class="st3" d="M959.78,196.16c-19.22,0-35.47-16.25-35.06-36.39c0.54-19.58,15.57-35.42,34.52-35.83
			c13.4-0.28,25.04,7.78,30.46,17.08l-48.19,33.2l-3.52-4.86l42.64-29.17c-5.55-6.67-12.59-10.14-21.93-10
			c-15.43,0.28-27.62,13.47-27.62,29.31c0,16.11,13.13,29.86,29.11,30c15.84,0.14,27.89-12.78,28.16-28.47h6.77
			C995.25,181.02,978.74,196.16,959.78,196.16z"/>
	</g>
</g>
</svg>
